<?xml version="1.0" encoding="UTF-8"?>
<svg id="Layer_2" data-name="Layer 2" xmlns="http://www.w3.org/2000/svg" viewBox="0 0 209.99 57.95">
  <defs>
    <style>
      .cls-1 {
        fill: #fff;
      }

      .cls-2 {
        fill: #202020;
      }
    </style>
  </defs>
  <g id="CONTACT">
    <g>
      <rect class="cls-1" x="1.62" y="1.49" width="207.52" height="54.94"/>
      <g>
        <path class="cls-2" d="m208.47,56.43c.09.28.28.12.24-.64l-.33-.54.09,1.18Z"/>
        <path class="cls-2" d="m209.08,51.31c-.16-.9-.44-1.93-.75-1.35.32.89.19,1.1.56,2.06.04.76-.11,1.33-.23,1.2.08.27-.07,1.18.14,1.59.26-.99.27-2.25.05-3.56.07-.28.16,0,.22.06Z"/>
        <path class="cls-2" d="m184.51,1.02l.48.04c-.13-.02-.3-.03-.48-.04Z"/>
        <path class="cls-2" d="m138.39.84c.35,0,.5-.04.52-.07-.33.02-.59.04-.52.07Z"/>
        <path class="cls-2" d="m130.52.48c.17,0,.31.02.46.02-.18-.03-.36-.05-.46-.02Z"/>
        <path class="cls-2" d="m184.51,1.02l-1.23-.1c-.09.11.63.08,1.23.1Z"/>
        <path class="cls-2" d="m208.28,41.04c.02.26.05.47.09.67-.01-.21-.02-.42-.04-.63-.02-.01-.03-.02-.05-.04Z"/>
        <path class="cls-2" d="m204.85.75h.37c.11-.04.21-.08.31-.14l-.69.14Z"/>
        <path class="cls-2" d="m209.92,12.8c.01-.35-.27-.48-.39-.61.12.2.17.46.19.77.05,0,.12-.04.2-.16Z"/>
        <path class="cls-2" d="m209.42,37.55l.04.44c-.01-.11-.03-.31-.04-.44Z"/>
        <path class="cls-2" d="m193.68.69s-.08-.08-.14-.1c0,.04.06.07.14.1Z"/>
        <path class="cls-2" d="m191.05,55.11s0,.03,0,.05c.09-.03.12-.05,0-.05Z"/>
        <path class="cls-2" d="m209.13,56.5l-.25.02c-.03.05-.05.11-.05.16l.3-.17Z"/>
        <path class="cls-2" d="m116.11.12s.04,0,.06,0c.38-.03.16-.03-.06,0Z"/>
        <path class="cls-2" d="m.45,19.3c.25-1.5.32,2.44.6.18-.11.21-.44-2.05-.6-.18Z"/>
        <path class="cls-2" d="m208.32,40.64c0-.21,0-.42,0-.64,0,.29,0,.49,0,.64Z"/>
        <path class="cls-2" d="m1.06,19.48h0l.03-.23c-.01.1-.02.15-.03.23Z"/>
        <path class="cls-2" d="m82.9.29c.07.05.2.09.34.12-.01-.03-.09-.06-.34-.12Z"/>
        <path class="cls-2" d="m107.64.69l-.61-.04c.24.03.44.03.61.04Z"/>
        <path class="cls-2" d="m70.06.68c-.33-.02-.45-.06-.9-.02.04.01.08.02.14.03.16-.04.38-.06.76-.01Z"/>
        <path class="cls-2" d="m56.69.68c.07.02.16.04.25.06.13,0,.29-.01.42-.01l-.67-.04Z"/>
        <path class="cls-2" d="m150.42,55.25c.29.08.48.17.62.25-.21-.2,1.76-.27-.62-.25Z"/>
        <path class="cls-2" d="m208.44,41.04c-.07-.08-.11-.19-.12-.4,0,.15.01.3.02.44.04.04.08.05.11-.05Z"/>
        <path class="cls-2" d="m69.51,2.9l-2.12-.04c.59.03,1.37.04,2.12.04Z"/>
        <path class="cls-2" d="m54.51,55.29l.49-.03c-.19,0-.36,0-.49.03Z"/>
        <path class="cls-2" d="m61.08,2.9c-.38-.1-.78-.16-1.2-.19-.09.02-.19.04-.25.07l1.44.12Z"/>
        <path class="cls-2" d="m151.04,55.5h0s0,0,0,0Z"/>
        <path class="cls-2" d="m165.03,54.84c-2.02,0-.95.36-1.38.57-2.42.1-1.12-.27-1.94-.46-1.51.1-2.67.44-3.79.42-.08-.06-.3-.08-.05-.16-1.59.29-4.73.01-6.59.38-.14-.03-.21-.06-.24-.09.3.19.35.37.29.51-.91,0-1.68.23-2.03,0,.56,0,.6-.09.86-.17l-.95.1c-.86-.35,1.3-.12,1.3-.38-1.85.11-4.01.4-5.44.3-.3-.34,3.32-.11,1.43-.42l2.2.13c-1.68-.54,1.34.04-.21-.54-2.89-.1-3.24.17-6.12.07-.65.19.21.28-.44.47-4.1.34-3.23-.85-6.24-.4-.78.23-1.08.66-3.23.43l.73-.38c-2.8-.04-1.6.55-4.53.29.52-.15,2.2-.13,1.78-.17-1.9-.3-1.34.22-2.8.22l-.3-.34c-2.98.05-6.27.3-9.57.36.18-.1.75-.21-.02-.31-4.16.17-8.89-.04-12.91-.24l-1.53.29c-.36,0-.66-.13-.28-.19-1.57-.11-.08.19-.83.3-.89.02-1.18-.17-.61-.26-2.76.25-7.87.54-10.78.22l.57-.09c-2.27-.12-2.56.6-4.66.33l.4-.05c-4.92-.13-10.36.14-14.11-.3-.71.42-4.87-.19-5.19.4-2.81-.29-2-.4-5.96-.59-1.06-.03-1.57.37-2.88.43l-.03-.31-1.77.32-.94-.37-1.23.08c.49.02,1.04.14.96.23-1.91.14-4.67-.21-4.71-.37l-4.53.26c.1-.12.86-.17,1.46-.25-2.42.31-.44-.32-2.65-.04.3.07-.16.18-.21.25-1.1-.19-3.62-.19-5.48-.11l.36-.21c-3.36-.05-7.08.1-10.85.1,1.35.1,1.04.47-.06.5l-.44-.33c-.71.2,1.15.12-.31.37-1.41-.04-.95-.37-.14-.48l-1.71.11c-.1-.1.3-.15.41-.27-.7.2-2.95-.33-3.97.02l-.1-.1c-3.77,0-5.48.11-8.55.13-.06.28-1.26.22-2.17.45-2.26-.09-4.76-.31-7.48-.29-1.91.14-.56.24-1.42.41-.26-.18-.66-.22-.69-.3.02-.04.04-.06.06-.06.03-.02.08-.04.14-.06-.04,0-.08,0-.09,0,0-.09,0-.18-.01-.26v-.12c0-.13-.01-.25-.01-.37-.01-.58-.03-1.11-.04-1.67-.03-1.12-.09-2.36-.19-4.33-.1.45-.15.95-.24.69-.04-.75.11-1.7.23-1.6l.03.2c-.38-4.63.75-10.69.21-14.37l.03.21-.28-3.82c.04-1.76.19,1.06.35-.25-.43-4.12.06-6.52-.22-9.91.76-2.63-.05-9.33.43-12.88l-.18.2c-.17-.92.1-1.11.14-1.79-.14.1-.16,1-.26.43-.02-.97-.04-1.95-.05-2.95,1.25.02,2.52.04,3.8.05,1.66.04,3.32.09,4.99.13,3.34.1,6.68.19,9.97.29,2.91.05,1.65-.92,5.33-.5l-1.04.33c5.88-.4,12.02.01,17.78-.32-.34.08-.35.18-.91.17,1.22.24,4.5.01,4.52-.18.9.02.21.18.76.28,1.22.14,3.06-.31,3.71-.07.11.04-.34.08-.57.1.79-.12,3.7.03,2.94-.25,2.16.13,4.13-.12,5.86.04,1.12-.31,3.7.15,4.05-.29-.15.45,3.79.36,5.15.15-.46.14,1.19.14.65.33,1.56,0,2.99-.09,2.72-.32,2.87.54,5.77-.44,7.39.26,4.63-.24,8.92-.41,13.08-.51-.15.45-4.6.04-4.43.52,3.95-.19,6.23-.57,10.15-.46,1.01.06-.58.2-.92.27,3.95-.19,7.63.04,11.15-.2,0,.04-.39.09-.75.12.69-.01,1.61.07,1.53-.14l-.68.06c-1.11-.3,2.75-.62,2.87-.78-1.17.59,3.47.15,1.6.89.46-.04,1.03-.14.92-.27.68.04.89.12.2.28,2.48-.11,1.6-.33,3.85-.32,0,.1-.46.14-.69.25,1.14-.19,2.28-.39,4.18-.3-.11.06.11.14-.46.14,3.26-.03,5.56-.52,9.13-.33-1.06.43,1.22.14,1.41.52l1.92-.11-.77-.18c1.69,0,3.17-.27,4.62-.14l-1.25.15,3.16-.07-1.79-.14c1.7-.19-.18-.47,2.06-.37-.46.04,1.69,0,2.56.22h0c.83-.12,1.69-.24,2.94-.15.32.12-.26.41-.05.49.82-.31,3.95-.09,4.99-.42-.35.08-.37.27-.25.31l.69-.25c.78.08.89.12.77.28,2.35.05-.75-.47,2.04-.27-.22.02-.11.06-.57.1,2.8.11,5.41-.16,7.98-.04.76.38-2.25.09-1.38.41,3.71-.07,7.68-.45,11.27-.36l-.67-.04c.5-.53,2.67.26,4.49.01-.44.04-.58.29-.46.24,2.46.09,5.02-.13,8.75-.3l-.46.14c1.45.12,3.81.07,5.38.13.46-.14,1.36-.11.82-.31,4.82.78,9.2-.42,13.48.23-.51,0-1.22.12-.81.12l3.65-.13c-.29-.23-.48-.14-1.24-.32.46-.14,1.49-.24,2.39-.24-1.64.15.01.37.72.5-.12-.07.12-.15.06-.22.21.04.38.07.5.09.1.02.17.02.23.02.12,0,.19-.05.27-.1.15-.11.33-.26,1.02-.25,0,.2-.02.47-.05.79-.04-.02-.08-.04-.12-.05.06.73.22,1.75.19,2.77-.27.44-.12-1.04-.34-1.1.02,1.47.51,2.91.24,4.24-.07-.63-.08-1.53-.15-2.15-.31,1.45-.23,1.62-.28,2.7v-.11s-.14,2.5-.14,2.5l.09-.64c.7,1.84.13,3.76.58,6.24-.43-2.41-.25-.4-.55-.58-.08.63-.18,1.6-.26,1.32.24,1.17-.19,1.96.16,3.62-.1.07,0,1.26-.25.99.08,1.53.17-.36.29-.23.33,2.35-.4,5.53.05,8.92.19,2.92.52,3.46.68,6.17-.16.91-.36-.75-.36-.75-.14,1.47-.12,2.58,0,3.97-.08-.28-.16,0-.27.43.03,1.12.35.75.21,2.22-.11-.25-.28-.58-.39-1.11.09,1.31.27,2.61.36,3.97-.17.36-.26-.82-.37-1.3.08,1.53.15,3.96.42,4.43l.1-.98c.01.56-.23.29-.28-.12-.21-1.31.09-1.89.19-1.96l.06.97c.57-1-.09-3.89-.06-5.84l.42.81-.35-2c.11-.43.34-.72.4.25.21-1.4-.15-1.24.08-2.44.04-.13.06-.07.07.05l-.12-1.37c.09.27.29-.23.23.61.24-2.45-.31-3.95,0-4.88l.03.2c-.14-3.4-.31-.33-.66-2.88l.75-1.72-.31-.33c.01-.35.03-1.05.16-.92-.21-1.31-.13.22-.33-.54.28-1.69-.13-4.66.36-5.04-.23-.61-.18,1.62-.34-.19.52-.51-.09-2.09.15-3.63.27.47.13,1.94.37.39-.46-.93.1-3.01.01-4.31-.36-.06-.15-2.83-.27-5.02.06.07.11-.96.16-2.26.06-1.47.12-3.25.17-4.4l.06.04c-.07-.05-.12-.18-.16-.38-.59.09-1.36.13-2.17.15-.66.02-1.38.04-2.01.06.06-.22.33-.31,1.16-.41h-1.43c-.34.12-.79.18-1.72.22l.36-.27c-1.91.02-3.85.32-6.3.14-.14.26,1.95.71-.64.88-.1-.14-.19-.38.49-.43-.22.02-.79.11-1.24.06l1.04-.23c-1.12-.1-.59.19-1.48.17.02-.2-.66-.14-.53-.3.23-.02.78.08,1.12,0-1.01-.04-2.23-.15-2.63-.3.09.11,0,.27-.74.29-1.91.01-.65-.24-1.77-.34-.46.14-1.68,0-1.71.29-.56,0-.66-.14-.88-.22-.99.13-4.62.04-3.5.35l.25.02s-.1,0-.16.01h0,0c-3.24.29-6.73-.17-9.94-.04v-.1c-1.91.11-4.27.07-5.64.28-.57,0-1.34-.18-1.1-.3-1.47.07-1.63.19-3.75.02,1.47-.17-.51-.15,1.51-.13-1.91-.09-2.34-.24-4.38.03.7-.25-1.43-.32-2.34-.24l1.34.18c-1.02.04-1.91.01-2.81,0l.49-.33c-3.9-.4-7.03.69-10,.01-1.03.23,2.12.16,1.2.44-1.79-.04-3.66-.52-4.23-.52-2.46-.18-2.29.49-4.86.36.33.12.64.44-1.28.55-1.8-.04-2.21-.5-1.07-.59.43-.01.64.03.62.07.58-.04,1.34-.09.63-.22l-.23.12c-.89-.12-3.36-.11-2.78-.3-1.36.11-.58.19.42.26-2.3-.17-3.6,0-5.97-.12.38.07.72.2.35.2-3.48-.15-1.53.23-3.89.28-1.34-.18.48-.43-1.89-.28-1.45-.12-.31-.31.27-.41-2.16.23-4.04-.15-5.27-.19l1.14-.1c-.68.06-1.24.06-1.81.05l.65.24c-.67-.04-1.23-.04-1.22-.14-.69.16.53.39-.84.61-.89-.12-2.71.13-3.02-.19,2.8.11-.31-.32,2.06-.37-.46.04-1.02.04-1.69,0-.1-.04.09-.07.28-.08-2.68-.28-1.23.36-4.01.35.35-.18-.64-.34-1.1-.3,1.12,0,.54.3-.49.43-1.78-.14-1.94.1-2.87.09l1.06.07c-.36.18-1.25.15-2.49.21-.11-.14,1.13-.09.68-.16-1.38.31-3.12-.32-5.04-.11-.89-.12-.09-.33-.87-.42-2.15.23-2.33-.24-4.6-.05.65.24.77.18-.83.41l3.72-.17-2.39.35c1.12,0,2.37-.15,3.04-.11-1.14.19-1.02.14-.48.33-1.54-.36-3.05.21-4.83-.03l.05-.59c-2.67-.26-4.75.3-8.22.15l1.12.1c-.47.23-2.14.03-3.27.13.1-.2-.6-.27-1.08-.39.06.15-2.54-.01-2.85.38l-1.55-.26c-2.8-.11-3.2.56-5.89.5.81-.21-.41-.35,1.39-.51-.9,0-1.71-.04-1.72.1-.53-.12-2.49.27-3.32.08-.38.09-.5.29-1.51.28-.11-.04,0-.1,0-.1,0,.1-1.58.13-.7.35-2.77-.62-7.74.04-10.15-.48-1.96.07-4.33.13-6.11.14.11-.06,0-.1.34-.08-2.46-.18-1.51.57-4.31.36-1.43-.32,1.49-.17.59-.29-.39-.65-3.38.09-5.26-.29l.46-.04c-1.44-.22-3.51.25-5.86.2,0,0,.11-.06.01-.1-1.61.33-4.65.44-6.91.53.7-.25,1.03-.13.6-.39-1.01.04.3.41-1.73.49-.66-.14-2.12-.26-2.31-.54h1.91c-.98-.37-2.47,0-3.48-.06l.13-.16c-2.92.05-2.97.44-6.11.42l.32.12c-1.72.39-1.44-.22-3.15.07l-.52-.39c-1.13.1-3.97.38-6,.46,1.15-.29,3.53-.44,5-.62-1.12,0-3.82.03-4.4.22.45-.04,1.02-.13,1.47-.07-1.38.31-3.19.46-5.43.46.13-.25-.45-.36-1.34-.41-.45-.03-.97-.04-1.53-.05-.82,0-1.68-.02-2.51-.03-.01.87-.04,1.77-.08,2.48-.05.5-.11.92-.22,1.2.28,3.96-.12,7.86-.08,12.47.6-1.64.02,1.35.63,1.06.04,1.07.03,1.48-.01,1.58l-.37,3.26c-.18.77-.13-1.02-.27-.92-.05,2.35-.26.99-.42,2.54.22-.32.31.82.23,2.16l.28-1.89c.33,3.29-.51,2.84-.19,6.16l-.19-1.05c.11,1.7,0,6.27.49,7.94-.07.3-.24.7-.28-.05-.07,4.06.52,9.05.22,12.21l-.15-.31c.04.76.28,1.32.13,2.27-.06-.05-.15-.31-.16.05.05.41.26,1.98.17,3.05l-.17-.89c0,.22-.02.44-.03.65,0,.34,0,.67-.01.99,0,.72,0,1.4.01,2.05.57-.01,1.13-.03,1.67-.04.26,0,.52-.02.78-.03l.38-.02.24-.02c.57-.06,1.12-.11,1.68-.16,1.1-.11,2.21-.23,3.5-.27,0,.44,3.11.58,4.67.65l-.05.06c4.62.05,7.84-.36,12.12-.54,2.65.48,8.99.2,13.25.47-.65-.08.11-.34.86-.39,1,.09,2.77-.31,2.61.1h-.36c.75.39,2.81.28,4.42.29l.26-.53c4.2.77,11.01-.28,13.3.41,1.01-.13,2.27-.13,3.27-.26l-.05.28c2.81.07,4.21.11,7.68.04l-.71.2c1.96.02,2.47-.82,4.28-.83l.54.42c3.42,0,6.88.36,10.25-.02-.06.06-.16.18-.71.2,1.61.01,6.22.29,5.64-.29.04.38,3.53.04,5.37-.13l-.29.28c1.56-.36,1.61-.45,3.78-.55.52.04.45.22-.23.15,1.72.15,1.34-.26,3.42-.12l-.78.18c1.77.02,1.63-.07,2.6-.28,1.11-.11,3.35.07,3.61.32.24-.15,1.21-.36,2.25-.29.14.1-.24.15-.43.18,2.95.19,4.39-.32,6.43-.05.04.09.17.14.34.17-2.35,0-4.24-.02-4.06-.04,0,.26,1.9.3.39.66,1.52-.19,4.12-.61,5.97-.49.09.02.18.05.24.09l-.19.03c.43.03.81,0,1.17-.04.59.04.96.07,1.53.08.22.21,2.17.11,3.12.13-.08-.28,1.16-.24,0-.47.15.02-.18.03-.81.05-.14,0-.31.01-.4.03.02,0,.04-.02.06-.02-.62,0-1.43.01-2.35.02.75-.14,1.53-.26,2.57-.11.49-.18,1.02-.37,1.32-.45,1.29.39,3.79.6,4.14.85,2.89-.16,6.8-.1,8.62-.63.82-.07.94.15,1.25.23-.47.05-1.04.04-1.29.12,1.64-.14,4.86-.05,5.25-.42,2.07.17-1.16.34,1.68.28l-.38.11c5.59.59,9.09-.94,15.29-.18-.43-.05-.64-.07-.73-.13,7.07.33,14.56-.31,21.54.22,1.98.11,2.2-.13,3.41-.31l.43.3,2.07-.35c2.93-.26,5.08.74,8.79.26l-.48-.2c1.33.04,4.22-.12,4,.11.14-.04.44-.21.96-.11l.04.16,3.28-.27c2.54.11-.4.63,3.31.66,1.38-.06,3.92-.46,3.41-.57-.56,0-1.42-.1-1.46-.26l1.26-.08c.23-.47,1.2-.94-1.9-1.27l-2.16.28-.69-.23h1.81c-1.03-.23-1.68-.04-2.41.09-.17-.12-.48-.2-.9-.25l-2.12.44c-.26-.18.95-.36-.47-.46-.99.21.95.41-.69.54-1.03-.21-.73-.38-1.94-.2-.17-.12.09-.2.57-.25-1.08.14-2.85.06-3.41.31-1.07-.26-3.64.07-3.53-.37-.34.11-1.9.35-2.89.36,1.81-.53-3.7-.03-3.23-.6-1.34.47-4.83.21-7.2.47.13-.04.39-.11.6-.09-1.33-.04-1.72-.18-2.58-.27-.17.39-2.25.48-3.37.72-1.63-.38.99-.46.48-.82.08.32-2.84.32-2.28.58-1.25-.23-1.08-.11-1.72-.44-.22.49-1.16.08-2.2.38-1.81-.24-.47-.46-2.45-.31-.95-.15.82-.32.82-.32Zm-47.27.85h0c.41-.01.75-.02.98-.02-.2,0-.48.01-.98.02Zm-3.97,0c.48,0,1.09,0,1.72.01.14.1-.01.2-.41.19.22-.07-.72-.12-1.31-.2Zm8.4,1.95c-.63.04-.84-.02-.93-.07.3,0,.64-.02,1.1-.03.02,0,.05-.03.07-.03-.06.05-.13.1-.25.14Z"/>
        <path class="cls-2" d="m123.32,57.27c.09,0,.14-.02.26-.02-.13-.02-.25-.04-.38-.06-.08.03-.15.06-.22.09.11,0,.23,0,.34,0Z"/>
        <path class="cls-2" d="m185.08,1.07h-.08c.07,0,.13.02.18.03-.06-.01-.06-.02-.09-.03Z"/>
        <polygon class="cls-2" points="58.93 55.15 58.94 55.22 59.28 55.16 58.93 55.15"/>
        <path class="cls-2" d="m206.96,2.03s.12.05.29.07c-.01-.02-.14-.04-.29-.07Z"/>
        <path class="cls-2" d="m208.52,8.76l-.1,1.34c.06-.58.08-1,.1-1.34Z"/>
        <path class="cls-2" d="m208.38,16.03c.05.09.09.12.12.14,0,0,0-.01,0-.01l-.12-.13Z"/>
        <path class="cls-2" d="m108.14,2.57c-.1,0-.19,0-.28.01-.66.05-.21.03.28-.01Z"/>
        <path class="cls-2" d="m142.52,1.91c-.36.05-.72.1-1.11.13.61.02,1.09.03,1.11-.13Z"/>
        <path class="cls-2" d="m69.74,2.9h0c-.08,0-.15,0-.24,0h.23Z"/>
        <path class="cls-2" d="m139.82,2.04c.61.06,1.12.04,1.6,0-.5-.02-1.09-.05-1.6,0Z"/>
        <path class="cls-2" d="m208.26,47.52v.35s.02.01.03.04l-.03-.39Z"/>
        <path class="cls-2" d="m208.29,47.91l.03.39c0-.18,0-.33-.03-.39Z"/>
        <path class="cls-2" d="m208.39,49.12l-.07-.82c0,.28,0,.63.07.82Z"/>
        <path class="cls-2" d="m208.39,37.9l-.1-.11c.02.06.05.1.1.11Z"/>
        <path class="cls-2" d="m208.36,34.98c-.02.7-.22,1.75-.15,2.72l.08.09c-.15-.46.24-2.15.07-2.81Z"/>
        <path class="cls-2" d="m209.62,22.78l-.08,2.45c.11-.43.25-.99.28.12.32-3.09-.24.64-.2-2.57Z"/>
        <path class="cls-2" d="m209.77,15.18c.05,1.32.16-.02.22.05-.1-.83-.12-1.04-.22-.05Z"/>
        <path class="cls-2" d="m167.94.84l.13-.26c-1.01.04,0,.1-.13.26Z"/>
        <polygon class="cls-2" points="157.45 2.17 158.44 2.33 158.91 2.09 157.45 2.17"/>
        <polygon class="cls-2" points="151.25 .34 151.69 .31 150 .4 151.25 .34"/>
        <path class="cls-2" d="m59.06.44l.31.32c.69-.06.83-.41-.31-.32Z"/>
        <path class="cls-2" d="m19.27.76c-.43-.16-1.55-.26-2.24-.1.89.02,1.79.14,2.24.1Z"/>
        <polygon class="cls-2" points="48.38 57.68 47.58 57.78 49.08 57.69 48.38 57.68"/>
      </g>
    </g>
  </g>
</svg>