<?xml version="1.0" encoding="UTF-8"?>
<svg id="Layer_1" data-name="Layer 1" xmlns="http://www.w3.org/2000/svg" viewBox="0 0 22.83 20.32">
  <defs>
    <style>
      .cls-1 {
        fill: #083c7a;
      }
    </style>
  </defs>
  <path class="cls-1" d="M10.83,17.7L21.21,.46c.37-.61,.96-.62,1.34-.02h0c.37,.59,.38,1.57,.01,2.17L12.18,19.86c-.37,.61-.96,.62-1.34,.02h0c-.37-.59-.38-1.57-.01-2.17Z"/>
  <path class="cls-1" d="M.28,2.99L10.87,19.88c.37,.59,.97,.58,1.34-.02h0c.37-.61,.36-1.58-.01-2.17L1.61,.79c-.37-.59-.97-.58-1.34,.02h0c-.37,.61-.36,1.58,.01,2.17Z"/>
</svg>