<?xml version="1.0" encoding="UTF-8"?>
<svg id="Layer_2" data-name="Layer 2" xmlns="http://www.w3.org/2000/svg" viewBox="0 0 157.06 159.79">
  <defs>
    <style>
      .cls-1, .cls-2 {
        fill: #fff;
      }

      .cls-2 {
        opacity: .56;
      }

      .cls-3 {
        opacity: .55;
      }

      .cls-4 {
        fill: #9b9b3a;
      }

      .cls-5 {
        fill: #ffd200;
      }
    </style>
  </defs>
  <g id="mobileversion">
    <g>
      <g>
        <circle class="cls-5" cx="78.23" cy="78.23" r="78.23"/>
        <g class="cls-3">
          <path class="cls-4" d="m156.78,79.81c2.61,26.8-13.16,54.63-36.18,68.78-23.68,14.63-55.59,15.1-79.2.33-6.46-3.97-12.36-8.85-17.1-14.73,28.68,12.54,59.83,15.34,87.72,0,21.08-11.91,35.84-32.13,44.76-54.38h0Z"/>
        </g>
        <path class="cls-2" d="m28.01,33.19c2.66-3.47,6.96-8.28,13.39-12.89,6.06-4.34,11.86-6.97,16.06-8.54,1.82,2.02,3.65,4.04,5.47,6.06-3.94,1.49-9.74,4.13-15.68,8.72-5.78,4.47-9.49,9.07-11.71,12.29-2.51-1.88-5.02-3.77-7.53-5.65Z"/>
      </g>
      <g>
        <path d="m22.83,74.08l-1.63-5.87h.47c.39,1.41,1.28,4.66,1.42,5.35h0c.11-.55,1.07-3.79,1.49-5.35h.5c.39,1.44,1.33,4.88,1.42,5.34h0c.18-.83,1.17-3.94,1.57-5.34h.46l-1.8,5.87h-.52c-.39-1.38-1.3-4.78-1.4-5.29h0c-.15.76-1.06,3.83-1.48,5.29h-.51Z"/>
        <path d="m29.19,72.03c0,1.08.55,1.75,1.36,1.75s1.06-.44,1.21-.79h.43c-.18.55-.62,1.18-1.65,1.18-1.28,0-1.77-1.1-1.77-2.16,0-1.2.6-2.23,1.82-2.23,1.29,0,1.7,1.12,1.7,1.91,0,.12,0,.23,0,.34h-3.09Zm2.66-.37c0-.83-.46-1.49-1.28-1.49-.86,0-1.26.6-1.35,1.49h2.64Z"/>
        <path d="m38.75,73.79c0,1.34-.6,2.05-1.81,2.05-1.09,0-1.54-.61-1.64-1.25h.43c.15.58.63.86,1.23.86,1.09,0,1.39-.71,1.39-1.77v-.44c-.23.55-.64.84-1.4.84-.98,0-1.74-.8-1.74-2.1,0-1.41.81-2.2,1.8-2.2.86,0,1.22.4,1.34.74,0-.24.02-.54.03-.64h.39c0,.15-.02.81-.02,1.22v2.69Zm-3.1-1.83c0,1,.53,1.72,1.33,1.72,1.05,0,1.37-.7,1.37-1.79s-.34-1.72-1.34-1.72-1.36.83-1.36,1.79Z"/>
        <path d="m40.25,72.03c0,1.08.55,1.75,1.36,1.75s1.06-.44,1.21-.79h.43c-.18.55-.62,1.18-1.65,1.18-1.28,0-1.77-1.1-1.77-2.16,0-1.2.6-2.23,1.82-2.23,1.29,0,1.7,1.12,1.7,1.91,0,.12,0,.23,0,.34h-3.09Zm2.66-.37c0-.83-.46-1.49-1.28-1.49-.86,0-1.26.6-1.35,1.49h2.63Z"/>
        <path d="m44.41,69.88c.68,1.92,1.15,3.23,1.31,3.77h0c.09-.31.56-1.56,1.38-3.77h.44l-1.59,4.2h-.5l-1.49-4.2h.44Z"/>
        <path d="m48.49,72.03c0,1.08.55,1.75,1.36,1.75s1.06-.44,1.21-.79h.43c-.18.55-.62,1.18-1.65,1.18-1.28,0-1.77-1.1-1.77-2.16,0-1.2.6-2.23,1.82-2.23,1.29,0,1.7,1.12,1.7,1.91,0,.12,0,.23,0,.34h-3.09Zm2.66-.37c0-.83-.46-1.49-1.28-1.49-.86,0-1.26.6-1.35,1.49h2.64Z"/>
        <path d="m52.63,70.94c0-.37,0-.72,0-1.06h.41c.02.13.03.68.02.8.18-.43.53-.9,1.39-.9.75,0,1.41.42,1.41,1.58v2.72h-.42v-2.65c0-.75-.31-1.23-1.04-1.23-1,0-1.34.83-1.34,1.75v2.14h-.42v-3.14Z"/>
        <path d="m62.34,73.28c0,.37.03.66.06.8h-.4c-.03-.1-.06-.29-.08-.65-.14.31-.51.75-1.38.75-.97,0-1.39-.63-1.39-1.26,0-.92.71-1.34,1.97-1.34h.8v-.43c0-.42-.13-.98-1.08-.98-.85,0-.97.44-1.07.79h-.42c.05-.46.34-1.17,1.49-1.17.96,0,1.49.4,1.49,1.33v2.17Zm-.41-1.34h-.82c-.93,0-1.51.24-1.51.97,0,.53.38.89.97.89,1.2,0,1.37-.8,1.37-1.7v-.15Z"/>
        <path d="m63.75,74.08v-6.19h.42v6.19h-.42Z"/>
        <path d="m65.57,74.08v-6.19h.42v6.19h-.42Z"/>
        <path d="m67.49,72.03c0,1.08.55,1.75,1.36,1.75s1.06-.44,1.21-.79h.43c-.18.55-.62,1.18-1.65,1.18-1.28,0-1.77-1.1-1.77-2.16,0-1.2.6-2.23,1.82-2.23,1.29,0,1.7,1.12,1.7,1.91,0,.12,0,.23,0,.34h-3.09Zm2.66-.37c0-.83-.46-1.49-1.28-1.49-.86,0-1.26.6-1.35,1.49h2.64Z"/>
        <path d="m73.84,74.08v-6.19h.42v6.19h-.42Z"/>
        <path d="m75.75,72.03c0,1.08.55,1.75,1.36,1.75s1.06-.44,1.21-.79h.43c-.18.55-.62,1.18-1.65,1.18-1.28,0-1.77-1.1-1.77-2.16,0-1.2.6-2.23,1.82-2.23,1.29,0,1.7,1.12,1.7,1.91,0,.12,0,.23,0,.34h-3.09Zm2.66-.37c0-.83-.46-1.49-1.28-1.49-.86,0-1.26.6-1.35,1.49h2.64Z"/>
        <path d="m80.03,72.03c0,1.08.55,1.75,1.36,1.75s1.06-.44,1.21-.79h.43c-.18.55-.62,1.18-1.65,1.18-1.28,0-1.77-1.1-1.77-2.16,0-1.2.6-2.23,1.82-2.23,1.29,0,1.7,1.12,1.7,1.91,0,.12,0,.23,0,.34h-3.09Zm2.66-.37c0-.83-.46-1.49-1.28-1.49-.86,0-1.26.6-1.35,1.49h2.64Z"/>
        <path d="m84.18,71.03c0-.7,0-1.01,0-1.14h.41c0,.13.02.4.02.94.24-.63.78-1.01,1.46-1.04v.45c-.87.06-1.46.66-1.46,1.66v2.18h-.42v-3.05Z"/>
        <path d="m86.92,74.08v-6.19h.42v6.19h-.42Z"/>
        <path d="m88.75,67.89h.42v.81h-.42v-.81Zm0,1.99h.42v4.2h-.42v-4.2Z"/>
        <path d="m90.57,70.94c0-.37,0-.72,0-1.06h.41c.02.13.03.68.02.8.18-.43.53-.9,1.39-.9.75,0,1.41.42,1.41,1.58v2.72h-.42v-2.65c0-.75-.31-1.23-1.04-1.23-1,0-1.34.83-1.34,1.75v2.14h-.42v-3.14Z"/>
        <path d="m98.4,73.79c0,1.34-.6,2.05-1.81,2.05-1.09,0-1.54-.61-1.64-1.25h.43c.15.58.63.86,1.23.86,1.09,0,1.39-.71,1.39-1.77v-.44c-.23.55-.64.84-1.4.84-.98,0-1.74-.8-1.74-2.1,0-1.41.81-2.2,1.8-2.2.86,0,1.22.4,1.34.74,0-.24.02-.54.03-.64h.39c0,.15-.02.81-.02,1.22v2.69Zm-3.1-1.83c0,1,.53,1.72,1.33,1.72,1.05,0,1.37-.7,1.37-1.79s-.34-1.72-1.34-1.72-1.36.83-1.36,1.79Z"/>
        <path d="m99.89,72.03c0,1.08.55,1.75,1.36,1.75s1.06-.44,1.21-.79h.43c-.18.55-.62,1.18-1.65,1.18-1.28,0-1.77-1.1-1.77-2.16,0-1.2.6-2.23,1.82-2.23,1.29,0,1.7,1.12,1.7,1.91,0,.12,0,.23,0,.34h-3.09Zm2.66-.37c0-.83-.46-1.49-1.28-1.49-.86,0-1.26.6-1.35,1.49h2.63Z"/>
        <path d="m104.04,70.94c0-.37,0-.72,0-1.06h.41c.02.13.03.68.02.8.18-.43.53-.9,1.39-.9.75,0,1.41.42,1.41,1.58v2.72h-.42v-2.65c0-.75-.31-1.23-1.04-1.23-1,0-1.34.83-1.34,1.75v2.14h-.42v-3.14Z"/>
        <path d="m110.87,70.97c0-.36,0-.76,0-1.08h.41c0,.14.03.5.02.75.18-.42.56-.85,1.26-.85.59,0,1.05.29,1.22.83.21-.44.63-.83,1.37-.83.65,0,1.32.37,1.32,1.54v2.76h-.42v-2.71c0-.56-.2-1.17-.98-1.17s-1.18.65-1.18,1.47v2.42h-.41v-2.7c0-.61-.18-1.18-.96-1.18-.81,0-1.21.72-1.21,1.58v2.31h-.42v-3.11Z"/>
        <path d="m120.68,73.28c0,.37.03.66.06.8h-.4c-.03-.1-.06-.29-.08-.65-.14.31-.51.75-1.38.75-.97,0-1.39-.63-1.39-1.26,0-.92.71-1.34,1.97-1.34h.8v-.43c0-.42-.13-.98-1.08-.98-.85,0-.97.44-1.07.79h-.42c.05-.46.34-1.17,1.49-1.17.96,0,1.49.4,1.49,1.33v2.17Zm-.41-1.34h-.82c-.93,0-1.51.24-1.51.97,0,.53.38.89.97.89,1.2,0,1.37-.8,1.37-1.7v-.15Z"/>
        <path d="m122.01,69.88c.7,1.03,1,1.49,1.17,1.75h0c.2-.29.62-.89,1.22-1.75h.48l-1.46,2.03,1.49,2.17h-.5c-.6-.9-1.04-1.54-1.24-1.83h0c-.16.24-.54.81-1.22,1.83h-.49l1.49-2.13-1.42-2.06h.5Z"/>
        <path d="m125.76,67.89h.42v.81h-.42v-.81Zm0,1.99h.42v4.2h-.42v-4.2Z"/>
        <path d="m127.58,70.97c0-.36,0-.76,0-1.08h.41c0,.14.03.5.02.75.18-.42.56-.85,1.26-.85.59,0,1.05.29,1.22.83.21-.44.63-.83,1.37-.83.65,0,1.32.37,1.32,1.54v2.76h-.42v-2.71c0-.56-.2-1.17-.98-1.17s-1.18.65-1.18,1.47v2.42h-.41v-2.7c0-.61-.18-1.18-.96-1.18-.81,0-1.21.72-1.21,1.58v2.31h-.42v-3.11Z"/>
        <path d="m137.39,73.28c0,.37.03.66.06.8h-.4c-.03-.1-.06-.29-.08-.65-.14.31-.51.75-1.38.75-.97,0-1.39-.63-1.39-1.26,0-.92.71-1.34,1.97-1.34h.8v-.43c0-.42-.13-.98-1.08-.98-.85,0-.97.44-1.07.79h-.42c.05-.46.34-1.17,1.49-1.17.96,0,1.49.4,1.49,1.33v2.17Zm-.41-1.34h-.82c-.93,0-1.51.24-1.51.97,0,.53.38.89.97.89,1.2,0,1.37-.8,1.37-1.7v-.15Z"/>
        <path d="m138.8,74.08v-6.19h.42v6.19h-.42Z"/>
        <path d="m140.71,72.03c0,1.08.55,1.75,1.36,1.75s1.06-.44,1.21-.79h.43c-.18.55-.62,1.18-1.65,1.18-1.28,0-1.77-1.1-1.77-2.16,0-1.2.6-2.23,1.82-2.23,1.29,0,1.7,1.12,1.7,1.91,0,.12,0,.23,0,.34h-3.09Zm2.66-.37c0-.83-.46-1.49-1.28-1.49-.86,0-1.26.6-1.35,1.49h2.63Z"/>
        <path d="m21.67,84.71v-6.19h.42v6.19h-.42Z"/>
        <path d="m23.59,82.66c0,1.08.55,1.75,1.36,1.75s1.06-.44,1.21-.79h.43c-.18.55-.62,1.18-1.65,1.18-1.28,0-1.77-1.1-1.77-2.16,0-1.2.6-2.23,1.82-2.23,1.29,0,1.7,1.12,1.7,1.91,0,.12,0,.23,0,.34h-3.09Zm2.66-.37c0-.83-.46-1.49-1.28-1.49-.86,0-1.26.6-1.35,1.49h2.63Z"/>
        <path d="m27.87,82.66c0,1.08.55,1.75,1.36,1.75s1.06-.44,1.21-.79h.43c-.18.55-.62,1.18-1.65,1.18-1.28,0-1.77-1.1-1.77-2.16,0-1.2.6-2.23,1.82-2.23,1.29,0,1.7,1.12,1.7,1.91,0,.12,0,.23,0,.34h-3.09Zm2.66-.37c0-.83-.46-1.49-1.28-1.49-.86,0-1.26.6-1.35,1.49h2.63Z"/>
        <path d="m32.01,81.66c0-.7,0-1.01,0-1.14h.41c0,.13.02.4.02.94.24-.63.78-1.01,1.46-1.04v.45c-.87.06-1.46.66-1.46,1.66v2.18h-.42v-3.05Z"/>
        <path d="m35.18,82.68c.39-.41,1.56-1.6,2.12-2.17h.54l-1.66,1.67,1.87,2.53h-.52l-1.65-2.26-.7.67v1.59h-.42v-6.19h.42v4.15Z"/>
        <path d="m41.72,83.91c0,.37.03.66.06.8h-.4c-.03-.1-.06-.29-.08-.65-.14.31-.51.75-1.38.75-.97,0-1.39-.63-1.39-1.26,0-.92.71-1.34,1.97-1.34h.8v-.43c0-.42-.13-.98-1.08-.98-.85,0-.97.44-1.07.79h-.42c.05-.46.34-1.17,1.49-1.17.96,0,1.49.4,1.49,1.33v2.17Zm-.41-1.34h-.82c-.93,0-1.51.24-1.51.97,0,.53.38.89.97.89,1.2,0,1.37-.8,1.37-1.7v-.15Z"/>
        <path d="m43.13,81.57c0-.37,0-.72,0-1.06h.41c.02.13.03.68.02.8.18-.43.53-.9,1.39-.9.75,0,1.41.42,1.41,1.58v2.72h-.42v-2.65c0-.75-.31-1.23-1.04-1.23-1,0-1.34.83-1.34,1.75v2.14h-.42v-3.14Z"/>
        <path d="m47.73,83.55c.14.55.53.87,1.19.87.75,0,1.05-.34,1.05-.81s-.2-.71-1.14-.94c-1.08-.26-1.35-.59-1.35-1.14s.44-1.12,1.38-1.12,1.4.58,1.47,1.17h-.42c-.08-.35-.35-.79-1.07-.79s-.94.36-.94.7c0,.39.2.58,1.03.78,1.18.29,1.48.67,1.48,1.3,0,.76-.62,1.23-1.5,1.23-.96,0-1.49-.5-1.61-1.26h.43Z"/>
        <path d="m51.58,82.66c0,1.08.55,1.75,1.36,1.75s1.06-.44,1.21-.79h.43c-.18.55-.62,1.18-1.65,1.18-1.28,0-1.77-1.1-1.77-2.16,0-1.2.6-2.23,1.82-2.23,1.29,0,1.7,1.12,1.7,1.91,0,.12,0,.23,0,.34h-3.09Zm2.66-.37c0-.83-.46-1.49-1.28-1.49-.86,0-1.26.6-1.35,1.49h2.63Z"/>
        <path d="m55.72,81.57c0-.37,0-.72,0-1.06h.41c.02.13.03.68.02.8.18-.43.53-.9,1.39-.9.75,0,1.41.42,1.41,1.58v2.72h-.42v-2.65c0-.75-.31-1.23-1.04-1.23-1,0-1.34.83-1.34,1.75v2.14h-.42v-3.14Z"/>
        <path d="m65.79,78.53v4.98c0,.4,0,.79,0,1.21h-.4c-.02-.1-.03-.5-.03-.7-.21.51-.68.81-1.41.81-1.09,0-1.75-.89-1.75-2.15s.71-2.25,1.85-2.25c.84,0,1.17.36,1.3.63v-2.52h.42Zm-3.13,4.12c0,1.15.6,1.77,1.32,1.77,1.11,0,1.41-.76,1.41-1.9s-.26-1.7-1.33-1.7c-.83,0-1.39.66-1.39,1.84Z"/>
        <path d="m70.59,82.6c0,1.17-.65,2.21-1.9,2.21-1.13,0-1.84-.93-1.84-2.2,0-1.2.66-2.2,1.88-2.2,1.12,0,1.85.87,1.85,2.19Zm-3.29,0c0,1,.54,1.8,1.43,1.8s1.42-.75,1.42-1.8c0-.99-.5-1.8-1.43-1.8s-1.41.8-1.41,1.8Z"/>
        <path d="m75.11,82.6c0,1.17-.65,2.21-1.9,2.21-1.13,0-1.84-.93-1.84-2.2,0-1.2.66-2.2,1.88-2.2,1.12,0,1.85.87,1.85,2.19Zm-3.29,0c0,1,.54,1.8,1.43,1.8s1.42-.75,1.42-1.8c0-.99-.5-1.8-1.43-1.8s-1.41.8-1.41,1.8Z"/>
        <path d="m76.17,81.66c0-.7,0-1.01,0-1.14h.41c0,.13.02.4.02.94.24-.63.78-1.01,1.46-1.04v.45c-.87.06-1.46.66-1.46,1.66v2.18h-.42v-3.05Z"/>
        <path d="m81.54,82.68c.39-.41,1.56-1.6,2.12-2.17h.54l-1.66,1.67,1.87,2.53h-.52l-1.65-2.26-.7.67v1.59h-.42v-6.19h.42v4.15Z"/>
        <path d="m88.43,82.6c0,1.17-.65,2.21-1.9,2.21-1.13,0-1.84-.93-1.84-2.2,0-1.2.66-2.2,1.88-2.2,1.12,0,1.85.87,1.85,2.19Zm-3.29,0c0,1,.54,1.8,1.43,1.8s1.42-.75,1.42-1.8c0-.99-.5-1.8-1.43-1.8s-1.41.8-1.41,1.8Z"/>
        <path d="m89.58,83.55c.14.55.53.87,1.19.87.75,0,1.05-.34,1.05-.81s-.2-.71-1.14-.94c-1.08-.26-1.35-.59-1.35-1.14s.44-1.12,1.38-1.12,1.4.58,1.47,1.17h-.42c-.08-.35-.35-.79-1.07-.79s-.94.36-.94.7c0,.39.2.58,1.03.78,1.18.29,1.48.67,1.48,1.3,0,.76-.62,1.23-1.5,1.23-.96,0-1.49-.5-1.61-1.26h.43Z"/>
        <path d="m92.67,80.51h.78v-1.31h.42v1.31h1v.39h-1v2.73c0,.47.1.74.5.74.13,0,.3,0,.44-.05v.37c-.14.06-.34.08-.52.08-.54,0-.84-.27-.84-.94v-2.92h-.78v-.39Z"/>
        <path d="m95.79,82.66c0,1.08.55,1.75,1.36,1.75s1.06-.44,1.21-.79h.43c-.18.55-.62,1.18-1.65,1.18-1.28,0-1.77-1.1-1.77-2.16,0-1.2.6-2.23,1.82-2.23,1.29,0,1.7,1.12,1.7,1.91,0,.12,0,.23,0,.34h-3.09Zm2.66-.37c0-.83-.46-1.49-1.28-1.49-.86,0-1.26.6-1.35,1.49h2.64Z"/>
        <path d="m99.97,84.71v-6.19h.42v6.19h-.42Z"/>
        <path d="m105.19,82.6c0,1.17-.65,2.21-1.9,2.21-1.13,0-1.84-.93-1.84-2.2,0-1.2.66-2.2,1.88-2.2,1.12,0,1.85.87,1.85,2.19Zm-3.29,0c0,1,.54,1.8,1.43,1.8s1.42-.75,1.42-1.8c0-.99-.5-1.8-1.43-1.8s-1.41.8-1.41,1.8Z"/>
        <path d="m109.71,82.6c0,1.17-.65,2.21-1.9,2.21-1.13,0-1.84-.93-1.84-2.2,0-1.2.66-2.2,1.88-2.2,1.12,0,1.85.87,1.85,2.19Zm-3.29,0c0,1,.54,1.8,1.43,1.8s1.42-.75,1.42-1.8c0-.99-.5-1.8-1.43-1.8s-1.41.8-1.41,1.8Z"/>
        <path d="m110.86,83.55c.14.55.53.87,1.19.87.75,0,1.05-.34,1.05-.81s-.2-.71-1.14-.94c-1.08-.26-1.35-.59-1.35-1.14s.44-1.12,1.38-1.12,1.4.58,1.47,1.17h-.42c-.08-.35-.35-.79-1.07-.79s-.94.36-.94.7c0,.39.2.58,1.03.78,1.18.29,1.48.67,1.48,1.3,0,.76-.62,1.23-1.5,1.23-.96,0-1.49-.5-1.61-1.26h.43Z"/>
        <path d="m116.91,82.66c0,1.08.55,1.75,1.36,1.75s1.06-.44,1.21-.79h.43c-.18.55-.62,1.18-1.65,1.18-1.28,0-1.77-1.1-1.77-2.16,0-1.2.6-2.23,1.82-2.23,1.29,0,1.7,1.12,1.7,1.91,0,.12,0,.23,0,.34h-3.09Zm2.66-.37c0-.83-.46-1.49-1.28-1.49-.86,0-1.26.6-1.35,1.49h2.63Z"/>
        <path d="m121.03,80.51c.7,1.03,1,1.49,1.17,1.75h0c.2-.29.62-.89,1.22-1.75h.48l-1.46,2.03,1.49,2.17h-.5c-.6-.9-1.04-1.54-1.24-1.83h0c-.16.24-.54.81-1.22,1.83h-.49l1.49-2.13-1.42-2.06h.5Z"/>
        <path d="m125.12,84.09v2.3h-.42v-4.84c0-.34,0-.71,0-1.03h.41c.02.16.02.41.02.76.26-.5.72-.86,1.48-.86.99,0,1.68.83,1.68,2.09,0,1.51-.81,2.31-1.82,2.31-.74,0-1.13-.33-1.33-.72Zm2.71-1.57c0-.97-.47-1.7-1.3-1.7-1.02,0-1.44.64-1.44,1.78s.33,1.82,1.38,1.82c.87,0,1.36-.74,1.36-1.9Z"/>
        <path d="m129.49,82.66c0,1.08.55,1.75,1.36,1.75s1.06-.44,1.21-.79h.43c-.18.55-.62,1.18-1.65,1.18-1.28,0-1.77-1.1-1.77-2.16,0-1.2.6-2.23,1.82-2.23,1.29,0,1.7,1.12,1.7,1.91,0,.12,0,.23,0,.34h-3.09Zm2.66-.37c0-.83-.46-1.49-1.28-1.49-.86,0-1.26.6-1.35,1.49h2.64Z"/>
        <path d="m133.64,81.66c0-.7,0-1.01,0-1.14h.41c0,.13.02.4.02.94.24-.63.78-1.01,1.46-1.04v.45c-.87.06-1.46.66-1.46,1.66v2.18h-.42v-3.05Z"/>
        <path d="m136.01,80.51h.78v-1.31h.42v1.31h1v.39h-1v2.73c0,.47.1.74.5.74.13,0,.3,0,.44-.05v.37c-.14.06-.34.08-.52.08-.54,0-.84-.27-.84-.94v-2.92h-.78v-.39Z"/>
        <path d="m139.09,78.53h.42v.81h-.42v-.81Zm0,1.99h.42v4.2h-.42v-4.2Z"/>
        <path d="m140.87,83.55c.14.55.53.87,1.19.87.75,0,1.05-.34,1.05-.81s-.2-.71-1.14-.94c-1.08-.26-1.35-.59-1.35-1.14s.44-1.12,1.38-1.12,1.4.58,1.47,1.17h-.42c-.08-.35-.35-.79-1.07-.79s-.94.36-.94.7c0,.39.2.58,1.03.78,1.18.29,1.48.67,1.48,1.3,0,.76-.62,1.23-1.5,1.23-.96,0-1.49-.5-1.61-1.26h.43Z"/>
        <path d="m144.71,82.66c0,1.08.55,1.75,1.36,1.75s1.06-.44,1.21-.79h.43c-.18.55-.62,1.18-1.65,1.18-1.28,0-1.77-1.1-1.77-2.16,0-1.2.6-2.23,1.82-2.23,1.29,0,1.7,1.12,1.7,1.91,0,.12,0,.23,0,.34h-3.09Zm2.66-.37c0-.83-.46-1.49-1.28-1.49-.86,0-1.26.6-1.35,1.49h2.63Z"/>
        <path d="m24.55,94.54c0,.37.03.66.06.8h-.4c-.03-.1-.06-.29-.08-.65-.14.31-.51.75-1.38.75-.97,0-1.39-.63-1.39-1.26,0-.92.71-1.34,1.97-1.34h.8v-.43c0-.42-.13-.98-1.08-.98-.85,0-.97.44-1.07.79h-.42c.05-.46.34-1.17,1.49-1.17.96,0,1.49.4,1.49,1.33v2.17Zm-.41-1.34h-.82c-.93,0-1.51.24-1.51.97,0,.53.38.89.97.89,1.2,0,1.37-.8,1.37-1.7v-.15Z"/>
        <path d="m28.78,94.54c0,.37.03.66.06.8h-.4c-.03-.1-.06-.29-.08-.65-.14.31-.51.75-1.38.75-.97,0-1.39-.63-1.39-1.26,0-.92.71-1.34,1.97-1.34h.8v-.43c0-.42-.13-.98-1.08-.98-.85,0-.97.44-1.07.79h-.42c.05-.46.34-1.17,1.49-1.17.96,0,1.49.4,1.49,1.33v2.17Zm-.41-1.34h-.82c-.93,0-1.51.24-1.51.97,0,.53.38.89.97.89,1.2,0,1.37-.8,1.37-1.7v-.15Z"/>
        <path d="m30.19,92.2c0-.37,0-.72,0-1.06h.41c.02.13.03.68.02.8.18-.43.53-.9,1.39-.9.75,0,1.41.42,1.41,1.58v2.72h-.42v-2.65c0-.75-.31-1.23-1.04-1.23-1,0-1.34.83-1.34,1.75v2.14h-.42v-3.14Z"/>
        <path d="m36.39,91.14h.78v-1.31h.42v1.31h1v.39h-1v2.73c0,.47.1.74.5.74.13,0,.3,0,.44-.05v.37c-.14.06-.34.08-.52.08-.54,0-.84-.27-.84-.94v-2.92h-.78v-.39Z"/>
        <path d="m39.52,93.29c0,1.08.55,1.75,1.36,1.75s1.06-.44,1.21-.79h.43c-.18.55-.62,1.18-1.65,1.18-1.28,0-1.77-1.1-1.77-2.16,0-1.2.6-2.23,1.82-2.23,1.29,0,1.7,1.12,1.7,1.91,0,.12,0,.23,0,.34h-3.09Zm2.66-.37c0-.83-.46-1.49-1.28-1.49-.86,0-1.26.6-1.35,1.49h2.63Z"/>
        <path d="m45.87,89.16h.42v2.69c.2-.42.61-.81,1.44-.81.99,0,1.72.81,1.72,2.11s-.65,2.29-1.83,2.29c-.7,0-1.11-.29-1.33-.76,0,.27,0,.55-.02.66h-.41c0-.48,0-.96,0-1.43v-4.75Zm3.13,4c0-1.05-.52-1.72-1.32-1.72-1.05,0-1.42.71-1.42,1.81,0,.99.33,1.8,1.37,1.8.85,0,1.37-.7,1.37-1.89Z"/>
        <path d="m50.54,89.16h.42v.81h-.42v-.81Zm0,1.99h.42v4.2h-.42v-4.2Z"/>
        <path d="m52.46,93.29c0,1.08.55,1.75,1.36,1.75s1.06-.44,1.21-.79h.43c-.18.55-.62,1.18-1.65,1.18-1.28,0-1.77-1.1-1.77-2.16,0-1.2.6-2.23,1.82-2.23,1.29,0,1.7,1.12,1.7,1.91,0,.12,0,.23,0,.34h-3.09Zm2.66-.37c0-.83-.46-1.49-1.28-1.49-.86,0-1.26.6-1.35,1.49h2.63Z"/>
        <path d="m59.88,89.16v4.98c0,.4,0,.79,0,1.21h-.4c-.02-.1-.03-.5-.03-.7-.21.51-.68.81-1.41.81-1.09,0-1.75-.89-1.75-2.15s.71-2.25,1.85-2.25c.84,0,1.17.36,1.3.63v-2.52h.42Zm-3.13,4.12c0,1.15.6,1.77,1.32,1.77,1.11,0,1.41-.76,1.41-1.9s-.26-1.7-1.33-1.7c-.83,0-1.39.66-1.39,1.84Z"/>
        <path d="m61.38,93.29c0,1.08.55,1.75,1.36,1.75s1.06-.44,1.21-.79h.43c-.18.55-.62,1.18-1.65,1.18-1.28,0-1.77-1.1-1.77-2.16,0-1.2.6-2.23,1.82-2.23,1.29,0,1.7,1.12,1.7,1.91,0,.12,0,.23,0,.34h-3.09Zm2.66-.37c0-.83-.46-1.49-1.28-1.49-.86,0-1.26.6-1.35,1.49h2.63Z"/>
        <path d="m65.52,92.2c0-.37,0-.72,0-1.06h.41c.02.13.03.68.02.8.18-.43.53-.9,1.39-.9.75,0,1.41.42,1.41,1.58v2.72h-.42v-2.65c0-.75-.31-1.23-1.04-1.23-1,0-1.34.83-1.34,1.75v2.14h-.42v-3.14Z"/>
        <path d="m72.25,91.14c.68,1.92,1.15,3.23,1.31,3.77h0c.09-.31.56-1.56,1.38-3.77h.44l-1.59,4.2h-.5l-1.49-4.2h.44Z"/>
        <path d="m76.26,89.16h.42v.81h-.42v-.81Zm0,1.99h.42v4.2h-.42v-4.2Z"/>
        <path d="m80.9,94.54c0,.37.03.66.06.8h-.4c-.03-.1-.06-.29-.08-.65-.14.31-.51.75-1.38.75-.97,0-1.39-.63-1.39-1.26,0-.92.71-1.34,1.97-1.34h.8v-.43c0-.42-.13-.98-1.08-.98-.85,0-.97.44-1.07.79h-.42c.05-.46.34-1.17,1.49-1.17.96,0,1.49.4,1.49,1.33v2.17Zm-.41-1.34h-.82c-.93,0-1.51.24-1.51.97,0,.53.38.89.97.89,1.2,0,1.37-.8,1.37-1.7v-.15Z"/>
        <path d="m84.94,89.16v2.69c.23-.44.65-.81,1.39-.81.6,0,1.42.3,1.42,1.63v2.67h-.42v-2.58c0-.83-.38-1.3-1.07-1.3-.83,0-1.31.51-1.31,1.54v2.34h-.42v-6.19h.42Z"/>
        <path d="m89.23,93.29c0,1.08.55,1.75,1.36,1.75s1.06-.44,1.21-.79h.43c-.18.55-.62,1.18-1.65,1.18-1.28,0-1.77-1.1-1.77-2.16,0-1.2.6-2.23,1.82-2.23,1.29,0,1.7,1.12,1.7,1.91,0,.12,0,.23,0,.34h-3.09Zm2.66-.37c0-.83-.46-1.49-1.28-1.49-.86,0-1.26.6-1.35,1.49h2.63Z"/>
        <path d="m92.82,91.14h.78v-1.31h.42v1.31h1v.39h-1v2.73c0,.47.1.74.5.74.13,0,.3,0,.44-.05v.37c-.14.06-.34.08-.52.08-.54,0-.84-.27-.84-.94v-2.92h-.78v-.39Z"/>
        <path d="m101.5,93.23c0,1.17-.65,2.21-1.9,2.21-1.13,0-1.84-.93-1.84-2.2,0-1.2.66-2.2,1.88-2.2,1.12,0,1.85.87,1.85,2.19Zm-3.29,0c0,1,.54,1.8,1.43,1.8s1.42-.75,1.42-1.8c0-.99-.5-1.8-1.43-1.8s-1.41.8-1.41,1.8Z"/>
        <path d="m102.99,94.72v2.3h-.42v-4.84c0-.34,0-.71,0-1.03h.41c.02.16.02.41.02.76.26-.5.72-.86,1.48-.86.99,0,1.68.83,1.68,2.09,0,1.51-.81,2.31-1.82,2.31-.74,0-1.13-.33-1.33-.72Zm2.71-1.57c0-.97-.47-1.7-1.3-1.7-1.02,0-1.44.64-1.44,1.78s.33,1.82,1.38,1.82c.87,0,1.36-.74,1.36-1.9Z"/>
        <path d="m106.71,94.95l2.65-3.42h-2.52v-.39h3v.4l-2.62,3.4h2.71l-.1.39h-3.13v-.39Z"/>
        <path d="m110.9,93.29c0,1.08.55,1.75,1.36,1.75s1.06-.44,1.21-.79h.43c-.18.55-.62,1.18-1.65,1.18-1.28,0-1.77-1.1-1.77-2.16,0-1.2.6-2.23,1.82-2.23,1.29,0,1.7,1.12,1.7,1.91,0,.12,0,.23,0,.34h-3.09Zm2.66-.37c0-.83-.46-1.49-1.28-1.49-.86,0-1.26.6-1.35,1.49h2.64Z"/>
        <path d="m114.49,91.14h.78v-1.31h.42v1.31h1v.39h-1v2.73c0,.47.1.74.5.74.13,0,.3,0,.44-.05v.37c-.14.06-.34.08-.52.08-.54,0-.84-.27-.84-.94v-2.92h-.78v-.39Z"/>
        <path d="m116.97,91.14h.78v-1.31h.42v1.31h1v.39h-1v2.73c0,.47.1.74.5.74.13,0,.3,0,.44-.05v.37c-.14.06-.34.08-.52.08-.54,0-.84-.27-.84-.94v-2.92h-.78v-.39Z"/>
        <path d="m120.09,93.29c0,1.08.55,1.75,1.36,1.75s1.06-.44,1.21-.79h.43c-.18.55-.62,1.18-1.65,1.18-1.28,0-1.77-1.1-1.77-2.16,0-1.2.6-2.23,1.82-2.23,1.29,0,1.7,1.12,1.7,1.91,0,.12,0,.23,0,.34h-3.09Zm2.66-.37c0-.83-.46-1.49-1.28-1.49-.86,0-1.26.6-1.35,1.49h2.63Z"/>
        <path d="m124.24,92.2c0-.37,0-.72,0-1.06h.41c.02.13.03.68.02.8.18-.43.53-.9,1.39-.9.75,0,1.41.42,1.41,1.58v2.72h-.42v-2.65c0-.75-.31-1.23-1.04-1.23-1,0-1.34.83-1.34,1.75v2.14h-.42v-3.14Z"/>
        <path d="m130.96,91.14c.68,1.92,1.15,3.23,1.31,3.77h0c.09-.31.56-1.56,1.38-3.77h.44l-1.59,4.2h-.5l-1.49-4.2h.44Z"/>
        <path d="m137.75,94.54c0,.37.03.66.06.8h-.4c-.03-.1-.06-.29-.08-.65-.14.31-.51.75-1.38.75-.97,0-1.39-.63-1.39-1.26,0-.92.71-1.34,1.97-1.34h.8v-.43c0-.42-.13-.98-1.08-.98-.85,0-.97.44-1.07.79h-.42c.05-.46.34-1.17,1.49-1.17.96,0,1.49.4,1.49,1.33v2.17Zm-.41-1.34h-.82c-.93,0-1.51.24-1.51.97,0,.53.38.89.97.89,1.2,0,1.37-.8,1.37-1.7v-.15Z"/>
        <path d="m139.16,92.2c0-.37,0-.72,0-1.06h.41c.02.13.03.68.02.8.18-.43.53-.9,1.39-.9.75,0,1.41.42,1.41,1.58v2.72h-.42v-2.65c0-.75-.31-1.23-1.04-1.23-1,0-1.34.83-1.34,1.75v2.14h-.42v-3.14Z"/>
        <path d="m24.91,99.79v4.98c0,.4,0,.79,0,1.21h-.4c-.02-.1-.03-.5-.03-.7-.21.51-.68.81-1.41.81-1.09,0-1.75-.89-1.75-2.15s.71-2.25,1.85-2.25c.84,0,1.17.36,1.3.63v-2.52h.42Zm-3.13,4.12c0,1.15.6,1.77,1.32,1.77,1.11,0,1.41-.76,1.41-1.9s-.26-1.7-1.33-1.7c-.83,0-1.39.66-1.39,1.84Z"/>
        <path d="m29.45,104.75c0,.41,0,1.07,0,1.22h-.4c-.02-.11-.03-.39-.03-.73-.18.5-.6.83-1.35.83-.6,0-1.38-.23-1.38-1.52v-2.78h.41v2.68c0,.61.19,1.21,1.02,1.21.94,0,1.29-.53,1.29-1.73v-2.16h.42v2.97Z"/>
        <path d="m33.99,104.75c0,.41,0,1.07,0,1.22h-.4c-.02-.11-.03-.39-.03-.73-.18.5-.6.83-1.35.83-.6,0-1.38-.23-1.38-1.52v-2.78h.41v2.68c0,.61.19,1.21,1.02,1.21.94,0,1.29-.53,1.29-1.73v-2.16h.42v2.97Z"/>
        <path d="m35.39,102.92c0-.7,0-1.01,0-1.14h.41c0,.13.02.4.02.94.24-.63.78-1.01,1.46-1.04v.45c-.87.06-1.46.66-1.46,1.66v2.18h-.42v-3.05Z"/>
        <path d="m37.85,105.58l2.65-3.42h-2.52v-.39h3v.4l-2.62,3.4h2.71l-.1.39h-3.13v-.39Z"/>
        <path d="m44.84,105.17c0,.37.03.66.06.8h-.4c-.03-.1-.06-.29-.08-.65-.14.31-.51.75-1.38.75-.97,0-1.39-.63-1.39-1.26,0-.92.71-1.34,1.97-1.34h.8v-.43c0-.42-.13-.98-1.08-.98-.85,0-.97.44-1.07.79h-.42c.05-.46.34-1.17,1.49-1.17.96,0,1.49.4,1.49,1.33v2.17Zm-.41-1.34h-.82c-.93,0-1.51.24-1.51.97,0,.53.38.89.97.89,1.2,0,1.37-.8,1.37-1.7v-.15Z"/>
        <path d="m49.07,105.17c0,.37.03.66.06.8h-.4c-.03-.1-.06-.29-.08-.65-.14.31-.51.75-1.38.75-.97,0-1.39-.63-1.39-1.26,0-.92.71-1.34,1.97-1.34h.8v-.43c0-.42-.13-.98-1.08-.98-.85,0-.97.44-1.07.79h-.42c.05-.46.34-1.17,1.49-1.17.96,0,1.49.4,1.49,1.33v2.17Zm-.41-1.34h-.82c-.93,0-1.51.24-1.51.97,0,.53.38.89.97.89,1.2,0,1.37-.8,1.37-1.7v-.15Z"/>
        <path d="m50.48,102.86c0-.36,0-.76,0-1.08h.41c0,.14.03.5.02.75.18-.42.56-.85,1.26-.85.59,0,1.05.29,1.22.83.21-.44.63-.83,1.37-.83.65,0,1.32.37,1.32,1.54v2.76h-.42v-2.71c0-.56-.2-1.17-.98-1.17s-1.18.65-1.18,1.47v2.42h-.41v-2.7c0-.61-.18-1.18-.96-1.18-.81,0-1.21.72-1.21,1.58v2.31h-.42v-3.11Z"/>
        <path d="m60.09,105.35v2.3h-.42v-4.84c0-.34,0-.71,0-1.03h.41c.02.16.02.41.02.76.26-.5.72-.86,1.48-.86.99,0,1.68.83,1.68,2.09,0,1.51-.81,2.31-1.82,2.31-.74,0-1.13-.33-1.33-.72Zm2.71-1.57c0-.97-.47-1.7-1.3-1.7-1.02,0-1.44.64-1.44,1.78s.33,1.82,1.38,1.82c.87,0,1.36-.74,1.36-1.9Z"/>
        <path d="m67.2,105.17c0,.37.03.66.06.8h-.4c-.03-.1-.06-.29-.08-.65-.14.31-.51.75-1.38.75-.97,0-1.39-.63-1.39-1.26,0-.92.71-1.34,1.97-1.34h.8v-.43c0-.42-.13-.98-1.08-.98-.85,0-.97.44-1.07.79h-.42c.05-.46.34-1.17,1.49-1.17.96,0,1.49.4,1.49,1.33v2.17Zm-.41-1.34h-.82c-.93,0-1.51.24-1.51.97,0,.53.38.89.97.89,1.2,0,1.37-.8,1.37-1.7v-.15Z"/>
        <path d="m68.61,102.92c0-.7,0-1.01,0-1.14h.41c0,.13.02.4.02.94.24-.63.78-1.01,1.46-1.04v.45c-.87.06-1.46.66-1.46,1.66v2.18h-.42v-3.05Z"/>
        <path d="m70.99,101.77h.78v-1.31h.42v1.31h1v.39h-1v2.73c0,.47.1.74.5.74.13,0,.3,0,.44-.05v.37c-.14.06-.34.08-.52.08-.54,0-.84-.27-.84-.94v-2.92h-.78v-.39Z"/>
        <path d="m73.99,102.83c0-.37,0-.72,0-1.06h.41c.02.13.03.68.02.8.18-.43.53-.9,1.39-.9.75,0,1.41.42,1.41,1.58v2.72h-.42v-2.65c0-.75-.31-1.23-1.04-1.23-1,0-1.34.83-1.34,1.75v2.14h-.42v-3.14Z"/>
        <path d="m78.71,103.92c0,1.08.55,1.75,1.36,1.75s1.06-.44,1.21-.79h.43c-.18.55-.62,1.18-1.65,1.18-1.28,0-1.77-1.1-1.77-2.16,0-1.2.6-2.23,1.82-2.23,1.29,0,1.7,1.12,1.7,1.91,0,.12,0,.23,0,.34h-3.09Zm2.66-.37c0-.83-.46-1.49-1.28-1.49-.86,0-1.26.6-1.35,1.49h2.64Z"/>
        <path d="m82.85,102.92c0-.7,0-1.01,0-1.14h.41c0,.13.02.4.02.94.24-.63.78-1.01,1.46-1.04v.45c-.87.06-1.46.66-1.46,1.66v2.18h-.42v-3.05Z"/>
        <path d="m85.63,104.81c.14.55.53.87,1.19.87.75,0,1.05-.34,1.05-.81s-.2-.71-1.14-.94c-1.08-.26-1.35-.59-1.35-1.14s.44-1.12,1.38-1.12,1.4.58,1.47,1.17h-.42c-.08-.35-.35-.79-1.07-.79s-.94.36-.94.7c0,.39.2.58,1.03.78,1.18.29,1.48.67,1.48,1.3,0,.76-.62,1.23-1.5,1.23-.96,0-1.49-.5-1.61-1.26h.43Z"/>
        <path d="m92.47,104.74c-.2.74-.69,1.33-1.63,1.33-1.05,0-1.8-.78-1.8-2.18,0-1.15.61-2.22,1.85-2.22,1.07,0,1.5.76,1.58,1.34h-.43c-.13-.49-.44-.95-1.16-.95-.89,0-1.39.76-1.39,1.8s.47,1.8,1.35,1.8c.61,0,.98-.31,1.2-.94h.43Z"/>
        <path d="m93.89,99.79v2.69c.23-.44.65-.81,1.39-.81.6,0,1.42.3,1.42,1.63v2.67h-.42v-2.58c0-.83-.38-1.3-1.07-1.3-.83,0-1.31.51-1.31,1.54v2.34h-.42v-6.19h.42Z"/>
        <path d="m100.92,105.17c0,.37.03.66.06.8h-.4c-.03-.1-.06-.29-.08-.65-.14.31-.51.75-1.38.75-.97,0-1.39-.63-1.39-1.26,0-.92.71-1.34,1.97-1.34h.8v-.43c0-.42-.13-.98-1.08-.98-.85,0-.97.44-1.07.79h-.42c.05-.46.34-1.17,1.49-1.17.96,0,1.49.4,1.49,1.33v2.17Zm-.41-1.34h-.82c-.93,0-1.51.24-1.51.97,0,.53.38.89.97.89,1.2,0,1.37-.8,1.37-1.7v-.15Z"/>
        <path d="m102.75,105.35v2.3h-.42v-4.84c0-.34,0-.71,0-1.03h.41c.02.16.02.41.02.76.26-.5.72-.86,1.48-.86.99,0,1.68.83,1.68,2.09,0,1.51-.81,2.31-1.82,2.31-.74,0-1.13-.33-1.33-.72Zm2.71-1.57c0-.97-.47-1.7-1.3-1.7-1.02,0-1.44.64-1.44,1.78s.33,1.82,1.38,1.82c.87,0,1.36-.74,1.36-1.9Z"/>
        <path d="m107.4,105.35v2.3h-.42v-4.84c0-.34,0-.71,0-1.03h.41c.02.16.02.41.02.76.26-.5.72-.86,1.48-.86.99,0,1.68.83,1.68,2.09,0,1.51-.81,2.31-1.82,2.31-.74,0-1.13-.33-1.33-.72Zm2.71-1.57c0-.97-.47-1.7-1.3-1.7-1.02,0-1.44.64-1.44,1.78s.33,1.82,1.38,1.82c.87,0,1.36-.74,1.36-1.9Z"/>
        <path d="m111.77,103.92c0,1.08.55,1.75,1.36,1.75s1.06-.44,1.21-.79h.43c-.18.55-.62,1.18-1.65,1.18-1.28,0-1.77-1.1-1.77-2.16,0-1.2.6-2.23,1.82-2.23,1.29,0,1.7,1.12,1.7,1.91,0,.12,0,.23,0,.34h-3.09Zm2.66-.37c0-.83-.46-1.49-1.28-1.49-.86,0-1.26.6-1.35,1.49h2.64Z"/>
        <path d="m115.92,102.83c0-.37,0-.72,0-1.06h.41c.02.13.03.68.02.8.18-.43.53-.9,1.39-.9.75,0,1.41.42,1.41,1.58v2.72h-.42v-2.65c0-.75-.31-1.23-1.04-1.23-1,0-1.34.83-1.34,1.75v2.14h-.42v-3.14Z"/>
        <path d="m122.25,105.58l2.65-3.42h-2.52v-.39h3v.4l-2.62,3.4h2.71l-.1.39h-3.13v-.39Z"/>
        <path d="m129.74,103.86c0,1.17-.65,2.21-1.9,2.21-1.13,0-1.84-.93-1.84-2.2,0-1.2.66-2.2,1.88-2.2,1.12,0,1.85.87,1.85,2.19Zm-3.29,0c0,1,.54,1.8,1.43,1.8s1.42-.75,1.42-1.8c0-.99-.5-1.8-1.43-1.8s-1.41.8-1.41,1.8Z"/>
        <path d="m133.69,105.17c0,.37.03.66.06.8h-.4c-.03-.1-.06-.29-.08-.65-.14.31-.51.75-1.38.75-.97,0-1.39-.63-1.39-1.26,0-.92.71-1.34,1.97-1.34h.8v-.43c0-.42-.13-.98-1.08-.98-.85,0-.97.44-1.07.79h-.42c.05-.46.34-1.17,1.49-1.17.96,0,1.49.4,1.49,1.33v2.17Zm-.41-1.34h-.82c-.93,0-1.51.24-1.51.97,0,.53.38.89.97.89,1.2,0,1.37-.8,1.37-1.7v-.15Z"/>
        <path d="m135.1,105.97v-6.19h.42v6.19h-.42Z"/>
        <path d="m136.87,104.81c.14.55.53.87,1.19.87.75,0,1.05-.34,1.05-.81s-.2-.71-1.14-.94c-1.08-.26-1.35-.59-1.35-1.14s.44-1.12,1.38-1.12,1.4.58,1.47,1.17h-.42c-.08-.35-.35-.79-1.07-.79s-.94.36-.94.7c0,.39.2.58,1.03.78,1.18.29,1.48.67,1.48,1.3,0,.76-.62,1.23-1.5,1.23-.96,0-1.49-.5-1.61-1.26h.43Z"/>
        <path d="m22.09,115.98v2.3h-.42v-4.84c0-.34,0-.71,0-1.03h.41c.02.16.02.41.02.76.26-.5.72-.86,1.48-.86.99,0,1.68.83,1.68,2.09,0,1.51-.81,2.31-1.82,2.31-.74,0-1.13-.33-1.33-.72Zm2.71-1.57c0-.97-.47-1.7-1.3-1.7-1.02,0-1.44.64-1.44,1.78s.33,1.82,1.38,1.82c.87,0,1.36-.74,1.36-1.9Z"/>
        <path d="m29.46,115.38c0,.41,0,1.07,0,1.22h-.4c-.02-.11-.03-.39-.03-.73-.18.5-.6.83-1.35.83-.6,0-1.38-.23-1.38-1.52v-2.78h.41v2.68c0,.61.19,1.21,1.02,1.21.94,0,1.29-.53,1.29-1.73v-2.16h.42v2.97Z"/>
        <path d="m30.86,110.42h.42v2.69c.2-.42.61-.81,1.44-.81.99,0,1.72.81,1.72,2.11s-.65,2.29-1.83,2.29c-.7,0-1.11-.29-1.33-.76,0,.27,0,.55-.02.66h-.41c0-.48,0-.96,0-1.43v-4.75Zm3.13,4c0-1.05-.52-1.72-1.32-1.72-1.05,0-1.42.71-1.42,1.81,0,.99.33,1.8,1.37,1.8.85,0,1.37-.7,1.37-1.89Z"/>
        <path d="m35.5,116.6v-6.19h.42v6.19h-.42Z"/>
        <path d="m37.32,110.42h.42v.81h-.42v-.81Zm0,1.99h.42v4.2h-.42v-4.2Z"/>
        <path d="m39.24,114.55c0,1.08.55,1.75,1.36,1.75s1.06-.44,1.21-.79h.43c-.18.55-.62,1.18-1.65,1.18-1.28,0-1.77-1.1-1.77-2.16,0-1.2.6-2.23,1.82-2.23,1.29,0,1.7,1.12,1.7,1.91,0,.12,0,.23,0,.34h-3.09Zm2.66-.37c0-.83-.46-1.49-1.28-1.49-.86,0-1.26.6-1.35,1.49h2.63Z"/>
        <path d="m43.84,114.57c.39-.41,1.56-1.6,2.12-2.17h.54l-1.66,1.67,1.87,2.53h-.52l-1.65-2.26-.7.67v1.59h-.42v-6.19h.42v4.15Z"/>
        <path d="m47.09,117.56c.41-.81.56-1.56.59-2.03h.42c-.06.7-.33,1.53-.63,2.03h-.38Z"/>
        <path d="m51.83,115.98v2.3h-.42v-4.84c0-.34,0-.71,0-1.03h.41c.02.16.02.41.02.76.26-.5.72-.86,1.48-.86.99,0,1.68.83,1.68,2.09,0,1.51-.81,2.31-1.82,2.31-.74,0-1.13-.33-1.33-.72Zm2.71-1.57c0-.97-.47-1.7-1.3-1.7-1.02,0-1.44.64-1.44,1.78s.33,1.82,1.38,1.82c.87,0,1.36-.74,1.36-1.9Z"/>
        <path d="m59.2,115.38c0,.41,0,1.07,0,1.22h-.4c-.02-.11-.03-.39-.03-.73-.18.5-.6.83-1.35.83-.6,0-1.38-.23-1.38-1.52v-2.78h.41v2.68c0,.61.19,1.21,1.02,1.21.94,0,1.29-.53,1.29-1.73v-2.16h.42v2.97Z"/>
        <path d="m60.6,110.42h.42v2.69c.2-.42.61-.81,1.44-.81.99,0,1.72.81,1.72,2.11s-.65,2.29-1.83,2.29c-.7,0-1.11-.29-1.33-.76,0,.27,0,.55-.02.66h-.41c0-.48,0-.96,0-1.43v-4.75Zm3.13,4c0-1.05-.52-1.72-1.32-1.72-1.05,0-1.42.71-1.42,1.81,0,.99.33,1.8,1.37,1.8.85,0,1.37-.7,1.37-1.89Z"/>
        <path d="m65.24,116.6v-6.19h.42v6.19h-.42Z"/>
        <path d="m67.06,110.42h.42v.81h-.42v-.81Zm0,1.99h.42v4.2h-.42v-4.2Z"/>
        <path d="m68.97,114.55c0,1.08.55,1.75,1.36,1.75s1.06-.44,1.21-.79h.43c-.18.55-.62,1.18-1.65,1.18-1.28,0-1.77-1.1-1.77-2.16,0-1.2.6-2.23,1.82-2.23,1.29,0,1.7,1.12,1.7,1.91,0,.12,0,.23,0,.34h-3.09Zm2.66-.37c0-.83-.46-1.49-1.28-1.49-.86,0-1.26.6-1.35,1.49h2.64Z"/>
        <path d="m73.57,114.57c.39-.41,1.56-1.6,2.12-2.17h.54l-1.66,1.67,1.87,2.53h-.52l-1.65-2.26-.7.67v1.59h-.42v-6.19h.42v4.15Z"/>
        <path d="m78.69,114.25v.41h-2.11v-.41h2.11Z"/>
        <path d="m80.24,115.98v2.3h-.42v-4.84c0-.34,0-.71,0-1.03h.41c.02.16.02.41.02.76.26-.5.72-.86,1.48-.86.99,0,1.68.83,1.68,2.09,0,1.51-.81,2.31-1.82,2.31-.74,0-1.13-.33-1.33-.72Zm2.71-1.57c0-.97-.47-1.7-1.3-1.7-1.02,0-1.44.64-1.44,1.78s.33,1.82,1.38,1.82c.87,0,1.36-.74,1.36-1.9Z"/>
        <path d="m84.47,113.55c0-.7,0-1.01,0-1.14h.41c0,.13.02.4.02.94.24-.63.78-1.01,1.46-1.04v.45c-.87.06-1.46.66-1.46,1.66v2.18h-.42v-3.05Z"/>
        <path d="m87.15,110.42h.42v.81h-.42v-.81Zm0,1.99h.42v4.2h-.42v-4.2Z"/>
        <path d="m88.91,112.41c.68,1.92,1.15,3.23,1.31,3.77h0c.09-.31.56-1.56,1.38-3.77h.44l-1.59,4.2h-.5l-1.49-4.2h.44Z"/>
        <path d="m95.69,115.8c0,.37.03.66.06.8h-.4c-.03-.1-.06-.29-.08-.65-.14.31-.51.75-1.38.75-.97,0-1.39-.63-1.39-1.26,0-.92.71-1.34,1.97-1.34h.8v-.43c0-.42-.13-.98-1.08-.98-.85,0-.97.44-1.07.79h-.42c.05-.46.34-1.17,1.49-1.17.96,0,1.49.4,1.49,1.33v2.17Zm-.41-1.34h-.82c-.93,0-1.51.24-1.51.97,0,.53.38.89.97.89,1.2,0,1.37-.8,1.37-1.7v-.15Z"/>
        <path d="m96.43,112.41h.78v-1.31h.42v1.31h1v.39h-1v2.73c0,.47.1.74.5.74.13,0,.3,0,.44-.05v.37c-.14.06-.34.08-.52.08-.54,0-.84-.27-.84-.94v-2.92h-.78v-.39Z"/>
        <path d="m99.55,114.55c0,1.08.55,1.75,1.36,1.75s1.06-.44,1.21-.79h.43c-.18.55-.62,1.18-1.65,1.18-1.28,0-1.77-1.1-1.77-2.16,0-1.2.6-2.23,1.82-2.23,1.29,0,1.7,1.12,1.7,1.91,0,.12,0,.23,0,.34h-3.09Zm2.66-.37c0-.83-.46-1.49-1.28-1.49-.86,0-1.26.6-1.35,1.49h2.64Z"/>
        <path d="m106,114.55c0,1.08.55,1.75,1.36,1.75s1.06-.44,1.21-.79h.43c-.18.55-.62,1.18-1.65,1.18-1.28,0-1.77-1.1-1.77-2.16,0-1.2.6-2.23,1.82-2.23,1.29,0,1.7,1.12,1.7,1.91,0,.12,0,.23,0,.34h-3.09Zm2.66-.37c0-.83-.46-1.49-1.28-1.49-.86,0-1.26.6-1.35,1.49h2.63Z"/>
        <path d="m110.15,113.46c0-.37,0-.72,0-1.06h.41c.02.13.03.68.02.8.18-.43.53-.9,1.39-.9.75,0,1.41.42,1.41,1.58v2.72h-.42v-2.65c0-.75-.31-1.23-1.04-1.23-1,0-1.34.83-1.34,1.75v2.14h-.42v-3.14Z"/>
        <path d="m117.4,115.98v2.3h-.42v-4.84c0-.34,0-.71,0-1.03h.41c.02.16.02.41.02.76.26-.5.72-.86,1.48-.86.99,0,1.68.83,1.68,2.09,0,1.51-.81,2.31-1.82,2.31-.74,0-1.13-.33-1.33-.72Zm2.71-1.57c0-.97-.47-1.7-1.3-1.7-1.02,0-1.44.64-1.44,1.78s.33,1.82,1.38,1.82c.87,0,1.36-.74,1.36-1.9Z"/>
        <path d="m121.63,113.55c0-.7,0-1.01,0-1.14h.41c0,.13.02.4.02.94.24-.63.78-1.01,1.46-1.04v.45c-.87.06-1.46.66-1.46,1.66v2.18h-.42v-3.05Z"/>
        <path d="m124.3,110.42h.42v.81h-.42v-.81Zm0,1.99h.42v4.2h-.42v-4.2Z"/>
        <path d="m126.06,112.41c.68,1.92,1.15,3.23,1.31,3.77h0c.09-.31.56-1.56,1.38-3.77h.44l-1.59,4.2h-.5l-1.49-4.2h.44Z"/>
        <path d="m132.85,115.8c0,.37.03.66.06.8h-.4c-.03-.1-.06-.29-.08-.65-.14.31-.51.75-1.38.75-.97,0-1.39-.63-1.39-1.26,0-.92.71-1.34,1.97-1.34h.8v-.43c0-.42-.13-.98-1.08-.98-.85,0-.97.44-1.07.79h-.42c.05-.46.34-1.17,1.49-1.17.96,0,1.49.4,1.49,1.33v2.17Zm-.41-1.34h-.82c-.93,0-1.51.24-1.51.97,0,.53.38.89.97.89,1.2,0,1.37-.8,1.37-1.7v-.15Z"/>
        <path d="m133.59,112.41h.78v-1.31h.42v1.31h1v.39h-1v2.73c0,.47.1.74.5.74.13,0,.3,0,.44-.05v.37c-.14.06-.34.08-.52.08-.54,0-.84-.27-.84-.94v-2.92h-.78v-.39Z"/>
        <path d="m136.71,114.55c0,1.08.55,1.75,1.36,1.75s1.06-.44,1.21-.79h.43c-.18.55-.62,1.18-1.65,1.18-1.28,0-1.77-1.1-1.77-2.16,0-1.2.6-2.23,1.82-2.23,1.29,0,1.7,1.12,1.7,1.91,0,.12,0,.23,0,.34h-3.09Zm2.66-.37c0-.83-.46-1.49-1.28-1.49-.86,0-1.26.6-1.35,1.49h2.63Z"/>
        <path d="m21.67,121.05h.42v.81h-.42v-.81Zm0,1.99h.42v4.2h-.42v-4.2Z"/>
        <path d="m23.49,124.09c0-.37,0-.72,0-1.06h.41c.02.13.03.68.02.8.18-.43.53-.9,1.39-.9.75,0,1.41.42,1.41,1.58v2.72h-.42v-2.65c0-.75-.31-1.23-1.04-1.23-1,0-1.34.83-1.34,1.75v2.14h-.42v-3.14Z"/>
        <path d="m28.09,126.07c.14.55.53.87,1.19.87.75,0,1.05-.34,1.05-.81s-.2-.71-1.14-.94c-1.08-.26-1.35-.59-1.35-1.14s.44-1.12,1.38-1.12,1.4.58,1.47,1.17h-.42c-.08-.35-.35-.79-1.07-.79s-.94.36-.94.7c0,.39.2.58,1.03.78,1.18.29,1.48.67,1.48,1.3,0,.76-.62,1.23-1.5,1.23-.96,0-1.49-.5-1.61-1.26h.43Z"/>
        <path d="m31.19,123.04h.78v-1.31h.42v1.31h1v.39h-1v2.73c0,.47.1.74.5.74.13,0,.3,0,.44-.05v.37c-.14.06-.34.08-.52.08-.54,0-.84-.27-.84-.94v-2.92h-.78v-.39Z"/>
        <path d="m34.31,125.18c0,1.08.55,1.75,1.36,1.75s1.06-.44,1.21-.79h.43c-.18.55-.62,1.18-1.65,1.18-1.28,0-1.77-1.1-1.77-2.16,0-1.2.6-2.23,1.82-2.23,1.29,0,1.7,1.12,1.7,1.91,0,.12,0,.23,0,.34h-3.09Zm2.66-.37c0-.83-.46-1.49-1.28-1.49-.86,0-1.26.6-1.35,1.49h2.63Z"/>
        <path d="m38.49,127.23v-6.19h.42v6.19h-.42Z"/>
        <path d="m40.31,127.23v-6.19h.42v6.19h-.42Z"/>
        <path d="m42.13,121.05h.42v.81h-.42v-.81Zm0,1.99h.42v4.2h-.42v-4.2Z"/>
        <path d="m43.95,124.09c0-.37,0-.72,0-1.06h.41c.02.13.03.68.02.8.18-.43.53-.9,1.39-.9.75,0,1.41.42,1.41,1.58v2.72h-.42v-2.65c0-.75-.31-1.23-1.04-1.23-1,0-1.34.83-1.34,1.75v2.14h-.42v-3.14Z"/>
        <path d="m51.79,126.95c0,1.34-.6,2.05-1.81,2.05-1.09,0-1.54-.61-1.64-1.25h.43c.15.58.63.86,1.23.86,1.09,0,1.39-.71,1.39-1.77v-.44c-.23.55-.64.84-1.4.84-.98,0-1.74-.8-1.74-2.1,0-1.41.81-2.2,1.8-2.2.86,0,1.22.4,1.34.74,0-.24.02-.54.03-.64h.39c0,.15-.02.81-.02,1.22v2.69Zm-3.1-1.83c0,1,.53,1.72,1.33,1.72,1.05,0,1.37-.7,1.37-1.79s-.34-1.72-1.34-1.72-1.36.83-1.36,1.79Z"/>
        <path d="m53.28,125.18c0,1.08.55,1.75,1.36,1.75s1.06-.44,1.21-.79h.43c-.18.55-.62,1.18-1.65,1.18-1.28,0-1.77-1.1-1.77-2.16,0-1.2.6-2.23,1.82-2.23,1.29,0,1.7,1.12,1.7,1.91,0,.12,0,.23,0,.34h-3.09Zm2.66-.37c0-.83-.46-1.49-1.28-1.49-.86,0-1.26.6-1.35,1.49h2.64Z"/>
        <path d="m57.42,124.09c0-.37,0-.72,0-1.06h.41c.02.13.03.68.02.8.18-.43.53-.9,1.39-.9.75,0,1.41.42,1.41,1.58v2.72h-.42v-2.65c0-.75-.31-1.23-1.04-1.23-1,0-1.34.83-1.34,1.75v2.14h-.42v-3.14Z"/>
        <path d="m61.76,127.23v-1.08h.42v1.08h-.42Z"/>
      </g>
      <g>
        <rect x="47.75" y="31.72" width="74.3" height="28.93" transform="translate(7.05 -11.08) rotate(7.79)"/>
        <g>
          <path class="cls-1" d="m74.63,37.59l-6.43,12.61-4.17-.72-2.02-14.07,4.31.74.86,7.63c.07.45.12.9.16,1.33l3.93-8.11,3.36.58Z"/>
          <path class="cls-1" d="m79.95,38.5l-2.3,13.32-4.09-.71,2.3-13.32,4.09.71Z"/>
          <path class="cls-1" d="m79.26,48.13l3.92-.03c.13,1.13.86,1.81,2.18,2.03,1.03.18,1.59,0,1.68-.55.05-.29-.03-.53-.24-.73-.21-.2-.61-.42-1.2-.64-2.26-.85-3.66-1.69-4.2-2.53-.54-.84-.72-1.74-.56-2.72.22-1.26.87-2.22,1.97-2.89,1.1-.67,2.54-.85,4.33-.54,2.71.47,4.32,1.87,4.81,4.2l-3.56.44c-.2-.95-.83-1.52-1.91-1.71-.89-.15-1.38.05-1.48.6-.04.25.03.46.2.63s.55.37,1.1.59c1.54.61,2.62,1.11,3.24,1.48s1.11.92,1.45,1.62c.34.71.44,1.48.29,2.34-.23,1.35-.97,2.35-2.21,2.99-1.24.65-2.74.82-4.52.51-3.25-.56-5.02-2.26-5.31-5.1Z"/>
          <path class="cls-1" d="m98.5,41.71l-2.3,13.32-4.09-.71,2.3-13.32,4.09.71Z"/>
          <path class="cls-1" d="m109.1,53.98l-.55,3.18-10.02-1.73,2.3-13.32,10.02,1.73-.53,3.07-6.01-1.04-.33,1.93,4.86.84-.51,2.96-4.86-.84-.38,2.18,6.01,1.04Z"/>
        </g>
      </g>
    </g>
  </g>
</svg>