<?xml version="1.0" encoding="UTF-8"?>
<svg id="Layer_2" data-name="Layer 2" xmlns="http://www.w3.org/2000/svg" viewBox="0 0 157.06 159.79">
  <defs>
    <style>
      .cls-1 {
        fill: #fff;
        opacity: .56;
      }

      .cls-2 {
        opacity: .55;
      }

      .cls-3 {
        fill: #9b9b3a;
      }

      .cls-4 {
        fill: #ffd200;
      }
    </style>
  </defs>
  <g id="mobileversion">
    <g>
      <circle class="cls-4" cx="78.23" cy="78.23" r="78.23"/>
      <g class="cls-2">
        <path class="cls-3" d="m156.78,79.81c2.61,26.8-13.16,54.63-36.18,68.78-23.68,14.63-55.59,15.1-79.2.33-6.46-3.97-12.36-8.85-17.1-14.73,28.68,12.54,59.83,15.34,87.72,0,21.08-11.91,35.84-32.13,44.76-54.38h0Z"/>
      </g>
      <path class="cls-1" d="m28.01,33.19c2.66-3.47,6.96-8.28,13.39-12.89,6.06-4.34,11.86-6.97,16.06-8.54,1.82,2.02,3.65,4.04,5.47,6.06-3.94,1.49-9.74,4.13-15.68,8.72-5.78,4.47-9.49,9.07-11.71,12.29-2.51-1.88-5.02-3.77-7.53-5.65Z"/>
    </g>
  </g>
</svg>