<?xml version="1.0" encoding="utf-8"?>
<!-- Generator: Adobe Illustrator 26.5.0, SVG Export Plug-In . SVG Version: 6.00 Build 0)  -->
<svg version="1.1" id="Layer_1" xmlns="http://www.w3.org/2000/svg" xmlns:xlink="http://www.w3.org/1999/xlink" x="0px" y="0px"
	 viewBox="0 0 841.89 595.28" style="enable-background:new 0 0 841.89 595.28;" xml:space="preserve">
<style type="text/css">
	.st0{fill:#F1A42B;}
	.st1{fill:#3A5743;}
</style>
<path class="st0" d="M406.48,260.89c-23.15,21.01-52.99,49.39-78.43,82.62c-17.18,22.44-27.24,43.23-31.65,65.42
	c-1.84,9.26-1.91,17.68-0.22,25.74c5.69,27.09,22.86,46.56,51.04,57.88c22.28,8.95,46.82,13.3,75.02,13.3
	c1.44,0,2.89-0.01,4.35-0.03c1.33,0.04,2.7,0.06,4.08,0.06h0c8.69,0,19.03-0.81,31.62-2.47c57.61-7.61,101.76-30.71,134.95-70.63
	c36.51-43.9,51.03-85.33,45.69-130.38c-5.1-42.96-25.42-76.69-60.41-100.25c-16.14-10.86-32.78-16.37-49.48-16.37
	c-11.02,0-22.22,2.41-33.31,7.16c-7.99,3.42-16.48,7.29-24.45,12.33c-24.99,15.83-46.99,35.8-68.28,55.12L406.48,260.89z"/>
<path class="st1" d="M203.11,325.69c9.1,6.97,19.33,13.01,30.39,17.95c35.93,16.05,73.94,27.76,110.7,39.07l5.05,1.56
	c25.99,8.01,56.88,16.2,88.94,16.2c3.82,0,7.65-0.12,11.39-0.34c35.82-2.18,62.7-15.84,82.15-41.76
	c20.29-27.03,29.29-57.97,28.31-97.35c1.53-30.39-6.21-63.51-23.67-101.23c-15.14-32.71-35.23-56.07-61.43-71.39
	c-22.96-13.44-45.97-20.25-68.38-20.25c-18.24,0-36.64,4.5-54.68,13.37c-23.13,11.38-44.36,27.44-68.83,52.1
	c-23.58,23.76-45.95,49.35-66.48,76.05c-14.11,18.36-23.88,34.56-30.72,50.99C175.29,285.99,181.42,309.09,203.11,325.69z"/>
</svg>
