<?xml version="1.0" encoding="UTF-8"?>
<svg id="Layer_2" data-name="Layer 2" xmlns="http://www.w3.org/2000/svg" viewBox="0 0 108.78 31.15">
  <defs>
    <style>
      .cls-1 {
        fill: #fff;
      }

      .cls-2 {
        fill: #202020;
      }
    </style>
  </defs>
  <g id="mobileversion">
    <g>
      <g>
        <rect class="cls-1" x="1.62" y="1.49" width="106.31" height="28.15"/>
        <g>
          <path class="cls-2" d="m107.26,29.63c.09.14.28.06.24-.33l-.33-.28.09.61Z"/>
          <path class="cls-2" d="m107.87,27.01c-.16-.46-.44-.99-.75-.69.32.45.19.56.56,1.05.04.39-.11.68-.23.62.08.14-.07.61.14.82.26-.51.27-1.15.05-1.82.07-.14.16,0,.22.03Z"/>
          <path class="cls-2" d="m95.31,1.02l.25.04c-.07-.02-.15-.03-.25-.04Z"/>
          <path class="cls-2" d="m71.68.84c.18,0,.26-.04.26-.07-.17.02-.3.04-.26.07Z"/>
          <path class="cls-2" d="m67.65.48c.09,0,.16.02.24.02-.09-.03-.18-.05-.24-.02Z"/>
          <path class="cls-2" d="m95.31,1.02l-.63-.1c-.04.11.32.08.63.1Z"/>
          <path class="cls-2" d="m107.07,21.75c.02.13.05.24.09.34l-.04-.32s-.03-.01-.05-.02Z"/>
          <path class="cls-2" d="m105.73.75h.19c.06-.04.11-.08.16-.14l-.35.14Z"/>
          <path class="cls-2" d="m108.71,7.28c.01-.18-.27-.24-.39-.31.12.1.17.24.19.39.05,0,.12-.02.2-.08Z"/>
          <path class="cls-2" d="m108.21,19.96l.04.22c-.01-.06-.03-.16-.04-.22Z"/>
          <path class="cls-2" d="m100.01.69s-.04-.08-.07-.1c0,.04.03.07.07.1Z"/>
          <path class="cls-2" d="m98.66,28.31s0,.03,0,.05c.05-.03.06-.05,0-.05Z"/>
          <path class="cls-2" d="m107.92,29.71l-.13.02c-.01.05-.03.11-.03.16l.16-.17Z"/>
          <path class="cls-2" d="m60.27.12s.02,0,.03,0c.19-.03.08-.03-.03,0Z"/>
          <path class="cls-2" d="m.45,10.61c.25-.77.32,1.25.6.09-.11.11-.44-1.05-.6-.09Z"/>
          <path class="cls-2" d="m107.11,21.54v-.33c-.01.15-.01.25,0,.33Z"/>
          <path class="cls-2" d="m1.06,10.71h0l.03-.12s-.02.08-.03.12Z"/>
          <path class="cls-2" d="m43.26.29s.1.09.17.12c0-.03-.05-.06-.17-.12Z"/>
          <path class="cls-2" d="m55.93.69l-.31-.04c.12.03.23.03.31.04Z"/>
          <path class="cls-2" d="m36.68.68c-.17-.02-.23-.06-.46-.02.02.01.04.02.07.03.08-.04.2-.06.39-.01Z"/>
          <path class="cls-2" d="m29.83.68s.08.04.13.06c.07,0,.15-.01.22-.01l-.34-.04Z"/>
          <path class="cls-2" d="m77.84,28.45c.15.08.24.17.32.25-.11-.2.9-.27-.32-.25Z"/>
          <path class="cls-2" d="m107.23,21.75c-.07-.04-.11-.1-.12-.2,0,.08.01.15.02.23.04.02.08.02.11-.02Z"/>
          <path class="cls-2" d="m36.4,2.9l-1.09-.04c.3.03.7.04,1.09.04Z"/>
          <path class="cls-2" d="m28.71,28.49l.25-.03c-.1,0-.18,0-.25.03Z"/>
          <path class="cls-2" d="m32.08,2.9c-.19-.1-.4-.16-.61-.19-.05.02-.1.04-.13.07l.74.12Z"/>
          <path class="cls-2" d="m78.16,28.7h0s0,0,0,0Z"/>
          <path class="cls-2" d="m85.33,28.04c-1.04,0-.49.36-.71.57-1.24.11-.57-.27-.99-.46-.77.1-1.37.44-1.94.42-.04-.06-.16-.08-.02-.16-.82.29-2.42.01-3.38.38-.07-.03-.11-.06-.12-.09.15.19.18.37.15.51-.46,0-.86.23-1.04,0,.28,0,.31-.09.44-.17l-.49.1c-.44-.35.66-.12.66-.38-.95.11-2.06.4-2.78.3-.15-.34,1.7-.11.73-.42l1.13.13c-.86-.54.68.04-.11-.54-1.48-.1-1.66.17-3.14.07-.33.19.11.28-.22.47-2.1.34-1.65-.85-3.2-.4-.4.23-.55.66-1.65.43l.38-.38c-1.43-.04-.82.55-2.32.29.27-.15,1.13-.13.91-.17-.97-.3-.69.22-1.44.22l-.16-.34c-1.53.05-3.21.3-4.9.36.09-.1.38-.21-.01-.31-2.13.17-4.55-.04-6.61-.24l-.79.29c-.18,0-.34-.13-.14-.19-.8-.11-.04.19-.43.3-.46.02-.6-.17-.31-.26-1.42.25-4.03.54-5.52.22l.29-.09c-1.16-.12-1.31.6-2.39.33l.21-.05c-2.52-.13-5.31.14-7.23-.3-.37.42-2.49-.19-2.66.4-1.44-.29-1.03-.4-3.05-.59-.54-.03-.81.37-1.48.43l-.02-.31-.91.32-.48-.37-.63.08c.25.02.53.14.49.23-.98.14-2.39-.21-2.41-.37l-2.32.26c.05-.12.44-.17.75-.25-1.24.31-.22-.32-1.36-.04.15.07-.08.18-.11.25-.57-.19-1.85-.19-2.81-.11l.18-.21c-1.72-.05-3.63.1-5.56.1.69.1.53.47-.03.5l-.23-.33c-.37.2.59.12-.16.37-.72-.04-.48-.37-.07-.48l-.88.11c-.05-.1.15-.15.21-.27-.36.2-1.51-.33-2.03.02l-.05-.1c-1.93,0-2.81.11-4.38.13-.03.28-.65.22-1.11.45-1.16-.09-2.44-.31-3.83-.29-.34.14-.13.24-.38.41.04-.18-.21-.22-.17-.3.02-.03.04-.05.06-.06.02-.01.05-.03.1-.06-.02,0-.04,0-.05,0-.01-.09-.02-.17-.03-.25l-.02-.12s0-.02-.01-.08v-.21c-.05-.57-.1-1.21-.2-2.22-.1.23-.15.49-.24.35-.04-.38.11-.87.23-.82l.03.1c-.38-2.37.75-5.47.21-7.36l.03.11-.28-1.96c.04-.9.19.54.35-.13-.43-2.11.06-3.34-.22-5.08.76-1.35-.05-4.78.43-6.6l-.18.1c-.17-.47.1-.57.14-.91-.14.05-.16.51-.26.22l-.02-.49-.02-.15c0-.1-.01-.21-.01-.32.12,0,.25,0,.37.01h.09s.29.02.29.02l.64.02c.85.04,1.7.09,2.56.13,1.71.1,3.42.22,5.11.29,1.49.05.85-.92,2.73-.5l-.53.33c3.01-.4,6.16.01,9.11-.32-.18.08-.18.18-.47.17.62.24,2.3.01,2.31-.18.46.02.11.18.39.28.62.14,1.57-.31,1.9-.07.06.04-.18.08-.29.1.41-.12,1.9.03,1.51-.25,1.11.13,2.12-.12,3,.04.58-.31,1.89.15,2.08-.29-.08.45,1.94.36,2.64.15-.23.14.61.14.33.33.8,0,1.53-.09,1.39-.32,1.47.54,2.96-.44,3.79.26,2.37-.24,4.57-.41,6.7-.51-.08.45-2.36.04-2.27.52,2.02-.19,3.19-.57,5.2-.46.52.06-.3.2-.47.27,2.02-.19,3.91.04,5.71-.2,0,.04-.2.09-.38.12.35-.01.82.07.78-.14l-.35.06c-.57-.3,1.41-.62,1.47-.78-.6.59,1.78.15.82.89.23-.04.53-.14.47-.27.35.04.46.12.11.28,1.27-.11.82-.33,1.97-.33,0,.1-.24.14-.36.25.58-.19,1.17-.39,2.14-.3-.06.06.05.14-.24.14,1.67-.03,2.85-.52,4.68-.33-.54.43.62.14.72.52l.99-.11-.4-.18c.86,0,1.63-.27,2.37-.14l-.64.15,1.62-.07-.92-.14c.87-.19-.09-.47,1.06-.37-.23.04.86,0,1.31.22h0c.43-.12.87-.24,1.5-.15.17.12-.13.41-.03.49.42-.31,2.02-.09,2.55-.42-.18.08-.19.27-.13.31l.35-.25c.4.08.46.12.39.28,1.2.05-.38-.47,1.05-.27-.11.02-.06.06-.29.1,1.43.11,2.77-.16,4.09-.04.39.38-1.15.09-.71.41,1.9-.07,3.93-.45,5.77-.36l-.34-.04c.25-.53,1.37.26,2.3.01-.23.04-.3.29-.24.24,1.26.09,2.57-.13,4.48-.3l-.24.14c.74.12,1.95.07,2.75.13.24-.14.7-.11.42-.31,2.47.78,4.71-.42,6.91.23-.26,0-.62.12-.42.12l1.87-.13c-.15-.23-.24-.14-.64-.32.23-.14.77-.24,1.22-.24-.85.15.08.37.2.5-.02-.07.09-.15.09-.22.47.36.4-.26,1.11-.24,0,.1-.02.25-.05.43l-.12.03c.06.36.22.74.19,1.29-.13.11-.16-.02-.19-.19-.03-.15-.04-.3-.15-.29,0,.23.13.68.23,1.02.09.36.15.72.01,1.06-.07-.32-.08-.78-.15-1.1-.31.74-.23.83-.28,1.38v-.05s-.14,1.28-.14,1.28l.09-.33c.7.94.13,1.92.58,3.2-.43-1.24-.25-.2-.55-.3-.08.32-.18.82-.26.68.24.6-.19,1,.16,1.85-.1.04,0,.64-.25.51.08.78.17-.18.29-.12.33,1.21-.4,2.83.05,4.57.19,1.5.52,1.77.68,3.16-.16.47-.36-.38-.36-.38-.14.76-.12,1.32,0,2.04-.08-.14-.16,0-.27.22.03.57.35.38.21,1.14-.11-.13-.28-.3-.39-.57.09.67.27,1.34.36,2.04-.17.18-.26-.42-.37-.67.08.78.15,2.03.42,2.27l.1-.5c.01.29-.23.15-.28-.06-.21-.67.09-.97.19-1.01l.06.5c.57-.51-.09-1.99-.06-2.99l.42.42-.35-1.02c.11-.22.34-.37.4.13.21-.72-.15-.63.08-1.25.04-.07.06-.04.07.03l-.12-.7c.09.14.29-.12.23.31.24-1.26-.31-2.03,0-2.5l.03.11c-.14-1.74-.31-.17-.66-1.48l.75-.88-.31-.17c.01-.18.03-.54.16-.47-.21-.67-.13.11-.33-.27.28-.87-.13-2.39.36-2.58-.23-.31-.18.83-.34-.1.52-.26-.09-1.07.15-1.86.27.24.13.99.37.2-.46-.48.1-1.54.01-2.21-.36-.03-.15-1.45-.27-2.57.06.04.11-.49.16-1.16.06-.86.12-1.89.17-2.57h.06c-.07,0-.12-.05-.16-.13-.35.09-.76.13-1.19.15-.41.02-.93.03-1.22.06.06-.22.09-.31.75-.41h-.89c-.17.12-.4.18-.88.22l.18-.27c-.98.02-1.97.32-3.23.14-.07.26,1,.71-.33.88-.05-.14-.1-.38.25-.43-.11.02-.41.11-.64.06l.53-.23c-.57-.1-.3.19-.76.17,0-.2-.34-.14-.27-.3.12-.02.4.08.58,0-.52-.04-1.14-.15-1.35-.3.05.11,0,.27-.38.29-.98.01-.33-.24-.91-.34-.24.14-.86,0-.88.29-.29,0-.34-.14-.45-.22-.51.13-2.37.04-1.79.35l.13.02s-.05,0-.08.01h0,0c-1.66.29-3.45-.17-5.09-.04v-.1c-.98.11-2.19.07-2.89.28-.29,0-.69-.18-.56-.3-.75.07-.84.19-1.92.02.76-.17-.26-.15.77-.13-.98-.09-1.2-.24-2.25.03.36-.25-.74-.32-1.2-.24l.68.18c-.52.04-.98.01-1.44,0l.25-.33c-2-.4-3.6.69-5.12.01-.53.23,1.09.16.61.44-.92-.04-1.88-.52-2.16-.52-1.26-.18-1.17.49-2.49.36.17.12.33.44-.66.55-.92-.04-1.13-.5-.55-.59.22-.01.33.03.32.07.3-.04.69-.09.32-.22l-.12.12c-.46-.12-1.72-.11-1.42-.3-.69.11-.3.19.22.26-1.18-.17-1.84,0-3.06-.12.19.07.37.2.18.2-1.78-.15-.78.23-1.99.28-.69-.18.25-.43-.97-.28-.74-.12-.16-.31.14-.41-1.11.23-2.07-.15-2.7-.19l.58-.1c-.35.06-.63.06-.92.05l.33.24c-.34-.04-.63-.04-.63-.14-.35.16.27.39-.43.61-.46-.12-1.39.13-1.55-.19,1.44.11-.16-.32,1.06-.37-.23.04-.52.04-.86,0-.05-.04.05-.07.14-.08-1.37-.28-.63.36-2.05.35.18-.18-.33-.34-.56-.3.57,0,.27.3-.25.43-.91-.14-.99.1-1.47.09l.55.07c-.18.18-.64.15-1.28.21-.05-.14.58-.09.35-.16-.71.31-1.6-.32-2.58-.11-.46-.12-.04-.33-.44-.41-1.1.23-1.2-.24-2.36-.05.33.24.39.18-.42.41l1.91-.17-1.22.35c.58,0,1.21-.15,1.56-.11-.58.19-.52.14-.25.33-.79-.36-1.56.21-2.47-.03l.03-.59c-1.37-.26-2.43.3-4.21.15l.57.1c-.24.23-1.1.03-1.67.13.05-.2-.31-.27-.55-.39.03.15-1.3-.01-1.46.38l-.79-.26c-1.44-.11-1.64.56-3.02.5.42-.21-.21-.35.71-.51-.46,0-.87-.04-.88.1-.27-.12-1.28.27-1.7.08-.19.09-.26.29-.77.28-.06-.04,0-.1,0-.1,0,.1-.81.13-.36.35-1.42-.62-3.97.04-5.2-.48-1.01.07-2.22.13-3.13.14.06-.06,0-.1.18-.08-1.26-.18-.77.57-2.21.36-.73-.32.76-.17.3-.29-.2-.65-1.73.09-2.69-.29l.23-.04c-.74-.22-1.8.25-3,.2,0,0,.06-.06,0-.1-.82.33-2.38.44-3.54.53.36-.25.53-.13.31-.39-.52.04.15.41-.88.49-.34-.14-1.08-.26-1.18-.54h.98c-.5-.37-1.27,0-1.78-.06l.07-.16c-1.5.05-1.52.44-3.13.42l.17.12c-.88.39-.74-.22-1.62.07l-.27-.39c-.58.1-2.03.38-3.07.46.59-.29,1.81-.44,2.56-.62-.58,0-1.96.03-2.26.22.23-.04.52-.13.75-.07-.71.31-1.64.46-2.78.46.07-.25-.23-.36-.69-.41-.63-.05-1.58-.05-2.46-.08-.03.89-.1,1.71-.3,2.18l.08.86c.02.25.02.51.03.76,0,.51-.02,1.02-.05,1.55-.06,1.05-.15,2.14-.13,3.32.6-.84.02.69.63.54.04.55.03.76-.01.81l-.37,1.67c-.18.4-.13-.52-.27-.47-.05,1.21-.26.51-.42,1.3.22-.16.31.42.23,1.11l.28-.97c.33,1.68-.51,1.46-.19,3.15l-.19-.54c.11.87,0,3.21.49,4.07-.07.15-.24.36-.28-.03-.07,2.08.52,4.64.22,6.25l-.15-.16c.04.39.28.68.13,1.16-.06-.03-.15-.16-.16.02.03.1.09.36.14.66.05.4.08,1,.04,1.42l-.17-.69c-.04.82-.05,1.58-.03,2.22.6-.02,1.17-.06,1.69-.11.25-.03.51-.05.75-.08.25-.03.49-.06.6-.08.57-.11,1.13-.23,1.79-.27,0,.44,1.59.58,2.39.65l-.03.06c2.37.05,4.02-.36,6.21-.54,1.36.48,4.61.2,6.79.47-.33-.08.05-.34.44-.39.51.09,1.42-.31,1.34.1h-.18c.39.39,1.44.28,2.26.29l.14-.53c2.15.77,5.64-.28,6.81.41.52-.13,1.16-.13,1.68-.26l-.03.28c1.44.07,2.16.11,3.94.04l-.36.2c1,.02,1.27-.82,2.19-.83l.28.42c1.75,0,3.52.36,5.25-.02-.03.06-.08.18-.36.2.82.01,3.19.29,2.89-.29.02.38,1.81.04,2.75-.13l-.15.28c.8-.36.82-.45,1.94-.55.26.04.23.22-.12.15.88.15.69-.26,1.75-.12l-.4.18c.91.02.83-.07,1.33-.28.57-.11,1.72.07,1.85.32.12-.15.62-.36,1.15-.29.07.1-.12.15-.22.18,1.51.19,2.25-.32,3.29-.05.02.09.09.14.18.17-1.2,0-2.17-.02-2.08-.04,0,.26.97.3.2.66.78-.19,2.11-.61,3.06-.49.05.02.09.05.13.09l-.1.03c.22.03.41,0,.6-.04.3.04.49.07.78.08.11.21,1.11.11,1.6.13-.04-.28.59-.24,0-.47.08.02-.09.03-.41.05-.07,0-.16.01-.21.03l.03-.02c-.32,0-.73.01-1.2.02.38-.14.78-.26,1.32-.11.25-.18.52-.37.68-.45.66.39,1.94.6,2.12.85,1.48-.16,3.48-.1,4.41-.63.42-.07.48.15.64.23-.24.05-.53.04-.66.12.84-.14,2.49-.05,2.69-.42,1.06.17-.6.34.86.28l-.2.11c2.86.59,4.66-.94,7.83-.18-.22-.05-.33-.07-.38-.13,3.62.33,7.46-.31,11.03.22,1.02.11,1.13-.13,1.75-.31l.22.3,1.06-.35c1.5-.26,2.6.74,4.5.26l-.25-.2c.68.04,2.16-.12,2.05.11.07-.04.22-.21.49-.11l.02.16,1.68-.27c1.3.11-.2.63,1.69.66.71-.06,2.01-.46,1.74-.57-.28,0-.73-.1-.75-.26l.65-.08c.12-.47.61-.94-.97-1.27l-1.1.28-.36-.23h.93c-.53-.23-.86-.04-1.24.09-.09-.12-.24-.2-.46-.25l-1.08.44c-.13-.18.49-.36-.24-.46-.51.21.49.41-.35.54-.53-.21-.37-.38-.99-.2-.09-.12.04-.2.29-.25-.55.14-1.46.06-1.75.31-.55-.26-1.86.07-1.81-.37-.17.11-.97.35-1.48.36.93-.53-1.9-.03-1.65-.6-.69.47-2.48.21-3.69.47.07-.04.2-.11.31-.09-.68-.04-.88-.18-1.32-.27-.09.39-1.15.48-1.73.72-.84-.38.51-.46.25-.82.04.32-1.46.32-1.17.58-.64-.23-.55-.11-.88-.44-.11.49-.6.08-1.13.38-.93-.24-.24-.46-1.26-.31-.48-.15.42-.32.42-.32Zm-24.22.85h0c.21-.01.39-.02.5-.02-.1,0-.25.01-.5.02Zm-2.04,0c.25.01.56.01.88.01.07.1,0,.2-.21.19.11-.07-.37-.12-.67-.2Zm4.3,1.95c-.32.04-.43-.02-.47-.07.15,0,.33-.02.56-.03.01,0,.03-.02.04-.03-.03.05-.07.1-.13.14Z"/>
          <path class="cls-2" d="m63.96,30.47s.07-.02.13-.02c-.07-.02-.13-.05-.19-.06-.04.03-.08.06-.11.09.06,0,.12,0,.17,0Z"/>
          <path class="cls-2" d="m95.6,1.07h-.04s.07.02.09.03c-.03-.01-.03-.02-.05-.03Z"/>
          <polygon class="cls-2" points="30.98 28.35 30.98 28.42 31.16 28.36 30.98 28.35"/>
          <path class="cls-2" d="m106.64,2.03s.03.05.07.07c0-.02-.03-.04-.07-.07Z"/>
          <path class="cls-2" d="m107.31,5.21l-.1.68c.06-.3.08-.51.1-.68Z"/>
          <path class="cls-2" d="m107.17,8.94s.09.06.12.07h0s-.12-.07-.12-.07Z"/>
          <path class="cls-2" d="m56.19,2.57s-.1,0-.14.01c-.34.05-.11.03.14-.01Z"/>
          <path class="cls-2" d="m73.8,1.91c-.19.05-.37.1-.57.13.31.02.56.03.57-.13Z"/>
          <path class="cls-2" d="m36.52,2.9h0s-.08,0-.12,0h.12Z"/>
          <path class="cls-2" d="m72.41,2.04c.31.06.58.04.82,0-.26-.02-.56-.05-.82,0Z"/>
          <path class="cls-2" d="m107.05,25.07v.18s.02,0,.03.02l-.03-.2Z"/>
          <path class="cls-2" d="m107.08,25.27l.03.2c0-.09,0-.17-.03-.2Z"/>
          <path class="cls-2" d="m107.18,25.89l-.07-.42c0,.15,0,.32.07.42Z"/>
          <path class="cls-2" d="m107.18,20.14l-.1-.06s.05.05.1.06Z"/>
          <path class="cls-2" d="m107.15,18.64c-.02.36-.22.9-.15,1.39l.08.05c-.15-.23.24-1.1.07-1.44Z"/>
          <path class="cls-2" d="m108.41,12.39l-.08,1.25c.11-.22.25-.51.28.06.32-1.58-.24.33-.2-1.32Z"/>
          <path class="cls-2" d="m108.56,8.5c.05.67.16,0,.22.03-.1-.43-.12-.53-.22-.03Z"/>
          <path class="cls-2" d="m86.82.84l.07-.26c-.52.04,0,.1-.07.26Z"/>
          <polygon class="cls-2" points="81.45 2.17 81.95 2.33 82.19 2.09 81.45 2.17"/>
          <polygon class="cls-2" points="78.27 .34 78.5 .31 77.63 .4 78.27 .34"/>
          <path class="cls-2" d="m31.05.44l.16.32c.35-.06.42-.41-.16-.32Z"/>
          <path class="cls-2" d="m10.66.76c-.22-.16-.8-.26-1.15-.1.46.02.92.14,1.15.1Z"/>
          <polygon class="cls-2" points="25.57 30.88 25.16 30.98 25.93 30.89 25.57 30.88"/>
        </g>
      </g>
      <g>
        <path d="m26.59,16v1.68h-4.79v-6.83h2.1v5.15h2.69Z"/>
        <path d="m32.49,16.05v1.63h-5.14v-6.83h5.14v1.58h-3.08v.99h2.49v1.52h-2.49v1.12h3.08Z"/>
        <path d="m38.48,16.05v1.63h-5.14v-6.83h5.14v1.58h-3.08v.99h2.49v1.52h-2.49v1.12h3.08Z"/>
        <path d="m38.64,15.7l1.95-.35c.16.55.58.83,1.26.83.53,0,.79-.14.79-.42,0-.15-.06-.26-.18-.34s-.34-.15-.65-.22c-1.2-.23-1.97-.53-2.31-.9-.34-.37-.51-.81-.51-1.31,0-.64.24-1.18.73-1.61.49-.43,1.19-.64,2.11-.64,1.39,0,2.31.56,2.76,1.68l-1.74.53c-.18-.46-.55-.69-1.1-.69-.46,0-.69.14-.69.43,0,.13.05.23.16.3s.3.14.6.2c.82.17,1.4.33,1.74.46s.63.36.86.68c.23.32.35.7.35,1.14,0,.69-.28,1.25-.84,1.68s-1.3.64-2.21.64c-1.66,0-2.69-.69-3.08-2.08Z"/>
        <path d="m55.62,10.85v6.83h-1.95v-4.88l-1.26,4.88h-1.33l-1.31-4.88v4.88h-1.57v-6.83h2.74l.99,3.63.95-3.63h2.75Z"/>
        <path d="m61.97,16.05v1.63h-5.14v-6.83h5.14v1.58h-3.08v.99h2.49v1.52h-2.49v1.12h3.08Z"/>
        <path d="m67.97,16.05v1.63h-5.14v-6.83h5.14v1.58h-3.08v.99h2.49v1.52h-2.49v1.12h3.08Z"/>
        <path d="m74.91,17.68h-2.32l-1-2.61h-.66v2.61h-2.1v-6.83h3.57c.79,0,1.4.18,1.83.55s.65.85.65,1.46c0,.39-.08.74-.24,1.04s-.48.57-.97.8l1.24,2.98Zm-3.98-4.07h.9c.26,0,.48-.06.64-.17s.24-.27.24-.49c0-.44-.27-.66-.81-.66h-.97v1.31Z"/>
      </g>
    </g>
  </g>
</svg>