<?xml version="1.0" encoding="UTF-8"?>
<svg id="Layer_2" data-name="Layer 2" xmlns="http://www.w3.org/2000/svg" viewBox="0 0 41.28 32.62">
  <defs>
    <style>
      .cls-1 {
        fill: #3b78cf;
      }
    </style>
  </defs>
  <g id="mobileversion">
    <g>
      <g>
        <path class="cls-1" d="m1.24,1.08c-.07.09-.02.28.17.24l.13-.33-.3.1Z"/>
        <path class="cls-1" d="m2.57,1.66c.23-.17.48-.46.33-.76-.22.32-.28.19-.51.58-.19.04-.34-.1-.31-.22-.07.09-.31-.06-.4.15.26.25.58.25.91.03.07.07,0,.16,0,.22Z"/>
        <path class="cls-1" d="m21.65,1.71l-.12-.04s.08.03.12.04Z"/>
        <path class="cls-1" d="m33.46,1.71c-.09,0-.13.04-.13.07.08-.02.15-.04.13-.07Z"/>
        <path class="cls-1" d="m35.48,2.07s-.08-.02-.12-.02c.05.03.09.05.12.02Z"/>
        <path class="cls-1" d="m21.65,1.71l.32.1c.02-.11-.16-.08-.32-.1Z"/>
        <path class="cls-1" d="m5.18.79c-.07.02-.12.05-.17.09l.16-.04v-.05Z"/>
        <path class="cls-1" d="m16.45,2.09h-.1s-.05.09-.08.14l.17-.14Z"/>
        <path class="cls-1" d="m12.45,2.24c.09,0,.12-.27.15-.4-.05.12-.11.17-.19.2,0,.05.01.12.05.2Z"/>
        <path class="cls-1" d="m6.1,1.9l-.11.04s.08-.03.11-.04Z"/>
        <path class="cls-1" d="m19.31,2.09s.02.08.04.1c0-.04-.02-.07-.04-.1Z"/>
        <path class="cls-1" d="m.12,6.43s.03,0,.05,0c-.03-.02-.05-.03-.05,0Z"/>
        <path class="cls-1" d="m1.33,1.74l.02.06c.05,0,.11,0,.16,0l-.18-.07Z"/>
        <path class="cls-1" d="m38.5,2.47h0s-.02.02,0,0Z"/>
        <path class="cls-1" d="m35.3,29.05c.39.24-.61.35-.02.6-.06-.11.51-.46.02-.6Z"/>
        <path class="cls-1" d="m5.28.82c.05,0,.11,0,.16,0-.07,0-.13,0-.16,0Z"/>
        <path class="cls-1" d="m35.28,29.65h0s.06.03.06.03c-.03-.01-.04-.02-.06-.03Z"/>
        <path class="cls-1" d="m38.7,8.87s.09-.05.12-.08c-.03,0-.06.02-.12.08Z"/>
        <path class="cls-1" d="m39.2,2.63l-.04.08s.04-.06.04-.08Z"/>
        <path class="cls-1" d="m39.05,12.17c-.02.08-.06.11-.03.23.01-.01.02-.02.03-.03-.04-.04-.05-.1,0-.2Z"/>
        <path class="cls-1" d="m39,15.59s.04-.04.06-.06c0-.03,0-.07-.01-.11l-.04.17Z"/>
        <path class="cls-1" d="m.67,16.83c.08-.08.16-.13.25-.17-.2.06-.29-.44-.25.17Z"/>
        <path class="cls-1" d="m5.18.95c.02-.07.05-.11.1-.12l-.11.02s0,.08.02.11Z"/>
        <path class="cls-1" d="m41.26,12.34l-.05.54c.03-.15.05-.35.05-.54Z"/>
        <path class="cls-1" d="m12.34,32.25l-.12.04s.09,0,.12-.04Z"/>
        <path class="cls-1" d="m41.23,14.5c-.1.1-.16.2-.2.3.02.02.04.05.07.06l.13-.37Z"/>
        <path class="cls-1" d="m.92,16.66h0s0,0,0,0Z"/>
        <path class="cls-1" d="m.11,13.1c.01.52.37.23.59.33.13.61-.26.3-.44.52.11.38.46.67.46.95-.06.02-.08.08-.16.02.31.4.06,1.21.45,1.67-.03.04-.06.06-.09.07.18-.08.37-.1.5-.09.02.23.25.42.01.52,0-.14-.1-.15-.17-.21l.11.24c-.34.23-.13-.33-.39-.32.13.47.44,1.01.36,1.38-.34.09-.15-.85-.43-.35l.11-.57c-.52.45.02-.34-.53.07-.07.74.21.82.14,1.56.2.16.28-.07.47.09.38,1.04-.82.86-.34,1.61.23.19.67.25.46.81l-.39-.17c0,.72.57.39.34,1.15-.16-.13-.15-.56-.19-.45-.28.5.23.34.25.71l-.34.09c.08.76.36,1.59.46,2.44-.1-.04-.21-.18-.31.02.21,1.06.05,2.28-.11,3.32l.31.38c0,.09-.13.17-.19.08-.1.41.19.01.31.2.03.23-.16.31-.25.17.05.14.11.29.16.47.03.06.05.22.08.38.03.15.05.3.08.45.09.6.16,1.19.15,1.78.31,0,.58.04.81.1l-.3.1c.46.04.82-.12,1.11-.26.29-.14.5-.26.9-.14l-.15.06c1.37.07,2.68-.24,3.68.16.17-.43,1.25.14,1.31-.45.73.26.53.38,1.55.53.27.02.39-.38.72-.46l.02.31.44-.34.26.36.31-.09c-.13-.01-.27-.13-.26-.22.48-.16,1.2.17,1.22.33l1.15-.31c-.02.12-.21.17-.36.26.61-.34.12.32.68.01-.08-.07.03-.19.04-.25.29.18.93.15,1.41.06l-.08.22c.86.02,1.81-.17,2.77-.21-.35-.09-.28-.46,0-.5l.13.32c.17-.21-.3-.11.07-.37.36.02.26.36.05.47l.43-.13c.03.1-.07.15-.09.28.17-.21.77.3,1.02-.06l.03.1c.97-.03,1.4-.16,2.18-.21,0-.28.31-.23.54-.47.58.07,1.23.26,1.93.21.48-.16.13-.24.35-.42.05.25.74.2.39.4.83-.07,1.07-.09,2.11-.34-.12-.1-.25-.14-.19-.23.19-.05.44.09.42.21l-.05.03c1.17-.43,2.77.64,3.69.07l-.05.03.97-.32c.45.03-.26.2.08.35,1.04-.47,1.67,0,2.53-.32.35.36.95.33,1.57.26.68-.07,1.07-.17,2.22.03l-.16-.17c.35-.19.55.08.91.11-.14-.13-.55-.14-.35-.24.4-.04.79-.07,1.2-.1,0-.77.02-1.52.06-2.3l.02-.29.02-.18.04-.34.08-.68c.12-.91.27-1.82.35-2.72.06-.75-.91-.44-.47-1.37l.33.27c-.37-1.51.06-3.08-.25-4.56.07.09.17.09.17.24.24-.31.03-1.15-.17-1.16.03-.23.18-.05.28-.19.15-.31-.29-.79-.05-.95.04-.03.08.09.09.15-.11-.21.04-.95-.24-.76.14-.55-.11-1.06.06-1.5-.31-.29.16-.95-.27-1.04.45.05.38-.96.17-1.32.13.12.15-.3.33-.16,0-.4-.08-.77-.31-.7.55-.73-.41-1.49.29-1.89-.22-1.19-.37-2.29-.46-3.36.45.05.03,1.18.5,1.14-.17-1.02-.55-1.61-.42-2.61.07-.26.19.15.27.24-.09-.51-.07-1-.06-1.47,0-.24,0-.47,0-.7l-.03-.45c-.01-.18-.04-.36-.06-.53.04,0,.09.14.12.28-.01-.29.08-.72-.13-.6l.05.26c-.16.27-.3.02-.45-.19-.18-.19-.3-.39-.37-.36.13,0,.2-.07.23-.18.02-.05.02-.11.03-.18v-.1s0-.01,0-.01h0s0-.01,0-.01l-.06.05h0s-.01-.02-.01-.02c0-.02-.02-.03-.02-.04-.14-.14-.25-.36.21-.43-.13-.08-.33-.13-.4.02-.2-.09-.23-.2.11-.26-1.01-.11-.78.2-1.62.14.01-.1.2-.13.32-.24-.58.17-.79.36-1.29.27.03-.06-.03-.14.12-.13-.85.02-1.44.5-2.36.31.27-.43-.31-.14-.36-.52l-.49.11.2.18c-.43,0-.81.27-1.19.15l.32-.16-.81.08.46.14c-.44.2.05.47-.53.37.12-.04-.43,0-.66-.22h0c-.21.12-.43.25-.75.16-.08-.12.06-.41,0-.49-.21.31-1.01.1-1.27.43.09-.08.09-.28.06-.31l-.17.26c-.2-.08-.23-.12-.2-.27-.6-.04.2.47-.52.28.06-.02.03-.06.14-.1-.72-.1-1.38.18-2.05.07-.2-.37.57-.1.35-.41-.95.08-1.96.48-2.88.41l.17.04c-.12.53-.69-.25-1.15,0,.11-.04.14-.3.11-.24-.63-.07-1.29.15-2.24.34l.12-.14c-.37-.11-.98-.05-1.38-.1-.12.14-.35.12-.2.32-1.25-.75-2.35.47-3.46-.15.13,0,.31-.13.21-.12l-.93.15c.08.23.13.14.33.31-.12.14-.38.25-.61.26.42-.16-.01-.37-.2-.5.03.07-.03.15-.01.22-.5-.4-.07.47-.74.21l.03-.12c-.25.07-.47.23-.74.21-.12-.26.26-.13.27-.35-.38.02-.73.52-1.08.27.16-.08.39-.09.55-.16-.38-.3-.42-.22-.7-.27h.03s-.64-.12-.64-.12l.16.08c-.46.71-.96.15-1.58.62.61-.45.1-.25.14-.56-.16-.08-.41-.17-.35-.25-.29.25-.51-.18-.92.19-.02-.1-.32,0-.26-.25-.39.09.1.17.07.29-.59.35-1.43-.37-2.28.11-.74.21-.87.54-1.56.72-.24-.15.18-.36.18-.36-.38-.13-.67-.1-1.02.02.07-.09,0-.16-.12-.26-.29.03-.18.36-.56.23.06-.11.14-.29.27-.4-.33.1-.66.29-1.01.39-.1-.17.2-.26.32-.38-.39.09-1.01.18-1.12.45l.25.09c-.14.02-.08-.23.02-.28.33-.22.49.08.51.18l-.25.07c.27.56.99-.12,1.5-.1l-.2.42.5-.36c.11.11.19.34-.05.4.36.2.31-.16.63.06.03.03.02.06-.01.07l.35-.13c-.07.09.07.29-.15.24.63.22,1-.34,1.25-.03l-.05.03c.87-.16.08-.31.72-.68l.46.74.08-.31c.09,0,.27.03.24.15.33-.22-.06-.13.13-.33.44.27,1.19-.16,1.3.32.15-.24-.42-.17.04-.34.15.52.53-.1.93.13-.11.27-.49.14-.09.37.23-.46.77.08,1.1-.01,0-.36.72-.17,1.28-.3-.03.12,1.06.17,1.58.29v.06c.08-.37.62-.31,1.01-.4-.01.22-.08.31-.29.41h.37c.08-.13.2-.19.43-.24l-.09.28c.49-.03.98-.35,1.61-.18.03-.26-.52-.7.15-.89.03.14.06.37-.12.43.06-.02.2-.12.32-.06l-.26.24c.29.1.15-.2.38-.18,0,.2.17.14.14.29-.06.02-.2-.08-.29,0,.26.03.57.14.68.29-.02-.11,0-.27.18-.3.49-.03.17.23.46.33.12-.14.43,0,.43-.3.14,0,.17.14.23.21.25-.14,1.18-.06.89-.37l-.07-.02s.03,0,.04-.01h0s0,0,0,0c.82-.31,1.73.13,2.55,0v.1c.49-.12,1.09-.09,1.44-.31.15,0,.35.17.29.29.37-.08.41-.19.96-.04-.37.18.13.15-.38.13.49.08.6.23,1.12-.05-.17.26.37.31.6.23l-.34-.18c.26-.04.49-.02.72,0l-.12.33c1,.39,1.79-.71,2.56-.05.26-.24-.54-.16-.31-.43.46.04.94.51,1.09.51.63.18.58-.49,1.24-.37-.09-.12-.17-.43.32-.55.46.04.57.49.28.59-.11.01-.16-.03-.16-.07-.15.04-.34.1-.16.22l.06-.12c.23.12.86.1.71.3.35-.11.15-.2-.11-.26.59.17.92,0,1.52.12-.1-.07-.18-.2-.09-.2.89.15.39-.23.99-.27.34.18-.12.43.48.28.37.13.07.32-.07.41.55-.22,1.02.16,1.33.21l-.29.09c.17-.05.31-.05.45-.05l-.16-.24c.17.05.31.05.3.15.15-.15-.06-.4.17-.6.08.12.45-.11.32.2-.13-.06-.16.02-.18.12-.03.1-.08.21-.14.24.03-.04.07-.03.09,0-.01.03-.04.06-.06.08-.03.14.01.05.13-.06.06-.06.13-.12.2-.17.07-.05.17-.08.15,0-.18.12-.34.31-.3.29,0-.05.3-.27.44-.22-.14.25.1.19.08.32l.07-.16c.09,0,.13.04.15.11.02.06.03.15.05.32-.14.02-.09-.28-.15-.18.31.36-.34.79-.13,1.29-.12.23-.33.02-.42.22.22.56-.25.59-.07,1.18.24-.16.18-.19.41.22l-.15-.96.34.62c0-.29-.14-.61-.1-.78.19.29.13.26.33.13-.36.39.2.78-.05,1.24l-.59-.02c-.27.68.28,1.22.12,2.11l.11-.28c.23.12.02.55.11.84-.2-.03-.27.15-.4.27.15-.01-.02.65.37.74l-.27.39c-.12.72.55.83.47,1.52-.21-.21-.36.1-.5-.36,0,.23-.04.44.09.44-.13.13.26.64.07.85.09.1.29.13.27.39-.04.03-.1,0-.1,0,.1,0,.13.41.35.18-.63.7.01,1.98-.52,2.59.06.5.11,1.11.12,1.57-.06-.03-.1,0-.08-.09-.19.63.56.4.34,1.11-.32.36-.17-.38-.29-.16-.65.09.08.87-.31,1.34l-.04-.12c-.23.37.23.9.18,1.5,0,0-.06-.03-.1,0,.32.42.42,1.2.51,1.78-.25-.18-.13-.27-.39-.16.03.26.42-.07.48.45-.14.17-.27.54-.55.58v-.49c-.37.24,0,.63-.07.89l-.16-.04c.04.75.43.77.39,1.57l.12-.08c.38.45-.22.37.06.81l-.4.13c.09.29.37,1.02.43,1.55-.29-.3-.43-.91-.6-1.29,0,.29.01.98.21,1.13-.04-.12-.13-.26-.07-.38.3.36.45.83.43,1.39-.6-.06-.39.5-.55.69-.13-.04-.25-.11-.37-.23-.03.07-.12.1-.22.11-.05,0-.09,0-.16,0l-.39-.02c-.53-.04-1.07-.11-1.66-.06.44.58-.34.03-.25.64-.27.05-.38.04-.41,0l-.85-.33c-.2-.17.26-.14.23-.28-.6-.02-.26-.25-.67-.4.09.22-.2.32-.54.25l.49.26c-.83.36-.75-.48-1.58-.13l.26-.2c-.43.13-1.61.06-2.02.57-.08-.07-.19-.23,0-.28-1.04-.03-2.3.61-3.12.34l.07-.15c-.19.05-.33.29-.58.15.01-.06.07-.15-.02-.16-.1.06-.51.28-.77.2l.21-.18c-1.02-.16-1.54.47-2.39.6-.01-.44-.82-.55-1.22-.61v-.06c-1.17,0-1.98.44-3.07.66-.7-.45-2.31-.11-3.41-.34.17.07-.01.34-.21.4-.26-.08-.7.33-.67-.07h.09c-.21-.38-.73-.26-1.14-.25l-.05.53c-1.11-.73-2.81.39-3.42-.27-.25.14-.58.15-.83.29v-.28c-.72-.04-1.08-.07-1.97.04l.17-.21c-.5,0-.6.84-1.06.87l-.16-.42c-.87.04-1.77-.3-2.62.12.01-.06.03-.19.17-.21-.1,0-.25-.01-.42-.02-.07,0-.21,0-.22-.02-.01,0-.03,0-.04,0-.04,0-.13.08-.25.38.1-.25,0-.19-.25-.05-.06,0-.14-.03-.2-.07l.27-.17c-.35.11-.45.1-.56-.21.03-.09.22-.09.15.01.07-.1,0-.21-.07-.31-.07-.09-.14-.2-.08-.47l.19.19c0-.45-.09-.41-.31-.65-.12-.28.04-.86.29-.94-.16-.05-.37-.29-.31-.56.09-.04.16.06.19.1.16-.76-.37-1.11-.12-1.64.09-.01.14-.05.16-.09.02.6.02,1.09,0,1.04.26-.01.28-.5.65-.13-.21-.38-.66-1.03-.55-1.51.02-.02.05-.05.09-.07l.03.05c.02-.11,0-.21-.05-.3.04-.15.06-.25.06-.4.21-.06.09-.56.09-.8-.28.03-.25-.29-.47.02.02-.04.04.04.05.2,0,.04.02.08.03.1l-.03-.02c.01.16.03.37.04.6-.15-.19-.28-.38-.13-.65-.19-.12-.38-.25-.47-.32.38-.35.57-.99.8-1.09-.19-.73-.17-1.74-.72-2.18-.08-.21.14-.25.22-.33.06.12.06.26.13.33-.15-.41-.1-1.24-.47-1.33.15-.54.35.28.26-.44l.12.09c.53-1.46-1.03-2.29-.34-3.91-.04.11-.06.17-.12.19.26-1.82-.46-3.72,0-5.52.09-.51-.15-.56-.34-.86l.3-.12-.37-.52c-.28-.74.69-1.33.17-2.26l-.2.13c.02-.34-.16-1.08.07-1.03-.04-.03-.22-.1-.12-.24l.16-.02-.3-.83c.09-.65.63.08.62-.87-.07-.35-.5-.99-.6-.85,0,.14-.08.37-.24.38l-.09-.32c-.47-.04-.95-.27-1.25.54l.31.54-.22.19-.03-.46c-.2.27,0,.43.13.61-.12.05-.2.13-.24.24l.47.52c-.18.07-.37-.23-.46.14.22.25.4-.26.55.16-.2.27-.38.2-.18.5-.12.05-.2-.01-.25-.14.15.27.09.73.34.86-.25.29.1.93-.34.92.11.08.36.47.39.72-.55-.44,0,.95-.56.85.49.32.26,1.23.55,1.83-.04-.03-.12-.1-.1-.15-.03.34-.17.45-.25.67.39.03.5.56.76.83-.36.43-.47-.24-.83-.09.32-.03.35.71.6.56-.22.33-.1.28-.42.46.49.04.09.29.41.55-.22.47-.45.14-.29.64-.14.25-.33-.2-.33-.2Zm1.32,12.07h0c-.01-.1-.02-.19-.03-.25,0,.05.02.12.03.25Zm.04,1.02c0-.12,0-.28,0-.44.1-.04.2,0,.2.1-.07-.05-.11.19-.19.34Zm1.86-2.23c.05.16,0,.22-.06.24,0-.08-.02-.16-.04-.28l-.04-.02c.05.01.11.03.14.06Z"/>
        <path class="cls-1" d="m2.96,23.69s-.02-.04-.02-.07c-.02.03-.04.07-.06.1l.09.05v-.09Z"/>
        <path class="cls-1" d="m21.51,1.67h.02s-.03-.02-.05-.03c.01.01.01.02.02.03Z"/>
        <polygon class="cls-1" points="11.21 32.43 11.2 32.36 11.12 32.42 11.21 32.43"/>
        <path class="cls-1" d="m15.88.82s-.03-.05-.08-.07c0,.02.04.04.08.07Z"/>
        <path class="cls-1" d="m13.45.82l-.34-.09c.15.05.26.08.34.09Z"/>
        <path class="cls-1" d="m11.59.73s-.03.09-.03.12h0s.03-.12.03-.12Z"/>
        <path class="cls-1" d="m41.09,2.23s0,.08.01.12c.05.28.03.09-.01-.12Z"/>
        <path class="cls-1" d="m32.4.65c.09-.05.18-.1.28-.14-.16-.02-.28-.02-.28.14Z"/>
        <polygon class="cls-1" points="41.27 12.28 41.27 12.28 41.26 12.34 41.27 12.28"/>
        <path class="cls-1" d="m33.09.52c-.16-.06-.29-.04-.41,0,.13.02.28.05.41,0Z"/>
        <path class="cls-1" d="m3.51.81h-.09s0,.02,0,.04l.1-.04Z"/>
        <path class="cls-1" d="m3.42.84l-.1.04s.09,0,.1-.04Z"/>
        <path class="cls-1" d="m3.11.96l.21-.08c-.07,0-.16,0-.21.08Z"/>
        <path class="cls-1" d="m5.98.87l.03-.1s-.02.05-.03.1Z"/>
        <path class="cls-1" d="m6.73.82c-.18-.02-.45-.21-.7-.14l-.02.08c.11-.15.56.23.72.05Z"/>
        <path class="cls-1" d="m9.89,2l-.63-.07c.11.11.26.25-.02.28.8.3-.17-.24.65-.22Z"/>
        <path class="cls-1" d="m11.84,2.11c-.34.06,0,.16,0,.22.21-.1.26-.13,0-.22Z"/>
        <path class="cls-1" d="m25.9,1.81l-.03.26c.26-.04,0-.1.03-.26Z"/>
        <polygon class="cls-1" points="28.57 .44 28.31 .29 28.19 .52 28.57 .44"/>
        <polygon class="cls-1" points="30.18 2.24 30.07 2.28 30.5 2.18 30.18 2.24"/>
        <path class="cls-1" d="m38.76,14.98l.32-.07c-.05-.18-.41-.22-.32.07Z"/>
        <path class="cls-1" d="m38.92,25.18c-.16.11-.26.39-.11.57.03-.23.15-.46.11-.57Z"/>
        <polygon class="cls-1" points="13.81 29.8 14.01 29.69 13.63 29.79 13.81 29.8"/>
      </g>
      <g>
        <path class="cls-1" d="m29.82,8.99c.01-.09,0-.28-.03-.24l-.02.33.05-.09Z"/>
        <path class="cls-1" d="m29.58,8.38c-.04.16-.08.44-.05.75.04-.32.05-.19.09-.57.03-.04.06.11.06.23.01-.09.05.07.07-.14-.05-.26-.11-.27-.16-.05-.01-.07,0-.16,0-.22Z"/>
        <path class="cls-1" d="m26.2,7.91l.02.04s-.01-.03-.02-.04Z"/>
        <path class="cls-1" d="m24.12,7.75s.02-.04.02-.07c-.01.02-.03.04-.02.07Z"/>
        <path class="cls-1" d="m23.75,7.39s.01.02.02.02c0-.03-.02-.05-.02-.02Z"/>
        <path class="cls-1" d="m26.2,7.91l-.06-.1c0,.11.03.08.06.1Z"/>
        <path class="cls-1" d="m29.12,9.18s.02-.05.03-.09c0,.01-.02.03-.03.04,0,.02,0,.03,0,.05Z"/>
        <path class="cls-1" d="m27.12,7.63h.02s0-.08.01-.14l-.03.14Z"/>
        <path class="cls-1" d="m27.82,7.57s-.02.27-.02.39c0-.12.02-.17.03-.19,0-.05,0-.12,0-.2Z"/>
        <path class="cls-1" d="m28.95,8.05l.02-.04s-.01.02-.02.04Z"/>
        <path class="cls-1" d="m26.61,7.57s0-.08,0-.1c0,.04,0,.07,0,.1Z"/>
        <path class="cls-1" d="m6.91,9.94s0-.03,0-.05c0,.03,0,.05,0,.05Z"/>
        <path class="cls-1" d="m6.07,8.55v-.02c.01-.05.01-.11.01-.16v.17Z"/>
        <path class="cls-1" d="m23.1,7.04s0,0,0,0c.02-.03,0-.03,0,0Z"/>
        <path class="cls-1" d="m17.12,7.32c.07.25-.11.32,0,.6-.01-.11.09-.44,0-.6Z"/>
        <path class="cls-1" d="m29.1,9.15s-.02,0-.03,0c.01,0,.02,0,.03,0Z"/>
        <path class="cls-1" d="m17.12,7.92s0,0,0,0v.03s0-.02,0-.03Z"/>
        <path class="cls-1" d="m21.6,7.23s.01.09.02.12c0-.03,0-.06-.02-.12Z"/>
        <path class="cls-1" d="m22.72,7.61l-.03-.04s.02.03.03.04Z"/>
        <path class="cls-1" d="m21.02,7.63s-.02-.06-.04-.02c0,.01,0,.02,0,.03,0-.04.02-.06.03-.01Z"/>
        <path class="cls-1" d="m20.42,7.64s0,.04.01.06c0,0,.01-.01.02-.02l-.03-.04Z"/>
        <path class="cls-1" d="m8.74,9.78c-.01-.08-.02-.17-.03-.25.01.2-.08.27.03.25Z"/>
        <path class="cls-1" d="m29.12,9.02c0,.07,0,.11-.02.12,0,0,.01,0,.02-.02,0-.04,0-.08,0-.11Z"/>
        <path class="cls-1" d="m21.03,9.85l-.1-.04s.06.04.1.04Z"/>
        <path class="cls-1" d="m13.08,9.68l-.02.03s.02,0,.02-.03Z"/>
        <path class="cls-1" d="m20.65,9.85c-.02-.1-.04-.16-.06-.19,0,.02,0,.04-.01.07l.07.12Z"/>
        <path class="cls-1" d="m8.71,9.52s0,0,0,0c0,0,0,0,0,0Z"/>
        <path class="cls-1" d="m8.09,10.2c.09,0,.04-.36.06-.57.11-.11.05.27.09.46.07-.1.11-.44.17-.42,0,.06.01.08,0,.16.07-.29.21-.02.29-.39,0,.03.01.06.01.09-.02-.19-.02-.37-.02-.51.04,0,.07-.23.09,0-.03,0-.03.09-.04.17l.04-.11c.04.35-.06.12-.05.38.08-.11.18-.4.24-.31.02.34-.15.12-.06.42l-.1-.13c.08.53-.06-.04.02.54.13.1.14-.17.28-.08.03-.19-.01-.28.01-.47.18-.34.16.85.29.4.03-.23.04-.66.14-.43l-.03.38c.13.04.07-.55.2-.3-.02.15-.1.13-.08.17.09.3.06-.22.12-.22l.02.34c.13-.06.28-.3.43-.37,0,.1-.03.21,0,.31.19-.17.4.04.59.24l.07-.29s.03.13.01.19c.07.11,0-.19.03-.3.04-.02.06.17.03.26.12-.25.35-.54.48-.23l-.02.09c.1.12.11-.6.21-.33l-.02.05c.22.12.47-.15.64.29.03-.42.22.19.23-.4.13.29.1.4.28.59.05.03.07-.37.12-.43v.31s.08-.32.08-.32l.05.37.05-.08s-.05-.14-.05-.23c.08-.14.21.21.22.37l.2-.26c0,.12-.04.17-.06.25.11-.32.02.32.12.03-.01-.07,0-.18,0-.25.05.19.17.19.25.11v.21c.14.05.31-.11.48-.1-.06-.1-.05-.47,0-.5l.02.33c.03-.2-.05-.12,0-.37.06.04.05.37.01.48l.08-.11c0,.1-.01.15-.01.27.03-.2.14.33.18-.03v.1c.18,0,.25-.11.39-.13,0-.28.05-.22.09-.45.1.09.22.31.34.28.08-.14.02-.24.06-.41,0,.26.13.23.07.42.15-.04.19-.05.37-.26-.02-.1-.04-.15-.03-.24.03-.04.08.11.08.23v.03c.2-.39.48.74.64.2v.03s.16-.28.16-.28c.08.04-.05.19.02.35.18-.43.3.06.45-.23.13.75.42-.06.59.42v-.18c.03-.17.04.1.07.14,0-.14-.05-.16-.02-.26.35-.22.73.25,1.09.41.13.05.06-.92.23-.5l-.04.33c.26-.4.54,0,.8-.33-.01.08-.01.18-.04.17.06.24.2,0,.2-.19.04.02.01.18.04.28.06.14.13-.31.17-.07,0,.04-.01.08-.02.1.03-.12.17.03.13-.25.1.13.19-.13.27.04.05-.31.17.15.18-.29,0,.45.18.36.23.15-.02.14.06.14.03.33.07,0,.13-.09.12-.32.14.54.26-.44.34.25.21-.25.4-.41.58-.52,0,.45-.21.05-.19.52.18-.19.27-.58.45-.47.05.06-.02.2-.04.27.18-.19.35.04.5-.21,0,.04-.02.09-.03.12.03-.01.07.07.07-.14l-.03.06c-.05-.3.12-.62.12-.78-.05.59.16.15.08.89.02-.04.04-.14.04-.27.03.04.04.12.01.28.11-.11.07-.33.17-.33,0,.1-.02.14-.03.25.05-.19.1-.39.19-.31,0,.06,0,.14-.02.14.15-.03.24-.52.41-.33-.04.43.06.14.07.51l.09-.11-.04-.18c.08,0,.14-.27.21-.15l-.05.15.14-.07-.08-.14c.07-.19-.01-.47.09-.37-.02.04.08,0,.12.22,0,0,0,0,0,0,.04-.12.07-.24.13-.15.02.12,0,.41,0,.49.03-.31.18-.09.22-.42-.01.08-.01.27,0,.31l.03-.25c.04.08.04.12.04.28.11.05-.04-.47.09-.27,0,.02,0,.06-.02.1.13.1.24-.16.36-.04.04.38-.1.09-.06.41.17-.07.34-.45.5-.37l-.03-.04c.02-.53.12.26.2,0-.02.04-.02.29-.02.24.11.08.23-.13.39-.3l-.02.14c.07.12.17.07.24.13.02-.14.06-.11.03-.31.23.77.41-.42.61.22-.02,0-.05.12-.04.12l.16-.13c-.02-.23-.02-.14-.06-.32.02-.14.06-.24.11-.24-.07.15,0,.37.04.5,0-.07,0-.15,0-.22.09.41,0-.47.13-.19v.12c.04-.06.08-.22.12-.19.02.27-.05.13-.05.35.07-.02.12-.51.19-.24-.03.07-.07.08-.1.15.07.31.08.23.13.28h0s.11.13.11.13l-.03-.08c.07-.7.17-.13.27-.59-.1.43-.01.25-.02.55.03.08.07.18.06.26.05-.25.09.19.16-.17,0,.1.06,0,.05.25.07-.08-.02-.17-.01-.29.1-.33.26.4.4-.06.13-.19.15-.52.27-.68.04.16-.03.36-.03.36.07.14.12.12.18,0-.01.09,0,.16.02.27.05-.03.03-.36.1-.21-.01.11-.02.28-.05.39.06-.09.11-.27.18-.36.02.17-.03.26-.05.37.07-.08.18-.16.2-.43l-.05-.1s.02.23,0,.28c-.06.21-.09-.09-.09-.19l.04-.06c-.05-.57-.17.09-.26.06l.03-.42-.09.35c-.02-.11-.04-.34,0-.4-.07-.2-.05.15-.11-.08,0-.04,0-.06,0-.07l-.06.12c.01-.09-.01-.29.02-.23-.11-.24-.17.31-.22,0v-.03c-.14.14,0,.31-.11.67l-.09-.75v.31s-.06-.03-.05-.16c-.06.21.01.13-.02.33-.08-.28-.21.13-.23-.35-.02.23.08.18,0,.34-.03-.52-.09.09-.17-.15.02-.27.09-.13.01-.37-.04.46-.14-.1-.19-.01,0,.36-.13.15-.22.28,0-.12-.19-.2-.28-.33v-.06c-.01.37-.11.3-.17.38,0-.22.01-.31.05-.41h-.06c-.01.12-.03.18-.07.23v-.27c-.07.02-.16.33-.27.14,0,.26.1.71-.02.88,0-.14-.01-.38.02-.43,0,.02-.03.12-.06.06l.04-.23c-.05-.1-.02.19-.06.17,0-.2-.03-.14-.03-.3.01-.02.04.08.05,0-.05-.03-.1-.15-.12-.3,0,.11,0,.27-.03.29-.09.02-.03-.24-.08-.34-.02.14-.08,0-.07.29-.03,0-.03-.14-.04-.22-.04.13-.21.04-.15.35v.02s0,0,0,.01h0s0,0,0,0c-.14.3-.31-.16-.45-.03v-.1c-.09.11-.19.07-.25.28-.03,0-.06-.18-.05-.3-.07.08-.07.19-.17.02.06-.17-.02-.15.07-.13-.09-.08-.11-.24-.2.03.03-.25-.07-.32-.11-.24l.06.18s-.09.02-.13,0l.02-.33c-.18-.4-.31.69-.45.02-.04.23.1.16.06.44-.08-.04-.17-.52-.2-.52-.11-.18-.1.49-.22.36.02.12.03.43-.05.55-.08-.04-.11-.5-.06-.59.02-.01.03.03.03.07.03-.04.06-.09.03-.22v.12c-.05-.12-.16-.11-.14-.3-.06.11-.02.19.02.26-.11-.17-.16,0-.27-.12.02.07.04.2.02.2-.16-.14-.07.23-.17.28-.06-.18.02-.43-.09-.28-.07-.12-.02-.31,0-.41-.09.23-.18-.15-.24-.19l.05-.1c-.03.06-.06.06-.08.06l.03.24s-.06-.04-.06-.14c-.03.16.03.39-.03.61-.04-.12-.12.13-.14-.18.13.11-.02-.32.09-.37-.02.04-.05.04-.08,0,0-.04,0-.07.01-.08-.12-.28-.05.36-.18.35.01-.18-.03-.34-.05-.3.05,0,.03.3-.02.43-.08-.14-.09.1-.13.09l.05.06c-.01.18-.05.15-.11.21,0-.14.05-.1.03-.16-.06.31-.15-.32-.23-.11-.04-.12,0-.33-.04-.41-.09.23-.11-.24-.21-.05.03.24.04.18-.03.41l.17-.17-.1.35c.05,0,.11-.15.14-.11-.05.2-.04.14-.02.33-.07-.36-.14.21-.22-.03v-.59c-.13-.26-.22.31-.37.16l.05.1c-.02.24-.1.03-.15.13,0-.2-.03-.27-.05-.39,0,.15-.11-.01-.12.38l-.07-.26c-.13-.1-.14.56-.26.5.03-.22-.02-.35.06-.51-.04,0-.08-.04-.08.1-.03-.12-.11.27-.15.08-.02.09-.02.29-.06.28,0-.04,0-.1,0-.1,0,.1-.07.13-.03.35-.13-.61-.35.05-.47-.48-.09.07-.19.13-.27.15,0-.06,0-.1.01-.08-.11-.18-.06.57-.19.36-.07-.32.06-.17.02-.29-.03-.65-.15.09-.24-.29l.02-.04c-.07-.22-.16.25-.26.2,0,0,0-.06,0-.1-.07.33-.2.44-.31.54.03-.25.04-.14.02-.39-.05.04.02.41-.07.49-.03-.14-.1-.26-.11-.54l.09-.02c-.05-.36-.11.01-.16-.05v-.16c-.13.05-.12.45-.27.42l.02.12c-.07.39-.07-.22-.14.07l-.03-.39c-.05.1-.17.38-.27.46.05-.29.15-.44.22-.62-.05,0-.17.03-.2.23.02-.04.04-.14.07-.07-.06.31-.14.46-.24.46,0-.77-.27-.19-.35-.78-.18.29-.36-.12-.56-.07.08.59-.06.02-.04.63-.05.04-.07.03-.07,0l-.15-.36c-.04-.18.04-.14.04-.27-.11-.05-.05-.26-.12-.42.02.22-.03.31-.09.23l.09.28c-.14.33-.14-.51-.28-.19l.04-.19c-.08.11-.28,0-.35.49-.01-.07-.03-.24,0-.28-.18-.07-.4.53-.55.23v-.15s-.04.28-.09.13c0-.06.01-.15,0-.16-.02.05-.09.26-.13.18l.04-.17c-.18-.19-.27.41-.42.52,0-.44-.15-.58-.22-.65v-.06c-.21-.05-.35.37-.54.54-.13-.48-.41-.19-.61-.46.03.08,0,.34-.03.39-.05-.09-.12.31-.12-.1h.02c-.04-.39-.13-.28-.2-.29v.53c-.21-.77-.5.29-.61-.4-.04.13-.1.13-.14.26v-.28c-.13-.07-.19-.11-.35-.04l.03-.2c-.09-.02-.1.82-.18.84l-.03-.42c-.15,0-.32-.36-.46.02,0-.06,0-.18.03-.2-.07-.01-.28-.28-.25.3,0-.38-.16-.03-.24.13v-.28c-.06.36-.06.45-.15.55-.02-.04-.02-.22,0-.15-.08-.14-.06.26-.15.12l.03-.18c-.08-.02-.07.07-.11.28-.05.11-.15-.07-.17-.32,0,.15-.05.36-.1.29,0-.1,0-.15.02-.18-.14-.19-.19.33-.29.05,0-.09,0-.14-.02-.17.11,0,.19.02.18.04,0-.26-.09-.3-.03-.66-.07.19-.18.62-.26.5,0-.02,0-.05-.01-.09v-.03s-.03,0-.04.04c-.03-.04-.04-.07-.07-.08-.01-.21-.1-.11-.14-.12,0,.28-.05.24,0,.47,0-.02,0-.03.04-.05,0,0,.01-.01.02-.03,0,0,0,.02,0,.02.03,0,.06-.02.11-.02-.03.14-.07.26-.11.11-.02.18-.04.37-.05.45-.06-.39-.18-.6-.2-.84-.13.16-.31.11-.38.64-.04.07-.04-.15-.06-.23.02-.05.05-.05.06-.12-.07.14-.22.06-.23.42-.1-.17.05-.34-.08-.28l.02-.11c-.26-.59-.4.95-.69.19.02.05.03.07.03.13-.32-.33-.65.32-.98-.2-.09-.11-.1.13-.15.31l-.02-.3-.09.35c-.13.26-.24-.74-.4-.25l.02.2c-.06-.04-.19.12-.18-.11,0,.04-.02.21-.04.11v-.16s-.15.27-.15.27c-.12-.11.01-.63-.16-.66-.06.06-.17.46-.15.57.03,0,.07.1.07.26l-.06.08c0,.47-.04.94.1,1.27l.09-.29.03.23-.08.02c.05.21.08.02.11-.11,0,.12.02.2.04.25l.09-.45c.01.18-.04.36.03.46.04-.21-.05-.41.02-.54.05.21.04.38.09.2,0,.12,0,.2-.02.25.05-.14.13-.06.15-.31.05.26.16-.07.16.37.01-.11.08-.35.13-.37-.08.53.17.03.15.59.05-.48.22-.21.32-.48,0,.04-.02.11-.03.09.06.04.08.18.12.27,0-.39.1-.48.14-.72.08.38-.04.46-.01.82,0-.32.12-.32.1-.58.06.23.05.11.08.44,0-.49.05-.08.09-.39.08.24.03.46.11.31.04.15-.03.32-.03.32Zm2.13-.87s0,0,0,0c-.02,0-.03.01-.04.02,0,0,.02,0,.04-.02Zm.18,0s-.05-.01-.08-.01c0-.1,0-.2.02-.19,0,.07.03.12.06.2Zm-.4-1.94s.04.01.04.07c-.01,0-.03.01-.05.03,0,.01,0,.02,0,.03,0-.05,0-.1,0-.14Z"/>
        <path class="cls-1" d="m9.94,7.74s0,.02-.01.02c0,.02.01.05.02.06,0-.03,0-.06,0-.09,0,0-.01,0-.02,0Z"/>
        <path class="cls-1" d="m26.23,7.95h0s0,.02,0,.03c0-.01,0-.02,0-.03Z"/>
        <polygon class="cls-1" points="12.88 9.82 12.88 9.75 12.86 9.81 12.88 9.82"/>
        <path class="cls-1" d="m27.23,8.9s0,.05.01.07c0-.02,0-.04-.01-.07Z"/>
        <path class="cls-1" d="m27.66,8.96l.06.1c-.03-.06-.05-.08-.06-.1Z"/>
        <path class="cls-1" d="m27.99,9.1s0-.09,0-.12c0,0,0,0,0,0v.12Z"/>
        <path class="cls-1" d="m22.77,9.49s0,0-.01.01c-.03.05,0,.03.01-.01Z"/>
        <path class="cls-1" d="m24.32,8.82c-.02.05-.03.1-.05.13.03.02.05.03.05-.13Z"/>
        <polygon class="cls-1" points="21.04 9.85 21.04 9.85 21.03 9.85 21.04 9.85"/>
        <path class="cls-1" d="m24.2,8.95c.03.06.05.04.07,0-.02-.02-.05-.05-.07,0Z"/>
        <path class="cls-1" d="m29.42,9.2h.02s0-.02,0-.03l-.02.03Z"/>
        <path class="cls-1" d="m29.43,9.17l.02-.03s-.02,0-.02.03Z"/>
        <path class="cls-1" d="m29.49,9.07l-.04.07s.03,0,.04-.07Z"/>
        <path class="cls-1" d="m28.98,9.08v.1s0-.05,0-.1Z"/>
        <path class="cls-1" d="m28.85,9.11s.08.22.13.15v-.08c-.02.15-.1-.24-.13-.07Z"/>
        <path class="cls-1" d="m28.28,7.86l.11.08c-.02-.11-.05-.25,0-.28-.14-.32.03.24-.11.2Z"/>
        <path class="cls-1" d="m27.93,7.71c.06-.05,0-.16,0-.22-.04.1-.05.12,0,.22Z"/>
        <path class="cls-1" d="m25.45,7.74v-.26s0,.1,0,.26Z"/>
        <polygon class="cls-1" points="24.99 9.06 25.04 9.22 25.06 8.99 24.99 9.06"/>
        <polygon class="cls-1" points="24.69 7.25 24.71 7.21 24.63 7.3 24.69 7.25"/>
        <path class="cls-1" d="m20.52,7.39l.02.31c.03-.06.03-.41-.02-.31Z"/>
        <path class="cls-1" d="m18.73,7.73c-.02-.16-.07-.26-.1-.1.04.02.08.14.1.1Z"/>
        <polygon class="cls-1" points="13.33 7.29 13.36 7.18 13.29 7.27 13.33 7.29"/>
      </g>
      <g>
        <path class="cls-1" d="m27.05,17.15c.01-.09,0-.28-.02-.24l-.02.33.04-.09Z"/>
        <path class="cls-1" d="m26.86,16.54c-.03.16-.07.44-.05.75.03-.32.04-.19.08-.56.03-.04.05.11.05.23,0-.08.04.07.06-.14-.04-.26-.09-.27-.13-.05-.01-.07,0-.16,0-.22Z"/>
        <path class="cls-1" d="m24.05,16.03l.02.04s-.01-.03-.02-.04Z"/>
        <path class="cls-1" d="m22.3,15.85s.02-.04.02-.07c-.01.02-.02.04-.02.07Z"/>
        <path class="cls-1" d="m22,15.49s.01.02.02.02c0-.03-.01-.05-.02-.02Z"/>
        <path class="cls-1" d="m24.05,16.03l-.05-.1c0,.11.02.08.05.1Z"/>
        <path class="cls-1" d="m26.47,17.34s.02-.05.03-.09c0,.01-.02.03-.02.04,0,.02,0,.03,0,.05Z"/>
        <path class="cls-1" d="m24.81,15.76h.01s0-.08.01-.14l-.03.14Z"/>
        <path class="cls-1" d="m25.4,15.71s-.02.27-.02.39c0-.12.02-.17.03-.19,0-.05,0-.12,0-.2Z"/>
        <path class="cls-1" d="m26.34,16.2l.02-.04s-.01.02-.02.04Z"/>
        <path class="cls-1" d="m24.39,15.7s0-.08,0-.1c0,.04,0,.07,0,.1Z"/>
        <path class="cls-1" d="m7.9,17.85s0-.03,0-.05c0,.03,0,.05,0,.05Z"/>
        <path class="cls-1" d="m7.22,16.46v-.02c.01-.05.01-.11.01-.16v.17Z"/>
        <path class="cls-1" d="m21.46,15.13s0,0,0,0c.01-.03,0-.03,0,0Z"/>
        <path class="cls-1" d="m16.46,15.35c.06.25-.09.32,0,.6,0-.11.08-.44,0-.6Z"/>
        <path class="cls-1" d="m26.46,17.3s-.02,0-.02,0c.01,0,.02,0,.02,0Z"/>
        <path class="cls-1" d="m16.45,15.95h0s0,.03,0,.03c0-.01,0-.02,0-.03Z"/>
        <path class="cls-1" d="m20.2,15.3s0,.09.01.12c0-.03,0-.06-.01-.12Z"/>
        <path class="cls-1" d="m21.14,15.7l-.02-.04s.02.03.02.04Z"/>
        <path class="cls-1" d="m19.72,15.7s-.02-.06-.03-.02c0,.01,0,.02,0,.03,0-.04.01-.06.03-.01Z"/>
        <path class="cls-1" d="m19.21,15.7s0,.04,0,.06c0,0,.01-.01.02-.01l-.03-.04Z"/>
        <path class="cls-1" d="m9.44,17.71c-.01-.08-.02-.17-.02-.25,0,.2-.07.27.02.25Z"/>
        <path class="cls-1" d="m26.47,17.18c0,.07,0,.11-.01.12,0,0,.01,0,.02-.02,0-.04,0-.08,0-.11Z"/>
        <path class="cls-1" d="m19.7,17.92l-.08-.04s.05.04.08.04Z"/>
        <path class="cls-1" d="m13.06,17.66l-.02.03s.01,0,.02-.03Z"/>
        <path class="cls-1" d="m19.39,17.92c-.01-.1-.03-.16-.05-.19,0,.02,0,.04,0,.07l.05.12Z"/>
        <path class="cls-1" d="m9.42,17.46s0,0,0,0c0,0,0,0,0,0Z"/>
        <path class="cls-1" d="m8.89,18.13c.08,0,.04-.36.05-.57.09-.11.04.27.07.46.06-.1.1-.44.14-.42,0,.06.01.08,0,.16.06-.29.18-.01.25-.38,0,.03,0,.06,0,.09-.01-.19-.01-.37-.01-.51.03,0,.06-.23.08,0-.02,0-.02.09-.03.17l.04-.1c.03.35-.05.12-.05.38.07-.11.15-.4.2-.3.01.34-.13.11-.05.42l-.08-.13c.06.54-.05-.04,0,.54.11.1.12-.17.23-.07.02-.19,0-.28.02-.47.15-.34.12.85.24.4.03-.23.04-.66.12-.43l-.03.38c.11.04.06-.55.17-.29-.02.15-.08.13-.07.17.07.3.05-.22.11-.22v.34c.12-.05.25-.3.37-.36,0,.1-.03.21,0,.31.16-.17.34.04.49.24l.06-.29s.03.13.01.19c.06.11,0-.19.03-.3.03-.02.04.17.02.26.1-.25.3-.54.41-.22l-.02.09c.09.12.1-.6.18-.33l-.02.05c.19.13.39-.14.53.3.03-.42.18.19.19-.4.11.29.08.4.23.59.04.03.06-.37.11-.43v.31s.07-.32.07-.32l.04.37.05-.08s-.04-.14-.04-.23c.07-.14.18.21.18.37l.17-.26c0,.12-.03.17-.05.25.09-.31.02.32.1.04-.01-.07,0-.18,0-.25.04.19.14.19.21.11v.21c.11.05.25-.1.4-.1-.05-.1-.04-.47,0-.5l.02.33c.03-.2-.04-.12.01-.37.05.04.04.37,0,.48l.06-.11c0,.1-.01.15-.01.27.03-.2.11.33.15-.02v.1c.15,0,.21-.11.33-.13,0-.28.05-.22.08-.45.09.09.18.31.28.29.07-.14.02-.24.05-.41,0,.26.11.23.06.42.12-.04.16-.05.31-.26-.02-.1-.04-.15-.03-.24.03-.04.06.11.06.23v.03c.17-.38.4.75.54.21v.03s.14-.28.14-.28c.07.04-.04.19.01.35.15-.43.25.06.37-.22.1.76.35-.05.49.43v-.18c.03-.17.03.1.06.14,0-.14-.04-.16-.02-.26.29-.22.61.26.91.42.11.05.06-.92.2-.5l-.04.33c.22-.4.45.01.67-.32-.01.08-.01.18-.03.17.05.24.17.01.17-.18.03.02,0,.18.03.28.05.14.11-.31.14-.07,0,.04-.01.08-.02.1.03-.12.14.03.11-.25.08.13.16-.12.22.04.04-.31.14.15.15-.29,0,.45.14.36.2.15-.02.14.05.14.03.33.06,0,.11-.09.1-.32.11.54.22-.44.28.26.17-.24.34-.41.49-.51,0,.45-.17.05-.17.52.15-.19.23-.57.38-.47.04.06-.02.2-.03.27.15-.19.29.04.42-.21,0,.04-.01.09-.03.12.03-.01.06.07.06-.14l-.03.06c-.04-.3.1-.62.11-.78-.04.59.13.15.06.89.02-.04.04-.14.03-.27.03.04.03.12,0,.28.09-.11.06-.33.14-.33,0,.1-.02.14-.03.25.04-.19.09-.39.16-.3,0,.06,0,.14-.02.14.12-.03.21-.52.34-.33-.04.43.05.14.05.52l.07-.11-.03-.18c.06,0,.12-.27.17-.14l-.05.15.12-.07-.07-.14c.06-.19,0-.47.08-.37-.02.04.06,0,.1.22,0,0,0,0,0,0,.03-.12.06-.24.11-.15.01.12,0,.41,0,.49.03-.31.15-.09.19-.42-.01.08-.01.27,0,.31l.03-.25c.03.08.03.12.03.28.09.05-.03-.47.08-.27,0,.02,0,.06-.02.1.11.11.2-.16.3-.04.03.38-.08.09-.05.41.14-.07.29-.45.42-.36l-.03-.04c.02-.53.1.26.17.01-.02.04-.02.29-.02.24.09.08.19-.13.33-.3l-.02.14c.05.12.14.07.2.13.02-.14.05-.11.03-.31.18.78.35-.42.51.23-.02,0-.05.12-.03.12l.14-.13c-.01-.23-.02-.14-.05-.32.02-.14.06-.24.09-.24-.06.15,0,.37.03.5,0-.07,0-.15,0-.22.07.41.01-.46.11-.19v.12c.03-.06.07-.22.1-.19.02.27-.04.12-.04.34.06-.02.11-.51.16-.24-.02.07-.06.08-.08.15.06.31.06.23.1.28h0s.09.13.09.13l-.02-.08c.07-.7.14-.13.23-.58-.09.43-.01.25-.02.55.02.08.06.18.05.26.04-.24.07.19.14-.17,0,.1.05,0,.04.25.06-.08-.01-.17,0-.29.09-.33.21.4.34-.05.11-.19.13-.52.23-.68.03.16-.03.36-.03.36.06.14.1.12.15,0-.01.09,0,.16.02.27.04-.03.03-.36.08-.21,0,.11-.02.28-.04.39.05-.09.1-.27.15-.36.01.17-.03.26-.05.37.06-.08.15-.15.17-.42l-.04-.1s.01.23,0,.28c-.05.21-.07-.09-.07-.19l.04-.06c-.04-.57-.15.09-.22.06l.03-.42-.07.35c-.02-.11-.03-.34,0-.4-.05-.21-.05.15-.09-.08,0-.04,0-.06,0-.07l-.05.12c0-.09,0-.29.02-.23-.09-.24-.15.31-.18,0v-.03c-.12.14,0,.31-.1.66l-.07-.75v.31s-.05-.03-.05-.16c-.05.21,0,.13-.02.33-.06-.28-.18.13-.19-.36-.02.23.06.18,0,.34-.02-.52-.08.09-.14-.15.02-.27.07-.13.01-.37-.03.46-.11-.1-.16-.01,0,.36-.11.15-.19.27,0-.12-.16-.2-.23-.33v-.06c-.01.37-.09.3-.15.37,0-.22.01-.31.04-.41h-.05c-.01.12-.03.18-.06.22v-.27c-.06.02-.13.32-.22.14,0,.26.08.71-.02.88,0-.14,0-.38.02-.43,0,.02-.03.12-.05.06l.04-.23c-.04-.1-.02.19-.06.17,0-.2-.03-.14-.02-.3,0-.02.03.08.04,0-.04-.04-.08-.15-.1-.3,0,.11,0,.27-.03.29-.07.01-.03-.24-.07-.34-.02.14-.06,0-.06.29-.02,0-.03-.14-.03-.22-.04.13-.17.04-.13.35v.02s0,0,0,.01h0,0c-.12.29-.25-.17-.38-.04v-.1c-.07.11-.16.07-.21.28-.02,0-.05-.18-.04-.3-.06.07-.06.19-.14.02.06-.17-.02-.15.06-.13-.07-.09-.09-.24-.17.03.03-.25-.05-.32-.09-.24l.05.18s-.07.01-.11,0l.02-.33c-.15-.4-.26.69-.38.01-.04.23.08.16.05.44-.07-.04-.14-.52-.16-.52-.09-.18-.09.49-.18.36.01.12.03.44-.05.55-.07-.04-.08-.5-.04-.59.02-.01.02.03.02.07.02-.04.05-.09.02-.22v.12c-.04-.12-.14-.11-.11-.3-.05.11-.02.19.02.26-.09-.17-.14,0-.23-.12.01.07.03.2.01.2-.13-.15-.06.23-.15.28-.05-.18.02-.43-.07-.28-.05-.12-.01-.31,0-.41-.08.23-.15-.15-.2-.19l.04-.1c-.03.06-.05.06-.07.05l.03.24s-.05-.04-.05-.14c-.03.16.02.39-.03.61-.03-.12-.1.13-.11-.19.11.11-.01-.32.08-.37-.02.04-.04.04-.06,0,0-.04,0-.07.01-.08-.1-.28-.05.36-.15.35.01-.18-.03-.34-.04-.3.04,0,.02.3-.02.43-.07-.14-.07.1-.11.09l.04.07c-.01.18-.05.15-.09.21,0-.14.04-.1.03-.16-.05.31-.12-.32-.19-.11-.03-.12,0-.33-.03-.41-.08.23-.09-.24-.17-.05.03.24.03.18-.03.41l.14-.17-.09.35s.09-.15.11-.11c-.04.19-.04.14-.02.33-.06-.36-.11.21-.18-.03v-.59c-.1-.26-.18.3-.31.16l.04.1c-.02.23-.08.03-.12.13,0-.2-.02-.27-.04-.39,0,.15-.1-.01-.11.38l-.06-.26c-.11-.11-.12.56-.22.5.03-.21-.02-.35.05-.51-.03,0-.06-.04-.06.1-.02-.12-.09.27-.13.08-.01.09-.02.29-.06.28,0-.04,0-.1,0-.1,0,.1-.06.13-.03.35-.11-.62-.29.05-.38-.48-.07.07-.16.13-.23.14,0-.06,0-.1.01-.08-.09-.18-.06.57-.16.36-.05-.32.06-.17.02-.29-.02-.65-.13.09-.2-.29l.02-.04c-.05-.22-.13.25-.22.2,0,0,0-.06,0-.1-.06.33-.17.44-.26.53.03-.25.04-.13.02-.39-.04.04.01.41-.06.49-.03-.14-.08-.26-.09-.54l.07-.02c-.04-.36-.09.01-.13-.05v-.16c-.11.05-.11.44-.23.42v.12c-.05.39-.04-.22-.11.07l-.02-.39c-.04.1-.15.38-.23.46.04-.29.13-.44.19-.62-.04,0-.14.03-.17.22.02-.04.04-.13.06-.07-.05.31-.12.46-.2.46.01-.77-.22-.19-.28-.79-.15.28-.3-.12-.47-.07.06.6-.05.02-.04.63-.04.04-.06.03-.06-.01l-.12-.36c-.03-.18.04-.13.03-.27-.09-.05-.04-.26-.1-.42.01.22-.03.31-.08.23l.07.28c-.12.33-.11-.51-.23-.19l.04-.19c-.06.11-.24,0-.3.49-.01-.07-.03-.24,0-.28-.15-.07-.34.52-.46.22v-.15s-.04.28-.07.13c0-.06.01-.15,0-.16-.02.05-.08.26-.11.18l.03-.17c-.15-.2-.23.41-.35.51,0-.44-.12-.58-.18-.65v-.06c-.17-.05-.29.37-.45.54-.1-.48-.34-.2-.5-.47.02.08,0,.34-.03.39-.04-.09-.1.31-.1-.1h.01c-.03-.39-.11-.28-.17-.29v.53c-.17-.77-.42.28-.51-.4-.04.13-.09.13-.12.26v-.28c-.1-.07-.16-.11-.29-.04l.03-.2c-.07-.02-.09.82-.16.83l-.02-.42c-.13,0-.26-.36-.39.02,0-.06,0-.18.03-.2-.06-.01-.24-.29-.21.29,0-.38-.13-.04-.2.13v-.28c-.05.36-.05.45-.13.55-.02-.04-.02-.22,0-.15-.07-.15-.05.26-.13.12l.03-.18c-.07-.02-.06.07-.1.28-.04.11-.13-.07-.14-.32,0,.15-.04.36-.08.29,0-.1,0-.15.02-.18-.11-.19-.17.32-.24.05,0-.09,0-.14-.01-.17.09,0,.16.02.15.04,0-.26-.07-.3-.02-.66-.06.19-.15.61-.22.49,0-.02,0-.05,0-.09v-.03s-.02,0-.04.04c-.02-.04-.04-.07-.06-.08,0-.21-.08-.11-.12-.12,0,.28-.04.24,0,.47,0-.02,0-.03.03-.05,0,0,.01-.01.02-.03,0,0,0,.02,0,.02.02,0,.05-.01.09-.02-.03.14-.06.26-.1.11-.02.18-.04.37-.05.45-.05-.39-.14-.6-.16-.85-.11.16-.26.1-.32.63-.03.07-.04-.15-.05-.23.02-.05.04-.04.05-.12-.06.14-.18.05-.2.42-.08-.17.04-.34-.06-.28v-.11c-.2-.59-.33.94-.56.19.02.05.02.07.03.13-.27-.33-.55.31-.81-.21-.08-.11-.08.13-.13.31l-.02-.3-.08.35c-.11.26-.19-.74-.33-.26l.02.2c-.05-.04-.16.12-.15-.11,0,.04-.02.21-.04.11v-.16s-.13.27-.13.27c-.1-.11.01-.63-.13-.66-.05.06-.15.46-.13.57.02,0,.05.1.06.26l-.05.08c0,.47-.04.94.07,1.27l.08-.28.03.23h-.07c.04.23.06.04.09-.09,0,.12.02.2.03.25l.08-.44c.01.18-.03.36.02.46.04-.21-.04-.41.02-.54.04.21.03.38.07.2,0,.12,0,.2-.02.25.04-.14.11-.06.13-.31.04.26.14-.07.13.37.01-.11.07-.35.11-.36-.07.53.14.03.12.6.05-.47.18-.21.27-.47,0,.04-.01.11-.02.09.05.04.07.18.1.27,0-.39.08-.48.13-.72.06.38-.04.46-.02.82,0-.32.11-.32.08-.58.05.23.04.11.07.44,0-.49.04-.08.08-.38.07.24.02.46.09.31.04.15-.03.32-.03.32Zm1.78-.85h0s-.03.02-.04.02c0,0,.02,0,.04-.02Zm.15,0s-.04-.01-.07-.01c0-.1,0-.2.02-.19,0,.07.03.12.05.2Zm-.32-1.95s.03.02.04.07c-.01,0-.02.01-.04.03,0,.01,0,.02,0,.03,0-.05,0-.1,0-.14Z"/>
        <path class="cls-1" d="m10.46,15.69s0,.02,0,.02c0,.02,0,.05.01.06,0-.03,0-.06,0-.09,0,0,0,0-.01,0Z"/>
        <path class="cls-1" d="m24.07,16.08h0s0,.02,0,.03c0-.01,0-.02,0-.03Z"/>
        <polygon class="cls-1" points="12.9 17.8 12.9 17.73 12.88 17.79 12.9 17.8"/>
        <path class="cls-1" d="m24.9,17.04s0,.05.01.07c0-.02,0-.04-.01-.07Z"/>
        <path class="cls-1" d="m25.25,17.1l.05.1c-.02-.06-.04-.08-.05-.1Z"/>
        <path class="cls-1" d="m25.53,17.24s0-.09,0-.12c0,0,0,0,0,0v.12Z"/>
        <path class="cls-1" d="m21.16,17.58s0,0-.01.01c-.02.05,0,.03.01-.01Z"/>
        <path class="cls-1" d="m22.46,16.92c-.01.05-.03.1-.04.13.02.02.04.03.04-.13Z"/>
        <polygon class="cls-1" points="19.71 17.92 19.71 17.92 19.7 17.92 19.71 17.92"/>
        <path class="cls-1" d="m22.36,17.05c.02.06.04.04.06,0-.02-.02-.04-.05-.06,0Z"/>
        <path class="cls-1" d="m26.72,17.36h.01s0-.02,0-.03v.03Z"/>
        <path class="cls-1" d="m26.73,17.33v-.03s0,0,0,.03Z"/>
        <path class="cls-1" d="m26.78,17.23l-.03.07s.02,0,.03-.07Z"/>
        <path class="cls-1" d="m26.35,17.24v.1s0-.05,0-.1Z"/>
        <path class="cls-1" d="m26.24,17.27s.07.22.1.15v-.08c-.01.15-.08-.24-.1-.07Z"/>
        <path class="cls-1" d="m25.78,16.01l.09.08c-.02-.11-.04-.25,0-.28-.12-.32.02.24-.1.2Z"/>
        <path class="cls-1" d="m25.49,15.85c.05-.05,0-.16,0-.22-.03.1-.04.12,0,.22Z"/>
        <path class="cls-1" d="m23.42,15.85v-.26s0,.1,0,.26Z"/>
        <polygon class="cls-1" points="23.03 17.18 23.06 17.34 23.08 17.1 23.03 17.18"/>
        <polygon class="cls-1" points="22.79 15.36 22.8 15.32 22.74 15.41 22.79 15.36"/>
        <path class="cls-1" d="m19.3,15.45v.32c.04-.06.04-.41,0-.32Z"/>
        <path class="cls-1" d="m17.8,15.78c-.02-.16-.06-.26-.09-.1.03.02.07.14.09.1Z"/>
        <polygon class="cls-1" points="13.29 15.28 13.32 15.17 13.26 15.26 13.29 15.28"/>
      </g>
      <g>
        <path class="cls-1" d="m34.42,22.93c.02-.08.03-.28,0-.24l-.06.33.07-.08Z"/>
        <path class="cls-1" d="m34.22,22.3c-.06.16-.14.43-.14.74.08-.31.07-.18.16-.55.04-.03.06.11.04.23.02-.08.05.08.09-.13-.02-.26-.09-.28-.18-.07,0-.07.02-.16.02-.22Z"/>
        <path class="cls-1" d="m30.44,21.5l.02.04s-.01-.03-.02-.04Z"/>
        <path class="cls-1" d="m28.06,21.22s.03-.04.03-.07c-.02.02-.03.04-.03.07Z"/>
        <path class="cls-1" d="m27.66,20.84s.02.02.02.02c0-.03-.02-.05-.02-.02Z"/>
        <path class="cls-1" d="m30.44,21.5l-.06-.11c-.01.11.03.08.06.11Z"/>
        <path class="cls-1" d="m33.62,23.05s.03-.04.04-.08c-.01.01-.02.02-.04.03v.05Z"/>
        <path class="cls-1" d="m31.5,21.29h.02s.02-.08.03-.13l-.04.13Z"/>
        <path class="cls-1" d="m32.31,21.3s-.04.27-.06.39c.02-.11.04-.17.05-.19,0-.05,0-.12,0-.2Z"/>
        <path class="cls-1" d="m33.55,21.9l.03-.04-.03.04Z"/>
        <path class="cls-1" d="m30.93,21.19s0-.08,0-.1c0,.04,0,.07,0,.1Z"/>
        <path class="cls-1" d="m8.82,24.81s0-.03,0-.05c0,.03,0,.05,0,.05Z"/>
        <polygon class="cls-1" points="7.64 23.63 7.65 23.61 7.62 23.46 7.64 23.63"/>
        <path class="cls-1" d="m26.92,20.47h0s0-.02,0,0Z"/>
        <path class="cls-1" d="m20.03,20.85c.09.25-.11.33.03.6-.02-.11.08-.44-.03-.6Z"/>
        <path class="cls-1" d="m33.61,23.01s-.02,0-.03,0c.01.01.02.01.03,0Z"/>
        <path class="cls-1" d="m20.06,21.45h0s.01.03.01.03c0-.01,0-.02-.01-.03Z"/>
        <path class="cls-1" d="m25.18,20.63s.01.09.02.12c0-.03,0-.06-.02-.12Z"/>
        <path class="cls-1" d="m26.47,21.03l-.03-.04s.02.03.03.04Z"/>
        <path class="cls-1" d="m24.52,21.03s-.02-.06-.05-.02c0,.01,0,.02,0,.03,0-.04.02-.06.04-.01Z"/>
        <path class="cls-1" d="m23.83,21.05s0,.04.01.06l.02-.02-.04-.04Z"/>
        <path class="cls-1" d="m10.82,24.3c-.03-.08-.05-.16-.07-.24.04.19-.04.28.07.24Z"/>
        <path class="cls-1" d="m33.64,22.89c-.01.07-.02.1-.03.12,0,0,.02,0,.02-.01,0-.04,0-.08,0-.11Z"/>
        <path class="cls-1" d="m24.52,23.25l-.11-.04s.07.04.11.04Z"/>
        <path class="cls-1" d="m15.63,23.56l-.02.04s.02,0,.02-.04Z"/>
        <path class="cls-1" d="m24.09,23.26c-.02-.1-.04-.16-.06-.19,0,.02,0,.04-.01.07l.08.12Z"/>
        <path class="cls-1" d="m10.74,24.05h0s0,0,0,0Z"/>
        <path class="cls-1" d="m10.16,24.84c.1-.01-.02-.36-.03-.58.1-.13.1.26.18.44.06-.11.06-.45.11-.45.01.06.03.08.03.16.03-.3.23-.06.26-.44.01.03.02.06.03.09-.05-.18-.08-.36-.1-.5.04-.01.04-.25.1-.01-.03,0-.01.09-.01.17l.03-.11c.1.33-.04.13,0,.38.07-.13.13-.43.22-.35.07.33-.15.14,0,.42l-.13-.11c.18.51-.07-.02.1.53.16.07.13-.2.29-.13,0-.19-.06-.27-.06-.46.15-.37.3.82.38.35,0-.23-.05-.66.09-.45l.03.38c.15.02,0-.56.18-.33,0,.15-.09.14-.06.18.14.28.03-.23.11-.24l.07.33c.14-.08.27-.35.42-.43,0,.1,0,.21.05.31.18-.2.45-.03.68.14l.03-.3s.05.13.04.19c.09.1-.02-.18,0-.3.04-.03.08.16.07.25.1-.27.32-.59.51-.3l-.02.09c.13.1.05-.61.19-.36v.05c.25.09.49-.21.74.2-.02-.42.27.16.21-.43.18.27.15.38.37.55.06.02.04-.38.09-.44l.04.31.05-.33.09.36.05-.09s-.07-.13-.08-.22c.08-.15.26.18.28.34l.2-.29c0,.12-.02.17-.05.25.09-.33.06.32.14.02-.02-.07-.01-.18-.02-.25.08.18.2.17.29.08v.21c.18.04.35-.14.54-.15-.08-.09-.1-.46-.05-.5l.06.32c.02-.2-.07-.12-.02-.37.08.03.09.36.06.47l.08-.12c.01.1,0,.15,0,.27.02-.2.18.31.2-.04v.1c.2-.02.28-.14.43-.17-.02-.28.04-.22.07-.46.12.08.27.29.4.25.08-.15,0-.24.04-.41.03.25.16.22.11.41.16-.06.21-.07.4-.29-.03-.1-.06-.15-.05-.23.03-.04.1.1.1.22v.03c.2-.4.59.7.74.15v.03s.17-.29.17-.29c.09.04-.04.2.04.35.18-.44.33.04.49-.25.18.75.47-.08.68.39l-.02-.18c.04-.18.06.1.1.14-.01-.14-.06-.16-.04-.25.38-.24.83.22,1.23.36.15.04.05-.92.25-.51l-.04.33c.28-.41.61-.01.89-.35-.02.08-.01.18-.04.18.07.24.23,0,.22-.19.05.02.02.18.05.28.07.14.15-.31.19-.07,0,.04-.02.08-.03.1.04-.12.19.03.14-.25.11.13.21-.13.3.03.05-.31.19.14.2-.29,0,.45.2.36.26.15-.02.14.06.14.04.33.08,0,.15-.09.13-.32.15.54.29-.44.38.26.23-.24.45-.41.66-.52,0,.45-.23.05-.22.52.2-.19.32-.57.52-.47.05.06-.03.2-.05.27.2-.19.39.05.57-.2,0,.04-.02.09-.04.12.04-.01.08.07.08-.14l-.03.06c-.05-.3.15-.62.15-.78-.07.59.18.15.07.89.02-.04.05-.14.05-.27.03.04.04.12,0,.28.13-.11.09-.33.2-.32,0,.1-.03.14-.04.25.06-.19.12-.39.22-.3,0,.06,0,.14-.03.14.17-.03.29-.51.47-.32-.06.43.06.14.06.52l.1-.11-.03-.18c.09,0,.17-.26.24-.14l-.07.15.16-.07-.09-.14c.09-.19,0-.47.12-.36-.02.04.09,0,.12.23h0c.05-.12.09-.24.15-.15.01.12-.03.41-.02.49.05-.31.2-.08.27-.41-.02.08-.03.27-.02.31l.04-.25c.04.08.04.12.03.28.12.05-.02-.47.11-.27-.01.02,0,.06-.03.1.14.11.28-.15.41-.02.02.38-.12.09-.09.41.19-.06.41-.44.59-.34l-.03-.04c.05-.53.12.27.23.02-.02.04-.04.29-.03.23.12.09.26-.12.46-.27l-.03.13c.07.13.19.08.27.15.03-.13.08-.11.06-.31.2.79.5-.39.67.27-.03,0-.07.11-.05.12l.19-.11c0-.23-.02-.14-.04-.32.03-.14.09-.24.14-.23-.09.15-.02.37,0,.5,0-.07.02-.15.02-.22.07.42.05-.46.16-.18l-.02.12c.05-.06.11-.21.16-.18,0,.27-.06.12-.08.34.08,0,.18-.49.23-.22-.04.07-.08.07-.12.14.05.32.07.24.12.29h0s.12.14.12.14l-.03-.09c.15-.69.2-.11.36-.56-.16.42-.04.25-.07.55.03.09.07.18.05.27.08-.24.08.2.2-.15,0,.1.06.01.03.26.08-.07,0-.17.01-.29.15-.32.25.43.46-.01.16-.17.22-.5.37-.65.03.16-.07.35-.07.35.06.15.12.13.2.02-.02.08-.01.16,0,.27.06-.02.07-.35.13-.2-.02.11-.06.28-.09.38.07-.08.16-.26.24-.34,0,.17-.07.25-.1.36.08-.07.22-.13.27-.4l-.04-.1s0,.23-.03.28c-.09.2-.09-.1-.08-.2l.06-.06c0-.57-.21.07-.3.03l.08-.41-.13.33c-.01-.11,0-.34.05-.4-.05-.21-.08.14-.12-.09,0-.04,0-.06,0-.07l-.08.12c.02-.09.01-.29.05-.23-.11-.25-.23.29-.25-.03v-.02c-.17.12-.03.3-.19.65l-.02-.76-.04.3s-.05-.04-.03-.16c-.08.2,0,.13-.05.33-.06-.29-.25.11-.23-.38-.05.23.07.18-.04.34.02-.52-.11.08-.17-.16.05-.27.11-.12.05-.37-.08.45-.15-.11-.22-.03-.03.36-.16.14-.28.25.02-.12-.2-.21-.29-.35v-.06c-.04.36-.14.29-.23.36.02-.22.04-.3.09-.4h-.07c-.03.11-.05.17-.1.21l.04-.27c-.1,0-.22.31-.33.12-.02.26.06.72-.09.88,0-.14.01-.38.05-.43-.01.02-.05.11-.07.05l.07-.23c-.05-.11-.04.19-.09.17.01-.2-.03-.14,0-.3.01-.02.04.08.06,0-.05-.04-.11-.16-.12-.31,0,.11-.02.27-.06.29-.1,0-.02-.24-.07-.34-.03.14-.09,0-.11.28-.03,0-.03-.14-.03-.22-.06.13-.24.02-.2.34v.02s0,.01,0,.01h0s0,0,0,0c-.18.28-.34-.19-.51-.07v-.1c-.1.11-.22.06-.3.26-.03,0-.06-.18-.04-.3-.08.07-.09.18-.19.01.08-.17-.02-.15.08-.12-.09-.09-.11-.25-.23.02.05-.25-.06-.32-.11-.25l.06.18c-.05.04-.1.01-.15-.01l.04-.33c-.19-.41-.39.68-.52,0-.06.23.1.17.05.44-.09-.05-.17-.53-.2-.53-.12-.19-.13.48-.26.35.01.12.02.44-.08.54-.09-.05-.1-.5-.04-.59.02,0,.03.03.03.07.03-.04.07-.09.04-.22l-.02.12c-.04-.12-.17-.11-.14-.31-.07.11-.04.19.02.26-.12-.18-.19-.01-.31-.13.02.07.03.21.01.2-.18-.15-.08.22-.21.27-.07-.18.03-.43-.09-.28-.07-.12,0-.32.02-.41-.12.23-.21-.15-.27-.2l.06-.09c-.04.06-.07.05-.1.05l.03.24s-.06-.04-.06-.14c-.04.15.02.4-.05.61-.04-.12-.14.13-.15-.19.14.11-.01-.32.11-.37-.02.04-.05.04-.09,0,0-.04,0-.07.02-.08-.14-.28-.07.36-.21.35.02-.18-.03-.34-.05-.3.06,0,.02.3-.03.43-.09-.14-.1.1-.15.08l.05.07c-.02.18-.07.15-.13.21,0-.14.06-.09.04-.16-.07.31-.16-.33-.26-.12-.05-.12,0-.33-.04-.42-.11.23-.12-.24-.24-.05.03.24.04.18-.04.41l.19-.17-.13.35c.06,0,.12-.15.16-.11-.06.19-.05.14-.03.33-.08-.36-.16.21-.25-.03v-.59c-.14-.26-.24.3-.42.16l.06.1c-.02.23-.11.03-.17.13,0-.2-.03-.27-.06-.39,0,.15-.13-.01-.15.38l-.08-.26c-.15-.11-.16.56-.3.5.04-.21-.03-.35.07-.51-.05,0-.09-.04-.09.1-.03-.12-.13.27-.17.08-.02.09-.02.29-.07.28,0-.04,0-.1,0-.1,0,.1-.08.13-.03.35-.15-.61-.4.05-.53-.47-.1.07-.22.14-.31.15,0-.06,0-.1.02-.08-.13-.18-.06.57-.21.37-.08-.32.07-.17.02-.29-.04-.65-.17.09-.28-.28l.02-.04c-.08-.22-.17.25-.3.21,0,0,0-.06,0-.1-.07.33-.23.45-.34.55.03-.26.05-.14.02-.39-.05.04.03.41-.07.49-.04-.14-.12-.26-.14-.53l.1-.02c-.06-.35-.13.02-.18-.04v-.16c-.15.06-.14.45-.3.43l.02.12c-.07.39-.08-.22-.16.08l-.04-.39c-.05.1-.19.39-.29.47.05-.29.16-.45.23-.63-.06,0-.2.04-.22.23.02-.04.05-.14.07-.08-.06.31-.14.47-.26.47-.02-.77-.31-.18-.43-.77-.19.3-.41-.1-.65-.03.12.59-.07.02-.02.63-.05.04-.07.03-.08,0l-.19-.35c-.05-.18.04-.14.03-.27-.13-.04-.07-.26-.16-.41.03.22-.02.32-.1.24l.12.28c-.15.34-.18-.5-.33-.17l.04-.2c-.08.12-.33.02-.38.52-.02-.07-.05-.23-.02-.28-.22-.06-.43.56-.62.27v-.15s-.04.29-.1.14c0-.06,0-.15-.02-.16-.02.05-.08.27-.14.19l.03-.17c-.22-.18-.28.43-.44.55-.04-.44-.21-.57-.3-.63v-.06c-.25-.03-.38.4-.58.6-.18-.46-.49-.15-.73-.4.04.08.03.34,0,.39-.06-.08-.11.32-.15-.08h.02c-.08-.38-.18-.27-.26-.27l.05.53c-.3-.74-.53.35-.73-.32-.04.14-.1.14-.14.28l-.03-.28c-.15-.05-.23-.08-.4,0v-.21c-.09,0-.01.83-.1.85l-.08-.42c-.18.03-.4-.31-.53.09,0-.06-.02-.18,0-.2-.08,0-.36-.24-.25.33-.05-.37-.19-.01-.26.17l-.02-.28c-.03.36-.02.46-.12.57-.03-.03-.05-.22,0-.15-.11-.13-.03.27-.16.14v-.18c-.08,0-.06.08-.08.3-.04.12-.18-.05-.23-.29.01.15,0,.36-.07.3-.02-.09-.01-.15,0-.18-.18-.17-.18.36-.32.1-.02-.09-.03-.14-.04-.16.12-.01.22-.01.21,0-.04-.25-.14-.28-.12-.65-.05.2-.12.64-.23.54,0-.02-.01-.05-.03-.09v-.03s-.04,0-.05.05c-.04-.04-.06-.06-.09-.06-.04-.21-.13-.1-.18-.1.05.28-.02.24.07.46-.01-.02,0-.03.03-.05,0,0,.01-.01.02-.03v.02s.07-.03.12-.04c-.02.15-.04.27-.12.13,0,.18,0,.37,0,.46-.13-.38-.29-.57-.35-.8-.12.18-.33.16-.34.69-.03.07-.07-.14-.1-.22.02-.06.05-.05.05-.13-.06.15-.24.09-.2.46-.13-.15,0-.34-.13-.26v-.11c-.39-.53-.3,1.01-.75.32.03.04.04.06.06.12-.42-.26-.68.44-1.14-.01-.12-.08-.09.15-.11.34l-.08-.29-.04.36c-.1.28-.4-.68-.5-.16l.06.19c-.08-.02-.19.16-.23-.07,0,.04.02.21-.03.11l-.03-.15-.11.3c-.15-.09-.11-.62-.3-.61-.06.07-.11.49-.06.59.03,0,.09.08.13.24l-.05.09c.08.46.13.93.36,1.22l.05-.3.08.21-.09.03c.09.2.09,0,.1-.13.03.12.07.2.1.23l.02-.46c.05.18.03.36.12.45,0-.21-.13-.39-.07-.54.09.2.11.37.14.18.03.12.03.19.02.25.02-.15.13-.09.11-.34.11.25.17-.1.25.33,0-.11.03-.36.07-.39.01.54.19,0,.28.55-.02-.48.2-.25.27-.54,0,.04,0,.12-.01.09.07.03.12.16.18.24-.06-.39.02-.49.03-.74.15.36.04.46.13.81-.06-.31.08-.34,0-.59.11.22.07.1.17.42-.08-.48.04-.09.04-.4.13.22.11.45.18.28.07.14.02.33.02.33Zm2.22-1.24h0s-.04.02-.05.03c0,0,.02-.01.05-.03Zm.2-.04s-.06,0-.09,0c-.02-.09-.03-.19,0-.19,0,.07.05.11.1.19Zm-.73-1.86s.05,0,.06.06c-.01,0-.03.02-.05.04v.03c0-.05,0-.1,0-.14Z"/>
        <path class="cls-1" d="m11.86,22.08s0,.02-.01.02c.01.02.02.04.03.06v-.09s-.02,0-.02,0Z"/>
        <path class="cls-1" d="m30.46,21.54h0s0,.02,0,.03c0-.01,0-.02,0-.03Z"/>
        <polygon class="cls-1" points="15.42 23.73 15.41 23.65 15.4 23.72 15.42 23.73"/>
        <path class="cls-1" d="m31.53,22.57s0,.05,0,.07c0-.02,0-.04,0-.07Z"/>
        <path class="cls-1" d="m32,22.67l.06.1c-.03-.06-.04-.09-.06-.1Z"/>
        <path class="cls-1" d="m32.36,22.84s.01-.09.02-.12h0s-.02.12-.02.12Z"/>
        <path class="cls-1" d="m26.48,22.91s0,0-.01.01c-.03.05-.01.03.01-.01Z"/>
        <path class="cls-1" d="m28.24,22.29c-.02.05-.04.1-.06.13.03.02.05.03.06-.13Z"/>
        <polygon class="cls-1" points="24.53 23.25 24.53 23.25 24.52 23.25 24.53 23.25"/>
        <path class="cls-1" d="m28.1,22.41c.03.06.06.05.08,0-.03-.02-.05-.05-.08,0Z"/>
        <path class="cls-1" d="m33.95,23.1h.02s0-.02,0-.03l-.02.03Z"/>
        <path class="cls-1" d="m33.97,23.07l.02-.03s-.02,0-.02.03Z"/>
        <path class="cls-1" d="m34.04,22.97l-.05.07s.03.01.05-.07Z"/>
        <path class="cls-1" d="m33.47,22.93v.1s0-.05,0-.1Z"/>
        <path class="cls-1" d="m33.32,22.95s.07.22.12.17v-.08c-.02.15-.08-.25-.12-.09Z"/>
        <path class="cls-1" d="m32.8,21.63l.12.09c-.01-.11-.03-.26.03-.28-.13-.34.01.24-.15.19Z"/>
        <path class="cls-1" d="m32.43,21.45c.07-.05.01-.16.02-.22-.05.1-.06.12-.02.22Z"/>
        <path class="cls-1" d="m29.59,21.27l.02-.25c-.05.03,0,.1-.02.25Z"/>
        <polygon class="cls-1" points="29 22.57 29.04 22.73 29.07 22.5 29 22.57"/>
        <polygon class="cls-1" points="28.74 20.74 28.77 20.71 28.68 20.8 28.74 20.74"/>
        <path class="cls-1" d="m23.94,20.8l.02.31c.03-.06.04-.41-.02-.31Z"/>
        <path class="cls-1" d="m21.89,21.18c-.03-.16-.09-.26-.12-.1.05.02.1.14.12.1Z"/>
        <polygon class="cls-1" points="15.67 21.15 15.7 21.04 15.63 21.14 15.67 21.15"/>
      </g>
    </g>
  </g>
</svg>