<?xml version="1.0" encoding="UTF-8"?>
<svg xmlns="http://www.w3.org/2000/svg" xmlns:xlink="http://www.w3.org/1999/xlink" viewBox="0 0 30.69 31.89">
  <defs>
    <style>
      .cls-1 {
        fill: #1e64c0;
      }

      .cls-2 {
        fill: #fff;
      }

      .cls-3 {
        isolation: isolate;
      }

      .cls-4 {
        fill: url(#radial-gradient);
        mix-blend-mode: multiply;
        opacity: .8;
      }
    </style>
    <radialGradient id="radial-gradient" cx="15.35" cy="16.55" fx="15.35" fy="16.55" r="15.35" gradientUnits="userSpaceOnUse">
      <stop offset="0" stop-color="#000057"/>
      <stop offset=".39" stop-color="#7474a4" stop-opacity=".54"/>
      <stop offset=".79" stop-color="#d8d8e5" stop-opacity=".15"/>
      <stop offset="1" stop-color="#fff" stop-opacity="0"/>
    </radialGradient>
  </defs>
  <g class="cls-3">
    <g id="Layer_2" data-name="Layer 2">
      <g id="mobileversion">
        <g>
          <circle class="cls-4" cx="15.35" cy="16.55" r="15.35"/>
          <g>
            <path class="cls-1" d="m22.04,10.44C22.04,4.67,17.37,0,11.6,0S1.17,4.67,1.17,10.44c0,5.21,3.82,9.53,8.81,10.31v-7.29h-2.65v-3.02h2.65v-2.3c0-2.62,1.56-4.06,3.94-4.06,1.14,0,2.34.2,2.34.2v2.57h-1.32c-1.3,0-1.7.8-1.7,1.63v1.96h2.89l-.46,3.02h-2.43v7.29c4.99-.78,8.81-5.1,8.81-10.31Z"/>
            <path class="cls-2" d="m15.67,13.45l.46-3.02h-2.89v-1.96c0-.83.4-1.63,1.7-1.63h1.32v-2.57s-1.19-.2-2.34-.2c-2.38,0-3.94,1.44-3.94,4.06v2.3h-2.65v3.02h2.65v7.29c.53.08,1.08.13,1.63.13s1.1-.04,1.63-.13v-7.29h2.43Z"/>
          </g>
        </g>
      </g>
    </g>
  </g>
</svg>