<?xml version="1.0" encoding="UTF-8"?>
<svg xmlns="http://www.w3.org/2000/svg" xmlns:xlink="http://www.w3.org/1999/xlink" viewBox="0 0 30.69 32.19">
  <defs>
    <style>
      .cls-1 {
        fill: #1e64c0;
      }

      .cls-2 {
        fill: #fff;
      }

      .cls-3 {
        isolation: isolate;
      }

      .cls-4 {
        fill: url(#radial-gradient);
        mix-blend-mode: multiply;
        opacity: .8;
      }
    </style>
    <radialGradient id="radial-gradient" cx="15.35" cy="16.85" fx="15.35" fy="16.85" r="15.35" gradientUnits="userSpaceOnUse">
      <stop offset="0" stop-color="#000057"/>
      <stop offset=".39" stop-color="#7474a4" stop-opacity=".54"/>
      <stop offset=".79" stop-color="#d8d8e5" stop-opacity=".15"/>
      <stop offset="1" stop-color="#fff" stop-opacity="0"/>
    </radialGradient>
  </defs>
  <g class="cls-3">
    <g id="Layer_2" data-name="Layer 2">
      <g id="mobileversion">
        <g>
          <circle class="cls-4" cx="15.35" cy="16.85" r="15.35"/>
          <circle class="cls-1" cx="11.6" cy="10.44" r="10.44"/>
          <path class="cls-2" d="m7.23,8.49h2.02v6.49h-2.02v-6.49Zm1.01-3.23c.65,0,1.17.52,1.17,1.17s-.52,1.17-1.17,1.17-1.17-.53-1.17-1.17.52-1.17,1.17-1.17"/>
          <path class="cls-2" d="m10.52,8.49h1.94v.89h.03c.27-.51.93-1.05,1.91-1.05,2.04,0,2.42,1.34,2.42,3.09v3.56h-2.02v-3.16c0-.75-.01-1.72-1.05-1.72s-1.21.82-1.21,1.67v3.21h-2.02v-6.49Z"/>
        </g>
      </g>
    </g>
  </g>
</svg>