<?xml version="1.0" encoding="UTF-8"?>
<svg id="Layer_2" data-name="Layer 2" xmlns="http://www.w3.org/2000/svg" viewBox="0 0 41.54 31.73">
  <defs>
    <style>
      .cls-1 {
        fill: #0064c3;
      }
    </style>
  </defs>
  <g id="mobileversion">
    <g>
      <g>
        <rect class="cls-1" x="6.83" y="5.5" width=".83" height="5.38"/>
        <rect class="cls-1" x="5.17" y="5.5" width=".83" height="5.38"/>
        <rect class="cls-1" x="3.51" y="5.5" width=".83" height="5.38"/>
        <rect class="cls-1" x="1.86" y="5.5" width=".83" height="5.38"/>
        <rect class="cls-1" x="8.48" y="5.5" width=".83" height="5.38"/>
        <rect class="cls-1" x="10.14" y="5.5" width=".83" height="5.38"/>
        <rect class="cls-1" x="11.8" y="5.5" width=".83" height="5.38"/>
        <rect class="cls-1" x="1.01" y="11.7" width="12.46" height=".83"/>
        <polygon class="cls-1" points="12.62 4.67 1.86 4.67 1.03 3.84 13.45 3.84 12.62 4.67"/>
        <rect class="cls-1" x=".18" y="13.36" width="14.12" height=".83"/>
      </g>
      <polygon class="cls-1" points="14.3 2.5 7.24 0 .18 2.5 .18 3.38 7.24 .88 14.3 3.38 14.3 2.5"/>
      <path class="cls-1" d="m25.18,18.1c.37,0,.71.12.87.24v-.75c-.16-.1-.55-.21-.94-.21-1.1,0-1.7.63-1.7,1.53,0,.76.32,1.12.84,1.56l.47.41c.39.33.63.58.63,1.06,0,.57-.38.8-.94.8-.43,0-.78-.12-.99-.26v.76c.18.1.56.21,1.06.21,1.1,0,1.7-.63,1.7-1.53,0-.76-.32-1.12-.84-1.56l-.47-.41c-.39-.33-.63-.58-.63-1.06,0-.57.37-.8.94-.8Z"/>
      <path class="cls-1" d="m.18,21.59v-4.09h.83v4.13c0,.87.3,1.12.9,1.12s.9-.25.9-1.12v-4.13h.83v4.09c0,1.33-.56,1.87-1.73,1.87s-1.73-.52-1.73-1.87Z"/>
      <path class="cls-1" d="m4.71,17.5h.95l1.85,4.67c-.06-.48-.12-1.04-.12-1.56v-3.11h.79v5.86h-.96l-1.86-4.69c.07.48.13,1.05.13,1.58v3.11h-.79v-5.86Z"/>
      <path class="cls-1" d="m9.36,17.5h.83v5.86h-.83v-5.86Z"/>
      <path class="cls-1" d="m10.96,17.5h.87l.74,3.05c.11.46.24,1.23.32,1.85.08-.61.22-1.39.34-1.85l.73-3.05h.84l-1.49,5.86h-.87l-1.49-5.86Z"/>
      <path class="cls-1" d="m15.57,17.5h2.74v.7h-1.91v1.79h1.54v.69h-1.54v1.96h1.91v.7h-2.74v-5.86Z"/>
      <path class="cls-1" d="m19.27,17.5h1.35c1.08,0,1.86.41,1.86,1.73,0,.93-.45,1.38-1.02,1.59l1.24,2.54h-.95l-1.1-2.39h-.56v2.39h-.83v-5.86Zm.83.7v2.06h.44c.65,0,1.08-.14,1.08-1.04s-.43-1.03-1.08-1.03h-.44Z"/>
      <path class="cls-1" d="m27.17,17.5h.83v5.86h-.83v-5.86Z"/>
      <path class="cls-1" d="m28.78,17.5h3.36v.7h-1.27v5.15h-.83v-5.15h-1.26v-.7Z"/>
      <path class="cls-1" d="m32.9,17.5h2.74v.7h-1.91v1.79h1.54v.69h-1.54v1.96h1.91v.7h-2.74v-5.86Z"/>
      <path class="cls-1" d="m36.59,17.5h.83v5.86h-.83v-5.86Z"/>
      <path class="cls-1" d="m38.18,17.5h3.36v.7h-1.27v5.15h-.83v-5.15h-1.26v-.7Z"/>
      <path class="cls-1" d="m0,28.69c0-2.31.61-3.04,2.14-3.04.43,0,.89.12,1.09.23v.77c-.22-.13-.63-.26-1.03-.26-.97,0-1.34.36-1.34,2.3s.26,2.31,1.11,2.31c.26,0,.48-.04.64-.08v-1.95h-.86v-.7h1.69v3.16c-.17.11-.86.3-1.46.3-1.59,0-1.97-.83-1.97-3.04Z"/>
      <path class="cls-1" d="m4.42,25.76h2.74v.7h-1.91v1.79h1.54v.69h-1.54v1.96h1.91v.7h-2.74v-5.86Z"/>
      <path class="cls-1" d="m8.12,25.76h.96l1.85,4.67c-.06-.48-.12-1.04-.12-1.56v-3.11h.79v5.86h-.96l-1.87-4.68c.07.48.14,1.04.14,1.58v3.11h-.79v-5.86Z"/>
      <path class="cls-1" d="m12.35,25.76h3.36v.7h-1.27v5.15h-.83v-5.15h-1.26v-.7Z"/>
    </g>
  </g>
</svg>