<?xml version="1.0" encoding="UTF-8"?>
<svg id="Layer_2" data-name="Layer 2" xmlns="http://www.w3.org/2000/svg" viewBox="0 0 81.57 14.67">
  <defs>
    <style>
      .cls-1 {
        fill: #ffa40e;
      }
    </style>
  </defs>
  <g id="mobileversion">
    <g>
      <g>
        <path class="cls-1" d="m17.34,8.57h2.8v.72h-1.95v1.83h1.58v.71h-1.58v2.01h1.95v.72h-2.8v-5.99Z"/>
        <path class="cls-1" d="m21.26,8.57h.98l1.89,4.78c-.06-.49-.12-1.06-.12-1.59v-3.18h.81v5.99h-.98l-1.91-4.79c.07.49.14,1.07.14,1.61v3.18h-.81v-5.99Z"/>
        <path class="cls-1" d="m27.45,8.57h.85l.49,2.95c.08.48.18,1.42.24,2.14.06-.72.16-1.65.24-2.14l.5-2.95h.87l.5,2.95c.08.48.18,1.41.23,2.12.06-.71.17-1.64.25-2.12l.49-2.95h.82l-1.14,5.99h-.88l-.49-2.95c-.07-.44-.18-1.28-.23-1.97-.06.69-.15,1.53-.22,1.97l-.5,2.95h-.87l-1.14-5.99Z"/>
        <path class="cls-1" d="m33.74,14.37v-.75c.21.13.66.3,1.23.3.91,0,1.31-.37,1.31-1.39v-3.96h.85v4.06c0,1.36-.64,2.05-2.06,2.05-.71,0-1.16-.19-1.32-.3Zm0-5.8h.85v3.56h-.85v-3.56Z"/>
        <path class="cls-1" d="m41.94,8.57h1.17c1.18,0,2,.3,2,1.64,0,.69-.28,1.09-.67,1.31.5.19.86.61.86,1.4,0,1.32-.81,1.64-1.99,1.64h-1.36v-5.99Zm.85.7v1.95h.29c.67,0,1.15-.07,1.15-.99s-.48-.97-1.15-.97h-.29Zm0,2.64v1.95h.49c.67,0,1.14-.06,1.14-.97s-.48-.99-1.14-.99h-.49Z"/>
        <path class="cls-1" d="m46.3,8.57h2.8v.72h-1.96v1.83h1.58v.71h-1.58v2.01h1.96v.72h-2.8v-5.99Z"/>
        <path class="cls-1" d="m49.85,11.56c0-2.36.63-3.11,2.18-3.11.44,0,.91.12,1.12.24v.78c-.22-.13-.65-.27-1.05-.27-1,0-1.37.37-1.37,2.35s.27,2.37,1.13,2.37c.27,0,.49-.04.65-.08v-2h-.89v-.72h1.73v3.24c-.18.11-.88.3-1.49.3-1.62,0-2.02-.85-2.02-3.11Z"/>
        <path class="cls-1" d="m54.62,8.57h2.8v.72h-1.95v1.83h1.58v.71h-1.58v2.01h1.95v.72h-2.8v-5.99Z"/>
        <path class="cls-1" d="m58.53,8.57h2.8v.72h-1.95v1.83h1.58v.71h-1.58v2.01h1.95v.72h-2.8v-5.99Z"/>
        <path class="cls-1" d="m62.45,8.57h1.38c1.11,0,1.9.41,1.9,1.77,0,.95-.46,1.41-1.04,1.62l1.27,2.6h-.97l-1.13-2.44h-.57v2.44h-.85v-5.99Zm.85.72v2.11h.45c.66,0,1.11-.14,1.11-1.06s-.44-1.05-1.11-1.05h-.45Z"/>
        <path class="cls-1" d="m66.07,8.57h3.44v.72h-1.3v5.27h-.85v-5.27h-1.29v-.72Z"/>
        <path class="cls-1" d="m70.22,8.57h2.8v.72h-1.95v1.83h1.58v.71h-1.58v2.01h1.95v.72h-2.8v-5.99Z"/>
      </g>
      <g>
        <path class="cls-1" d="m17.34.11h2.71v.72h-1.86v1.83h1.49v.71h-1.49v2.73h-.85V.11Z"/>
        <path class="cls-1" d="m21.55.11h.88l1.59,5.99h-.88l-.35-1.36h-1.63l-.34,1.36h-.86L21.55.11Zm-.23,3.92h1.32l-.25-1c-.13-.5-.29-1.26-.4-1.93-.11.66-.29,1.43-.41,1.93l-.26,1Z"/>
        <path class="cls-1" d="m24.45,3.11c0-2.24.49-3.11,1.95-3.11.44,0,.84.11,1.03.22v.78c-.22-.12-.61-.24-.98-.24-.88,0-1.12.4-1.12,2.34s.27,2.35,1.12,2.35c.38,0,.81-.13,1.03-.26v.78c-.19.11-.65.23-1.07.23-1.58,0-1.96-.87-1.96-3.11Z"/>
        <path class="cls-1" d="m28.31,4.3V.11h.85v4.22c0,.89.3,1.14.92,1.14s.92-.26.92-1.14V.11h.85v4.19c0,1.36-.57,1.92-1.77,1.92s-1.77-.53-1.77-1.92Z"/>
        <path class="cls-1" d="m33.14.11h.85v5.27h1.86v.72h-2.71V.11Z"/>
        <path class="cls-1" d="m35.56.11h3.44v.72h-1.3v5.27h-.85V.83h-1.29V.11Z"/>
        <path class="cls-1" d="m39.71.11h2.8v.72h-1.95v1.83h1.58v.71h-1.58v2.01h1.95v.72h-2.8V.11Z"/>
        <path class="cls-1" d="m43.62.11h.85v5.99h-.85V.11Z"/>
        <path class="cls-1" d="m45.18.11h3.44v.72h-1.3v5.27h-.85V.83h-1.29V.11Z"/>
        <path class="cls-1" d="m50.95.11h.85v5.27h1.86v.72h-2.71V.11Z"/>
        <path class="cls-1" d="m54.47.11h2.8v.72h-1.96v1.83h1.58v.71h-1.58v2.01h1.96v.72h-2.8V.11Z"/>
        <path class="cls-1" d="m57.77.11h3.44v.72h-1.3v5.27h-.85V.83h-1.29V.11Z"/>
        <path class="cls-1" d="m61.6.11h3.44v.72h-1.3v5.27h-.85V.83h-1.29V.11Z"/>
        <path class="cls-1" d="m65.74.11h2.8v.72h-1.95v1.83h1.58v.71h-1.58v2.01h1.95v.72h-2.8V.11Z"/>
        <path class="cls-1" d="m69.66.11h1.38c1.11,0,1.9.41,1.9,1.77,0,.95-.46,1.41-1.04,1.62l1.27,2.6h-.97l-1.13-2.44h-.57v2.44h-.85V.11Zm.85.72v2.11h.45c.66,0,1.11-.14,1.11-1.06s-.44-1.05-1.11-1.05h-.45Z"/>
        <path class="cls-1" d="m74.09.11h2.8v.72h-1.96v1.83h1.58v.71h-1.58v2.01h1.96v.72h-2.8V.11Z"/>
        <path class="cls-1" d="m78.01.11h.98l1.89,4.78c-.06-.49-.12-1.06-.12-1.59V.11h.81v5.99h-.98l-1.91-4.79c.07.49.14,1.07.14,1.61v3.18h-.81V.11Z"/>
      </g>
      <path class="cls-1" d="m39.92,9.18c.37,0,.73.12.89.25v-.76c-.16-.1-.56-.21-.96-.21-1.13,0-1.74.64-1.74,1.57,0,.77.33,1.15.86,1.6l.48.42c.4.33.65.59.65,1.09,0,.58-.38.81-.96.81-.44,0-.8-.12-1.01-.27v.78c.18.11.57.22,1.09.21,1.12,0,1.74-.64,1.74-1.57,0-.77-.33-1.15-.86-1.6l-.48-.42c-.4-.34-.65-.59-.65-1.09,0-.59.38-.82.96-.82Z"/>
      <path class="cls-1" d="m5.95,10.28H0V.11h5.95c.51,0,.96.23,1.27.58.31-.36.76-.58,1.27-.58h5.95v10.17h-5.95c-.51,0-.96.22-1.27.57-.31-.35-.76-.57-1.27-.57Zm.85-8.48c0-.47-.38-.85-.85-.85H.85s0,8.48,0,8.48h5.11c.31,0,.6.08.85.23V1.81Zm.85,7.86c.25-.14.54-.23.85-.23h5.11V.96h-5.11c-.47,0-.85.38-.85.85v7.86Z"/>
      <path class="cls-1" d="m5.95,11.13c.51,0,.96.22,1.27.57.31-.35.76-.57,1.27-.57h5.95l-.85.85h-5.11c-.51,0-.96.22-1.27.57-.31-.35-.76-.57-1.27-.57H.85s-.85-.85-.85-.85h5.95Z"/>
      <rect class="cls-1" x="1.69" y="2.65" width="4.26" height=".85"/>
      <rect class="cls-1" x="1.69" y="4.35" width="4.26" height=".85"/>
      <rect class="cls-1" x="1.69" y="6.04" width="4.26" height=".85"/>
    </g>
  </g>
</svg>