<?xml version="1.0" encoding="UTF-8"?>
<svg id="Layer_2" data-name="Layer 2" xmlns="http://www.w3.org/2000/svg" viewBox="0 0 158.57 160.3">
  <defs>
    <style>
      .cls-1, .cls-2 {
        fill: #fff;
      }

      .cls-3 {
        fill: #db7caa;
      }

      .cls-2 {
        opacity: .56;
      }

      .cls-4 {
        fill: #a54781;
      }

      .cls-5 {
        opacity: .32;
      }
    </style>
  </defs>
  <g id="mobileversion">
    <g>
      <g>
        <circle class="cls-3" cx="78.29" cy="78.29" r="78.29"/>
        <g class="cls-5">
          <path class="cls-4" d="m38.38,146.56c29.92,5.25,63.36-.06,85.45-22.13,12.92-12.79,21.55-29.52,25.79-47.17,1.68-7.06,2.67-14.43,3.23-22.19,6.48,14.19,7.36,31.12,3.16,46.97-6.34,24.42-24.38,45.22-48.3,53.71-22.64,8.12-50.05,5.54-69.33-9.19h0Z"/>
        </g>
        <path class="cls-2" d="m24.38,38.13c2.92-3.81,7.63-9.08,14.69-14.14,6.65-4.76,13.01-7.64,17.62-9.36,2,2.22,4,4.43,6,6.65-4.33,1.63-10.68,4.53-17.2,9.57-6.34,4.9-10.41,9.95-12.85,13.48-2.75-2.07-5.51-4.13-8.26-6.2Z"/>
      </g>
      <g>
        <path d="m22.36,86.58l-1.74-6.28h.5c.42,1.51,1.37,4.98,1.52,5.71h0c.12-.58,1.15-4.05,1.59-5.71h.54c.41,1.53,1.42,5.22,1.52,5.7h0c.2-.89,1.25-4.21,1.68-5.7h.49l-1.92,6.28h-.56c-.41-1.48-1.39-5.11-1.5-5.65h0c-.16.82-1.13,4.09-1.58,5.65h-.55Z"/>
        <path d="m29.12,84.39c0,1.16.59,1.87,1.45,1.87s1.13-.47,1.29-.84h.46c-.19.59-.66,1.26-1.77,1.26-1.36,0-1.89-1.17-1.89-2.31,0-1.28.64-2.39,1.95-2.39,1.38,0,1.82,1.19,1.82,2.04,0,.13,0,.25,0,.37h-3.3Zm2.84-.4c0-.89-.49-1.59-1.37-1.59-.92,0-1.34.65-1.44,1.59h2.82Z"/>
        <path d="m35.86,82.1c.66,2.31,1.05,3.64,1.12,4.03h0c.07-.36.52-1.77,1.22-4.03h.48c.83,2.77,1.08,3.57,1.17,3.92h0c.13-.49.33-1.17,1.16-3.92h.48l-1.42,4.48h-.49c-.48-1.59-1.07-3.53-1.16-3.95h0c-.09.44-.6,2.04-1.18,3.95h-.54l-1.32-4.48h.47Z"/>
        <path d="m42.45,79.97h.45v.87h-.45v-.87Zm0,2.13h.45v4.48h-.45v-4.48Z"/>
        <path d="m44.37,86.58v-6.61h.45v6.61h-.45Z"/>
        <path d="m46.29,86.58v-6.61h.45v6.61h-.45Z"/>
        <path d="m48.31,84.39c0,1.16.59,1.87,1.45,1.87s1.13-.47,1.29-.84h.46c-.19.59-.66,1.26-1.77,1.26-1.36,0-1.89-1.17-1.89-2.31,0-1.28.64-2.39,1.95-2.39,1.38,0,1.82,1.19,1.82,2.04,0,.13,0,.25,0,.37h-3.3Zm2.84-.4c0-.89-.49-1.59-1.37-1.59-.92,0-1.34.65-1.44,1.59h2.82Z"/>
        <path d="m52.71,83.23c0-.39,0-.77,0-1.13h.44c.02.14.03.73.02.85.2-.46.56-.96,1.49-.96.8,0,1.51.45,1.51,1.69v2.91h-.45v-2.83c0-.8-.33-1.32-1.11-1.32-1.07,0-1.43.89-1.43,1.87v2.29h-.45v-3.35Z"/>
        <path d="m63.41,79.97v5.32c0,.43,0,.84,0,1.29h-.43c-.02-.11-.03-.53-.03-.75-.22.55-.73.86-1.51.86-1.17,0-1.87-.95-1.87-2.3s.76-2.4,1.98-2.4c.9,0,1.26.39,1.39.67v-2.69h.45Zm-3.35,4.4c0,1.23.64,1.89,1.41,1.89,1.18,0,1.51-.82,1.51-2.04s-.28-1.82-1.43-1.82c-.89,0-1.49.71-1.49,1.96Z"/>
        <path d="m64.98,84.39c0,1.16.59,1.87,1.45,1.87s1.13-.47,1.29-.84h.46c-.19.59-.66,1.26-1.77,1.26-1.36,0-1.89-1.17-1.89-2.31,0-1.28.64-2.39,1.95-2.39,1.38,0,1.82,1.19,1.82,2.04,0,.13,0,.25,0,.37h-3.3Zm2.84-.4c0-.89-.49-1.59-1.37-1.59-.92,0-1.34.65-1.44,1.59h2.82Z"/>
        <path d="m71.71,86.58v-6.61h.45v6.61h-.45Z"/>
        <path d="m73.73,84.39c0,1.16.59,1.87,1.45,1.87s1.13-.47,1.29-.84h.46c-.19.59-.66,1.26-1.77,1.26-1.36,0-1.89-1.17-1.89-2.31,0-1.28.64-2.39,1.95-2.39,1.38,0,1.82,1.19,1.82,2.04,0,.13,0,.25,0,.37h-3.3Zm2.84-.4c0-.89-.49-1.59-1.37-1.59-.92,0-1.34.65-1.44,1.59h2.82Z"/>
        <path d="m78.27,84.39c0,1.16.59,1.87,1.45,1.87s1.13-.47,1.29-.84h.46c-.19.59-.66,1.26-1.77,1.26-1.36,0-1.89-1.17-1.89-2.31,0-1.28.64-2.39,1.95-2.39,1.38,0,1.82,1.19,1.82,2.04,0,.13,0,.25,0,.37h-3.3Zm2.84-.4c0-.89-.49-1.59-1.37-1.59-.92,0-1.34.65-1.44,1.59h2.82Z"/>
        <path d="m82.67,83.32c0-.75,0-1.08,0-1.22h.44c0,.14.02.43.02,1,.26-.67.83-1.08,1.56-1.11v.48c-.93.06-1.56.71-1.56,1.78v2.33h-.45v-3.26Z"/>
        <path d="m85.58,86.58v-6.61h.45v6.61h-.45Z"/>
        <path d="m87.5,79.97h.45v.87h-.45v-.87Zm0,2.13h.45v4.48h-.45v-4.48Z"/>
        <path d="m89.41,83.23c0-.39,0-.77,0-1.13h.44c.02.14.03.73.02.85.2-.46.56-.96,1.49-.96.8,0,1.51.45,1.51,1.69v2.91h-.45v-2.83c0-.8-.33-1.32-1.11-1.32-1.07,0-1.43.89-1.43,1.87v2.29h-.45v-3.35Z"/>
        <path d="m97.75,86.28c0,1.43-.64,2.19-1.94,2.19-1.17,0-1.65-.65-1.76-1.34h.46c.16.62.67.91,1.32.91,1.17,0,1.49-.75,1.49-1.89v-.47c-.24.58-.68.9-1.5.9-1.05,0-1.86-.85-1.86-2.24,0-1.51.86-2.35,1.92-2.35.91,0,1.31.43,1.44.79,0-.26.02-.57.03-.68h.42c0,.16-.02.87-.02,1.3v2.88Zm-3.31-1.95c0,1.07.57,1.84,1.43,1.84,1.12,0,1.46-.74,1.46-1.91s-.36-1.84-1.44-1.84-1.45.89-1.45,1.91Z"/>
        <path d="m99.32,84.39c0,1.16.59,1.87,1.45,1.87s1.13-.47,1.29-.84h.46c-.19.59-.66,1.26-1.77,1.26-1.36,0-1.89-1.17-1.89-2.31,0-1.28.64-2.39,1.95-2.39,1.38,0,1.82,1.19,1.82,2.04,0,.13,0,.25,0,.37h-3.3Zm2.84-.4c0-.89-.49-1.59-1.37-1.59-.92,0-1.34.65-1.44,1.59h2.82Z"/>
        <path d="m103.72,83.23c0-.39,0-.77,0-1.13h.44c.02.14.03.73.02.85.2-.46.56-.96,1.49-.96.8,0,1.51.45,1.51,1.69v2.91h-.45v-2.83c0-.8-.33-1.32-1.11-1.32-1.07,0-1.43.89-1.43,1.87v2.29h-.45v-3.35Z"/>
        <path d="m114.6,84.33c0,1.25-.69,2.36-2.03,2.36-1.21,0-1.96-1-1.96-2.35,0-1.28.71-2.35,2.01-2.35,1.19,0,1.98.93,1.98,2.34Zm-3.52,0c0,1.07.57,1.93,1.52,1.93s1.52-.8,1.52-1.93c0-1.06-.54-1.93-1.53-1.93s-1.51.85-1.51,1.93Z"/>
        <path d="m116.15,85.92v2.46h-.45v-5.17c0-.37,0-.76,0-1.1h.44c.02.17.02.44.02.81.28-.54.77-.91,1.58-.91,1.06,0,1.79.89,1.79,2.23,0,1.61-.86,2.47-1.95,2.47-.79,0-1.2-.35-1.43-.77Zm2.9-1.68c0-1.04-.5-1.82-1.39-1.82-1.08,0-1.53.68-1.53,1.9s.35,1.95,1.47,1.95c.93,0,1.45-.79,1.45-2.03Z"/>
        <path d="m123.07,84.39c0,1.16.59,1.87,1.45,1.87s1.13-.47,1.29-.84h.46c-.19.59-.66,1.26-1.77,1.26-1.36,0-1.89-1.17-1.89-2.31,0-1.28.64-2.39,1.95-2.39,1.38,0,1.82,1.19,1.82,2.04,0,.13,0,.25,0,.37h-3.3Zm2.84-.4c0-.89-.49-1.59-1.37-1.59-.92,0-1.34.65-1.44,1.59h2.82Z"/>
        <path d="m127.62,84.39c0,1.16.59,1.87,1.45,1.87s1.13-.47,1.29-.84h.46c-.19.59-.66,1.26-1.77,1.26-1.36,0-1.89-1.17-1.89-2.31,0-1.28.64-2.39,1.95-2.39,1.38,0,1.82,1.19,1.82,2.04,0,.13,0,.25,0,.37h-3.3Zm2.84-.4c0-.89-.49-1.59-1.37-1.59-.92,0-1.34.65-1.44,1.59h2.82Z"/>
        <path d="m132.02,83.23c0-.39,0-.77,0-1.13h.44c.02.14.03.73.02.85.2-.46.56-.96,1.49-.96.8,0,1.51.45,1.51,1.69v2.91h-.45v-2.83c0-.8-.33-1.32-1.11-1.32-1.07,0-1.43.89-1.43,1.87v2.29h-.45v-3.35Z"/>
        <path d="m21.12,97.34v-6.61h.45v6.61h-.45Z"/>
        <path d="m26.05,96.48c0,.39.04.71.06.85h-.43c-.04-.11-.06-.3-.08-.69-.15.33-.55.8-1.47.8-1.04,0-1.49-.67-1.49-1.35,0-.99.76-1.43,2.11-1.43h.85v-.46c0-.45-.13-1.05-1.16-1.05-.91,0-1.04.48-1.14.84h-.45c.05-.49.36-1.26,1.6-1.26,1.02,0,1.6.43,1.6,1.42v2.32Zm-.44-1.44h-.88c-1,0-1.61.26-1.61,1.03,0,.57.4.95,1.03.95,1.28,0,1.46-.85,1.46-1.82v-.16Z"/>
        <path d="m30.54,96.48c0,.39.04.71.06.85h-.43c-.04-.11-.06-.3-.08-.69-.15.33-.55.8-1.47.8-1.04,0-1.49-.67-1.49-1.35,0-.99.76-1.43,2.11-1.43h.85v-.46c0-.45-.13-1.05-1.16-1.05-.91,0-1.04.48-1.14.84h-.45c.05-.49.36-1.26,1.6-1.26,1.02,0,1.6.43,1.6,1.42v2.32Zm-.44-1.44h-.88c-1,0-1.61.26-1.61,1.03,0,.57.4.95,1.03.95,1.28,0,1.46-.85,1.46-1.82v-.16Z"/>
        <path d="m35.44,97.03c0,1.43-.64,2.19-1.94,2.19-1.17,0-1.65-.65-1.76-1.34h.46c.16.62.67.91,1.32.91,1.17,0,1.49-.75,1.49-1.89v-.47c-.24.58-.68.9-1.5.9-1.05,0-1.86-.85-1.86-2.24,0-1.51.86-2.35,1.92-2.35.91,0,1.31.43,1.44.79,0-.26.02-.57.03-.68h.42c0,.16-.02.87-.02,1.3v2.88Zm-3.31-1.95c0,1.07.57,1.84,1.43,1.84,1.12,0,1.46-.74,1.46-1.91s-.36-1.84-1.44-1.84-1.45.89-1.45,1.91Z"/>
        <path d="m40.37,90.73v5.32c0,.43,0,.84,0,1.29h-.43c-.02-.11-.03-.53-.03-.75-.22.55-.73.86-1.51.86-1.17,0-1.87-.95-1.87-2.3s.76-2.4,1.98-2.4c.9,0,1.26.39,1.39.67v-2.69h.45Zm-3.35,4.4c0,1.23.64,1.89,1.41,1.89,1.18,0,1.51-.82,1.51-2.04s-.28-1.82-1.43-1.82c-.89,0-1.49.71-1.49,1.96Z"/>
        <path d="m41.84,94.07c0-.75,0-1.08,0-1.22h.44c0,.14.02.43.02,1,.26-.67.83-1.08,1.56-1.11v.48c-.93.06-1.56.71-1.56,1.78v2.33h-.45v-3.26Z"/>
        <path d="m44.77,95.15c0,1.16.59,1.87,1.45,1.87s1.13-.47,1.29-.84h.46c-.19.59-.66,1.26-1.77,1.26-1.36,0-1.89-1.17-1.89-2.31,0-1.28.64-2.39,1.95-2.39,1.38,0,1.82,1.19,1.82,2.04,0,.13,0,.25,0,.37h-3.3Zm2.84-.39c0-.89-.49-1.59-1.37-1.59-.92,0-1.34.65-1.44,1.59h2.82Z"/>
        <path d="m49.18,94.01c0-.39,0-.81,0-1.16h.44c0,.15.03.54.02.8.19-.45.6-.91,1.34-.91.63,0,1.12.31,1.3.89.22-.47.67-.89,1.46-.89.69,0,1.41.39,1.41,1.64v2.95h-.45v-2.9c0-.6-.22-1.26-1.05-1.26s-1.26.7-1.26,1.57v2.58h-.44v-2.89c0-.65-.2-1.26-1.02-1.26-.87,0-1.29.77-1.29,1.69v2.47h-.45v-3.33Z"/>
        <path d="m57.06,96.67v2.46h-.45v-5.17c0-.37,0-.76,0-1.1h.44c.02.17.02.44.02.81.28-.54.77-.91,1.58-.91,1.06,0,1.79.89,1.79,2.23,0,1.61-.86,2.47-1.95,2.47-.79,0-1.2-.35-1.43-.77Zm2.9-1.68c0-1.04-.5-1.82-1.39-1.82-1.08,0-1.53.68-1.53,1.9s.35,1.95,1.47,1.95c.93,0,1.45-.79,1.45-2.03Z"/>
        <path d="m61.7,95.15c0,1.16.59,1.87,1.45,1.87s1.13-.47,1.29-.84h.46c-.19.59-.66,1.26-1.77,1.26-1.36,0-1.89-1.17-1.89-2.31,0-1.28.64-2.39,1.95-2.39,1.38,0,1.82,1.19,1.82,2.04,0,.13,0,.25,0,.37h-3.3Zm2.84-.39c0-.89-.49-1.59-1.37-1.59-.92,0-1.34.65-1.44,1.59h2.82Z"/>
        <path d="m66.14,97.34v-6.61h.45v6.61h-.45Z"/>
        <path d="m68.05,90.73h.45v.87h-.45v-.87Zm0,2.13h.45v4.48h-.45v-4.48Z"/>
        <path d="m73.4,97.03c0,1.43-.64,2.19-1.94,2.19-1.17,0-1.65-.65-1.76-1.34h.46c.16.62.67.91,1.32.91,1.17,0,1.49-.75,1.49-1.89v-.47c-.24.58-.68.9-1.5.9-1.05,0-1.86-.85-1.86-2.24,0-1.51.86-2.35,1.92-2.35.91,0,1.31.43,1.44.79,0-.26.02-.57.03-.68h.42c0,.16-.02.87-.02,1.3v2.88Zm-3.31-1.95c0,1.07.57,1.84,1.43,1.84,1.12,0,1.46-.74,1.46-1.91s-.36-1.84-1.44-1.84-1.45.89-1.45,1.91Z"/>
        <path d="m74.96,95.15c0,1.16.59,1.87,1.45,1.87s1.13-.47,1.29-.84h.46c-.19.59-.66,1.26-1.77,1.26-1.36,0-1.89-1.17-1.89-2.31,0-1.28.64-2.39,1.95-2.39,1.38,0,1.82,1.19,1.82,2.04,0,.13,0,.25,0,.37h-3.3Zm2.84-.39c0-.89-.49-1.59-1.37-1.59-.92,0-1.34.65-1.44,1.59h2.82Z"/>
        <path d="m81.8,95.15c0,1.16.59,1.87,1.45,1.87s1.13-.47,1.29-.84h.46c-.19.59-.66,1.26-1.77,1.26-1.36,0-1.89-1.17-1.89-2.31,0-1.28.64-2.39,1.95-2.39,1.38,0,1.82,1.19,1.82,2.04,0,.13,0,.25,0,.37h-3.3Zm2.84-.39c0-.89-.49-1.59-1.37-1.59-.92,0-1.34.65-1.44,1.59h2.82Z"/>
        <path d="m86.2,93.98c0-.39,0-.77,0-1.13h.44c.02.14.03.73.02.85.2-.46.56-.96,1.49-.96.8,0,1.51.45,1.51,1.69v2.91h-.45v-2.83c0-.8-.33-1.32-1.11-1.32-1.07,0-1.43.89-1.43,1.87v2.29h-.45v-3.35Z"/>
        <path d="m93.44,90.73h.45v.87h-.45v-.87Zm0,2.13h.45v4.48h-.45v-4.48Z"/>
        <path d="m95.36,93.98c0-.39,0-.77,0-1.13h.44c.02.14.03.73.02.85.2-.46.56-.96,1.49-.96.8,0,1.51.45,1.51,1.69v2.91h-.45v-2.83c0-.8-.33-1.32-1.11-1.32-1.07,0-1.43.89-1.43,1.87v2.29h-.45v-3.35Z"/>
        <path d="m103.57,96.02c-.22.79-.74,1.43-1.74,1.43-1.12,0-1.92-.83-1.92-2.33,0-1.23.65-2.37,1.97-2.37,1.14,0,1.61.81,1.69,1.43h-.46c-.13-.52-.48-1.01-1.24-1.01-.95,0-1.49.81-1.49,1.93s.5,1.93,1.44,1.93c.65,0,1.05-.33,1.28-1h.46Z"/>
        <path d="m104.61,97.34v-6.61h.45v6.61h-.45Z"/>
        <path d="m109.88,96.03c0,.44,0,1.14,0,1.31h-.43c-.02-.12-.03-.41-.03-.78-.19.53-.65.89-1.44.89-.65,0-1.47-.25-1.47-1.62v-2.97h.44v2.86c0,.65.21,1.29,1.09,1.29,1,0,1.38-.57,1.38-1.85v-2.3h.45v3.17Z"/>
        <path d="m111.3,96.1c.15.58.57.93,1.27.93.8,0,1.12-.37,1.12-.87s-.22-.76-1.22-1c-1.16-.28-1.44-.63-1.44-1.22s.47-1.19,1.48-1.19,1.5.62,1.57,1.26h-.45c-.08-.38-.38-.84-1.14-.84s-1,.39-1,.74c0,.41.22.62,1.1.83,1.26.3,1.58.72,1.58,1.39,0,.82-.66,1.32-1.61,1.32-1.02,0-1.6-.54-1.72-1.35h.46Z"/>
        <path d="m115.28,90.73h.45v.87h-.45v-.87Zm0,2.13h.45v4.48h-.45v-4.48Z"/>
        <path d="m117.29,95.15c0,1.16.59,1.87,1.45,1.87s1.13-.47,1.29-.84h.46c-.19.59-.66,1.26-1.77,1.26-1.36,0-1.89-1.17-1.89-2.31,0-1.28.64-2.39,1.95-2.39,1.38,0,1.82,1.19,1.82,2.04,0,.13,0,.25,0,.37h-3.3Zm2.84-.39c0-.89-.49-1.59-1.37-1.59-.92,0-1.34.65-1.44,1.59h2.82Z"/>
        <path d="m121.71,92.85c.73,2.05,1.23,3.45,1.4,4.03h0c.1-.33.6-1.67,1.47-4.03h.48l-1.69,4.48h-.54l-1.6-4.48h.48Z"/>
        <path d="m126.04,95.15c0,1.16.59,1.87,1.45,1.87s1.13-.47,1.29-.84h.46c-.19.59-.66,1.26-1.77,1.26-1.36,0-1.89-1.17-1.89-2.31,0-1.28.64-2.39,1.95-2.39,1.38,0,1.82,1.19,1.82,2.04,0,.13,0,.25,0,.37h-3.3Zm2.84-.39c0-.89-.49-1.59-1.37-1.59-.92,0-1.34.65-1.44,1.59h2.82Z"/>
        <path d="m21.13,103.61c.66,2.31,1.05,3.64,1.12,4.03h0c.07-.36.52-1.77,1.22-4.03h.48c.83,2.77,1.08,3.57,1.17,3.92h0c.13-.49.33-1.17,1.16-3.92h.48l-1.42,4.48h-.49c-.48-1.59-1.07-3.53-1.16-3.95h0c-.09.44-.6,2.04-1.18,3.95h-.54l-1.32-4.48h.47Z"/>
        <path d="m27.72,101.48h.45v.87h-.45v-.87Zm0,2.13h.45v4.48h-.45v-4.48Z"/>
        <path d="m30.08,103.61v4.8c0,1.21-.31,1.57-1.09,1.57-.02,0-.2,0-.25-.02v-.42c.07,0,.15,0,.21,0,.64,0,.69-.36.69-1.08v-4.85h.45Zm-.45-1.26v-.87h.45v.87h-.45Z"/>
        <path d="m31.09,107.68l2.83-3.65h-2.69v-.42h3.21v.43l-2.8,3.63h2.9l-.11.42h-3.34v-.41Z"/>
        <path d="m35.53,105.91c0,1.16.59,1.87,1.45,1.87s1.13-.47,1.29-.84h.46c-.19.59-.66,1.26-1.77,1.26-1.36,0-1.89-1.17-1.89-2.31,0-1.28.64-2.39,1.95-2.39,1.38,0,1.82,1.19,1.82,2.04,0,.13,0,.25,0,.37h-3.3Zm2.84-.4c0-.89-.49-1.59-1.37-1.59-.92,0-1.34.65-1.44,1.59h2.82Z"/>
        <path d="m42.71,105.92c.41-.44,1.67-1.71,2.27-2.31h.57l-1.78,1.78,2,2.7h-.56l-1.77-2.41-.74.72v1.69h-.45v-6.61h.45v4.44Z"/>
        <path d="m46.5,105.91c0,1.16.59,1.87,1.45,1.87s1.13-.47,1.29-.84h.46c-.19.59-.66,1.26-1.77,1.26-1.36,0-1.89-1.17-1.89-2.31,0-1.28.64-2.39,1.95-2.39,1.38,0,1.82,1.19,1.82,2.04,0,.13,0,.25,0,.37h-3.3Zm2.84-.4c0-.89-.49-1.59-1.37-1.59-.92,0-1.34.65-1.44,1.59h2.82Z"/>
        <path d="m50.91,104.74c0-.39,0-.77,0-1.13h.44c.02.14.03.73.02.85.2-.46.56-.96,1.49-.96.8,0,1.51.45,1.51,1.69v2.91h-.45v-2.83c0-.8-.33-1.32-1.11-1.32-1.07,0-1.43.89-1.43,1.87v2.29h-.45v-3.35Z"/>
        <path d="m55.82,104.74c0-.39,0-.77,0-1.13h.44c.02.14.03.73.02.85.2-.46.56-.96,1.49-.96.8,0,1.51.45,1.51,1.69v2.91h-.45v-2.83c0-.8-.33-1.32-1.11-1.32-1.07,0-1.43.89-1.43,1.87v2.29h-.45v-3.35Z"/>
        <path d="m60.73,101.48h.45v.87h-.45v-.87Zm0,2.13h.45v4.48h-.45v-4.48Z"/>
        <path d="m62.6,106.86c.15.58.57.93,1.27.93.8,0,1.12-.37,1.12-.87s-.22-.76-1.22-1c-1.16-.28-1.44-.63-1.44-1.22s.47-1.19,1.48-1.19,1.5.62,1.57,1.26h-.45c-.08-.38-.38-.84-1.14-.84s-1,.39-1,.74c0,.41.22.62,1.1.83,1.26.3,1.58.72,1.58,1.39,0,.82-.66,1.32-1.61,1.32-1.02,0-1.6-.54-1.72-1.35h.46Z"/>
        <path d="m68.91,108.09v-6.61h.45v6.61h-.45Z"/>
        <path d="m73.85,107.24c0,.39.04.71.06.85h-.43c-.04-.11-.06-.3-.08-.69-.15.33-.55.8-1.47.8-1.04,0-1.49-.67-1.49-1.35,0-.99.76-1.43,2.11-1.43h.85v-.46c0-.45-.13-1.05-1.16-1.05-.91,0-1.04.48-1.14.84h-.45c.05-.49.36-1.26,1.6-1.26,1.02,0,1.6.43,1.6,1.42v2.32Zm-.44-1.44h-.88c-1,0-1.61.26-1.61,1.03,0,.57.4.95,1.03.95,1.28,0,1.46-.85,1.46-1.82v-.16Z"/>
        <path d="m74.61,103.61h.83v-1.4h.45v1.4h1.07v.42h-1.07v2.91c0,.5.11.79.54.79.13,0,.32,0,.47-.05v.39c-.15.06-.37.08-.56.08-.57,0-.9-.29-.9-1v-3.12h-.83v-.42Z"/>
        <path d="m77.91,105.91c0,1.16.59,1.87,1.45,1.87s1.13-.47,1.29-.84h.46c-.19.59-.66,1.26-1.77,1.26-1.36,0-1.89-1.17-1.89-2.31,0-1.28.64-2.39,1.95-2.39,1.38,0,1.82,1.19,1.82,2.04,0,.13,0,.25,0,.37h-3.3Zm2.84-.4c0-.89-.49-1.59-1.37-1.59-.92,0-1.34.65-1.44,1.59h2.82Z"/>
        <path d="m82.32,104.74c0-.39,0-.77,0-1.13h.44c.02.14.03.73.02.85.2-.46.56-.96,1.49-.96.8,0,1.51.45,1.51,1.69v2.91h-.45v-2.83c0-.8-.33-1.32-1.11-1.32-1.07,0-1.43.89-1.43,1.87v2.29h-.45v-3.35Z"/>
        <path d="m89.56,104.77c0-.39,0-.81,0-1.16h.44c0,.15.03.54.02.8.19-.45.6-.91,1.34-.91.63,0,1.12.31,1.3.89.22-.47.67-.89,1.46-.89.69,0,1.41.39,1.41,1.64v2.95h-.45v-2.9c0-.6-.22-1.26-1.05-1.26s-1.26.7-1.26,1.57v2.58h-.44v-2.89c0-.65-.2-1.26-1.02-1.26-.87,0-1.29.77-1.29,1.69v2.47h-.45v-3.33Z"/>
        <path d="m100.01,107.24c0,.39.04.71.06.85h-.43c-.04-.11-.06-.3-.08-.69-.15.33-.55.8-1.47.8-1.04,0-1.49-.67-1.49-1.35,0-.99.76-1.43,2.11-1.43h.85v-.46c0-.45-.13-1.05-1.16-1.05-.91,0-1.04.48-1.14.84h-.45c.05-.49.36-1.26,1.6-1.26,1.02,0,1.6.43,1.6,1.42v2.32Zm-.44-1.44h-.88c-1,0-1.61.26-1.61,1.03,0,.57.4.95,1.03.95,1.28,0,1.46-.85,1.46-1.82v-.16Z"/>
        <path d="m101.94,105.92c.41-.44,1.67-1.71,2.27-2.31h.57l-1.78,1.78,2,2.7h-.56l-1.77-2.41-.74.72v1.69h-.45v-6.61h.45v4.44Z"/>
        <path d="m105.73,105.91c0,1.16.59,1.87,1.45,1.87s1.13-.47,1.29-.84h.46c-.19.59-.66,1.26-1.77,1.26-1.36,0-1.89-1.17-1.89-2.31,0-1.28.64-2.39,1.95-2.39,1.38,0,1.82,1.19,1.82,2.04,0,.13,0,.25,0,.37h-3.3Zm2.84-.4c0-.89-.49-1.59-1.37-1.59-.92,0-1.34.65-1.44,1.59h2.82Z"/>
        <path d="m110.13,104.74c0-.39,0-.77,0-1.13h.44c.02.14.03.73.02.85.2-.46.56-.96,1.49-.96.8,0,1.51.45,1.51,1.69v2.91h-.45v-2.83c0-.8-.33-1.32-1.11-1.32-1.07,0-1.43.89-1.43,1.87v2.29h-.45v-3.35Z"/>
        <path d="m117.37,104.77c0-.39,0-.81,0-1.16h.44c0,.15.03.54.02.8.19-.45.6-.91,1.34-.91.63,0,1.12.31,1.3.89.22-.47.67-.89,1.46-.89.69,0,1.41.39,1.41,1.64v2.95h-.45v-2.9c0-.6-.22-1.26-1.05-1.26s-1.26.7-1.26,1.57v2.58h-.44v-2.89c0-.65-.2-1.26-1.02-1.26-.87,0-1.29.77-1.29,1.69v2.47h-.45v-3.33Z"/>
        <path d="m124.9,105.91c0,1.16.59,1.87,1.45,1.87s1.13-.47,1.29-.84h.46c-.19.59-.66,1.26-1.77,1.26-1.36,0-1.89-1.17-1.89-2.31,0-1.28.64-2.39,1.95-2.39,1.38,0,1.82,1.19,1.82,2.04,0,.13,0,.25,0,.37h-3.3Zm2.84-.4c0-.89-.49-1.59-1.37-1.59-.92,0-1.34.65-1.44,1.59h2.82Z"/>
        <path d="m128.7,103.61h.83v-1.4h.45v1.4h1.07v.42h-1.07v2.91c0,.5.11.79.54.79.13,0,.32,0,.47-.05v.39c-.15.06-.37.08-.56.08-.57,0-.9-.29-.9-1v-3.12h-.83v-.42Z"/>
        <path d="m24.54,118.55c0,1.43-.64,2.19-1.94,2.19-1.17,0-1.65-.65-1.76-1.34h.46c.16.62.67.91,1.32.91,1.17,0,1.49-.75,1.49-1.89v-.47c-.24.58-.68.9-1.5.9-1.05,0-1.86-.85-1.86-2.24,0-1.51.86-2.35,1.92-2.35.91,0,1.31.43,1.43.79,0-.26.02-.57.03-.68h.42c0,.16-.02.87-.02,1.3v2.88Zm-3.31-1.95c0,1.07.57,1.84,1.43,1.84,1.12,0,1.46-.74,1.46-1.91s-.36-1.84-1.44-1.84-1.45.89-1.45,1.91Z"/>
        <path d="m26.11,116.66c0,1.16.59,1.87,1.45,1.87s1.13-.47,1.29-.84h.46c-.19.59-.66,1.26-1.77,1.26-1.36,0-1.89-1.17-1.89-2.31,0-1.28.64-2.39,1.95-2.39,1.38,0,1.82,1.19,1.82,2.04,0,.13,0,.25,0,.37h-3.3Zm2.84-.4c0-.89-.49-1.59-1.37-1.59-.92,0-1.34.65-1.44,1.59h2.82Z"/>
        <path d="m30.62,117.61c.15.58.57.93,1.27.93.8,0,1.12-.37,1.12-.87s-.22-.76-1.22-1c-1.16-.28-1.44-.63-1.44-1.22s.47-1.19,1.48-1.19,1.5.62,1.57,1.26h-.45c-.08-.38-.38-.84-1.14-.84s-1,.39-1,.74c0,.41.22.62,1.1.83,1.26.3,1.58.72,1.58,1.39,0,.82-.66,1.32-1.61,1.32-1.02,0-1.6-.54-1.72-1.35h.46Z"/>
        <path d="m37.9,117.53c-.22.79-.74,1.43-1.74,1.43-1.12,0-1.92-.83-1.92-2.33,0-1.23.65-2.37,1.97-2.37,1.14,0,1.61.81,1.69,1.44h-.46c-.13-.52-.48-1.01-1.24-1.01-.95,0-1.49.81-1.49,1.93s.5,1.93,1.44,1.93c.65,0,1.05-.33,1.28-1h.46Z"/>
        <path d="m39.39,112.24v2.88c.25-.47.69-.86,1.48-.86.64,0,1.52.32,1.52,1.74v2.85h-.45v-2.76c0-.89-.4-1.39-1.15-1.39-.89,0-1.4.55-1.4,1.65v2.5h-.45v-6.61h.45Z"/>
        <path d="m43.85,112.24h.45v.87h-.45v-.87Zm0,2.13h.45v4.48h-.45v-4.48Z"/>
        <path d="m45.87,116.66c0,1.16.59,1.87,1.45,1.87s1.13-.47,1.29-.84h.46c-.19.59-.66,1.26-1.77,1.26-1.36,0-1.89-1.17-1.89-2.31,0-1.28.64-2.39,1.95-2.39,1.38,0,1.82,1.19,1.82,2.04,0,.13,0,.25,0,.37h-3.3Zm2.84-.4c0-.89-.49-1.59-1.37-1.59-.92,0-1.34.65-1.44,1.59h2.82Z"/>
        <path d="m53.78,112.24v5.32c0,.43,0,.84,0,1.29h-.43c-.02-.11-.03-.53-.03-.75-.22.55-.73.86-1.51.86-1.17,0-1.87-.95-1.87-2.3s.76-2.4,1.98-2.4c.9,0,1.26.39,1.39.67v-2.69h.45Zm-3.35,4.4c0,1.23.64,1.89,1.41,1.89,1.18,0,1.51-.82,1.51-2.04s-.28-1.82-1.43-1.82c-.89,0-1.49.71-1.49,1.96Z"/>
        <path d="m55.34,116.66c0,1.16.59,1.87,1.45,1.87s1.13-.47,1.29-.84h.46c-.19.59-.66,1.26-1.77,1.26-1.36,0-1.89-1.17-1.89-2.31,0-1.28.64-2.39,1.95-2.39,1.38,0,1.82,1.19,1.82,2.04,0,.13,0,.25,0,.37h-3.3Zm2.84-.4c0-.89-.49-1.59-1.37-1.59-.92,0-1.34.65-1.44,1.59h2.82Z"/>
        <path d="m59.74,115.5c0-.39,0-.77,0-1.13h.44c.02.14.03.73.02.85.2-.46.56-.96,1.49-.96.8,0,1.51.45,1.51,1.69v2.91h-.45v-2.83c0-.8-.33-1.32-1.11-1.32-1.07,0-1.43.89-1.43,1.87v2.29h-.45v-3.35Z"/>
        <path d="m64.66,112.24h.45v.87h-.45v-.87Zm0,2.13h.45v4.48h-.45v-4.48Z"/>
        <path d="m66.53,117.61c.15.58.57.93,1.27.93.8,0,1.12-.37,1.12-.87s-.22-.76-1.22-1c-1.16-.28-1.44-.63-1.44-1.22s.47-1.19,1.48-1.19,1.5.62,1.57,1.26h-.45c-.08-.38-.38-.84-1.14-.84s-1,.39-1,.74c0,.41.22.62,1.1.83,1.26.3,1.58.72,1.58,1.39,0,.82-.66,1.32-1.61,1.32-1.02,0-1.6-.54-1.72-1.35h.46Z"/>
        <path d="m75.92,118c0,.39.04.71.06.85h-.43c-.04-.11-.06-.3-.08-.69-.15.33-.55.8-1.47.8-1.04,0-1.49-.67-1.49-1.35,0-.99.76-1.43,2.11-1.43h.85v-.46c0-.45-.13-1.05-1.16-1.05-.91,0-1.04.48-1.14.84h-.45c.05-.49.36-1.26,1.6-1.26,1.02,0,1.6.43,1.6,1.42v2.32Zm-.44-1.44h-.88c-1,0-1.61.26-1.61,1.03,0,.57.4.95,1.03.95,1.28,0,1.46-.85,1.46-1.82v-.16Z"/>
        <path d="m77.39,118.85v-6.61h.45v6.61h-.45Z"/>
        <path d="m79.27,117.61c.15.58.57.93,1.27.93.8,0,1.12-.37,1.12-.87s-.22-.76-1.22-1c-1.16-.28-1.44-.63-1.44-1.22s.47-1.19,1.48-1.19,1.5.62,1.57,1.26h-.45c-.08-.38-.38-.84-1.14-.84s-1,.39-1,.74c0,.41.22.62,1.1.83,1.26.3,1.58.72,1.58,1.39,0,.82-.66,1.32-1.61,1.32-1.02,0-1.6-.54-1.72-1.35h.46Z"/>
        <path d="m89.04,112.24v5.32c0,.43,0,.84,0,1.29h-.43c-.02-.11-.03-.53-.03-.75-.22.55-.73.86-1.51.86-1.17,0-1.87-.95-1.87-2.3s.76-2.4,1.98-2.4c.9,0,1.26.39,1.39.67v-2.69h.45Zm-3.35,4.4c0,1.23.64,1.89,1.41,1.89,1.18,0,1.51-.82,1.51-2.04s-.28-1.82-1.43-1.82c-.89,0-1.49.71-1.49,1.96Z"/>
        <path d="m90.51,112.24h.45v.87h-.45v-.87Zm0,2.13h.45v4.48h-.45v-4.48Z"/>
        <path d="m92.38,117.61c.15.58.57.93,1.27.93.8,0,1.12-.37,1.12-.87s-.22-.76-1.22-1c-1.16-.28-1.44-.63-1.44-1.22s.47-1.19,1.48-1.19,1.5.62,1.57,1.26h-.45c-.08-.38-.38-.84-1.14-.84s-1,.39-1,.74c0,.41.22.62,1.1.83,1.26.3,1.58.72,1.58,1.39,0,.82-.66,1.32-1.61,1.32-1.02,0-1.6-.54-1.72-1.35h.46Z"/>
        <path d="m99.66,117.53c-.22.79-.74,1.43-1.74,1.43-1.12,0-1.92-.83-1.92-2.33,0-1.23.65-2.37,1.97-2.37,1.14,0,1.61.81,1.69,1.44h-.46c-.13-.52-.48-1.01-1.24-1.01-.95,0-1.49.81-1.49,1.93s.5,1.93,1.44,1.93c.65,0,1.05-.33,1.28-1h.46Z"/>
        <path d="m100.82,112.24h.45v.87h-.45v-.87Zm0,2.13h.45v4.48h-.45v-4.48Z"/>
        <path d="m103.18,118.19v2.46h-.45v-5.17c0-.37,0-.76,0-1.1h.44c.02.17.02.44.02.81.28-.54.77-.91,1.58-.91,1.06,0,1.79.89,1.79,2.23,0,1.61-.86,2.47-1.95,2.47-.79,0-1.2-.35-1.43-.77Zm2.9-1.68c0-1.04-.5-1.82-1.39-1.82-1.08,0-1.53.68-1.53,1.9s.35,1.95,1.47,1.95c.93,0,1.45-.79,1.45-2.03Z"/>
        <path d="m107.67,118.85v-6.61h.45v6.61h-.45Z"/>
        <path d="m109.59,112.24h.45v.87h-.45v-.87Zm0,2.13h.45v4.48h-.45v-4.48Z"/>
        <path d="m111.51,115.5c0-.39,0-.77,0-1.13h.44c.02.14.03.73.02.85.2-.46.56-.96,1.49-.96.8,0,1.51.45,1.51,1.69v2.91h-.45v-2.83c0-.8-.33-1.32-1.11-1.32-1.07,0-1.43.89-1.43,1.87v2.29h-.45v-3.35Z"/>
        <path d="m116.52,116.66c0,1.16.59,1.87,1.45,1.87s1.13-.47,1.29-.84h.46c-.19.59-.66,1.26-1.77,1.26-1.36,0-1.89-1.17-1.89-2.31,0-1.28.64-2.39,1.95-2.39,1.38,0,1.82,1.19,1.82,2.04,0,.13,0,.25,0,.37h-3.3Zm2.84-.4c0-.89-.49-1.59-1.37-1.59-.92,0-1.34.65-1.44,1.59h2.82Z"/>
        <path d="m120.72,118.85v-1.16h.45v1.16h-.45Z"/>
      </g>
      <g>
        <rect x="40.98" y="30.03" width="76.73" height="29.87" transform="translate(-6.57 14.38) rotate(-9.95)"/>
        <g>
          <path class="cls-1" d="m60.65,39.87l1.6,13.87-3.95.46-1.14-9.92-1.42,10.21-2.7.31-3.81-9.61,1.14,9.92-3.19.37-1.6-13.87,5.56-.64,2.86,7.13,1.07-7.59,5.58-.64Z"/>
          <path class="cls-1" d="m67.33,39.09l1.6,13.87-4.26.49-1.6-13.87,4.26-.49Z"/>
          <path class="cls-1" d="m69.45,48.84l3.87-1.17c.46,1.08,1.38,1.54,2.75,1.38,1.07-.12,1.57-.47,1.51-1.04-.03-.3-.19-.52-.45-.65-.27-.14-.73-.23-1.38-.29-2.49-.19-4.12-.61-4.89-1.29-.78-.67-1.23-1.52-1.34-2.53-.15-1.31.22-2.45,1.11-3.43s2.27-1.58,4.13-1.8c2.82-.33,4.82.59,5.99,2.76l-3.4,1.47c-.47-.89-1.27-1.26-2.39-1.14-.93.11-1.36.45-1.29,1.02.03.26.16.45.38.56s.65.21,1.27.26c1.7.16,2.91.33,3.64.52.73.19,1.36.58,1.91,1.18.54.6.86,1.34.97,2.23.16,1.4-.28,2.61-1.31,3.61-1.04,1-2.48,1.61-4.33,1.82-3.38.39-5.63-.78-6.75-3.5Z"/>
          <path class="cls-1" d="m82.09,47.38l3.87-1.17c.46,1.08,1.38,1.54,2.75,1.38,1.07-.12,1.57-.47,1.51-1.04-.03-.3-.19-.52-.45-.65-.27-.14-.73-.23-1.38-.29-2.49-.19-4.12-.61-4.89-1.29-.78-.67-1.23-1.52-1.34-2.53-.15-1.31.22-2.45,1.11-3.43.89-.98,2.27-1.58,4.13-1.8,2.82-.33,4.82.59,5.99,2.76l-3.4,1.47c-.47-.89-1.27-1.26-2.39-1.13-.93.11-1.36.45-1.29,1.02.03.26.16.45.38.56.23.12.65.21,1.27.26,1.7.16,2.92.33,3.64.52.73.19,1.36.58,1.91,1.18.54.6.86,1.34.97,2.23.16,1.4-.28,2.61-1.31,3.61-1.04,1-2.48,1.61-4.33,1.82-3.38.39-5.63-.78-6.75-3.5Z"/>
          <path class="cls-1" d="m99.28,35.41l1.6,13.87-4.26.49-1.6-13.87,4.26-.49Z"/>
          <path class="cls-1" d="m113.35,44.48l.38,3.31-10.44,1.2-1.6-13.87,10.44-1.2.37,3.2-6.26.72.23,2.01,5.06-.58.36,3.08-5.06.58.26,2.27,6.26-.72Z"/>
        </g>
      </g>
    </g>
  </g>
</svg>