<?xml version="1.0" encoding="UTF-8"?>
<svg id="Layer_2" data-name="Layer 2" xmlns="http://www.w3.org/2000/svg" viewBox="0 0 158.57 160.3">
  <defs>
    <style>
      .cls-1 {
        fill: #db7caa;
      }

      .cls-2 {
        fill: #fff;
        opacity: .56;
      }

      .cls-3 {
        fill: #a54781;
      }

      .cls-4 {
        opacity: .32;
      }
    </style>
  </defs>
  <g id="mobileversion">
    <g>
      <circle class="cls-1" cx="78.29" cy="78.29" r="78.29"/>
      <g class="cls-4">
        <path class="cls-3" d="M38.38,146.56c29.92,5.25,63.36-.06,85.45-22.13,12.92-12.79,21.55-29.52,25.79-47.17,1.68-7.06,2.67-14.43,3.23-22.19,6.48,14.19,7.36,31.12,3.16,46.97-6.34,24.42-24.38,45.22-48.3,53.71-22.64,8.12-50.05,5.54-69.33-9.19h0Z"/>
      </g>
      <path class="cls-2" d="M24.38,38.13c2.92-3.81,7.63-9.08,14.69-14.14,6.65-4.76,13.01-7.64,17.62-9.36,2,2.22,4,4.43,6,6.65-4.33,1.63-10.68,4.53-17.2,9.57-6.34,4.9-10.41,9.95-12.85,13.48-2.75-2.07-5.51-4.13-8.26-6.2Z"/>
    </g>
  </g>
</svg>