<?xml version="1.0" encoding="UTF-8"?>
<svg id="Layer_2" data-name="Layer 2" xmlns="http://www.w3.org/2000/svg" viewBox="0 0 74.95 76.66">
  <defs>
    <style>
      .cls-1 {
        fill: #b5a047;
      }

      .cls-2 {
        fill: #fff;
        opacity: .56;
      }

      .cls-3 {
        opacity: .55;
      }

      .cls-4 {
        opacity: .49;
      }

      .cls-5 {
        fill: #3b78cf;
      }

      .cls-6 {
        fill: #ffd200;
      }
    </style>
  </defs>
  <g id="header_homepage" data-name="header homepage">
    <g>
      <ellipse class="cls-4" cx="37.48" cy="74.95" rx="28.66" ry="1.71"/>
      <circle class="cls-6" cx="37.48" cy="37.48" r="37.48"/>
      <g class="cls-3">
        <path class="cls-1" d="m74.4,31.08c.65,9.9.26,21.22-6.24,29.36-7.48,8.33-18.33,13.95-29.58,14.42-7.1.23-13.99-1.88-20.15-5.1,6.63.76,13.22,1.55,19.73.43,10-1.81,19.51-7.01,26.56-14.3,5.52-7.1,6.93-16.04,9.68-24.8h0Z"/>
      </g>
      <g>
        <path class="cls-5" d="m55.8,54.61c.16-.07.46-.33.33-.37l-.57.34.25.03Z"/>
        <path class="cls-5" d="m56.32,53.27c-.33.09-.88.31-1.31.74.59-.28.39-.09,1.08-.44.13.04-.05.29-.26.42.16-.07-.01.23.36.02.32-.43.23-.59-.23-.49.09-.12.25-.19.36-.26Z"/>
        <path class="cls-5" d="m50.99,43.72l-.03.1s.03-.07.03-.1Z"/>
        <path class="cls-5" d="m47.91,37.75s.11.02.16,0c-.06-.02-.12-.03-.16,0Z"/>
        <path class="cls-5" d="m48,36.4s0,.05,0,.08c.04-.05.06-.09,0-.08Z"/>
        <path class="cls-5" d="m50.99,43.72l.08-.26c-.19.1-.09.16-.08.26Z"/>
        <path class="cls-5" d="m54.13,53.01s.12,0,.2-.02c-.04,0-.08-.02-.11-.03-.03.02-.06.04-.09.06Z"/>
        <path class="cls-5" d="m53.05,45.91l.03.04c.07-.03.16-.07.25-.11l-.28.07Z"/>
        <path class="cls-5" d="m54.39,47.73c0-.06-.48.25-.7.37.21-.11.32-.14.38-.13.09-.06.19-.14.31-.24Z"/>
        <path class="cls-5" d="m55.67,51.24h.1s-.06,0-.1,0Z"/>
        <path class="cls-5" d="m52.27,44.49c.07-.05.13-.09.16-.13-.06.04-.11.08-.16.13Z"/>
        <path class="cls-5" d="m24.09,53.99s-.05-.04-.08-.06c.04.04.07.07.08.06Z"/>
        <polygon class="cls-5" points="20.25 54.44 20.25 54.39 20.01 54.19 20.25 54.44"/>
        <path class="cls-5" d="m47.66,34.23s0,0,0,.01c.08.02.06,0,0-.01Z"/>
        <path class="cls-5" d="m36.85,18.49c.29.69.04,1.84.41,2.49-.1-.38-.14-2.26-.41-2.49Z"/>
        <path class="cls-5" d="m54.16,52.92s-.05-.04-.06-.07c.01.05.03.07.06.07Z"/>
        <path class="cls-5" d="m37.26,20.98h0s.03.07.03.07c-.01-.03-.02-.05-.04-.07Z"/>
        <path class="cls-5" d="m45.25,30.1c-.09.05-.15.1-.2.15.05-.03.11-.07.2-.15Z"/>
        <path class="cls-5" d="m46.1,33.66l.03-.11c-.03.05-.03.09-.03.11Z"/>
        <path class="cls-5" d="m43.75,28.75c.02-.06.08-.11-.01-.14-.02.02-.04.03-.05.05.08,0,.13,0,.07.09Z"/>
        <path class="cls-5" d="m42.86,26.73s-.05.07-.07.11l.06.07v-.18Z"/>
        <path class="cls-5" d="m27.38,48.85c-.16-.05-.32-.13-.47-.2.35.2.3.52.47.2Z"/>
        <path class="cls-5" d="m54.39,52.82c-.12.07-.19.1-.23.1.02.01.04.03.06.04.07-.05.14-.09.17-.13Z"/>
        <path class="cls-5" d="m39.67,30.5l-.05-.33c-.01.1,0,.22.05.33Z"/>
        <path class="cls-5" d="m34.51,36.38l.03.1s.02-.05-.03-.1Z"/>
        <path class="cls-5" d="m39.16,29.34c.16-.12.23-.26.3-.28-.04.02-.08.03-.13.05-.08.03-.12.12-.17.23Z"/>
        <path class="cls-5" d="m26.9,48.64h0s0,0,0,0Z"/>
        <path class="cls-5" d="m26.82,51.13c.19-.24-.51-.53-.82-.82.03-.42.54.17.93.28-.03-.3-.49-.82-.38-.95.11.06.16.06.27.17-.35-.53.37-.61-.09-1.25.07.02.12.04.17.07-.33-.17-.65-.37-.87-.53.06-.12-.25-.47.18-.24-.06.06.1.17.21.29l-.1-.23c.65.28.09.29.52.58-.03-.36-.34-.94-.06-1.01.59.34-.08.54.58.63l-.4.13c1.03.38-.17.13.91.57.41-.25-.02-.59.38-.85-.26-.29-.49-.28-.75-.56-.24-.88,1.69.52,1.18-.35-.32-.34-1.02-.84-.46-.87l.59.5c.29-.31-.81-.79-.13-.88.21.23.04.41.15.41.67.08-.26-.4-.14-.58l.6.32c.15-.44-.02-1.12.13-1.6.16.13.3.31.53.32.03-.71.76-1.09,1.41-1.42l-.39-.49s.28.05.35.15c.31-.09-.32-.2-.46-.41.03-.14.38.02.49.18-.23-.61-.34-1.54.42-1.62l.11.16c.37-.18-.87-.92-.24-.93l.06.1c.57-.52.5-1.48,1.53-1.56-.7-.49.67-.47-.35-1.06.71-.1.84.1,1.47-.24.12-.12-.55-.54-.57-.77l.55.27-.46-.53.72.2-.06-.24c-.06.05-.32.02-.47-.07-.12-.38.69-.43.98-.3l-.17-.84c.22.12.24.26.34.41-.4-.6.61.23.24-.33-.15-.02-.32-.18-.43-.24.41.02.57-.33.55-.65l.36.23c.31-.41.27-1.05.52-1.56-.27.1-.91-.25-.91-.43l.62.21c-.32-.26-.3.05-.65-.35.16-.16.73.18.88.38l-.1-.33c.18.07.25.16.47.28-.33-.26.78-.14.2-.57l.18.07c.24-.52.13-.84.29-1.28-.51-.23-.32-.35-.69-.65.3-.23.85-.41.96-.8-.15-.37-.41-.26-.67-.51.48.18.59-.21.85.12.08-.3.04-.26,0-.35-.04-.08-.11-.18-.24-.43-.18-.12-.27-.14-.4-.27-.04-.12.22.02.41.2l.04.05c-.25-.41.12-.34.38-.08.27.22.44.61.17-.15l.03.08c-.09-.28-.16-.6-.23-.94.08.04.17.61.35,1.02-.19-.7-.13-.76-.08-.71.05.04.1.19.03-.42.28,1.37.26,1.34.26,1.07-.01-.24,0-.74.08.41l-.05-.86c-.04-.88.04.47.05.67-.03-.62-.04-.7-.07-1.27.01-.37.05-.51.08-.47.05.27.08.85.08,1.35,0,.51-.02.98-.05,1.21-.04.16.53-3.55.33-1.79l-.23,1.18c.15-.68.2-.52.22-.41.03.13.03.22.28-.05-.1.15-.22.38-.23.36-.28.56.02.11.3-.23-.02.08-.24.34-.37.54-.2.25.48-.44.13-.03-.06.06-.12.11-.15.14.18-.16-.02.11.42-.28-.19.22.28.03.02.25.6-.17-.06.61.76.28-.84.34-.44.82.03.83-.28.05-.18.28-.56.36.11.21.35.33.76.1-.8.84,1.15.42,0,1.22.73.43,1.3.86,1.77,1.32-.82.37-.38-.58-1.22-.15.59.37,1.44.34,1.5.96-.04.19-.39.1-.55.12.59.37.44,1.06,1.11,1.31-.08.04-.18.03-.27.01.07.08,0,.27.35.08l-.14-.04c.46-.42,1.29-.2,1.58-.33-1.12.38-.03.59-1.48,1.03.1.03.31.01.55-.13-.03.13-.15.23-.48.28.37.23.69-.09.84.21-.18.09-.28.07-.5.14.42-.03.85-.06.83.27-.11.04-.24.14-.27.07.28.4,1.3.24,1.22.89-.83.27-.16.29-.81.68l.33.15.26-.27c.11.23.69.16.58.46h-.36s.35.33.35.33l.12-.37c.46.03.81-.48.79-.09-.1-.02.11.22-.21.55h0c.27,0,.55-.02.48.23-.18.16-.74.37-.86.48.6-.2.44.43,1.09.23-.16.03-.5.22-.56.28l.49-.16c-.08.18-.14.23-.42.37.09.35.77-.57.62,0-.05,0-.11.04-.21.02.02.46.68.53.66.98-.59.48-.33-.19-.81.24.4.41,1.35.53,1.48,1.07l.02-.13c.95-.49-.24.61.32.58-.1-.02-.55.23-.44.19.04.4.61.5,1.18.79l-.27.09c-.09.31.18.55.2.81.27-.09.3.05.59-.23-.92,1.44,1.42.7.69,1.93-.04-.06-.3-.02-.27.03l.51.31c.36-.29.19-.21.43-.51.27-.09.53-.08.6.03-.39-.03-.62.41-.77.64.11-.09.26-.15.37-.24-.53.69.8-.48.55.15l-.21.12c.18.05.52-.02.55.15-.41.35-.29.01-.66.25.15.16,1.08-.21.75.25-.18,0-.25-.1-.42-.1-.4.53-.26.46-.25.65v-.02s-.02.46-.02.46l.09-.17c1.31-.56.53.31,1.49.1-.91.2-.44.24-.96.56-.08.17-.16.4-.32.46.5-.14-.15.46.58.25-.15.12.09.16-.33.41.25.1.25-.24.46-.36.74-.1-.18,1.14.85,1.02.56.13,1.14-.19,1.63-.06-.17.29-.64.33-.64.33-.1.35.03.45.33.48-.16.07-.25.19-.39.37.14.1.64-.33.54.01-.2.1-.51.27-.73.33.26.05.67-.01.93.04-.24.25-.49.21-.71.29.26.09.6.29,1.07.02l.07-.23c.07.05-.34.31-.46.32-.45.1-.02-.34.13-.46l.19.04c.83-.8-.49-.35-.61-.62l.74-.4-.73.17c.14-.18.49-.49.67-.45.21-.41-.34.03-.08-.39.05-.06.08-.07.12-.08l-.32-.02c.16-.07.46-.37.43-.2.18-.57-.84-.1-.41-.58h.06c-.52-.24-.52.31-1.33.43l1.08-1.08-.53.31c-.01-.05-.03-.16.18-.29-.45.09-.2.18-.58.32.31-.52-.61-.41.16-1.01-.43.19-.16.4-.57.37.81-.66-.32-.15-.06-.61.48-.25.37.09.64-.37-.83.41-.08-.47-.34-.53-.6.4-.48-.17-.87-.29.21-.12,0-.72.05-1.11l.11-.06c-.64.36-.7.03-.95-.07.37-.24.54-.3.77-.31l-.12-.17c-.22.09-.36.1-.51.04l.49-.26c-.18-.21-.85-.11-.74-.61-.44.26-1.04,1.02-1.54.88.22-.16.62-.43.76-.41-.05,0-.26.03-.19-.09l.47-.12c.08-.25-.37.14-.41,0,.33-.21.19-.23.46-.39.05,0-.08.18.08.14-.02-.16.08-.44.3-.65-.18.13-.45.29-.55.22-.17-.22.35-.34.43-.58-.27.09-.12-.21-.62.1-.04-.07.18-.23.3-.34-.3.02-.42-.53-.87-.06l-.02.05s-.02,0-.03,0h0s0,0,0,0c-.76-.09-.23-1.01-.69-1.28l.17-.1c-.34-.12-.44-.46-.91-.41-.04-.07.21-.35.43-.44-.24-.11-.44-.01-.32-.45.4,0,.23-.22.33.06,0-.33.25-.54-.37-.52.49-.17.44-.5.25-.54l-.21.35c-.14-.09-.16-.22-.19-.36l.61-.27c.42-.89-1.71-.19-.74-1.24-.48.1-.14.43-.67.58-.05-.27.65-.98.61-1.05.15-.49-1.01.19-.97-.26-.18.16-.72.51-1.05.37-.05-.27.71-.76.96-.71.05.04,0,.11-.07.14.12.03.26.08.43-.14l-.22.09c.15-.23-.05-.53.33-.64-.29-.06-.38.11-.42.3.14-.46-.24-.46-.2-.87-.09.11-.31.29-.33.24.02-.58-.5.02-.75-.24.23-.34.79-.35.37-.51.12-.3.54-.33.74-.35-.55-.06,0-.65-.02-.85l.25.05c-.15-.03-.18-.11-.22-.18l-.38.3c.03-.12,0-.2.17-.29-.32.06-.66.43-1.13.46.15-.22-.41-.23.13-.56,0,.46.54-.33.79-.07-.1-.02-.13-.1-.1-.22.06-.05.12-.05.17-.04.33-.6-.71.17-.88-.19.34-.12.56-.39.46-.41.07.15-.49.34-.8.33.13-.35-.31-.16-.34-.29l-.05.2c-.34.11-.36-.02-.54-.13.24-.14.24.06.32-.05-.65.1.37-.69-.13-.75.16-.22.59-.31.69-.48-.55-.08.29-.52-.19-.64-.39.29-.28.26-.79.25l.54.34h-.77c.07.14.42.17.39.3-.42.02-.31-.01-.63.23.54-.52-.57-.22-.25-.66l1.07-.51c.31-.58-.84-.35-.8-.93l-.12.23c-.45.14-.2-.25-.44-.32.36-.15.45-.31.64-.48-.26.13-.13-.34-.86-.05l.38-.42c.02-.46-1.22.05-1.26-.36.44-.07.62-.35,1.01-.24-.05-.12-.03-.26-.28-.14.19-.17-.64-.11-.34-.37-.18.02-.56.17-.59.03.07-.05.18-.08.18-.08-.18.08-.33-.1-.68.19.95-.9-.49-.9.2-1.96-.28-.32-.57-.67-.73-.99.1-.07.15-.16.14-.06.07-.81-.95.68-.84-.14.33-.89.35-.07.45-.46.44-.65.33-.81.17-.91-.16-.11-.37-.13-.22-.78h.09c.07-.41-.09-.47-.27-.47-.18,0-.38.06-.45-.24,0,0,.07-.14.1-.28-.48.6-.78.43-1,.38.25-.77.18-.28.36-1.26-.1-.07-.33,1.48-.51,1.42.07-.6.06-1.32.23-2.43l.16.34c.18-1.54-.21-.49-.24-.93l.11-.59c-.29-.48-.5,1.2-.71.5l-.03.6c-.27,1.51,0-1.28-.23-.22l.1-2.01c-.13.21-.39,1.14-.52,1.23.1-1.4.31-1.7.49-2.23-.09-.26-.32-.71-.39.23.04-.12.1-.5.12-.09-.17,1.33-.29,1.89-.42,1.48.02-1.84-.06-2.54-.17-3-.14.13-.3.84-.45-.79-.13,1.24-.28,1.5-.47,1.69-.19.18-.42.3-.61.98.51,2.19-.1.4.32,2.91-.05.37-.08.4-.12.26-.16-.29-.33-.53-.52-.74-.21-.48-.02-.75-.14-1.25-.25.43-.3-.72-.59-.86.22.7.2,1.34,0,1.41.15.15.29.31.42.49,0,.97-.16.68-.35.45-.19-.25-.39-.43-.38.5l-.1-.87c-.03.81-.65,1.78-.17,3.31-.12-.1-.37-.38-.36-.67-.24.44-.28,1.3-.31,1.97-.04.69-.07,1.21-.47,1.38l-.22-.26c0,.24.35.64,0,.68-.1-.08-.23-.23-.28-.16.05.16.27.72.02.87l-.22-.34c-.09.09-.17.22-.2.29-.03.06-.04.12-.03.18.01.13.08.28.17.43.18.3.43.62.43.88-.81-.35-1.25-.05-1.47.1l-.11-.06c-.37.56.21,1.32.28,2.03-1.02-.05-.91,1.01-1.65,1.33.18-.02.61.31.65.44-.22.05.38.63-.34.26l.04-.04c-.76-.24-.7.11-.82.31l.93.5c-1.65-.14-.2,1.68-1.58,1.36.17.25.08.41.25.66l-.5-.27c-.32.29-.47.44-.58.94l-.31-.28c-.16.23,1.28,1.08,1.19,1.32l-.78-.33c-.22.45-1.11.52-.67,1.31-.1-.07-.31-.2-.3-.28-.13.19-.93.5.12,1-.66-.36-.31.41-.15.8l-.46-.31c.51.55.67.65.69,1.02-.1.03-.42-.17-.25-.18-.38.07.36.43-.05.54l-.25-.28c-.17.2.01.28.3.61.11.25-.37.35-.82.13.25.19.53.52.33.57-.17-.08-.25-.19-.28-.24-.54.17.23.88-.4.85-.16-.09-.25-.12-.31-.13.19-.28.36-.5.38-.46-.44-.26-.66-.08-1.16-.62.22.38.75,1.14.4,1.24-.05-.01-.1-.03-.17-.06l-.04-.05c-.08.03-.06.1-.02.19-.12.03-.2.04-.25.11-.38-.2-.36.15-.45.25.48.29.31.39.8.49-.05,0-.04-.06-.02-.15,0-.03,0-.05-.02-.08l.04.03c.03-.09.08-.19.14-.31.19.24.33.46-.01.43.27.25.55.51.67.64-.76-.25-1.32-.17-1.75-.38.04.52-.35.94.4,1.73.05.17-.33-.05-.49-.1-.05-.12,0-.18-.1-.29.1.35-.29.65.3,1.1-.44.07-.48-.51-.6-.1l-.16-.17c-1.43.02.84,2.14-.92,2.05.11,0,.16,0,.27.06-1.13.46-.69,2.11-2.15,2.31-.34.11.02.41.21.76l-.52-.31.39.65c.15.65-1.62-.28-1.17.72l.37.19c-.18.11-.18.63-.54.33.05.06.3.31.08.24l-.26-.19.14.71c-.41.15-.96-.81-1.33-.42-.02.23.38,1.02.59,1.09.06-.05.28-.04.53.15l.02.25c.71.6,1.38,1.3,2.17,1.33l-.25-.6.42.19-.14.23c.43.14.19-.17.05-.41.21.13.37.19.48.2l-.51-.79c.31.19.49.55.78.5-.24-.37-.74-.38-.8-.74.43.13.68.38.5.02.21.12.31.25.35.37-.13-.3.16-.41-.18-.78.52.19.22-.51.91.02-.14-.17-.39-.64-.33-.78.69.84.38-.41,1.25.32-.65-.72.09-.83-.13-1.43.05.06.15.18.09.18.18-.12.45,0,.67,0-.62-.48-.59-.83-.89-1.25.76.24.67.65,1.3,1.01-.53-.36-.27-.72-.75-.95.49.12.28,0,.87.29-.78-.59-.04-.24-.44-.71.55.05.79.47.72.05.33.05.46.47.46.47Zm2.43-6.86s0,0,0,0c-.02.06-.04.11-.05.14,0-.03.02-.07.04-.15Zm.3-.51c-.06.05-.11.12-.15.21-.18-.08-.34-.2-.3-.25.09.09.26.03.45.04Zm-3.97-.97c-.02-.12.09-.09.19-.04-.01.04-.02.09-.02.17.02.01.04.03.05.05-.09-.06-.17-.12-.22-.18Z"/>
        <path class="cls-5" d="m26.13,43.31s.02.04.02.05c.05.01.1.02.14.02l-.13-.12-.02.05Z"/>
        <path class="cls-5" d="m50.96,43.83v-.02s-.02.04-.05.06c.02-.02.03-.03.05-.05Z"/>
        <polygon class="cls-5" points="34.46 37.1 34.33 37.04 34.42 37.14 34.46 37.1"/>
        <path class="cls-5" d="m51.08,47.58s-.07.07-.1.12c.03-.02.06-.07.1-.12Z"/>
        <path class="cls-5" d="m51.76,48.82l-.05.28c.05-.13.05-.22.05-.28Z"/>
        <path class="cls-5" d="m52.14,49.86c.09-.04.15-.08.21-.12h0s-.21.12-.21.12Z"/>
        <path class="cls-5" d="m42.78,35.42s-.02-.02-.04-.03c-.14-.04-.07,0,.04.03Z"/>
        <path class="cls-5" d="m46.33,39.31c-.12,0-.23,0-.31-.01,0,.1.03.17.31.01Z"/>
        <path class="cls-5" d="m39.68,30.53h0s0-.02-.01-.04v.04Z"/>
        <path class="cls-5" d="m45.92,39.09c-.05.13,0,.19.11.21,0-.08,0-.19-.11-.21Z"/>
        <path class="cls-5" d="m54.67,53.81v.06s.07-.04.09-.05h-.09Z"/>
        <path class="cls-5" d="m54.76,53.82h.09s-.03-.03-.09,0Z"/>
        <path class="cls-5" d="m55.03,53.83h-.19s.04.07.19,0Z"/>
        <path class="cls-5" d="m54.03,52.51l-.17.11s.1-.05.17-.11Z"/>
        <path class="cls-5" d="m53.72,52.19c.02.11-.2.47-.01.51l.14-.08c-.28.12.21-.55-.13-.42Z"/>
        <path class="cls-5" d="m54.73,49.27l.07.39c.14-.18.33-.41.47-.31.27-.74-.35.36-.54-.08Z"/>
        <path class="cls-5" d="m54.36,48.18c.19.1.26-.18.36-.24-.23.01-.29.02-.36.24Z"/>
        <path class="cls-5" d="m50.04,41.47l.45-.25c-.14-.09-.17.1-.45.25Z"/>
        <polygon class="cls-5" points="46.98 41.49 46.78 41.78 47.22 41.6 46.98 41.49"/>
        <polygon class="cls-5" points="49.68 38.88 49.78 38.9 49.5 38.78 49.68 38.88"/>
        <path class="cls-5" d="m43.51,26.98l-.54.34c.16.08.82-.17.54-.34Z"/>
        <path class="cls-5" d="m39.75,19.21c.04-.8-.02-1.53-.13-.95.06.3.08,1.04.13.95Z"/>
        <polygon class="cls-5" points="30.62 33.46 30.49 33.26 30.55 33.54 30.62 33.46"/>
      </g>
      <path class="cls-2" d="m12.12,17.58c1.62-2.12,4.24-5.05,8.16-7.86,3.69-2.65,7.23-4.25,9.79-5.2,1.11,1.23,2.23,2.46,3.34,3.7-2.4.91-5.94,2.52-9.56,5.32-3.53,2.72-5.79,5.53-7.14,7.49-1.53-1.15-3.06-2.3-4.59-3.45Z"/>
    </g>
  </g>
</svg>