<?xml version="1.0" encoding="UTF-8"?>
<svg id="Layer_2" data-name="Layer 2" xmlns="http://www.w3.org/2000/svg" viewBox="0 0 126.61 61.1">
  <g id="mobileversion">
    <g>
      <path d="m1.63,6.19L0,.31h.47c.39,1.41,1.28,4.66,1.42,5.35h0c.11-.55,1.07-3.79,1.49-5.35h.5c.39,1.44,1.33,4.88,1.42,5.34h0c.18-.83,1.17-3.94,1.57-5.34h.46l-1.8,5.87h-.52c-.39-1.38-1.3-4.78-1.4-5.29h0c-.15.76-1.06,3.83-1.48,5.29h-.51Z"/>
      <path d="m7.99,4.14c0,1.08.55,1.75,1.36,1.75s1.06-.44,1.21-.79h.43c-.18.55-.62,1.18-1.65,1.18-1.28,0-1.77-1.1-1.77-2.16,0-1.2.6-2.23,1.82-2.23,1.29,0,1.7,1.12,1.7,1.91,0,.12,0,.23,0,.34h-3.09Zm2.66-.37c0-.83-.46-1.49-1.28-1.49-.86,0-1.26.6-1.35,1.49h2.64Z"/>
      <path d="m17.55,5.9c0,1.34-.6,2.05-1.81,2.05-1.09,0-1.54-.61-1.64-1.25h.43c.15.58.63.86,1.23.86,1.09,0,1.39-.71,1.39-1.77v-.44c-.23.55-.64.84-1.4.84-.98,0-1.74-.8-1.74-2.1,0-1.41.81-2.2,1.8-2.2.86,0,1.22.4,1.34.74,0-.24.02-.54.03-.64h.39c0,.15-.02.81-.02,1.22v2.69Zm-3.1-1.83c0,1,.53,1.72,1.33,1.72,1.05,0,1.37-.7,1.37-1.79s-.34-1.72-1.34-1.72-1.36.83-1.36,1.79Z"/>
      <path d="m19.04,4.14c0,1.08.55,1.75,1.36,1.75s1.06-.44,1.21-.79h.43c-.18.55-.62,1.18-1.65,1.18-1.28,0-1.77-1.1-1.77-2.16,0-1.2.6-2.23,1.82-2.23,1.29,0,1.7,1.12,1.7,1.91,0,.12,0,.23,0,.34h-3.09Zm2.66-.37c0-.83-.46-1.49-1.28-1.49-.86,0-1.26.6-1.35,1.49h2.63Z"/>
      <path d="m23.21,1.99c.68,1.92,1.15,3.23,1.31,3.77h0c.09-.31.56-1.56,1.38-3.77h.44l-1.59,4.2h-.5l-1.49-4.2h.44Z"/>
      <path d="m27.28,4.14c0,1.08.55,1.75,1.36,1.75s1.06-.44,1.21-.79h.43c-.18.55-.62,1.18-1.65,1.18-1.28,0-1.77-1.1-1.77-2.16,0-1.2.6-2.23,1.82-2.23,1.29,0,1.7,1.12,1.7,1.91,0,.12,0,.23,0,.34h-3.09Zm2.66-.37c0-.83-.46-1.49-1.28-1.49-.86,0-1.26.6-1.35,1.49h2.64Z"/>
      <path d="m31.43,3.05c0-.37,0-.72,0-1.06h.41c.02.13.03.68.02.8.18-.43.53-.9,1.39-.9.75,0,1.41.42,1.41,1.58v2.72h-.42v-2.65c0-.75-.31-1.23-1.04-1.23-1,0-1.34.83-1.34,1.75v2.14h-.42v-3.14Z"/>
      <path d="m41.14,5.39c0,.37.03.66.06.8h-.4c-.03-.1-.06-.29-.08-.65-.14.31-.51.75-1.38.75-.97,0-1.39-.63-1.39-1.26,0-.92.71-1.34,1.97-1.34h.8v-.43c0-.42-.13-.98-1.08-.98-.85,0-.97.44-1.07.79h-.42c.05-.46.34-1.17,1.49-1.17.96,0,1.49.4,1.49,1.33v2.17Zm-.41-1.34h-.82c-.93,0-1.51.24-1.51.97,0,.53.38.89.97.89,1.2,0,1.37-.8,1.37-1.7v-.15Z"/>
      <path d="m42.55,6.19V0h.42v6.19h-.42Z"/>
      <path d="m44.37,6.19V0h.42v6.19h-.42Z"/>
      <path d="m46.28,4.14c0,1.08.55,1.75,1.36,1.75s1.06-.44,1.21-.79h.43c-.18.55-.62,1.18-1.65,1.18-1.28,0-1.77-1.1-1.77-2.16,0-1.2.6-2.23,1.82-2.23,1.29,0,1.7,1.12,1.7,1.91,0,.12,0,.23,0,.34h-3.09Zm2.66-.37c0-.83-.46-1.49-1.28-1.49-.86,0-1.26.6-1.35,1.49h2.64Z"/>
      <path d="m52.64,6.19V0h.42v6.19h-.42Z"/>
      <path d="m54.55,4.14c0,1.08.55,1.75,1.36,1.75s1.06-.44,1.21-.79h.43c-.18.55-.62,1.18-1.65,1.18-1.28,0-1.77-1.1-1.77-2.16,0-1.2.6-2.23,1.82-2.23,1.29,0,1.7,1.12,1.7,1.91,0,.12,0,.23,0,.34h-3.09Zm2.66-.37c0-.83-.46-1.49-1.28-1.49-.86,0-1.26.6-1.35,1.49h2.64Z"/>
      <path d="m58.83,4.14c0,1.08.55,1.75,1.36,1.75s1.06-.44,1.21-.79h.43c-.18.55-.62,1.18-1.65,1.18-1.28,0-1.77-1.1-1.77-2.16,0-1.2.6-2.23,1.82-2.23,1.29,0,1.7,1.12,1.7,1.91,0,.12,0,.23,0,.34h-3.09Zm2.66-.37c0-.83-.46-1.49-1.28-1.49-.86,0-1.26.6-1.35,1.49h2.64Z"/>
      <path d="m62.98,3.13c0-.7,0-1.01,0-1.14h.41c0,.13.02.4.02.94.24-.63.78-1.01,1.46-1.04v.45c-.87.06-1.46.66-1.46,1.66v2.18h-.42v-3.05Z"/>
      <path d="m65.72,6.19V0h.42v6.19h-.42Z"/>
      <path d="m67.54,0h.42v.81h-.42v-.81Zm0,1.99h.42v4.2h-.42V1.99Z"/>
      <path d="m69.36,3.05c0-.37,0-.72,0-1.06h.41c.02.13.03.68.02.8.18-.43.53-.9,1.39-.9.75,0,1.41.42,1.41,1.58v2.72h-.42v-2.65c0-.75-.31-1.23-1.04-1.23-1,0-1.34.83-1.34,1.75v2.14h-.42v-3.14Z"/>
      <path d="m77.19,5.9c0,1.34-.6,2.05-1.81,2.05-1.09,0-1.54-.61-1.64-1.25h.43c.15.58.63.86,1.23.86,1.09,0,1.39-.71,1.39-1.77v-.44c-.23.55-.64.84-1.4.84-.98,0-1.74-.8-1.74-2.1,0-1.41.81-2.2,1.8-2.2.86,0,1.22.4,1.34.74,0-.24.02-.54.03-.64h.39c0,.15-.02.81-.02,1.22v2.69Zm-3.1-1.83c0,1,.53,1.72,1.33,1.72,1.05,0,1.37-.7,1.37-1.79s-.34-1.72-1.34-1.72-1.36.83-1.36,1.79Z"/>
      <path d="m78.69,4.14c0,1.08.55,1.75,1.36,1.75s1.06-.44,1.21-.79h.43c-.18.55-.62,1.18-1.65,1.18-1.28,0-1.77-1.1-1.77-2.16,0-1.2.6-2.23,1.82-2.23,1.29,0,1.7,1.12,1.7,1.91,0,.12,0,.23,0,.34h-3.09Zm2.66-.37c0-.83-.46-1.49-1.28-1.49-.86,0-1.26.6-1.35,1.49h2.63Z"/>
      <path d="m82.83,3.05c0-.37,0-.72,0-1.06h.41c.02.13.03.68.02.8.18-.43.53-.9,1.39-.9.75,0,1.41.42,1.41,1.58v2.72h-.42v-2.65c0-.75-.31-1.23-1.04-1.23-1,0-1.34.83-1.34,1.75v2.14h-.42v-3.14Z"/>
      <path d="m89.67,3.07c0-.36,0-.76,0-1.08h.41c0,.14.03.5.02.75.18-.42.56-.85,1.26-.85.59,0,1.05.29,1.22.83.21-.44.63-.83,1.37-.83.65,0,1.32.37,1.32,1.54v2.76h-.42v-2.71c0-.56-.2-1.17-.98-1.17s-1.18.65-1.18,1.47v2.42h-.41v-2.7c0-.61-.18-1.18-.96-1.18-.81,0-1.21.72-1.21,1.58v2.31h-.42v-3.11Z"/>
      <path d="m99.48,5.39c0,.37.03.66.06.8h-.4c-.03-.1-.06-.29-.08-.65-.14.31-.51.75-1.38.75-.97,0-1.39-.63-1.39-1.26,0-.92.71-1.34,1.97-1.34h.8v-.43c0-.42-.13-.98-1.08-.98-.85,0-.97.44-1.07.79h-.42c.05-.46.34-1.17,1.49-1.17.96,0,1.49.4,1.49,1.33v2.17Zm-.41-1.34h-.82c-.93,0-1.51.24-1.51.97,0,.53.38.89.97.89,1.2,0,1.37-.8,1.37-1.7v-.15Z"/>
      <path d="m100.81,1.99c.7,1.03,1,1.49,1.17,1.75h0c.2-.29.62-.89,1.22-1.75h.48l-1.46,2.03,1.49,2.17h-.5c-.6-.9-1.04-1.54-1.24-1.83h0c-.16.24-.54.81-1.22,1.83h-.49l1.49-2.13-1.42-2.06h.5Z"/>
      <path d="m104.55,0h.42v.81h-.42v-.81Zm0,1.99h.42v4.2h-.42V1.99Z"/>
      <path d="m106.37,3.07c0-.36,0-.76,0-1.08h.41c0,.14.03.5.02.75.18-.42.56-.85,1.26-.85.59,0,1.05.29,1.22.83.21-.44.63-.83,1.37-.83.65,0,1.32.37,1.32,1.54v2.76h-.42v-2.71c0-.56-.2-1.17-.98-1.17s-1.18.65-1.18,1.47v2.42h-.41v-2.7c0-.61-.18-1.18-.96-1.18-.81,0-1.21.72-1.21,1.58v2.31h-.42v-3.11Z"/>
      <path d="m116.18,5.39c0,.37.03.66.06.8h-.4c-.03-.1-.06-.29-.08-.65-.14.31-.51.75-1.38.75-.97,0-1.39-.63-1.39-1.26,0-.92.71-1.34,1.97-1.34h.8v-.43c0-.42-.13-.98-1.08-.98-.85,0-.97.44-1.07.79h-.42c.05-.46.34-1.17,1.49-1.17.96,0,1.49.4,1.49,1.33v2.17Zm-.41-1.34h-.82c-.93,0-1.51.24-1.51.97,0,.53.38.89.97.89,1.2,0,1.37-.8,1.37-1.7v-.15Z"/>
      <path d="m117.59,6.19V0h.42v6.19h-.42Z"/>
      <path d="m119.51,4.14c0,1.08.55,1.75,1.36,1.75s1.06-.44,1.21-.79h.43c-.18.55-.62,1.18-1.65,1.18-1.28,0-1.77-1.1-1.77-2.16,0-1.2.6-2.23,1.82-2.23,1.29,0,1.7,1.12,1.7,1.91,0,.12,0,.23,0,.34h-3.09Zm2.66-.37c0-.83-.46-1.49-1.28-1.49-.86,0-1.26.6-1.35,1.49h2.63Z"/>
      <path d="m.47,16.82v-6.19h.42v6.19h-.42Z"/>
      <path d="m2.38,14.77c0,1.08.55,1.75,1.36,1.75s1.06-.44,1.21-.79h.43c-.18.55-.62,1.18-1.65,1.18-1.28,0-1.77-1.1-1.77-2.16,0-1.2.6-2.23,1.82-2.23,1.29,0,1.7,1.12,1.7,1.91,0,.12,0,.23,0,.34h-3.09Zm2.66-.37c0-.83-.46-1.49-1.28-1.49-.86,0-1.26.6-1.35,1.49h2.63Z"/>
      <path d="m6.66,14.77c0,1.08.55,1.75,1.36,1.75s1.06-.44,1.21-.79h.43c-.18.55-.62,1.18-1.65,1.18-1.28,0-1.77-1.1-1.77-2.16,0-1.2.6-2.23,1.82-2.23,1.29,0,1.7,1.12,1.7,1.91,0,.12,0,.23,0,.34h-3.09Zm2.66-.37c0-.83-.46-1.49-1.28-1.49-.86,0-1.26.6-1.35,1.49h2.63Z"/>
      <path d="m10.81,13.76c0-.7,0-1.01,0-1.14h.41c0,.13.02.4.02.94.24-.63.78-1.01,1.46-1.04v.45c-.87.06-1.46.66-1.46,1.66v2.18h-.42v-3.05Z"/>
      <path d="m13.97,14.78c.39-.41,1.56-1.6,2.12-2.17h.54l-1.66,1.67,1.87,2.53h-.52l-1.65-2.26-.7.67v1.59h-.42v-6.19h.42v4.15Z"/>
      <path d="m20.52,16.02c0,.37.03.66.06.8h-.4c-.03-.1-.06-.29-.08-.65-.14.31-.51.75-1.38.75-.97,0-1.39-.63-1.39-1.26,0-.92.71-1.34,1.97-1.34h.8v-.43c0-.42-.13-.98-1.08-.98-.85,0-.97.44-1.07.79h-.42c.05-.46.34-1.17,1.49-1.17.96,0,1.49.4,1.49,1.33v2.17Zm-.41-1.34h-.82c-.93,0-1.51.24-1.51.97,0,.53.38.89.97.89,1.2,0,1.37-.8,1.37-1.7v-.15Z"/>
      <path d="m21.93,13.68c0-.37,0-.72,0-1.06h.41c.02.13.03.68.02.8.18-.43.53-.9,1.39-.9.75,0,1.41.42,1.41,1.58v2.72h-.42v-2.65c0-.75-.31-1.23-1.04-1.23-1,0-1.34.83-1.34,1.75v2.14h-.42v-3.14Z"/>
      <path d="m26.53,15.66c.14.55.53.87,1.19.87.75,0,1.05-.34,1.05-.81s-.2-.71-1.14-.94c-1.08-.26-1.35-.59-1.35-1.14s.44-1.12,1.38-1.12,1.4.58,1.47,1.17h-.42c-.08-.35-.35-.79-1.07-.79s-.94.36-.94.7c0,.39.2.58,1.03.78,1.18.29,1.48.67,1.48,1.3,0,.76-.62,1.23-1.5,1.23-.96,0-1.49-.5-1.61-1.26h.43Z"/>
      <path d="m30.37,14.77c0,1.08.55,1.75,1.36,1.75s1.06-.44,1.21-.79h.43c-.18.55-.62,1.18-1.65,1.18-1.28,0-1.77-1.1-1.77-2.16,0-1.2.6-2.23,1.82-2.23,1.29,0,1.7,1.12,1.7,1.91,0,.12,0,.23,0,.34h-3.09Zm2.66-.37c0-.83-.46-1.49-1.28-1.49-.86,0-1.26.6-1.35,1.49h2.63Z"/>
      <path d="m34.52,13.68c0-.37,0-.72,0-1.06h.41c.02.13.03.68.02.8.18-.43.53-.9,1.39-.9.75,0,1.41.42,1.41,1.58v2.72h-.42v-2.65c0-.75-.31-1.23-1.04-1.23-1,0-1.34.83-1.34,1.75v2.14h-.42v-3.14Z"/>
      <path d="m44.59,10.63v4.98c0,.4,0,.79,0,1.21h-.4c-.02-.1-.03-.5-.03-.7-.21.51-.68.81-1.41.81-1.09,0-1.75-.89-1.75-2.15s.71-2.25,1.85-2.25c.84,0,1.17.36,1.3.63v-2.52h.42Zm-3.13,4.12c0,1.15.6,1.77,1.32,1.77,1.11,0,1.41-.76,1.41-1.9s-.26-1.7-1.33-1.7c-.83,0-1.39.66-1.39,1.84Z"/>
      <path d="m49.39,14.71c0,1.17-.65,2.21-1.9,2.21-1.13,0-1.84-.93-1.84-2.2,0-1.2.66-2.2,1.88-2.2,1.12,0,1.85.87,1.85,2.19Zm-3.29,0c0,1,.54,1.8,1.43,1.8s1.42-.75,1.42-1.8c0-.99-.5-1.8-1.43-1.8s-1.41.8-1.41,1.8Z"/>
      <path d="m53.9,14.71c0,1.17-.65,2.21-1.9,2.21-1.13,0-1.84-.93-1.84-2.2,0-1.2.66-2.2,1.88-2.2,1.12,0,1.85.87,1.85,2.19Zm-3.29,0c0,1,.54,1.8,1.43,1.8s1.42-.75,1.42-1.8c0-.99-.5-1.8-1.43-1.8s-1.41.8-1.41,1.8Z"/>
      <path d="m54.97,13.76c0-.7,0-1.01,0-1.14h.41c0,.13.02.4.02.94.24-.63.78-1.01,1.46-1.04v.45c-.87.06-1.46.66-1.46,1.66v2.18h-.42v-3.05Z"/>
      <path d="m60.34,14.78c.39-.41,1.56-1.6,2.12-2.17h.54l-1.66,1.67,1.87,2.53h-.52l-1.65-2.26-.7.67v1.59h-.42v-6.19h.42v4.15Z"/>
      <path d="m67.22,14.71c0,1.17-.65,2.21-1.9,2.21-1.13,0-1.84-.93-1.84-2.2,0-1.2.66-2.2,1.88-2.2,1.12,0,1.85.87,1.85,2.19Zm-3.29,0c0,1,.54,1.8,1.43,1.8s1.42-.75,1.42-1.8c0-.99-.5-1.8-1.43-1.8s-1.41.8-1.41,1.8Z"/>
      <path d="m68.37,15.66c.14.55.53.87,1.19.87.75,0,1.05-.34,1.05-.81s-.2-.71-1.14-.94c-1.08-.26-1.35-.59-1.35-1.14s.44-1.12,1.38-1.12,1.4.58,1.47,1.17h-.42c-.08-.35-.35-.79-1.07-.79s-.94.36-.94.7c0,.39.2.58,1.03.78,1.18.29,1.48.67,1.48,1.3,0,.76-.62,1.23-1.5,1.23-.96,0-1.49-.5-1.61-1.26h.43Z"/>
      <path d="m71.47,12.62h.78v-1.31h.42v1.31h1v.39h-1v2.73c0,.47.1.74.5.74.13,0,.3,0,.44-.05v.37c-.14.06-.34.08-.52.08-.54,0-.84-.27-.84-.94v-2.92h-.78v-.39Z"/>
      <path d="m74.59,14.77c0,1.08.55,1.75,1.36,1.75s1.06-.44,1.21-.79h.43c-.18.55-.62,1.18-1.65,1.18-1.28,0-1.77-1.1-1.77-2.16,0-1.2.6-2.23,1.82-2.23,1.29,0,1.7,1.12,1.7,1.91,0,.12,0,.23,0,.34h-3.09Zm2.66-.37c0-.83-.46-1.49-1.28-1.49-.86,0-1.26.6-1.35,1.49h2.64Z"/>
      <path d="m78.77,16.82v-6.19h.42v6.19h-.42Z"/>
      <path d="m83.99,14.71c0,1.17-.65,2.21-1.9,2.21-1.13,0-1.84-.93-1.84-2.2,0-1.2.66-2.2,1.88-2.2,1.12,0,1.85.87,1.85,2.19Zm-3.29,0c0,1,.54,1.8,1.43,1.8s1.42-.75,1.42-1.8c0-.99-.5-1.8-1.43-1.8s-1.41.8-1.41,1.8Z"/>
      <path d="m88.51,14.71c0,1.17-.65,2.21-1.9,2.21-1.13,0-1.84-.93-1.84-2.2,0-1.2.66-2.2,1.88-2.2,1.12,0,1.85.87,1.85,2.19Zm-3.29,0c0,1,.54,1.8,1.43,1.8s1.42-.75,1.42-1.8c0-.99-.5-1.8-1.43-1.8s-1.41.8-1.41,1.8Z"/>
      <path d="m89.66,15.66c.14.55.53.87,1.19.87.75,0,1.05-.34,1.05-.81s-.2-.71-1.14-.94c-1.08-.26-1.35-.59-1.35-1.14s.44-1.12,1.38-1.12,1.4.58,1.47,1.17h-.42c-.08-.35-.35-.79-1.07-.79s-.94.36-.94.7c0,.39.2.58,1.03.78,1.18.29,1.48.67,1.48,1.3,0,.76-.62,1.23-1.5,1.23-.96,0-1.49-.5-1.61-1.26h.43Z"/>
      <path d="m95.71,14.77c0,1.08.55,1.75,1.36,1.75s1.06-.44,1.21-.79h.43c-.18.55-.62,1.18-1.65,1.18-1.28,0-1.77-1.1-1.77-2.16,0-1.2.6-2.23,1.82-2.23,1.29,0,1.7,1.12,1.7,1.91,0,.12,0,.23,0,.34h-3.09Zm2.66-.37c0-.83-.46-1.49-1.28-1.49-.86,0-1.26.6-1.35,1.49h2.63Z"/>
      <path d="m99.83,12.62c.7,1.03,1,1.49,1.17,1.75h0c.2-.29.62-.89,1.22-1.75h.48l-1.46,2.03,1.49,2.17h-.5c-.6-.9-1.04-1.54-1.24-1.83h0c-.16.24-.54.81-1.22,1.83h-.49l1.49-2.13-1.42-2.06h.5Z"/>
      <path d="m103.91,16.19v2.3h-.42v-4.84c0-.34,0-.71,0-1.03h.41c.02.16.02.41.02.76.26-.5.72-.86,1.48-.86.99,0,1.68.83,1.68,2.09,0,1.51-.81,2.31-1.82,2.31-.74,0-1.13-.33-1.33-.72Zm2.71-1.57c0-.97-.47-1.7-1.3-1.7-1.02,0-1.44.64-1.44,1.78s.33,1.82,1.38,1.82c.87,0,1.36-.74,1.36-1.9Z"/>
      <path d="m108.29,14.77c0,1.08.55,1.75,1.36,1.75s1.06-.44,1.21-.79h.43c-.18.55-.62,1.18-1.65,1.18-1.28,0-1.77-1.1-1.77-2.16,0-1.2.6-2.23,1.82-2.23,1.29,0,1.7,1.12,1.7,1.91,0,.12,0,.23,0,.34h-3.09Zm2.66-.37c0-.83-.46-1.49-1.28-1.49-.86,0-1.26.6-1.35,1.49h2.64Z"/>
      <path d="m112.43,13.76c0-.7,0-1.01,0-1.14h.41c0,.13.02.4.02.94.24-.63.78-1.01,1.46-1.04v.45c-.87.06-1.46.66-1.46,1.66v2.18h-.42v-3.05Z"/>
      <path d="m114.81,12.62h.78v-1.31h.42v1.31h1v.39h-1v2.73c0,.47.1.74.5.74.13,0,.3,0,.44-.05v.37c-.14.06-.34.08-.52.08-.54,0-.84-.27-.84-.94v-2.92h-.78v-.39Z"/>
      <path d="m117.89,10.63h.42v.81h-.42v-.81Zm0,1.99h.42v4.2h-.42v-4.2Z"/>
      <path d="m119.67,15.66c.14.55.53.87,1.19.87.75,0,1.05-.34,1.05-.81s-.2-.71-1.14-.94c-1.08-.26-1.35-.59-1.35-1.14s.44-1.12,1.38-1.12,1.4.58,1.47,1.17h-.42c-.08-.35-.35-.79-1.07-.79s-.94.36-.94.7c0,.39.2.58,1.03.78,1.18.29,1.48.67,1.48,1.3,0,.76-.62,1.23-1.5,1.23-.96,0-1.49-.5-1.61-1.26h.43Z"/>
      <path d="m123.51,14.77c0,1.08.55,1.75,1.36,1.75s1.06-.44,1.21-.79h.43c-.18.55-.62,1.18-1.65,1.18-1.28,0-1.77-1.1-1.77-2.16,0-1.2.6-2.23,1.82-2.23,1.29,0,1.7,1.12,1.7,1.91,0,.12,0,.23,0,.34h-3.09Zm2.66-.37c0-.83-.46-1.49-1.28-1.49-.86,0-1.26.6-1.35,1.49h2.63Z"/>
      <path d="m3.35,26.65c0,.37.03.66.06.8h-.4c-.03-.1-.06-.29-.08-.65-.14.31-.51.75-1.38.75-.97,0-1.39-.63-1.39-1.26,0-.92.71-1.34,1.97-1.34h.8v-.43c0-.42-.13-.98-1.08-.98-.85,0-.97.44-1.07.79h-.42c.05-.46.34-1.17,1.49-1.17.96,0,1.49.4,1.49,1.33v2.17Zm-.41-1.34h-.82c-.93,0-1.51.24-1.51.97,0,.53.38.89.97.89,1.2,0,1.37-.8,1.37-1.7v-.15Z"/>
      <path d="m7.58,26.65c0,.37.03.66.06.8h-.4c-.03-.1-.06-.29-.08-.65-.14.31-.51.75-1.38.75-.97,0-1.39-.63-1.39-1.26,0-.92.71-1.34,1.97-1.34h.8v-.43c0-.42-.13-.98-1.08-.98-.85,0-.97.44-1.07.79h-.42c.05-.46.34-1.17,1.49-1.17.96,0,1.49.4,1.49,1.33v2.17Zm-.41-1.34h-.82c-.93,0-1.51.24-1.51.97,0,.53.38.89.97.89,1.2,0,1.37-.8,1.37-1.7v-.15Z"/>
      <path d="m8.99,24.31c0-.37,0-.72,0-1.06h.41c.02.13.03.68.02.8.18-.43.53-.9,1.39-.9.75,0,1.41.42,1.41,1.58v2.72h-.42v-2.65c0-.75-.31-1.23-1.04-1.23-1,0-1.34.83-1.34,1.75v2.14h-.42v-3.14Z"/>
      <path d="m15.19,23.25h.78v-1.31h.42v1.31h1v.39h-1v2.73c0,.47.1.74.5.74.13,0,.3,0,.44-.05v.37c-.14.06-.34.08-.52.08-.54,0-.84-.27-.84-.94v-2.92h-.78v-.39Z"/>
      <path d="m18.31,25.4c0,1.08.55,1.75,1.36,1.75s1.06-.44,1.21-.79h.43c-.18.55-.62,1.18-1.65,1.18-1.28,0-1.77-1.1-1.77-2.16,0-1.2.6-2.23,1.82-2.23,1.29,0,1.7,1.12,1.7,1.91,0,.12,0,.23,0,.34h-3.09Zm2.66-.37c0-.83-.46-1.49-1.28-1.49-.86,0-1.26.6-1.35,1.49h2.63Z"/>
      <path d="m24.67,21.26h.42v2.69c.2-.42.61-.81,1.44-.81.99,0,1.72.81,1.72,2.11s-.65,2.29-1.83,2.29c-.7,0-1.11-.29-1.33-.76,0,.27,0,.55-.02.66h-.41c0-.48,0-.96,0-1.43v-4.75Zm3.13,4c0-1.05-.52-1.72-1.32-1.72-1.05,0-1.42.71-1.42,1.81,0,.99.33,1.8,1.37,1.8.85,0,1.37-.7,1.37-1.89Z"/>
      <path d="m29.34,21.26h.42v.81h-.42v-.81Zm0,1.99h.42v4.2h-.42v-4.2Z"/>
      <path d="m31.25,25.4c0,1.08.55,1.75,1.36,1.75s1.06-.44,1.21-.79h.43c-.18.55-.62,1.18-1.65,1.18-1.28,0-1.77-1.1-1.77-2.16,0-1.2.6-2.23,1.82-2.23,1.29,0,1.7,1.12,1.7,1.91,0,.12,0,.23,0,.34h-3.09Zm2.66-.37c0-.83-.46-1.49-1.28-1.49-.86,0-1.26.6-1.35,1.49h2.63Z"/>
      <path d="m38.68,21.26v4.98c0,.4,0,.79,0,1.21h-.4c-.02-.1-.03-.5-.03-.7-.21.51-.68.81-1.41.81-1.09,0-1.75-.89-1.75-2.15s.71-2.25,1.85-2.25c.84,0,1.17.36,1.3.63v-2.52h.42Zm-3.13,4.12c0,1.15.6,1.77,1.32,1.77,1.11,0,1.41-.76,1.41-1.9s-.26-1.7-1.33-1.7c-.83,0-1.39.66-1.39,1.84Z"/>
      <path d="m40.18,25.4c0,1.08.55,1.75,1.36,1.75s1.06-.44,1.21-.79h.43c-.18.55-.62,1.18-1.65,1.18-1.28,0-1.77-1.1-1.77-2.16,0-1.2.6-2.23,1.82-2.23,1.29,0,1.7,1.12,1.7,1.91,0,.12,0,.23,0,.34h-3.09Zm2.66-.37c0-.83-.46-1.49-1.28-1.49-.86,0-1.26.6-1.35,1.49h2.63Z"/>
      <path d="m44.32,24.31c0-.37,0-.72,0-1.06h.41c.02.13.03.68.02.8.18-.43.53-.9,1.39-.9.75,0,1.41.42,1.41,1.58v2.72h-.42v-2.65c0-.75-.31-1.23-1.04-1.23-1,0-1.34.83-1.34,1.75v2.14h-.42v-3.14Z"/>
      <path d="m51.04,23.25c.68,1.92,1.15,3.23,1.31,3.77h0c.09-.31.56-1.56,1.38-3.77h.44l-1.59,4.2h-.5l-1.49-4.2h.44Z"/>
      <path d="m55.06,21.26h.42v.81h-.42v-.81Zm0,1.99h.42v4.2h-.42v-4.2Z"/>
      <path d="m59.7,26.65c0,.37.03.66.06.8h-.4c-.03-.1-.06-.29-.08-.65-.14.31-.51.75-1.38.75-.97,0-1.39-.63-1.39-1.26,0-.92.71-1.34,1.97-1.34h.8v-.43c0-.42-.13-.98-1.08-.98-.85,0-.97.44-1.07.79h-.42c.05-.46.34-1.17,1.49-1.17.96,0,1.49.4,1.49,1.33v2.17Zm-.41-1.34h-.82c-.93,0-1.51.24-1.51.97,0,.53.38.89.97.89,1.2,0,1.37-.8,1.37-1.7v-.15Z"/>
      <path d="m63.73,21.26v2.69c.23-.44.65-.81,1.39-.81.6,0,1.42.3,1.42,1.63v2.67h-.42v-2.58c0-.83-.38-1.3-1.07-1.3-.83,0-1.31.51-1.31,1.54v2.34h-.42v-6.19h.42Z"/>
      <path d="m68.03,25.4c0,1.08.55,1.75,1.36,1.75s1.06-.44,1.21-.79h.43c-.18.55-.62,1.18-1.65,1.18-1.28,0-1.77-1.1-1.77-2.16,0-1.2.6-2.23,1.82-2.23,1.29,0,1.7,1.12,1.7,1.91,0,.12,0,.23,0,.34h-3.09Zm2.66-.37c0-.83-.46-1.49-1.28-1.49-.86,0-1.26.6-1.35,1.49h2.63Z"/>
      <path d="m71.61,23.25h.78v-1.31h.42v1.31h1v.39h-1v2.73c0,.47.1.74.5.74.13,0,.3,0,.44-.05v.37c-.14.06-.34.08-.52.08-.54,0-.84-.27-.84-.94v-2.92h-.78v-.39Z"/>
      <path d="m80.3,25.34c0,1.17-.65,2.21-1.9,2.21-1.13,0-1.84-.93-1.84-2.2,0-1.2.66-2.2,1.88-2.2,1.12,0,1.85.87,1.85,2.19Zm-3.29,0c0,1,.54,1.8,1.43,1.8s1.42-.75,1.42-1.8c0-.99-.5-1.8-1.43-1.8s-1.41.8-1.41,1.8Z"/>
      <path d="m81.79,26.82v2.3h-.42v-4.84c0-.34,0-.71,0-1.03h.41c.02.16.02.41.02.76.26-.5.72-.86,1.48-.86.99,0,1.68.83,1.68,2.09,0,1.51-.81,2.31-1.82,2.31-.74,0-1.13-.33-1.33-.72Zm2.71-1.57c0-.97-.47-1.7-1.3-1.7-1.02,0-1.44.64-1.44,1.78s.33,1.82,1.38,1.82c.87,0,1.36-.74,1.36-1.9Z"/>
      <path d="m85.51,27.06l2.65-3.42h-2.52v-.39h3v.4l-2.62,3.4h2.71l-.1.39h-3.13v-.39Z"/>
      <path d="m89.7,25.4c0,1.08.55,1.75,1.36,1.75s1.06-.44,1.21-.79h.43c-.18.55-.62,1.18-1.65,1.18-1.28,0-1.77-1.1-1.77-2.16,0-1.2.6-2.23,1.82-2.23,1.29,0,1.7,1.12,1.7,1.91,0,.12,0,.23,0,.34h-3.09Zm2.66-.37c0-.83-.46-1.49-1.28-1.49-.86,0-1.26.6-1.35,1.49h2.64Z"/>
      <path d="m93.28,23.25h.78v-1.31h.42v1.31h1v.39h-1v2.73c0,.47.1.74.5.74.13,0,.3,0,.44-.05v.37c-.14.06-.34.08-.52.08-.54,0-.84-.27-.84-.94v-2.92h-.78v-.39Z"/>
      <path d="m95.77,23.25h.78v-1.31h.42v1.31h1v.39h-1v2.73c0,.47.1.74.5.74.13,0,.3,0,.44-.05v.37c-.14.06-.34.08-.52.08-.54,0-.84-.27-.84-.94v-2.92h-.78v-.39Z"/>
      <path d="m98.89,25.4c0,1.08.55,1.75,1.36,1.75s1.06-.44,1.21-.79h.43c-.18.55-.62,1.18-1.65,1.18-1.28,0-1.77-1.1-1.77-2.16,0-1.2.6-2.23,1.82-2.23,1.29,0,1.7,1.12,1.7,1.91,0,.12,0,.23,0,.34h-3.09Zm2.66-.37c0-.83-.46-1.49-1.28-1.49-.86,0-1.26.6-1.35,1.49h2.63Z"/>
      <path d="m103.03,24.31c0-.37,0-.72,0-1.06h.41c.02.13.03.68.02.8.18-.43.53-.9,1.39-.9.75,0,1.41.42,1.41,1.58v2.72h-.42v-2.65c0-.75-.31-1.23-1.04-1.23-1,0-1.34.83-1.34,1.75v2.14h-.42v-3.14Z"/>
      <path d="m109.76,23.25c.68,1.92,1.15,3.23,1.31,3.77h0c.09-.31.56-1.56,1.38-3.77h.44l-1.59,4.2h-.5l-1.49-4.2h.44Z"/>
      <path d="m116.55,26.65c0,.37.03.66.06.8h-.4c-.03-.1-.06-.29-.08-.65-.14.31-.51.75-1.38.75-.97,0-1.39-.63-1.39-1.26,0-.92.71-1.34,1.97-1.34h.8v-.43c0-.42-.13-.98-1.08-.98-.85,0-.97.44-1.07.79h-.42c.05-.46.34-1.17,1.49-1.17.96,0,1.49.4,1.49,1.33v2.17Zm-.41-1.34h-.82c-.93,0-1.51.24-1.51.97,0,.53.38.89.97.89,1.2,0,1.37-.8,1.37-1.7v-.15Z"/>
      <path d="m117.96,24.31c0-.37,0-.72,0-1.06h.41c.02.13.03.68.02.8.18-.43.53-.9,1.39-.9.75,0,1.41.42,1.41,1.58v2.72h-.42v-2.65c0-.75-.31-1.23-1.04-1.23-1,0-1.34.83-1.34,1.75v2.14h-.42v-3.14Z"/>
      <path d="m3.71,31.89v4.98c0,.4,0,.79,0,1.21h-.4c-.02-.1-.03-.5-.03-.7-.21.51-.68.81-1.41.81-1.09,0-1.75-.89-1.75-2.15s.71-2.25,1.85-2.25c.84,0,1.17.36,1.3.63v-2.52h.42Zm-3.13,4.12c0,1.15.6,1.77,1.32,1.77,1.11,0,1.41-.76,1.41-1.9s-.26-1.7-1.33-1.7c-.83,0-1.39.66-1.39,1.84Z"/>
      <path d="m8.25,36.85c0,.41,0,1.07,0,1.22h-.4c-.02-.11-.03-.39-.03-.73-.18.5-.6.83-1.35.83-.6,0-1.38-.23-1.38-1.52v-2.78h.41v2.68c0,.61.19,1.21,1.02,1.21.94,0,1.29-.53,1.29-1.73v-2.16h.42v2.97Z"/>
      <path d="m12.79,36.85c0,.41,0,1.07,0,1.22h-.4c-.02-.11-.03-.39-.03-.73-.18.5-.6.83-1.35.83-.6,0-1.38-.23-1.38-1.52v-2.78h.41v2.68c0,.61.19,1.21,1.02,1.21.94,0,1.29-.53,1.29-1.73v-2.16h.42v2.97Z"/>
      <path d="m14.19,35.02c0-.7,0-1.01,0-1.14h.41c0,.13.02.4.02.94.24-.63.78-1.01,1.46-1.04v.45c-.87.06-1.46.66-1.46,1.66v2.18h-.42v-3.05Z"/>
      <path d="m16.64,37.69l2.65-3.42h-2.52v-.39h3v.4l-2.62,3.4h2.71l-.1.39h-3.13v-.39Z"/>
      <path d="m23.64,37.28c0,.37.03.66.06.8h-.4c-.03-.1-.06-.29-.08-.65-.14.31-.51.75-1.38.75-.97,0-1.39-.63-1.39-1.26,0-.92.71-1.34,1.97-1.34h.8v-.43c0-.42-.13-.98-1.08-.98-.85,0-.97.44-1.07.79h-.42c.05-.46.34-1.17,1.49-1.17.96,0,1.49.4,1.49,1.33v2.17Zm-.41-1.34h-.82c-.93,0-1.51.24-1.51.97,0,.53.38.89.97.89,1.2,0,1.37-.8,1.37-1.7v-.15Z"/>
      <path d="m27.87,37.28c0,.37.03.66.06.8h-.4c-.03-.1-.06-.29-.08-.65-.14.31-.51.75-1.38.75-.97,0-1.39-.63-1.39-1.26,0-.92.71-1.34,1.97-1.34h.8v-.43c0-.42-.13-.98-1.08-.98-.85,0-.97.44-1.07.79h-.42c.05-.46.34-1.17,1.49-1.17.96,0,1.49.4,1.49,1.33v2.17Zm-.41-1.34h-.82c-.93,0-1.51.24-1.51.97,0,.53.38.89.97.89,1.2,0,1.37-.8,1.37-1.7v-.15Z"/>
      <path d="m29.28,34.96c0-.36,0-.76,0-1.08h.41c0,.14.03.5.02.75.18-.42.56-.85,1.26-.85.59,0,1.05.29,1.22.83.21-.44.63-.83,1.37-.83.65,0,1.32.37,1.32,1.54v2.76h-.42v-2.71c0-.56-.2-1.17-.98-1.17s-1.18.65-1.18,1.47v2.42h-.41v-2.7c0-.61-.18-1.18-.96-1.18-.81,0-1.21.72-1.21,1.58v2.31h-.42v-3.11Z"/>
      <path d="m38.89,37.46v2.3h-.42v-4.84c0-.34,0-.71,0-1.03h.41c.02.16.02.41.02.76.26-.5.72-.86,1.48-.86.99,0,1.68.83,1.68,2.09,0,1.51-.81,2.31-1.82,2.31-.74,0-1.13-.33-1.33-.72Zm2.71-1.57c0-.97-.47-1.7-1.3-1.7-1.02,0-1.44.64-1.44,1.78s.33,1.82,1.38,1.82c.87,0,1.36-.74,1.36-1.9Z"/>
      <path d="m46,37.28c0,.37.03.66.06.8h-.4c-.03-.1-.06-.29-.08-.65-.14.31-.51.75-1.38.75-.97,0-1.39-.63-1.39-1.26,0-.92.71-1.34,1.97-1.34h.8v-.43c0-.42-.13-.98-1.08-.98-.85,0-.97.44-1.07.79h-.42c.05-.46.34-1.17,1.49-1.17.96,0,1.49.4,1.49,1.33v2.17Zm-.41-1.34h-.82c-.93,0-1.51.24-1.51.97,0,.53.38.89.97.89,1.2,0,1.37-.8,1.37-1.7v-.15Z"/>
      <path d="m47.41,35.02c0-.7,0-1.01,0-1.14h.41c0,.13.02.4.02.94.24-.63.78-1.01,1.46-1.04v.45c-.87.06-1.46.66-1.46,1.66v2.18h-.42v-3.05Z"/>
      <path d="m49.78,33.88h.78v-1.31h.42v1.31h1v.39h-1v2.73c0,.47.1.74.5.74.13,0,.3,0,.44-.05v.37c-.14.06-.34.08-.52.08-.54,0-.84-.27-.84-.94v-2.92h-.78v-.39Z"/>
      <path d="m52.79,34.94c0-.37,0-.72,0-1.06h.41c.02.13.03.68.02.8.18-.43.53-.9,1.39-.9.75,0,1.41.42,1.41,1.58v2.72h-.42v-2.65c0-.75-.31-1.23-1.04-1.23-1,0-1.34.83-1.34,1.75v2.14h-.42v-3.14Z"/>
      <path d="m57.5,36.03c0,1.08.55,1.75,1.36,1.75s1.06-.44,1.21-.79h.43c-.18.55-.62,1.18-1.65,1.18-1.28,0-1.77-1.1-1.77-2.16,0-1.2.6-2.23,1.82-2.23,1.29,0,1.7,1.12,1.7,1.91,0,.12,0,.23,0,.34h-3.09Zm2.66-.37c0-.83-.46-1.49-1.28-1.49-.86,0-1.26.6-1.35,1.49h2.64Z"/>
      <path d="m61.65,35.02c0-.7,0-1.01,0-1.14h.41c0,.13.02.4.02.94.24-.63.78-1.01,1.46-1.04v.45c-.87.06-1.46.66-1.46,1.66v2.18h-.42v-3.05Z"/>
      <path d="m64.43,36.92c.14.55.53.87,1.19.87.75,0,1.05-.34,1.05-.81s-.2-.71-1.14-.94c-1.08-.26-1.35-.59-1.35-1.14s.44-1.12,1.38-1.12,1.4.58,1.47,1.17h-.42c-.08-.35-.35-.79-1.07-.79s-.94.36-.94.7c0,.39.2.58,1.03.78,1.18.29,1.48.67,1.48,1.3,0,.76-.62,1.23-1.5,1.23-.96,0-1.49-.5-1.61-1.26h.43Z"/>
      <path d="m71.27,36.84c-.2.74-.69,1.33-1.63,1.33-1.05,0-1.8-.78-1.8-2.18,0-1.15.61-2.22,1.85-2.22,1.07,0,1.5.76,1.58,1.34h-.43c-.13-.49-.44-.95-1.16-.95-.89,0-1.39.76-1.39,1.8s.47,1.8,1.35,1.8c.61,0,.98-.31,1.2-.94h.43Z"/>
      <path d="m72.69,31.89v2.69c.23-.44.65-.81,1.39-.81.6,0,1.42.3,1.42,1.63v2.67h-.42v-2.58c0-.83-.38-1.3-1.07-1.3-.83,0-1.31.51-1.31,1.54v2.34h-.42v-6.19h.42Z"/>
      <path d="m79.72,37.28c0,.37.03.66.06.8h-.4c-.03-.1-.06-.29-.08-.65-.14.31-.51.75-1.38.75-.97,0-1.39-.63-1.39-1.26,0-.92.71-1.34,1.97-1.34h.8v-.43c0-.42-.13-.98-1.08-.98-.85,0-.97.44-1.07.79h-.42c.05-.46.34-1.17,1.49-1.17.96,0,1.49.4,1.49,1.33v2.17Zm-.41-1.34h-.82c-.93,0-1.51.24-1.51.97,0,.53.38.89.97.89,1.2,0,1.37-.8,1.37-1.7v-.15Z"/>
      <path d="m81.55,37.46v2.3h-.42v-4.84c0-.34,0-.71,0-1.03h.41c.02.16.02.41.02.76.26-.5.72-.86,1.48-.86.99,0,1.68.83,1.68,2.09,0,1.51-.81,2.31-1.82,2.31-.74,0-1.13-.33-1.33-.72Zm2.71-1.57c0-.97-.47-1.7-1.3-1.7-1.02,0-1.44.64-1.44,1.78s.33,1.82,1.38,1.82c.87,0,1.36-.74,1.36-1.9Z"/>
      <path d="m86.2,37.46v2.3h-.42v-4.84c0-.34,0-.71,0-1.03h.41c.02.16.02.41.02.76.26-.5.72-.86,1.48-.86.99,0,1.68.83,1.68,2.09,0,1.51-.81,2.31-1.82,2.31-.74,0-1.13-.33-1.33-.72Zm2.71-1.57c0-.97-.47-1.7-1.3-1.7-1.02,0-1.44.64-1.44,1.78s.33,1.82,1.38,1.82c.87,0,1.36-.74,1.36-1.9Z"/>
      <path d="m90.57,36.03c0,1.08.55,1.75,1.36,1.75s1.06-.44,1.21-.79h.43c-.18.55-.62,1.18-1.65,1.18-1.28,0-1.77-1.1-1.77-2.16,0-1.2.6-2.23,1.82-2.23,1.29,0,1.7,1.12,1.7,1.91,0,.12,0,.23,0,.34h-3.09Zm2.66-.37c0-.83-.46-1.49-1.28-1.49-.86,0-1.26.6-1.35,1.49h2.64Z"/>
      <path d="m94.72,34.94c0-.37,0-.72,0-1.06h.41c.02.13.03.68.02.8.18-.43.53-.9,1.39-.9.75,0,1.41.42,1.41,1.58v2.72h-.42v-2.65c0-.75-.31-1.23-1.04-1.23-1,0-1.34.83-1.34,1.75v2.14h-.42v-3.14Z"/>
      <path d="m101.04,37.69l2.65-3.42h-2.52v-.39h3v.4l-2.62,3.4h2.71l-.1.39h-3.13v-.39Z"/>
      <path d="m108.54,35.97c0,1.17-.65,2.21-1.9,2.21-1.13,0-1.84-.93-1.84-2.2,0-1.2.66-2.2,1.88-2.2,1.12,0,1.85.87,1.85,2.19Zm-3.29,0c0,1,.54,1.8,1.43,1.8s1.42-.75,1.42-1.8c0-.99-.5-1.8-1.43-1.8s-1.41.8-1.41,1.8Z"/>
      <path d="m112.48,37.28c0,.37.03.66.06.8h-.4c-.03-.1-.06-.29-.08-.65-.14.31-.51.75-1.38.75-.97,0-1.39-.63-1.39-1.26,0-.92.71-1.34,1.97-1.34h.8v-.43c0-.42-.13-.98-1.08-.98-.85,0-.97.44-1.07.79h-.42c.05-.46.34-1.17,1.49-1.17.96,0,1.49.4,1.49,1.33v2.17Zm-.41-1.34h-.82c-.93,0-1.51.24-1.51.97,0,.53.38.89.97.89,1.2,0,1.37-.8,1.37-1.7v-.15Z"/>
      <path d="m113.89,38.08v-6.19h.42v6.19h-.42Z"/>
      <path d="m115.67,36.92c.14.55.53.87,1.19.87.75,0,1.05-.34,1.05-.81s-.2-.71-1.14-.94c-1.08-.26-1.35-.59-1.35-1.14s.44-1.12,1.38-1.12,1.4.58,1.47,1.17h-.42c-.08-.35-.35-.79-1.07-.79s-.94.36-.94.7c0,.39.2.58,1.03.78,1.18.29,1.48.67,1.48,1.3,0,.76-.62,1.23-1.5,1.23-.96,0-1.49-.5-1.61-1.26h.43Z"/>
      <path d="m.89,48.09v2.3h-.42v-4.84c0-.34,0-.71,0-1.03h.41c.02.16.02.41.02.76.26-.5.72-.86,1.48-.86.99,0,1.68.83,1.68,2.09,0,1.51-.81,2.31-1.82,2.31-.74,0-1.13-.33-1.33-.72Zm2.71-1.57c0-.97-.47-1.7-1.3-1.7-1.02,0-1.44.64-1.44,1.78s.33,1.82,1.38,1.82c.87,0,1.36-.74,1.36-1.9Z"/>
      <path d="m8.26,47.48c0,.41,0,1.07,0,1.22h-.4c-.02-.11-.03-.39-.03-.73-.18.5-.6.83-1.35.83-.6,0-1.38-.23-1.38-1.52v-2.78h.41v2.68c0,.61.19,1.21,1.02,1.21.94,0,1.29-.53,1.29-1.73v-2.16h.42v2.97Z"/>
      <path d="m9.66,42.52h.42v2.69c.2-.42.61-.81,1.44-.81.99,0,1.72.81,1.72,2.11s-.65,2.29-1.83,2.29c-.7,0-1.11-.29-1.33-.76,0,.27,0,.55-.02.66h-.41c0-.48,0-.96,0-1.43v-4.75Zm3.13,4c0-1.05-.52-1.72-1.32-1.72-1.05,0-1.42.71-1.42,1.81,0,.99.33,1.8,1.37,1.8.85,0,1.37-.7,1.37-1.89Z"/>
      <path d="m14.3,48.71v-6.19h.42v6.19h-.42Z"/>
      <path d="m16.12,42.52h.42v.81h-.42v-.81Zm0,1.99h.42v4.2h-.42v-4.2Z"/>
      <path d="m18.04,46.66c0,1.08.55,1.75,1.36,1.75s1.06-.44,1.21-.79h.43c-.18.55-.62,1.18-1.65,1.18-1.28,0-1.77-1.1-1.77-2.16,0-1.2.6-2.23,1.82-2.23,1.29,0,1.7,1.12,1.7,1.91,0,.12,0,.23,0,.34h-3.09Zm2.66-.37c0-.83-.46-1.49-1.28-1.49-.86,0-1.26.6-1.35,1.49h2.63Z"/>
      <path d="m22.63,46.68c.39-.41,1.56-1.6,2.12-2.17h.54l-1.66,1.67,1.87,2.53h-.52l-1.65-2.26-.7.67v1.59h-.42v-6.19h.42v4.15Z"/>
      <path d="m25.88,49.66c.41-.81.56-1.56.59-2.03h.42c-.06.7-.33,1.53-.63,2.03h-.38Z"/>
      <path d="m30.62,48.09v2.3h-.42v-4.84c0-.34,0-.71,0-1.03h.41c.02.16.02.41.02.76.26-.5.72-.86,1.48-.86.99,0,1.68.83,1.68,2.09,0,1.51-.81,2.31-1.82,2.31-.74,0-1.13-.33-1.33-.72Zm2.71-1.57c0-.97-.47-1.7-1.3-1.7-1.02,0-1.44.64-1.44,1.78s.33,1.82,1.38,1.82c.87,0,1.36-.74,1.36-1.9Z"/>
      <path d="m37.99,47.48c0,.41,0,1.07,0,1.22h-.4c-.02-.11-.03-.39-.03-.73-.18.5-.6.83-1.35.83-.6,0-1.38-.23-1.38-1.52v-2.78h.41v2.68c0,.61.19,1.21,1.02,1.21.94,0,1.29-.53,1.29-1.73v-2.16h.42v2.97Z"/>
      <path d="m39.39,42.52h.42v2.69c.2-.42.61-.81,1.44-.81.99,0,1.72.81,1.72,2.11s-.65,2.29-1.83,2.29c-.7,0-1.11-.29-1.33-.76,0,.27,0,.55-.02.66h-.41c0-.48,0-.96,0-1.43v-4.75Zm3.13,4c0-1.05-.52-1.72-1.32-1.72-1.05,0-1.42.71-1.42,1.81,0,.99.33,1.8,1.37,1.8.85,0,1.37-.7,1.37-1.89Z"/>
      <path d="m44.04,48.71v-6.19h.42v6.19h-.42Z"/>
      <path d="m45.86,42.52h.42v.81h-.42v-.81Zm0,1.99h.42v4.2h-.42v-4.2Z"/>
      <path d="m47.77,46.66c0,1.08.55,1.75,1.36,1.75s1.06-.44,1.21-.79h.43c-.18.55-.62,1.18-1.65,1.18-1.28,0-1.77-1.1-1.77-2.16,0-1.2.6-2.23,1.82-2.23,1.29,0,1.7,1.12,1.7,1.91,0,.12,0,.23,0,.34h-3.09Zm2.66-.37c0-.83-.46-1.49-1.28-1.49-.86,0-1.26.6-1.35,1.49h2.64Z"/>
      <path d="m52.37,46.68c.39-.41,1.56-1.6,2.12-2.17h.54l-1.66,1.67,1.87,2.53h-.52l-1.65-2.26-.7.67v1.59h-.42v-6.19h.42v4.15Z"/>
      <path d="m57.49,46.36v.41h-2.11v-.41h2.11Z"/>
      <path d="m59.04,48.09v2.3h-.42v-4.84c0-.34,0-.71,0-1.03h.41c.02.16.02.41.02.76.26-.5.72-.86,1.48-.86.99,0,1.68.83,1.68,2.09,0,1.51-.81,2.31-1.82,2.31-.74,0-1.13-.33-1.33-.72Zm2.71-1.57c0-.97-.47-1.7-1.3-1.7-1.02,0-1.44.64-1.44,1.78s.33,1.82,1.38,1.82c.87,0,1.36-.74,1.36-1.9Z"/>
      <path d="m63.27,45.65c0-.7,0-1.01,0-1.14h.41c0,.13.02.4.02.94.24-.63.78-1.01,1.46-1.04v.45c-.87.06-1.46.66-1.46,1.66v2.18h-.42v-3.05Z"/>
      <path d="m65.95,42.52h.42v.81h-.42v-.81Zm0,1.99h.42v4.2h-.42v-4.2Z"/>
      <path d="m67.7,44.51c.68,1.92,1.15,3.23,1.31,3.77h0c.09-.31.56-1.56,1.38-3.77h.44l-1.59,4.2h-.5l-1.49-4.2h.44Z"/>
      <path d="m74.49,47.91c0,.37.03.66.06.8h-.4c-.03-.1-.06-.29-.08-.65-.14.31-.51.75-1.38.75-.97,0-1.39-.63-1.39-1.26,0-.92.71-1.34,1.97-1.34h.8v-.43c0-.42-.13-.98-1.08-.98-.85,0-.97.44-1.07.79h-.42c.05-.46.34-1.17,1.49-1.17.96,0,1.49.4,1.49,1.33v2.17Zm-.41-1.34h-.82c-.93,0-1.51.24-1.51.97,0,.53.38.89.97.89,1.2,0,1.37-.8,1.37-1.7v-.15Z"/>
      <path d="m75.23,44.51h.78v-1.31h.42v1.31h1v.39h-1v2.73c0,.47.1.74.5.74.13,0,.3,0,.44-.05v.37c-.14.06-.34.08-.52.08-.54,0-.84-.27-.84-.94v-2.92h-.78v-.39Z"/>
      <path d="m78.35,46.66c0,1.08.55,1.75,1.36,1.75s1.06-.44,1.21-.79h.43c-.18.55-.62,1.18-1.65,1.18-1.28,0-1.77-1.1-1.77-2.16,0-1.2.6-2.23,1.82-2.23,1.29,0,1.7,1.12,1.7,1.91,0,.12,0,.23,0,.34h-3.09Zm2.66-.37c0-.83-.46-1.49-1.28-1.49-.86,0-1.26.6-1.35,1.49h2.64Z"/>
      <path d="m84.8,46.66c0,1.08.55,1.75,1.36,1.75s1.06-.44,1.21-.79h.43c-.18.55-.62,1.18-1.65,1.18-1.28,0-1.77-1.1-1.77-2.16,0-1.2.6-2.23,1.82-2.23,1.29,0,1.7,1.12,1.7,1.91,0,.12,0,.23,0,.34h-3.09Zm2.66-.37c0-.83-.46-1.49-1.28-1.49-.86,0-1.26.6-1.35,1.49h2.63Z"/>
      <path d="m88.94,45.57c0-.37,0-.72,0-1.06h.41c.02.13.03.68.02.8.18-.43.53-.9,1.39-.9.75,0,1.41.42,1.41,1.58v2.72h-.42v-2.65c0-.75-.31-1.23-1.04-1.23-1,0-1.34.83-1.34,1.75v2.14h-.42v-3.14Z"/>
      <path d="m96.19,48.09v2.3h-.42v-4.84c0-.34,0-.71,0-1.03h.41c.02.16.02.41.02.76.26-.5.72-.86,1.48-.86.99,0,1.68.83,1.68,2.09,0,1.51-.81,2.31-1.82,2.31-.74,0-1.13-.33-1.33-.72Zm2.71-1.57c0-.97-.47-1.7-1.3-1.7-1.02,0-1.44.64-1.44,1.78s.33,1.82,1.38,1.82c.87,0,1.36-.74,1.36-1.9Z"/>
      <path d="m100.42,45.65c0-.7,0-1.01,0-1.14h.41c0,.13.02.4.02.94.24-.63.78-1.01,1.46-1.04v.45c-.87.06-1.46.66-1.46,1.66v2.18h-.42v-3.05Z"/>
      <path d="m103.1,42.52h.42v.81h-.42v-.81Zm0,1.99h.42v4.2h-.42v-4.2Z"/>
      <path d="m104.86,44.51c.68,1.92,1.15,3.23,1.31,3.77h0c.09-.31.56-1.56,1.38-3.77h.44l-1.59,4.2h-.5l-1.49-4.2h.44Z"/>
      <path d="m111.65,47.91c0,.37.03.66.06.8h-.4c-.03-.1-.06-.29-.08-.65-.14.31-.51.75-1.38.75-.97,0-1.39-.63-1.39-1.26,0-.92.71-1.34,1.97-1.34h.8v-.43c0-.42-.13-.98-1.08-.98-.85,0-.97.44-1.07.79h-.42c.05-.46.34-1.17,1.49-1.17.96,0,1.49.4,1.49,1.33v2.17Zm-.41-1.34h-.82c-.93,0-1.51.24-1.51.97,0,.53.38.89.97.89,1.2,0,1.37-.8,1.37-1.7v-.15Z"/>
      <path d="m112.38,44.51h.78v-1.31h.42v1.31h1v.39h-1v2.73c0,.47.1.74.5.74.13,0,.3,0,.44-.05v.37c-.14.06-.34.08-.52.08-.54,0-.84-.27-.84-.94v-2.92h-.78v-.39Z"/>
      <path d="m115.51,46.66c0,1.08.55,1.75,1.36,1.75s1.06-.44,1.21-.79h.43c-.18.55-.62,1.18-1.65,1.18-1.28,0-1.77-1.1-1.77-2.16,0-1.2.6-2.23,1.82-2.23,1.29,0,1.7,1.12,1.7,1.91,0,.12,0,.23,0,.34h-3.09Zm2.66-.37c0-.83-.46-1.49-1.28-1.49-.86,0-1.26.6-1.35,1.49h2.63Z"/>
      <path d="m.47,53.15h.42v.81h-.42v-.81Zm0,1.99h.42v4.2h-.42v-4.2Z"/>
      <path d="m2.29,56.2c0-.37,0-.72,0-1.06h.41c.02.13.03.68.02.8.18-.43.53-.9,1.39-.9.75,0,1.41.42,1.41,1.58v2.72h-.42v-2.65c0-.75-.31-1.23-1.04-1.23-1,0-1.34.83-1.34,1.75v2.14h-.42v-3.14Z"/>
      <path d="m6.89,58.18c.14.55.53.87,1.19.87.75,0,1.05-.34,1.05-.81s-.2-.71-1.14-.94c-1.08-.26-1.35-.59-1.35-1.14s.44-1.12,1.38-1.12,1.4.58,1.47,1.17h-.42c-.08-.35-.35-.79-1.07-.79s-.94.36-.94.7c0,.39.2.58,1.03.78,1.18.29,1.48.67,1.48,1.3,0,.76-.62,1.23-1.5,1.23-.96,0-1.49-.5-1.61-1.26h.43Z"/>
      <path d="m9.99,55.14h.78v-1.31h.42v1.31h1v.39h-1v2.73c0,.47.1.74.5.74.13,0,.3,0,.44-.05v.37c-.14.06-.34.08-.52.08-.54,0-.84-.27-.84-.94v-2.92h-.78v-.39Z"/>
      <path d="m13.11,57.29c0,1.08.55,1.75,1.36,1.75s1.06-.44,1.21-.79h.43c-.18.55-.62,1.18-1.65,1.18-1.28,0-1.77-1.1-1.77-2.16,0-1.2.6-2.23,1.82-2.23,1.29,0,1.7,1.12,1.7,1.91,0,.12,0,.23,0,.34h-3.09Zm2.66-.37c0-.83-.46-1.49-1.28-1.49-.86,0-1.26.6-1.35,1.49h2.63Z"/>
      <path d="m17.29,59.34v-6.19h.42v6.19h-.42Z"/>
      <path d="m19.11,59.34v-6.19h.42v6.19h-.42Z"/>
      <path d="m20.93,53.15h.42v.81h-.42v-.81Zm0,1.99h.42v4.2h-.42v-4.2Z"/>
      <path d="m22.75,56.2c0-.37,0-.72,0-1.06h.41c.02.13.03.68.02.8.18-.43.53-.9,1.39-.9.75,0,1.41.42,1.41,1.58v2.72h-.42v-2.65c0-.75-.31-1.23-1.04-1.23-1,0-1.34.83-1.34,1.75v2.14h-.42v-3.14Z"/>
      <path d="m30.58,59.05c0,1.34-.6,2.05-1.81,2.05-1.09,0-1.54-.61-1.64-1.25h.43c.15.58.63.86,1.23.86,1.09,0,1.39-.71,1.39-1.77v-.44c-.23.55-.64.84-1.4.84-.98,0-1.74-.8-1.74-2.1,0-1.41.81-2.2,1.8-2.2.86,0,1.22.4,1.34.74,0-.24.02-.54.03-.64h.39c0,.15-.02.81-.02,1.22v2.69Zm-3.1-1.83c0,1,.53,1.72,1.33,1.72,1.05,0,1.37-.7,1.37-1.79s-.34-1.72-1.34-1.72-1.36.83-1.36,1.79Z"/>
      <path d="m32.08,57.29c0,1.08.55,1.75,1.36,1.75s1.06-.44,1.21-.79h.43c-.18.55-.62,1.18-1.65,1.18-1.28,0-1.77-1.1-1.77-2.16,0-1.2.6-2.23,1.82-2.23,1.29,0,1.7,1.12,1.7,1.91,0,.12,0,.23,0,.34h-3.09Zm2.66-.37c0-.83-.46-1.49-1.28-1.49-.86,0-1.26.6-1.35,1.49h2.64Z"/>
      <path d="m36.22,56.2c0-.37,0-.72,0-1.06h.41c.02.13.03.68.02.8.18-.43.53-.9,1.39-.9.75,0,1.41.42,1.41,1.58v2.72h-.42v-2.65c0-.75-.31-1.23-1.04-1.23-1,0-1.34.83-1.34,1.75v2.14h-.42v-3.14Z"/>
      <path d="m40.55,59.34v-1.08h.42v1.08h-.42Z"/>
    </g>
  </g>
</svg>