<?xml version="1.0" encoding="UTF-8"?>
<svg id="Layer_2" data-name="Layer 2" xmlns="http://www.w3.org/2000/svg" viewBox="0 0 77.54 38.73">
  <defs>
    <style>
      .cls-1 {
        fill: #fff;
      }
    </style>
  </defs>
  <g id="mobileversion">
    <g>
      <rect x="1.62" y="4.9" width="74.3" height="28.93" transform="translate(2.98 -5.08) rotate(7.79)"/>
      <g>
        <path class="cls-1" d="m28.5,10.77l-6.43,12.61-4.17-.72-2.02-14.07,4.31.74.86,7.63c.07.45.12.9.16,1.33l3.93-8.11,3.36.58Z"/>
        <path class="cls-1" d="m33.82,11.69l-2.3,13.32-4.09-.71,2.3-13.32,4.09.71Z"/>
        <path class="cls-1" d="m33.13,21.32l3.92-.03c.13,1.13.86,1.81,2.18,2.03,1.03.18,1.59,0,1.68-.55.05-.29-.03-.53-.24-.73-.21-.2-.61-.42-1.2-.64-2.26-.85-3.66-1.69-4.2-2.53-.54-.84-.72-1.74-.56-2.72.22-1.26.87-2.22,1.97-2.89,1.1-.67,2.54-.85,4.33-.54,2.71.47,4.32,1.87,4.81,4.2l-3.56.44c-.2-.95-.83-1.52-1.91-1.71-.89-.15-1.38.05-1.48.6-.04.25.03.46.2.63s.55.37,1.1.59c1.54.61,2.62,1.11,3.24,1.48s1.11.92,1.45,1.62c.34.71.44,1.48.29,2.34-.23,1.35-.97,2.35-2.21,2.99-1.24.65-2.74.82-4.52.51-3.25-.56-5.02-2.26-5.31-5.1Z"/>
        <path class="cls-1" d="m52.37,14.89l-2.3,13.32-4.09-.71,2.3-13.32,4.09.71Z"/>
        <path class="cls-1" d="m62.97,27.16l-.55,3.18-10.02-1.73,2.3-13.32,10.02,1.73-.53,3.07-6.01-1.04-.33,1.93,4.86.84-.51,2.96-4.86-.84-.38,2.18,6.01,1.04Z"/>
      </g>
    </g>
  </g>
</svg>