<?xml version="1.0" encoding="UTF-8"?>
<svg id="Layer_2" data-name="Layer 2" xmlns="http://www.w3.org/2000/svg" viewBox="0 0 472.5 362.35">
  <defs>
    <style>
      .cls-1, .cls-2 {
        fill: #fff;
      }

      .cls-3 {
        fill: #db7caa;
      }

      .cls-2 {
        opacity: .56;
      }

      .cls-4 {
        fill: #a54781;
      }

      .cls-5 {
        fill: #1e64c8;
      }

      .cls-6 {
        fill: #175299;
      }

      .cls-7 {
        opacity: .32;
      }

      .cls-8 {
        opacity: .55;
      }

      .cls-9 {
        fill: #9b9b3a;
      }

      .cls-10 {
        fill: #ffd200;
      }
    </style>
  </defs>
  <g id="missie-visie">
    <g>
      <g>
        <g>
          <g>
            <circle class="cls-10" cx="332.67" cy="192.35" r="139.83"/>
            <circle class="cls-3" cx="139.83" cy="192.35" r="139.83"/>
            <g class="cls-7">
              <path class="cls-4" d="m117.31,59.81c-21.4,26.94-44.16,55.54-50.84,89.93-2.48,15.13-2.36,30.7-.61,45.92,5.92,51.88,31.71,95.68,68.27,132.28-11.66-6.32-22.41-14.3-32.16-23.35-35.11-32.16-55.51-79.77-55.09-127.39.18-10.36,1.01-20.87,3.46-30.96,9.47-36.54,36.9-65.35,66.97-86.43h0Z"/>
            </g>
          </g>
          <g class="cls-8">
            <path class="cls-9" d="m372.04,62.53c28.53,22.99,54.09,53.33,61.31,90.29,2.87,16.96,2.15,34.48-.71,51.39-8.21,47-35.86,89.33-75.91,115.26-5.54,3.64-11.32,6.9-17.26,9.74,9.83-8.77,19.09-17.83,27.47-27.57,29.06-33.02,48.05-74.87,51.28-118.84.33-4.28.56-9.67.47-13.94.39-40.27-24.05-74.64-46.65-106.32h0Z"/>
          </g>
        </g>
        <circle class="cls-5" cx="241.57" cy="180.69" r="180.69"/>
        <g class="cls-8">
          <path class="cls-6" d="m181.55,351.25c50.4,3.08,101.93-6.71,144.38-34.53,39.44-25.66,67.41-63.52,83.68-107.54,4.94-13.2,8.92-26.88,11.89-41.12.97,7.23,1.14,14.59.85,21.92-1.52,37.24-15.12,74.14-38.25,103.51-18.72,23.88-43.72,42.96-71.7,54.71-41.06,17.19-89.26,19.34-130.84,3.06h0Z"/>
        </g>
        <path class="cls-2" d="m116.47,75.38c6.42-8.37,16.78-19.97,32.29-31.08,14.61-10.47,28.61-16.8,38.74-20.58,4.4,4.87,8.8,9.74,13.2,14.62-9.51,3.59-23.49,9.96-37.81,21.03-13.94,10.77-22.89,21.87-28.24,29.64-6.06-4.54-12.11-9.09-18.17-13.63Z"/>
      </g>
      <g>
        <rect x="157.75" y="90.43" width="158.48" height="61.7" transform="translate(-17.39 42.76) rotate(-9.95)"/>
        <g>
          <path class="cls-1" d="m198.39,110.74l3.31,28.65-8.16.94-2.36-20.48-2.93,21.09-5.58.64-7.87-19.85,2.36,20.48-6.59.76-3.31-28.65,11.49-1.33,5.91,14.74,2.21-15.67,11.53-1.33Z"/>
          <path class="cls-1" d="m212.18,109.15l3.31,28.65-8.79,1.02-3.31-28.65,8.79-1.02Z"/>
          <path class="cls-1" d="m216.56,129.27l8-2.41c.95,2.23,2.85,3.18,5.69,2.85,2.21-.25,3.25-.97,3.11-2.15-.07-.62-.38-1.07-.93-1.35-.55-.28-1.5-.48-2.84-.6-5.13-.38-8.5-1.27-10.11-2.66-1.61-1.39-2.53-3.13-2.77-5.23-.31-2.7.45-5.07,2.3-7.09s4.69-3.26,8.54-3.71c5.83-.67,9.96,1.23,12.37,5.7l-7.03,3.04c-.98-1.83-2.62-2.61-4.93-2.34-1.92.22-2.81.93-2.67,2.12.06.53.33.92.79,1.16s1.34.43,2.62.55c3.51.33,6.02.69,7.53,1.08,1.51.39,2.82,1.21,3.94,2.45,1.12,1.24,1.79,2.78,2,4.61.33,2.9-.57,5.38-2.71,7.45-2.14,2.07-5.12,3.33-8.94,3.77-6.98.81-11.63-1.61-13.94-7.24Z"/>
          <path class="cls-1" d="m242.67,126.26l7.99-2.41c.95,2.23,2.85,3.18,5.69,2.85,2.21-.26,3.25-.97,3.11-2.15-.07-.62-.38-1.07-.93-1.35-.55-.28-1.5-.48-2.84-.59-5.13-.38-8.5-1.27-10.11-2.66-1.61-1.39-2.53-3.13-2.77-5.23-.31-2.7.45-5.07,2.3-7.09,1.84-2.03,4.69-3.26,8.54-3.71,5.83-.67,9.96,1.23,12.38,5.7l-7.03,3.04c-.98-1.83-2.62-2.61-4.93-2.34-1.92.22-2.81.93-2.67,2.11.06.53.33.92.79,1.17.47.24,1.34.43,2.62.55,3.51.33,6.02.69,7.53,1.08,1.51.39,2.82,1.21,3.94,2.45,1.12,1.24,1.79,2.78,2,4.61.33,2.9-.57,5.38-2.71,7.45-2.14,2.07-5.12,3.33-8.94,3.77-6.98.81-11.63-1.61-13.93-7.24Z"/>
          <path class="cls-1" d="m278.18,101.53l3.31,28.65-8.79,1.01-3.31-28.65,8.79-1.01Z"/>
          <path class="cls-1" d="m307.25,120.27l.79,6.84-21.55,2.49-3.31-28.65,21.55-2.49.76,6.61-12.93,1.49.48,4.16,10.45-1.21.73,6.36-10.45,1.21.54,4.68,12.93-1.49Z"/>
        </g>
      </g>
      <g>
        <rect x="157.01" y="196.06" width="158.48" height="61.7" transform="translate(32.95 -29.94) rotate(7.79)"/>
        <g>
          <path class="cls-1" d="m214.35,208.58l-13.72,26.9-8.89-1.53-4.32-30.01,9.19,1.59,1.82,16.27c.15.97.26,1.92.35,2.85l8.39-17.29,7.17,1.24Z"/>
          <path class="cls-1" d="m225.69,210.54l-4.9,28.42-8.72-1.5,4.9-28.42,8.72,1.5Z"/>
          <path class="cls-1" d="m224.22,231.08l8.35-.06c.28,2.41,1.84,3.85,4.65,4.34,2.19.38,3.39-.02,3.59-1.18.1-.61-.07-1.13-.51-1.56-.45-.43-1.3-.89-2.56-1.37-4.82-1.81-7.8-3.61-8.95-5.4-1.15-1.79-1.54-3.72-1.18-5.8.46-2.68,1.86-4.73,4.2-6.16,2.34-1.43,5.42-1.81,9.24-1.15,5.79,1,9.21,3.98,10.27,8.95l-7.6.94c-.42-2.03-1.78-3.24-4.07-3.64-1.9-.33-2.95.1-3.16,1.28-.09.53.05.97.43,1.34s1.17.79,2.35,1.26c3.28,1.31,5.58,2.36,6.92,3.16s2.36,1.95,3.09,3.46c.73,1.5.93,3.17.62,4.99-.5,2.87-2.06,5-4.7,6.39-2.64,1.38-5.85,1.75-9.64,1.09-6.92-1.2-10.7-4.82-11.33-10.87Z"/>
          <path class="cls-1" d="m265.26,217.37l-4.9,28.42-8.72-1.51,4.9-28.42,8.72,1.51Z"/>
          <path class="cls-1" d="m287.87,243.54l-1.17,6.79-21.38-3.69,4.9-28.42,21.38,3.69-1.13,6.56-12.82-2.21-.71,4.12,10.37,1.79-1.09,6.31-10.37-1.79-.8,4.64,12.82,2.21Z"/>
        </g>
      </g>
    </g>
  </g>
</svg>