<?xml version="1.0" encoding="UTF-8"?>
<svg id="Layer_2" data-name="Layer 2" xmlns="http://www.w3.org/2000/svg" viewBox="0 0 58.930527202049234 47.727805260428795">
  <defs>
    <style>
      .cls-1 {
        fill: #1e64bb;
      }
    </style>
  </defs>
  <g id="Deelname">
    <g id="Upload">
      <g>
        <g>
          <path class="cls-1" d="m57.277288389029309,10.775417094788281h-14.93787893749959c-.913245596530032,0-1.653238813019925-.739993216489893-1.653238813019925-1.653238813019925s.739993216489893-1.653238813019925,1.653238813019925-1.653238813019925h14.93787893749959c.913245596530032,0,1.653238813019925.739993216489893,1.653238813019925,1.653238813019925s-.739993216489893,1.653238813019925-1.653238813019925,1.653238813019925Z"/>
          <path class="cls-1" d="m49.808348920279968,18.242888323018633c-.913245596530032,0-1.653238813019925-.739993216478979-1.653238813019925-1.653238813009011V1.653238813018106c0-.913245596530032.739993216489893-1.653238813018106,1.653238813019925-1.653238813018106s1.653238813019925.739993216488074,1.653238813019925,1.653238813018106v14.936410696991516c0,.913245596530032-.739993216489893,1.653238813009011-1.653238813019925,1.653238813009011Z"/>
        </g>
        <g>
          <path class="cls-1" d="m49.808223963639648,20.252070027288937c-.68787067842004,0-1.265256258539921-.366142476919777-1.62937990474984-.89158904902979v14.614498965409439l-12.00029673932022-14.027386291920266c-.985556441599329-1.152935859608988-2.763595697870187-1.141556995658902-3.734836794509647.025327148779979l-12.845269152189758,15.433777169380846-6.515317258230425-6.552023270940481c-.923890340210164-.930864482650577-2.412502686180233-.966285784919819-3.38044024166993-.081487348250448l-6.436582860929775,5.886910320419702V10.764483388869849h36.321333709049213c-.536274845869229-.36247187564004-.91067617563931-.94591394786039-.91067617563931-1.642227009211638,0-.696680121458485.37495191996004-1.280672783879709.911777356019229-1.642961129449759H3.266101012040053c-1.803733465179903,0-3.266101012040053,1.470993459850433-3.266101012040053,3.285188138661397v33.677583142709409c0,1.814561738940029,1.46236754686015,3.285738728849537,3.266101012040053,3.285738728849537h44.912743046849755c1.803916995239888,0,3.265733951910079-1.471176989909509,3.265733951910079-3.285738728849537v-25.091496176761211c-.36338952594997.530952474031437-.944078647219612.901499672470891-1.636354047160239.901499672470891Z"/>
          <path class="cls-1" d="m8.165803120289638,19.389295198248874c0,2.495641804989646,2.010571846870334,4.517408985730071,4.490797126520192,4.517408985730071,2.480959399899803,0,4.492081836960097-2.021767180740426,4.492081836960097-4.517408985730071,0-2.495274744869675-2.011122437060294-4.51777604587005-4.492081836960097-4.51777604587005-2.480225279649858,0-4.490797126520192,2.022501301000375-4.490797126520192,4.51777604587005Z"/>
        </g>
      </g>
    </g>
  </g>
</svg>