<?xml version="1.0" encoding="UTF-8"?>
<svg xmlns="http://www.w3.org/2000/svg" xmlns:xlink="http://www.w3.org/1999/xlink" viewBox="0 0 46.370576580269699 48.189382785059934">
  <defs>
    <style>
      .cls-1 {
        fill: #fff;
      }

      .cls-2 {
        isolation: isolate;
      }

      .cls-3 {
        fill: #1e64bb;
      }

      .cls-4 {
        fill: url(#radial-gradient);
        mix-blend-mode: multiply;
        opacity: .8;
      }
    </style>
    <radialGradient id="radial-gradient" cx="23.185288290134849" cy="25.004093909225048" fx="23.185288290134849" fy="25.004093909225048" r="23.185288582984871" gradientUnits="userSpaceOnUse">
      <stop offset="0" stop-color="#000057"/>
      <stop offset=".391750333822007" stop-color="#7474a4" stop-opacity=".541411535911595"/>
      <stop offset=".78602739886204" stop-color="#d8d8e5" stop-opacity=".149131841803957"/>
      <stop offset="1" stop-color="#fff" stop-opacity="0"/>
    </radialGradient>
  </defs>
  <g class="cls-2">
    <g id="Layer_2" data-name="Layer 2">
      <g id="Footer">
        <g>
          <circle class="cls-4" cx="23.185288290132576" cy="25.004093909227777" r="23.185288582982359"/>
          <g>
            <path class="cls-3" d="m33.301407006039881,15.767506175308881c0-8.708070986109306-7.059327172320081-15.767506175308881-15.767505776980215-15.767506175308881C8.825830462929844,0,1.766503290609762,7.059435189199576,1.766503290609762,15.767506175308881c0,7.870057591429941,5.765911601380139,14.393103818450982,13.303826259430025,15.575877066781686v-11.018080628011376h-4.003506175679831v-4.55779643877031h4.003506175679831v-3.473803304917965c0-3.951635932871795,2.353903251540032-6.134503920891802,5.955491772599999-6.134503920891802,1.725201125889726,0,3.529555747610175.307986907109807,3.529555747610175.307986907109807v3.880246810840617h-1.988219349789688c-1.958671587040953,0-2.569576973840412,1.21544832986001-2.569576973840412,2.462385517170333v2.95768799068901h4.373068887160116l-.699117320859841,4.55779643877031h-3.673951566300275v11.018080628011376c7.537914658039881-1.182773248330705,13.303826259420021-7.705819475351745,13.303826259420021-15.575877066781686Z"/>
            <path class="cls-1" d="m23.671532312920135,20.325302614079192l.699117320859841-4.55779643877031h-4.373068887160116v-2.95768799068901c0-1.246937187310323.610905386799459-2.462385517170333,2.569576973840412-2.462385517170333h1.988219349789688v-3.880246810840617s-1.804354621720449-.307986907109807-3.529555747610175-.307986907109807c-3.601588521059966,0-5.955491772599999,2.182867988020007-5.955491772599999,6.134503920891802v3.473803304917965h-4.003506175679831v4.55779643877031h4.003506175679831v11.018080628011376c.802750167580598.125955429799433,1.625450466959592.191629108529014,2.463571679019879.191629108529014.8382324526101,0,1.660929349960497-.065673678729581,2.463679517560195-.191629108529014v-11.018080628011376h3.673951566300275Z"/>
          </g>
        </g>
      </g>
    </g>
  </g>
</svg>