<?xml version="1.0" encoding="UTF-8"?>
<svg xmlns="http://www.w3.org/2000/svg" xmlns:xlink="http://www.w3.org/1999/xlink" viewBox="0 0 45.292191078379801 47.628837987040242">
  <defs>
    <style>
      .cls-1 {
        fill: #fff;
      }

      .cls-2 {
        isolation: isolate;
      }

      .cls-3 {
        fill: #1e64bb;
      }

      .cls-4 {
        fill: url(#radial-gradient);
        mix-blend-mode: multiply;
        opacity: .8;
      }
    </style>
    <radialGradient id="radial-gradient" cx="22.646095539189446" cy="24.982741875754073" fx="22.646095539189446" fy="24.982741875754073" r="22.64609582523827" gradientUnits="userSpaceOnUse">
      <stop offset="0" stop-color="#000057"/>
      <stop offset=".391750333822007" stop-color="#7474a4" stop-opacity=".541411535911595"/>
      <stop offset=".78602739886204" stop-color="#d8d8e5" stop-opacity=".149131841803957"/>
      <stop offset="1" stop-color="#fff" stop-opacity="0"/>
    </radialGradient>
  </defs>
  <g class="cls-2">
    <g id="Layer_2" data-name="Layer 2">
      <g id="Footer">
        <g>
          <circle class="cls-4" cx="22.646095539190128" cy="24.982741875757256" r="22.64609582523655"/>
          <circle class="cls-3" cx="16.550224933877644" cy="15.767506175309336" r="15.767465536705274"/>
          <g>
            <path class="cls-1" d="m21.444558413009872,9.802632298149547c-.598503953539876,0-1.083777429379552.485273488109669-1.083777429379552,1.083777456760799,0,.598611807199632.485273475839676,1.083885295309301,1.083777429379552,1.083885295309301.598611792090196,0,1.083885267930782-.485273488109669,1.083885267930782-1.083885295309301,0-.59850396865113-.485273475840586-1.083777456760799-1.083885267930782-1.083777456760799Z"/>
            <path class="cls-1" d="m16.626116313579587,11.192563406619229c-2.51048144834931,0-4.55294358888932,2.042354353579867-4.55294358888932,4.552835865350062,0,2.510373673210779,2.04246214054001,4.552835865340967,4.55294358888932,4.552835865340967,2.510373609790804,0,4.55283575032081-2.042462192130188,4.55283575032081-4.552835865340967,0-2.510481511770195-2.042462140530006-4.552835865350062-4.55283575032081-4.552835865350062Zm0,7.469221690260383c-1.608196298929215,0-2.916489123759675-1.30818948534943-2.916489123759675-2.916385824910321,0-1.608196339559072,1.30829282483046-2.916385824919416,2.916489123759675-2.916385824919416,1.608088460380714,0,2.91627791269093,1.308189485360344,2.91627791269093,2.916385824919416,0,1.608196339560891-1.308189452310216,2.916385824910321-2.91627791269093,2.916385824910321Z"/>
            <path class="cls-1" d="m20.240541000180201,24.989104350379421h-7.381009567529873c-3.061967793990334,0-5.553038303300127-2.491070572239551-5.553038303300127-5.553038443589685v-7.381333269649986c0-3.062075709900455,2.491070509309793-5.553038443589685,5.553038303300127-5.553038443589685h7.381009567529873c3.061967793990334,0,5.553361818960184,2.49096273368923,5.553361818960184,5.553038443589685v7.381333269649986c0,3.061967871350134-2.49139402496985,5.553038443589685-5.553361818960184,5.553038443589685Zm-7.381009567529873-16.748082136929952c-2.103067405730144,0-3.813818165900557,1.710642964830186-3.813818165900557,3.813710423690281v7.381333269649986c0,2.103067458860096,1.710750760170413,3.813818262240602,3.813818165900557,3.813818262240602h7.381009567529873c2.103067405740148,0,3.814038570390039-1.710750803380506,3.814038570390039-3.813818262240602v-7.381333269649986c0-2.103067458860096-1.710971164649891-3.813710423690281-3.814038570390039-3.813710423690281h-7.381009567529873Z"/>
          </g>
        </g>
      </g>
    </g>
  </g>
</svg>