<?xml version="1.0" encoding="UTF-8"?>
<svg xmlns="http://www.w3.org/2000/svg" xmlns:xlink="http://www.w3.org/1999/xlink" viewBox="0 0 46.370576580256056 48.638530357939089">
  <defs>
    <style>
      .cls-1 {
        fill: #fff;
      }

      .cls-2 {
        isolation: isolate;
      }

      .cls-3 {
        fill: #1e64bb;
      }

      .cls-4 {
        fill: url(#radial-gradient);
        mix-blend-mode: multiply;
        opacity: .8;
      }
    </style>
    <radialGradient id="radial-gradient" cx="23.185288290127573" cy="25.453241482104204" fx="23.185288290127573" fy="25.453241482104204" r="23.185288582981691" gradientUnits="userSpaceOnUse">
      <stop offset="0" stop-color="#000057"/>
      <stop offset=".391750333822007" stop-color="#7474a4" stop-opacity=".541411535911595"/>
      <stop offset=".78602739886204" stop-color="#d8d8e5" stop-opacity=".149131841803957"/>
      <stop offset="1" stop-color="#fff" stop-opacity="0"/>
    </radialGradient>
  </defs>
  <g class="cls-2">
    <g id="Layer_2" data-name="Layer 2">
      <g id="Footer">
        <g>
          <circle class="cls-4" cx="23.185288290127346" cy="25.453241482106932" r="23.185288582979744"/>
          <circle class="cls-3" cx="17.533928188687014" cy="15.767506175309336" r="15.767465536705274"/>
          <path class="cls-1" d="m10.921457008709694,12.830954540990206h3.053879902729932v9.809965319749608h-3.053879902729932v-9.809965319749608Zm1.527425224840044-4.874841784330783c.97658591049003,0,1.767905191760292.792289848230212,1.767905191760292,1.766719012330213,0,.975831065299644-.791319281270262,1.769307137610667-1.767905191760292,1.769307137610667-.979066197150132,0-1.770277639870073-.793476072311023-1.770277639870073-1.769307137610667,0-.974429164100002.791211442719941-1.766719012330213,1.770277639870073-1.766719012330213"/>
          <path class="cls-1" d="m15.888611808130008,12.830954540990206h2.924901657429473v1.34183511386982h.040008102130741c.40784539679953-.772016200289727,1.402440345165815-1.584687535019839,2.88748850691627-1.584687535019839,3.087198527608962,0,3.656478234050155,2.030384274199605,3.656478234050155,4.672428820520508v5.380388920379119h-3.047086074078834v-4.769375679590667c0-1.138559441629695-.022214741340576-2.601497250419925-1.58479533353966-2.601497250419925-1.587275620197943,0-1.829373165368452,1.239172811499884-1.829373165368452,2.518353726130954v4.852519203879638h-3.047621927539694v-9.809965319749608Z"/>
        </g>
      </g>
    </g>
  </g>
</svg>