<?xml version="1.0" encoding="UTF-8"?>
<svg id="logo" xmlns="http://www.w3.org/2000/svg" viewBox="0 0 62.538499999999658 47.771499999999833">
  <defs>
    <style>
      .cls-1 {
        fill: #1e64c8;
      }
    </style>
  </defs>
  <g>
    <rect class="cls-1" x="10.277299999999741" y="8.275899999999638" width="1.247100000000501" height="8.095699999999852"/>
    <rect class="cls-1" x="7.783199999999852" y="8.275899999999638" width="1.247000000000298" height="8.095699999999852"/>
    <rect class="cls-1" x="5.28899999999976" y="8.275899999999638" width="1.247100000000501" height="8.095699999999852"/>
    <rect class="cls-1" x="2.79489999999987" y="8.275899999999638" width="1.247100000000501" height="8.095699999999852"/>
    <rect class="cls-1" x="12.771499999999833" y="8.275899999999638" width="1.247000000000298" height="8.095699999999852"/>
    <rect class="cls-1" x="15.265599999999722" y="8.275899999999638" width="1.247100000000501" height="8.095699999999852"/>
    <rect class="cls-1" x="17.759699999999611" y="8.275899999999638" width="1.247100000000501" height="8.095699999999852"/>
    <rect class="cls-1" x="1.518000000000029" y="17.61869999999999" width="18.765699999999924" height="1.247999999999593"/>
    <polygon class="cls-1" points="19.006800000000112 7.028800000000047 2.79489999999987 7.028800000000047 1.547800000000279 5.781699999999546 20.253899999999703 5.781699999999546 19.006800000000112 7.028800000000047"/>
    <rect class="cls-1" x=".270999999999731" y="20.112799999999879" width="21.259700000000521" height="1.247999999999593"/>
  </g>
  <polygon class="cls-1" points="21.530700000000252 3.764599999999518 10.900800000000345 0 .270999999999731 3.764599999999518 .270999999999731 5.08889999999974 10.900800000000345 1.324700000000121 21.530700000000252 5.08889999999974 21.530700000000252 3.764599999999518"/>
  <path class="cls-1" d="m37.919399999999769,27.253899999999703c.550799999999981-.001499999999396,1.070300000000316.17870000000039,1.308600000000297.36620000000039v-1.123999999999796c-.238299999999981-.146500000000742-.824200000000019-.309600000000501-1.418000000000575-.309600000000501-1.65519999999924,0-2.566399999999703.941399999999703-2.566399999999703,2.306700000000092,0,1.138600000000224.48239999999987,1.685499999999593,1.25880000000052,2.355400000000373l.710000000000036.613299999999981c.585899999999128.490199999999277.949200000000019.868199999999888.949200000000019,1.601599999999962,0,.85739999999987-.566400000000613,1.197199999999611-1.417000000000371,1.197199999999611-.644500000000335,0-1.179699999999684-.17869999999948-1.488299999999981-.391599999999926v1.143600000000333c.271499999999833.156199999999444.836900000000242.317399999999907,1.599599999999555.315399999999499,1.651400000000649-.004399999999805,2.5625-.942399999999907,2.564500000000407-2.306599999999889.001400000000103-1.137700000000223-.48239999999987-1.685599999999795-1.25879999999961-2.354499999999462l-.709000000000742-.614300000000185c-.587899999999536-.502900000000409-.952099999999518-.86620000000039-.950199999999313-1.59860000000026.0024999999996-.861299999999574.564499999999498-1.198199999999815,1.416999999999462-1.200200000000223Z"/>
  <path class="cls-1" d="m.270999999999731,32.506800000000112v-6.158199999999852h1.248000000000502v6.212899999999536c0,1.302800000000389.447299999999814,1.681700000000092,1.356499999999869,1.681700000000092.909099999999853,0,1.356399999999667-.378899999999703,1.356399999999667-1.681700000000092v-6.212899999999536h1.248099999999795v6.158199999999852c0,2.007799999999406-.840899999999237,2.822299999999814-2.604499999999462,2.822299999999814-1.79110000000037,0-2.604500000000371-.787099999999555-2.604500000000371-2.822299999999814Z"/>
  <path class="cls-1" d="m7.094199999999546,26.34860000000026h1.4375l2.781300000000556,7.027399999999943c-.09479999999985-.718800000000556-.176800000000185-1.560600000000704-.176800000000185-2.347700000000259v-4.679699999999684h1.194300000000112v8.818400000000111h-1.438400000000001l-2.807700000000295-7.054700000000594c.108400000000074.718800000000556.203199999999924,1.574200000000019.203199999999924,2.375v4.679700000000594h-1.193400000000111v-8.818400000000111Z"/>
  <path class="cls-1" d="m14.097099999999955,26.34860000000026h1.248099999999795v8.818400000000111h-1.248099999999795v-8.818400000000111Z"/>
  <path class="cls-1" d="m16.504399999999805,26.34860000000026h1.302700000000186l1.112299999999777,4.585999999999331c.163099999999758.691400000000613.36620000000039,1.85740000000078.488299999999981,2.781200000000354.122100000000501-.923799999999574.325200000000223-2.089799999999741.515599999999722-2.781200000000354l1.09860000000026-4.585999999999331h1.261800000000221l-2.238299999999981,8.818400000000111h-1.302800000000389l-2.238199999999779-8.818400000000111Z"/>
  <path class="cls-1" d="m23.442799999999806,26.34860000000026h4.124099999999999v1.058599999999387h-2.876000000000204v2.699200000000019h2.320300000000316v1.045000000000073h-2.320300000000316v2.957000000000335h2.876000000000204v1.058600000000297h-4.124099999999999v-8.818400000000111Z"/>
  <path class="cls-1" d="m29.008299999999508,26.34860000000026h2.035100000000057c1.628000000000611,0,2.794000000000779.611399999999776,2.794000000000779,2.605499999999665,0,1.396499999999833-.677800000000389,2.074200000000019-1.53230000000076,2.386700000000019l1.872100000000501,3.826200000000426h-1.424799999999777l-1.655300000000352-3.595700000000761h-.840799999999945v3.595700000000761h-1.248000000000502v-8.818400000000111Zm1.248000000000502,1.058599999999387v3.10739999999987h.665100000000166c.97649999999976,0,1.627899999999499-.204999999999927,1.627899999999499-1.560499999999593,0-1.343700000000354-.65139999999974-1.546900000000278-1.627899999999499-1.546900000000278h-.665100000000166Z"/>
  <path class="cls-1" d="m40.901799999999639,26.34860000000026h1.248100000000704v8.818400000000111h-1.248100000000704v-8.818400000000111Z"/>
  <path class="cls-1" d="m43.334399999999732,26.34860000000026h5.059600000000501v1.058599999999387h-1.912100000000464v7.759800000000723h-1.247999999999593v-7.759800000000723h-1.899500000000444v-1.058599999999387Z"/>
  <path class="cls-1" d="m49.536600000000362,26.34860000000026h4.123999999999796v1.058599999999387h-2.876000000000204v2.699200000000019h2.320399999999609v1.045000000000073h-2.320399999999609v2.957000000000335h2.876000000000204v1.058600000000297h-4.123999999999796v-8.818400000000111Z"/>
  <path class="cls-1" d="m55.088300000000345,26.34860000000026h1.248099999999795v8.818400000000111h-1.248099999999795v-8.818400000000111Z"/>
  <path class="cls-1" d="m57.479000000000269,26.34860000000026h5.059499999999389v1.058599999999387h-1.912999999999556v7.759800000000723h-1.248099999999795v-7.759800000000723h-1.898400000000038v-1.058599999999387Z"/>
  <path class="cls-1" d="m0,43.200200000000223c0-3.472700000000259.922300000000178-4.572299999999814,3.214799999999741-4.572299999999814.650900000000547,0,1.342800000000352.176799999999275,1.641099999999824.353499999999258v1.152400000000853c-.325199999999313-.189500000000407-.949200000000019-.393600000001243-1.546399999999267-.393600000001243-1.46480000000065,0-2.02100000000064.543000000001484-2.02100000000064,3.460000000000946,0,2.888699999999517.393600000000333,3.485300000000279,1.668500000000677,3.485300000000279.393599999999424,0,.718799999999646-.05370000000039.962899999999536-.122000000001208v-2.943400000000111h-1.302300000000287v-1.057600000000093h2.550299999999879v4.760700000000725c-.257799999999406.163099999999758-1.288499999999658.448300000000017-2.197199999999611.448300000000017-2.387700000000223,0-2.970699999999852-1.248100000000704-2.970699999999852-4.57129999999961Z"/>
  <path class="cls-1" d="m6.657199999999648,38.791000000000167h4.124000000000706v1.058600000000297h-2.876000000000204v2.699199999999109h2.319899999999507v1.043999999999869h-2.319899999999507v2.958000000000538h2.876000000000204v1.057600000000093h-4.124000000000706v-8.817399999999907Z"/>
  <path class="cls-1" d="m12.222600000000057,38.791000000000167h1.438000000000102l2.780799999999545,7.026400000000649c-.09479999999985-.718800000000556-.176300000000083-1.559600000000501-.176300000000083-2.346700000000055v-4.679700000000594h1.193900000000212v8.817399999999907h-1.438000000000102l-2.808100000000195-7.05370000000039c.108400000000074.718699999999444.203600000000733,1.573200000000725.203600000000733,2.373999999999796v4.679700000000594h-1.193900000000212v-8.817399999999907Z"/>
  <path class="cls-1" d="m18.60149999999976,38.791000000000167h5.059600000000501v1.058600000000297h-1.912600000000566v7.75879999999961h-1.247999999999593v-7.75879999999961h-1.899000000000342v-1.058600000000297Z"/>
</svg>