<?xml version="1.0" encoding="UTF-8"?>
<svg id="Layer_2" data-name="Layer 2" xmlns="http://www.w3.org/2000/svg" viewBox="0 0 123.02653742926941 22.127768404938251">
  <defs>
    <style>
      .cls-1 {
        fill: #ff9f0e;
      }
    </style>
  </defs>
  <g id="Footer">
    <g>
      <g>
        <path class="cls-1" d="m26.150885549999657,12.92122330976963h4.227325188369832v1.085122804170169h-2.948057042140135v2.766929893539782h2.377511649350708v1.070054501489722h-2.377511649350708v3.032111519691171h2.948057042140135v1.084097749569992h-4.227325188369832v-9.038316468460835Z"/>
        <path class="cls-1" d="m32.05899277312983,12.92122330976963h1.47443854291032l2.849959316489731,7.202443672060326c-.097072671030219-.736706744159164-.18122965404018-1.598675160959829-.18122965404018-2.405495640050503v-4.796948032009823h1.224325219440288v9.038316468460835h-1.474541048370156l-2.877943307189526-7.230427662760121c.111115919109579.736809249608996.209213644739066,1.612718409040099.209213644739066,2.433479630750298v4.796948032009823h-1.224222713979543v-9.038316468460835Z"/>
        <path class="cls-1" d="m41.393550022249656,12.92122330976963h1.279268146239701l.736809249610815,4.449659532050646c.124134112589672.722663496069799.278302325089498,2.141134057588715.361331748039447,3.226256861760703.083131928409784-1.085122804171988.236275086300338-2.489550117610634.361434253500192-3.226256861760703l.75074999223034-4.449659532050646h1.307354642389328l.750749992240344,4.449659532050646c.12515916718985.722663496069799.264259077000133,2.127193314960095.347391005419922,3.198272871059089.083029422949949-1.071079556098994.25124088352004-2.47560937498929.375374996109713-3.198272871059089l.736706744150069-4.449659532050646h1.237343412920382l-1.723834328139674,9.038316468460835h-1.321295385020676l-.73680924961991-4.449557026600814c-.110090864499398-.667720569279481-.264259076999224-1.932945467438913-.347288499950082-2.976041032829016-.083131928419789,1.043095565390104-.222231838230073,2.308320463549535-.333347757339652,2.976041032829016l-.750852497690175,4.449557026600814h-1.307354642399332l-1.723731822690752-9.038316468460835Z"/>
        <path class="cls-1" d="m50.887298251430366,21.667296710529627v-1.126227493808983c.320329563859559.195272902130455,1.001068326619134.459531979129679,1.849916044489873.459531979129679,1.376443322729756,0,1.974050157069541-.556604650160807,1.974050157069541-2.100131873399732v-5.97924601268096h1.279268146229697v6.118345922490334c0,2.044061386541216-.958938582369228,3.087156951940415-3.114115888029119,3.087156951940415-1.070157006950467,0-1.75284337345056-.292243067709933-1.989118459759993-.459429473670752Zm0-8.746073400759997h1.279370651699537v5.3675959302509h-1.279370651699537v-5.3675959302509Z"/>
        <path class="cls-1" d="m63.260014842409873,12.92122330976963h1.765861566929743c1.779802309540173,0,3.017043217000719.459531979129679,3.017043217000719,2.475609374980195,0,1.042070510789927-.41637718029051,1.640702399730799-1.015009069230473,1.974050157070451.75074999223034.292243067700838,1.293311394319971.917936398200254,1.293311394319971,2.113150066879825,0,1.989015954299248-1.223197659380276,2.475506869530363-3.003102474390289,2.475506869530363h-2.058104634629672v-9.038316468460835Zm1.279370651699537,1.057138813470374v2.948057042140135h.444463676451051c1.015009069229563,0,1.73880012536938-.098097725649495,1.73880012536938-1.488584296450426,0-1.376340817269011-.723791056139817-1.459472745689709-1.73880012536938-1.459472745689709h-.444463676451051Zm0,3.976084304840697v2.948057042138316h.736706744150069c1.015111574690309,0,1.723834328150588-.083131928418879,1.723834328150588-1.459472745689709,0-1.390486570819121-.722766001529635-1.488584296448607-1.723834328150588-1.488584296448607h-.736706744150069Z"/>
        <path class="cls-1" d="m69.834817580219351,12.92122330976963h4.228350242970919v1.085122804170169h-2.949082096730308v2.766929893539782h2.378536703949976v1.070054501489722h-2.378536703949976v3.032111519691171h2.949082096730308v1.084097749569992h-4.228350242970919v-9.038316468460835Z"/>
        <path class="cls-1" d="m75.188370262399985,17.440894071300136c0-3.559604619100355.944895334289868-4.686754662050589,3.295345542090217-4.686754662050589.6666955146693,0,1.375418268129579.181127148600353,1.681704583909777.362356802641443v1.181170420608396c-.333347757339652-.194145342069532-.972981830460412-.403358986819512-1.585656967479736-.403358986819512-1.501499984469774,0-2.071122828110674.556502144710976-2.071122828110674,3.546586425620262,0,2.961075235609314.403461492280258,3.57272531803028,1.710816134680499,3.57272531803028.402436437670076,0,.736706744150069-.055045432260158.987025078529769-.12515916718985v-3.017043217010723h-1.335441138559872v-1.084200255030737h2.614709284799574v4.880079960430521c-.264259076999224.16718640596082-1.321295385019766.459429473670752-2.252249976700114.459429473670752-2.448547933419832,0-3.04512971315944-1.279268146239701-3.04512971315944-4.685832112900243Z"/>
        <path class="cls-1" d="m82.374717945690463,12.92122330976963h4.227325081569688v1.085122804170169h-2.948056967649791v2.766929893539782h2.377511589279493v1.070054501489722h-2.377511589279493v3.032111519691171h2.948056967649791v1.084097749569992h-4.227325081569688v-9.038316468460835Z"/>
        <path class="cls-1" d="m88.282825019569827,12.92122330976963h4.227325081579693v1.085122804170169h-2.948056967659795v2.766929893539782h2.377409083830571v1.070054501489722h-2.377409083830571v3.032111519691171h2.948056967659795v1.084097749569992h-4.227325081579693v-9.038316468460835Z"/>
        <path class="cls-1" d="m94.190829587990265,12.92122330976963h2.085166023519378c1.669711402850226,0,2.86492504134003.625693330501235,2.86492504134003,2.669754717040632,0,1.432513809590091-.694679487819485,2.12719331496919-1.571613679700022,2.44752287882875l1.92002973092076,3.921038872591453h-1.460497763390777l-1.696772843729377-3.684763786290205h-.861865889570254v3.684763786290205h-1.279370619389738v-9.038316468460835Zm1.279370619389738,1.085122804170169v3.184332128441383h.681661294680453c1.001068301319719,0,1.667763799149725-.20921364474998,1.667763799149725-1.59970021557092,0-1.37634081727083-.666695497830005-1.584631912870464-1.667763799149725-1.584631912870464h-.681661294680453Z"/>
        <path class="cls-1" d="m99.653447942079765,12.92122330976963h5.187391199769991v1.085122804170169h-1.961028764570074v7.953193664290666h-1.279268146239701v-7.953193664290666h-1.947094288960216v-1.085122804170169Z"/>
        <path class="cls-1" d="m105.909971067189872,12.92122330976963h4.227325081579693v1.085122804170169h-2.948056967659795v2.766929893539782h2.378434138399825v1.070054501489722h-2.378434138399825v3.032111519691171h2.948056967659795v1.084097749569992h-4.227325081579693v-9.038316468460835Z"/>
      </g>
      <g>
        <path class="cls-1" d="m26.150885549999657.167186405959001h4.088225278560458v1.085122804181083h-2.808957132330761v2.766827388079037h2.253377536761036v1.070054501491541h-2.253377536761036v4.116209269259343h-1.279268146229697V.167186405959001Z"/>
        <path class="cls-1" d="m32.504378998720313.167186405959001h1.321397890479602l2.405495640049594,9.038213963011003h-1.334416083959695l-.528518153999357-2.044061386550311h-2.461566126900834l-.514474905930001,2.044061386550311h-1.293413899779807L32.504378998720313.167186405959001Zm-.347288499950082,5.910054826901614h1.987990899689976l-.375374996120627-1.502525039080865c-.194247847519364-.750852497689266-.444463676450141-1.904961476739118-.597606834339786-2.906029803349156-.167186405969915,1.001068326610039-.431445482970048,2.15517730565989-.625693330499416,2.906029803349156l-.389315738730147,1.502525039080865Z"/>
        <path class="cls-1" d="m36.88289974124018,4.686754662039675c0-3.379400019650348.736809249609905-4.686754662039675,2.934013794049861-4.686754662039675.667720569279481,0,1.266352458220354.167186405959001,1.557570471320105.334372811939829v1.181170420599301c-.333245251879816-.180204599448189-.917936398200254-.361331748039447-1.47443854291032-.361331748039447-1.320372835869421,0-1.695747831990047.598529383491041-1.695747831990047,3.532543177539992,0,2.961075235609314.40243643768008,3.54566387648083,1.695747831990047,3.54566387648083.570545392790336,0,1.224222713990457-.195170396680624,1.557570471330109-.389418244210901v1.18127292607096c-.292345573169769.167186405969915-.987025078539773.348313554559354-1.612615903580263.348313554559354-2.377511649349799.014043248069356-2.962100290209492-1.307354642389328-2.962100290209492-4.685832112900243Z"/>
        <path class="cls-1" d="m42.701929719260079,6.479677670520687V.167186405959001h1.279268146239701v6.368561751420202c0,1.335338633100037.458506924520407,1.723731822690752,1.390486570810026,1.723731822690752.931877140819779,0,1.39038406535019-.388393189590715,1.39038406535019-1.723731822690752V.167186405959001h1.279370651689533v6.312491264561686c0,2.058104634639676-.861968416799755,2.892909104419232-2.669754717039723,2.892909104419232-1.834950247270172,0-2.669754717049727-.806820479090675-2.669754717049727-2.892909104419232Z"/>
        <path class="cls-1" d="m49.986377759660172.167186405959001h1.279370651699537v7.954116213441011h2.808854626860011v1.084097749569992h-4.088225278559548V.167186405959001Z"/>
        <path class="cls-1" d="m53.629114307169402.167186405959001h5.185341221600538v1.085122804181083h-1.960006908990181v7.95309115882992h-1.279268146239701V1.252309210140083h-1.946066166370656V.167186405959001Z"/>
        <path class="cls-1" d="m59.884612535720407.167186405959001h4.227325188369832v1.085122804181083h-2.948057042130131v2.766827388079037h2.377409143889963v1.070054501491541h-2.377409143889963v3.032111519689352h2.948057042130131v1.084097749569992h-4.227325188369832V.167186405959001Z"/>
        <path class="cls-1" d="m65.79261725339984.167186405959001h1.279370651700447v9.038213963011003h-1.279370651700447V.167186405959001Z"/>
        <path class="cls-1" d="m68.142042406580003.167186405959001h5.185341221609633v1.085122804181083h-1.960006908989271v7.95309115882992h-1.279268146240611V1.252309210140083h-1.946066166379751V.167186405959001Z"/>
        <path class="cls-1" d="m76.84906122691973.167186405959001h1.279268146240611v7.954116213441011h2.808954537149475v1.084097749569992h-4.088222683390086V.167186405959001Z"/>
        <path class="cls-1" d="m82.158533935090418.167186405959001h4.228350136159861v1.085122804181083h-2.949082022239963v2.766827388079037h2.378434138399825v1.070054501491541h-2.378434138399825v3.032111519689352h2.949082022239963v1.084097749569992h-4.228350136159861V.167186405959001Z"/>
        <path class="cls-1" d="m87.133636331659545.167186405959001h5.187288694310155v1.085122804181083h-1.961954463179609v7.95309115882992h-1.279370619380643V1.252309210140083h-1.945963611749903V.167186405959001Z"/>
        <path class="cls-1" d="m92.901515939210185.167186405959001h5.185341090609654v1.085122804181083h-1.960006859480018v7.95309115882992h-1.279268113919898V1.252309210140083h-1.946066117209739V.167186405959001Z"/>
        <path class="cls-1" d="m99.157936558859546.167186405959001h4.226402532450265v1.085122804181083h-2.947031913079627v2.766827388079037h2.376384029249493v1.070054501491541h-2.376384029249493v3.032111519689352h2.947031913079627v1.084097749569992h-4.226402532450265V.167186405959001Z"/>
        <path class="cls-1" d="m105.06604363273982.167186405959001h2.084144226289936c1.669708145490404,0,2.864921783980208.625590825051404,2.864921783980208,2.669754717051546,0,1.432411304129346-.694679487820395,2.12719331496919-1.571613679700022,2.44752287882875l1.92002973091985,3.920936367130707h-1.459469407140205l-1.697801199979949-3.684763786290205h-.860840834990086v3.684763786290205h-1.279370619379733V.167186405959001Zm1.279370619379733,1.085122804181083v3.184229622980638h.68063624009028c1.001068301330633,0,1.667763799169734-.209213644760894,1.667763799169734-1.599597710110174,0-1.376443322720661-.6666954978391-1.584631912870464-1.667763799169734-1.584631912870464h-.68063624009028Z"/>
        <path class="cls-1" d="m111.750937066180086.167186405959001h4.228350136159861v1.085122804181083h-2.949082022239963v2.766827388079037h2.378536643869666v1.070054501491541h-2.378536643869666v3.032111519689352h2.949082022239963v1.084097749569992h-4.228350136159861V.167186405959001Z"/>
        <path class="cls-1" d="m117.65904766290987.167186405959001h1.475460037389894l2.848934189930333,7.202341166610495c-.096043984350217-.736706744159164-.180204594899806-1.598572655499083-.180204594899806-2.405393134589758V.167186405959001h1.223300133939119v9.038213963011003h-1.473515956539813l-2.878968289070144-7.230427662749207c.112140970880318.736809249599901.210238694040527,1.612718409029185.210238694040527,2.43358213620013v4.796845526549077h-1.225244214790109V.167186405959001Z"/>
      </g>
      <path class="cls-1" d="m60.208939812539938,13.851255352299631c.564600076079842-.002050109209449,1.09711594304008.18420231240998,1.341386455260363.376400050719894v-1.15318642991042c-.244270512220282-.150170499538945-.844952510370604-.316331850899587-1.453527428980124-.316331850899587-1.696772886590225,0-2.630700136620362.964986404549563-2.630700136620362,2.36439095040987,0,1.16722967799069.494486341140146,1.727832041100555,1.290338735970181,2.414516120559711l.727686263629948.62866598886103c.600681998150321.50248176706009.973084335920248.888824847430442.973084335920248,1.641624948879326,0,.878881817779984-.580590927910634,1.227297877790988-1.452502374379947,1.227297877790988-.660750197970629,0-1.209256916759841-.184202312400885-1.525588767670342-.402436437660072v1.173174994679357c.278302325090408.160216034670157.857868198389951.324327276810436,1.639677345139717.322379673079922,1.692775173630253-.003997712959972,2.62670242366039-.964986404549563,2.628650027410004-2.364390950418965.002050109210359-1.165282074231072-.494486341139236-1.727832041100555-1.290236230499431-2.412568516820102l-.726763714490517-.630613592591544c-.602629601899935-.514474905929092-.976056994270039-.886877243698109-.97400688505968-1.637729741389194.001947603749613-.882879530730861.578540818700276-1.229245481539692,1.452502374369942-1.231193085290215Z"/>
      <path class="cls-1" d="m8.979683345100057,15.507948603861223l-8.979683345100057-.001025054600177V.167186405959001h8.978658290489875c.768380931430329,0,1.449017188720063.345340896210473,1.91797967022012.881854476141598.469064986949888-.536513579931125,1.149701244249627-.881854476141598,1.917979670210116-.881854476141598h8.977735741349534v15.339737143302045l-8.978658290489875.001025054600177c-.764793240319705,0-1.449529716030156.334372811939829-1.917057121069774.864838569697895-.469475008800146-.530465757758066-1.152161375300238-.864838569697895-1.916954615609939-.864838569697895Zm1.277833069790177-12.784173509171524c0-.705750095099575-.572595502000695-1.278345597080261-1.278858124400358-1.278345597080261l-7.701337747999787-.000922549159441v12.78509605832005l7.702362802609969-.001025054609272c.465477295840174.001025054609272.899895437160012.126184221799122,1.277320542490088.342368237859773l.000512527300089-11.84717109533085Zm1.278858124399449,11.84717109533085c.374349941510445-.216184016060652.811843246649914-.341343183250501,1.277320542490088-.341343183250501h7.701337747999787V1.444506948449998l-7.700415198859446.000922549159441c-.705647589639739,0-1.279780673540699.572595501980686-1.279780673540699,1.278345597080261l.00153758191027,11.84717109533085Z"/>
      <path class="cls-1" d="m8.980708399700234,16.784244091750224c.7647932403097,0,1.447479606809793.334372811928915,1.916954615609939.864941075149545.467527405049623-.53056826322063,1.152161375300238-.863916020549368,1.916954615609939-.863916020549368h8.979785850559892l-1.279370651700447,1.277320542489178-7.700415198859446.001025054611091c-.7647932403097,0-1.449427210560316.334270306479084-1.916954615609939.8648385696888-.469475008800146-.530568263209716-1.152161375300238-.8648385696888-1.916954615609939-.8648385696888l-7.701440253460532-.001025054611091-1.279268146239701-1.277320542489178,8.980708399700234-.001025054600177Z"/>
      <rect class="cls-1" x="2.555563634129612" y="4.001095637180697" width="6.423607183670356" height="1.279268146248796"/>
      <rect class="cls-1" x="2.555563634129612" y="6.557684325920491" width="6.423607183670356" height="1.279370651689533"/>
      <rect class="cls-1" x="2.555563634129612" y="9.114375520099202" width="6.423607183670356" height="1.279268146250615"/>
    </g>
  </g>
</svg>